<?xml version="1.0" encoding="UTF-8"?><svg id="e" xmlns="http://www.w3.org/2000/svg" width="25.93cm" height="30.06cm" xmlns:xlink="http://www.w3.org/1999/xlink" viewBox="0 0 735 852"><defs><clipPath id="f"><polygon points="1201 7.15 1559.7 214.25 1559.7 636.45 1201 844.85 834.3 636.45 834.3 214.25 1201 7.15" fill="none"/></clipPath><clipPath id="g"><polygon points="369.5 7.15 728.2 214.25 728.2 636.45 369.5 844.85 2.8 636.45 2.8 214.25 369.5 7.15" fill="none"/></clipPath></defs><g clip-path="url(#f)"><g isolation="isolate"><rect x="706.1" y="248.4" width="939.21" height="416.86" fill="none"/></g></g><g><path d="M163,523.58l.9-.9h-.3l-.6,.9Z" fill="#dea449"/><path d="M361.9,454.88l.9-.9h-.3l-.6,.9Z" fill="#dea449"/><path d="M163.4,673.75l.9-.9h-.3l-.6,.9Z" fill="#dea449"/><path d="M362.3,605.05l.9-.9h-.3l-.6,.9Z" fill="#dea449"/><path d="M168.6,523.58l.9-.9h-.3l-.6,.9Z" fill="#dea449"/><path d="M367.5,454.88l.9-.9h-.3l-.6,.9Z" fill="#dea449"/><path d="M169,673.75l.9-.9h-.3l-.6,.9Z" fill="#dea449"/><path d="M367.9,605.05l.9-.9h-.3l-.6,.9Z" fill="#dea449"/><path d="M168.1,673.75l.9-.9h-.3l-.6,.9Z" fill="#dea449"/><g clip-path="url(#g)"><circle cx="365.5" cy="437.25" r="442.1" fill="#fbf2e6"/><g isolation="isolate"><g isolation="isolate"><path d="M-82.71,650.86c22.64-.01,44.68-6.12,65.02-14.36,23.58-9.6,45.48-22.06,66.73-35.04,87.13-53.13,178.54-129.71,290.88-131.85,116.18-1.8,210.05,77.34,299.44,131.85,38.07,22.99,83.94,49.12,131.75,49.4v190.29l-853.82-3.07v-187.22Z" fill="#04a3bd" opacity=".8"/><path d="M213.31,616.12c36.26-1.95,73.69-7.94,104.37-26.98,59.23-35.98,95.68-114.64,123.2-173.47,20.06-43.56,37.93-88.11,59.88-130.91,10.17-18.78,28.85-55.41,51.34-61.56,21.61-5.14,36.35,21.25,44.48,35.92,17.23,33.46,28.24,69.5,39.36,105.01,18.21,58.94,33.15,119.02,54.76,177.02,9.03,22.61,22.17,57.37,44.48,70.74,10.58,6.38,23.78,6.03,35.93,5.99v203.27l-853.82-3.28v-199.99c63.21-.09,183.09,.24,244.68-.25,15.96-.19,31.98-.48,47.91-1.31" fill="#931e18" opacity=".8"/></g><rect x="-125.4" y="248.4" width="939.21" height="416.86" fill="none"/></g></g><path d="M705.6,196.95L427.8,36.65,367.5,1.75l-60.3,34.9L29.4,197.05,.1,213.95v424.2l29.3,16.9,281.2,162.4,56.9,32.8,56.9-32.8,281.2-162.4,29.3-16.9V213.95l-29.3-17Zm0,425.3l-338.1,195.2L29.4,622.25V231.85L367.5,36.65h0l338.1,195.2v390.4Z" fill="#20235b"/><path d="M367,605.05l.9-.9h-.3l-.6,.9Z" fill="#dea449"/></g></svg>