<?xml version="1.0" encoding="UTF-8"?><svg id="e" xmlns="http://www.w3.org/2000/svg" width="25.93cm" height="30.06cm" xmlns:xlink="http://www.w3.org/1999/xlink" viewBox="0 0 735 852"><defs><clipPath id="f"><polygon points="1203.5 7.15 1562.2 214.25 1562.2 636.45 1203.5 844.85 836.8 636.45 836.8 214.25 1203.5 7.15" fill="none"/></clipPath><clipPath id="g"><polygon points="369.5 7.15 728.2 214.25 728.2 636.45 369.5 844.85 2.8 636.45 2.8 214.25 369.5 7.15" fill="none"/></clipPath></defs><g clip-path="url(#f)"><g isolation="isolate"><rect x="708.6" y="248.4" width="939.21" height="416.86" fill="none"/></g></g><g><g><path d="M163,523.58l.9-.9h-.3l-.6,.9Z" fill="#dea449"/><path d="M361.9,454.88l.9-.9h-.3l-.6,.9Z" fill="#dea449"/><path d="M163.4,673.75l.9-.9h-.3l-.6,.9Z" fill="#dea449"/><path d="M362.3,605.05l.9-.9h-.3l-.6,.9Z" fill="#dea449"/><path d="M168.6,523.58l.9-.9h-.3l-.6,.9Z" fill="#dea449"/><path d="M367.5,454.88l.9-.9h-.3l-.6,.9Z" fill="#dea449"/><path d="M169,673.75l.9-.9h-.3l-.6,.9Z" fill="#dea449"/><path d="M367.9,605.05l.9-.9h-.3l-.6,.9Z" fill="#dea449"/><path d="M168.1,673.75l.9-.9h-.3l-.6,.9Z" fill="#dea449"/><g clip-path="url(#g)"><circle cx="365.5" cy="437.25" r="442.1" fill="#fbf2e6"/><g isolation="isolate"><g isolation="isolate"><path d="M-82.71,650.86c22.64-.01,44.68-6.12,65.02-14.36,23.58-9.6,45.48-22.06,66.73-35.04,87.13-53.13,178.54-129.71,290.88-131.85,116.18-1.8,210.05,77.34,299.44,131.85,38.07,22.99,83.94,49.12,131.75,49.4v190.29l-853.82-3.07v-187.22Z" fill="#04a3bd" opacity=".8"/><path d="M213.31,616.12c36.26-1.95,73.69-7.94,104.37-26.98,59.23-35.98,95.68-114.64,123.2-173.47,20.06-43.56,37.93-88.11,59.88-130.91,10.17-18.78,28.85-55.41,51.34-61.56,21.61-5.14,36.35,21.25,44.48,35.92,17.23,33.46,28.24,69.5,39.36,105.01,18.21,58.94,33.15,119.02,54.76,177.02,9.03,22.61,22.17,57.37,44.48,70.74,10.58,6.38,23.78,6.03,35.93,5.99v203.27l-853.82-3.28v-199.99c63.21-.09,183.09,.24,244.68-.25,15.96-.19,31.98-.48,47.91-1.31" fill="#931e18" opacity=".8"/></g><rect x="-125.4" y="248.4" width="939.21" height="416.86" fill="none"/></g></g><path d="M705.6,196.95L427.8,36.65,367.5,1.75l-60.3,34.9L29.4,197.05,.1,213.95v424.2l29.3,16.9,281.2,162.4,56.9,32.8,56.9-32.8,281.2-162.4,29.3-16.9V213.95l-29.3-17Zm0,425.3l-338.1,195.2L29.4,622.25V231.85L367.5,36.65h0l338.1,195.2v390.4Z" fill="#20235b"/><path d="M367,605.05l.9-.9h-.3l-.6,.9Z" fill="#dea449"/></g><g><path d="M132.27,260.41c0,2.24-.47,4.17-1.4,5.78-.93,1.61-2.22,2.93-3.85,3.96-1.63,1.03-3.54,1.78-5.71,2.27-2.17,.49-4.47,.73-6.89,.73h-24.43v-49.7h28.84c1.73,0,3.29,.37,4.69,1.12,1.4,.75,2.59,1.71,3.57,2.91,.98,1.19,1.74,2.54,2.27,4.06,.54,1.52,.81,3.07,.81,4.66,0,2.33-.59,4.56-1.79,6.69-1.19,2.12-2.97,3.72-5.36,4.79,2.85,.84,5.1,2.3,6.76,4.38,1.66,2.08,2.48,4.86,2.48,8.36Zm-28.63-25.34v7.63h9.31c.93,0,1.78-.26,2.55-.77,.77-.51,1.16-1.54,1.16-3.08,0-1.35-.33-2.32-.98-2.91-.65-.58-1.42-.88-2.31-.88h-9.73Zm14.77,22.54c0-1.21-.33-2.23-.98-3.04-.65-.82-1.49-1.23-2.52-1.23h-11.27v8.33h10.78c1.12,0,2.06-.35,2.83-1.05,.77-.7,1.16-1.7,1.16-3.01Z" fill="#da7901"/><path d="M148.23,273.85c-1.82,0-3.52-.3-5.11-.91-1.59-.61-2.95-1.44-4.09-2.48-1.14-1.05-2.04-2.3-2.7-3.75-.65-1.45-.98-3.01-.98-4.69,0-1.87,.4-3.57,1.19-5.11,.79-1.54,1.89-2.87,3.29-3.99,1.4-1.12,3.07-1.98,5.01-2.59,1.94-.61,4.07-.91,6.4-.91,2.99,0,5.46,.47,7.42,1.4v-1.12c0-1.73-.5-3.01-1.5-3.85-1-.84-2.62-1.26-4.87-1.26-2.1,0-4.04,.34-5.81,1.02-1.77,.68-3.64,1.67-5.6,2.98l-3.85-8.26c4.85-3.13,10.38-4.69,16.59-4.69,5.88,0,10.41,1.31,13.58,3.92,3.17,2.61,4.76,6.53,4.76,11.76v7.14c0,1.26,.19,2.14,.56,2.62,.37,.49,1.03,.78,1.96,.88v11.2c-1.07,.23-2.09,.41-3.04,.52-.96,.12-1.81,.18-2.55,.18-2.38,0-4.19-.43-5.43-1.3-1.24-.86-2.04-2.13-2.42-3.81l-.28-1.33c-1.63,2.1-3.52,3.7-5.67,4.8-2.15,1.1-4.43,1.65-6.86,1.65Zm3.99-9.52c.79,0,1.61-.13,2.45-.39,.84-.26,1.59-.59,2.24-1.02,.51-.37,.93-.78,1.26-1.22,.33-.44,.49-.9,.49-1.37v-2.73c-.79-.28-1.66-.51-2.59-.7-.93-.19-1.77-.28-2.52-.28-1.63,0-2.99,.4-4.06,1.19-1.07,.79-1.61,1.8-1.61,3.01,0,1.03,.41,1.87,1.22,2.52,.82,.65,1.86,.98,3.12,.98Z" fill="#da7901"/><path d="M177.35,276.86c2.15,.79,3.97,1.19,5.46,1.19,2.85,0,4.41-1.63,4.69-4.9l-13.37-36.82h13.65l7,25.55,5.67-25.55h12.39l-12.46,41.23c-.56,1.82-1.35,3.46-2.38,4.94-1.03,1.47-2.25,2.73-3.68,3.78-1.42,1.05-3,1.85-4.72,2.42-1.73,.56-3.52,.84-5.39,.84-2.38,0-4.67-.44-6.86-1.33v-11.34Z" fill="#da7901"/><path d="M233.49,273.85c-3.22,0-6.09-.5-8.61-1.51-2.52-1-4.63-2.37-6.33-4.09-1.7-1.73-3-3.71-3.88-5.95-.89-2.24-1.33-4.6-1.33-7.07,0-2.66,.43-5.18,1.29-7.56,.86-2.38,2.15-4.46,3.85-6.23,1.7-1.77,3.8-3.19,6.3-4.23,2.5-1.05,5.4-1.58,8.71-1.58s6.16,.52,8.68,1.58c2.52,1.05,4.63,2.45,6.33,4.2,1.7,1.75,2.99,3.78,3.85,6.09,.86,2.31,1.29,4.72,1.29,7.24,0,.7-.04,1.41-.11,2.14-.07,.72-.15,1.36-.25,1.92h-25.83c.14,1.96,.86,3.37,2.17,4.23,1.31,.86,2.73,1.3,4.27,1.3,1.45,0,2.81-.33,4.09-.98,1.28-.65,2.13-1.56,2.55-2.73l11.27,3.22c-1.49,2.94-3.79,5.34-6.9,7.21-3.1,1.87-6.92,2.8-11.44,2.8Zm5.88-23.03c-.23-1.77-.89-3.17-1.96-4.2-1.07-1.03-2.45-1.54-4.13-1.54s-3.06,.51-4.13,1.54c-1.07,1.03-1.73,2.43-1.96,4.2h12.18Z" fill="#da7901"/><path d="M273.18,273.85c-3.22,0-6.37-.53-9.45-1.58s-5.69-2.58-7.84-4.58l4.55-7.98c2.29,1.54,4.49,2.73,6.62,3.57,2.12,.84,4.07,1.26,5.84,1.26,1.87,0,2.8-.58,2.8-1.75,0-.65-.36-1.21-1.08-1.68-.72-.47-2.14-1-4.24-1.61-2.61-.75-4.79-1.48-6.54-2.21-1.75-.72-3.17-1.5-4.27-2.35-1.1-.84-1.88-1.77-2.34-2.8-.47-1.03-.7-2.24-.7-3.64,0-1.87,.37-3.59,1.12-5.18,.75-1.59,1.79-2.96,3.12-4.13,1.33-1.17,2.92-2.06,4.76-2.69,1.84-.63,3.86-.94,6.06-.94,2.71,0,5.28,.35,7.73,1.05s4.91,2.12,7.38,4.27l-5.04,7.98c-2.29-1.49-4.2-2.56-5.74-3.19s-2.99-.94-4.34-.94c-.79,0-1.45,.15-1.96,.46-.51,.3-.77,.78-.77,1.44,0,.7,.37,1.27,1.12,1.71,.75,.44,2.22,.94,4.41,1.5,2.66,.7,4.9,1.44,6.72,2.21s3.28,1.61,4.38,2.52c1.1,.91,1.88,1.94,2.34,3.08,.47,1.14,.7,2.46,.7,3.96,0,1.91-.35,3.62-1.05,5.11-.7,1.49-1.71,2.78-3.04,3.85-1.33,1.07-2.94,1.89-4.83,2.45s-4.03,.84-6.41,.84Z" fill="#da7901"/><path d="M293.06,233.25v-11.2h13.3v11.2h-13.3Zm0,39.9v-36.82h13.3v36.82h-13.3Z" fill="#da7901"/><path d="M323.93,273.85c-1.82,0-3.52-.3-5.11-.91-1.59-.61-2.95-1.44-4.09-2.48-1.14-1.05-2.04-2.3-2.7-3.75-.65-1.45-.98-3.01-.98-4.69,0-1.87,.4-3.57,1.19-5.11,.79-1.54,1.89-2.87,3.29-3.99,1.4-1.12,3.07-1.98,5.01-2.59,1.94-.61,4.07-.91,6.4-.91,2.99,0,5.46,.47,7.42,1.4v-1.12c0-1.73-.5-3.01-1.5-3.85-1-.84-2.62-1.26-4.87-1.26-2.1,0-4.04,.34-5.81,1.02-1.77,.68-3.64,1.67-5.6,2.98l-3.85-8.26c4.85-3.13,10.38-4.69,16.59-4.69,5.88,0,10.41,1.31,13.58,3.92,3.17,2.61,4.76,6.53,4.76,11.76v7.14c0,1.26,.19,2.14,.56,2.62,.37,.49,1.03,.78,1.96,.88v11.2c-1.07,.23-2.09,.41-3.04,.52-.96,.12-1.81,.18-2.55,.18-2.38,0-4.19-.43-5.43-1.3-1.24-.86-2.04-2.13-2.42-3.81l-.28-1.33c-1.63,2.1-3.52,3.7-5.67,4.8-2.15,1.1-4.43,1.65-6.86,1.65Zm3.99-9.52c.79,0,1.61-.13,2.45-.39,.84-.26,1.59-.59,2.24-1.02,.51-.37,.93-.78,1.26-1.22,.33-.44,.49-.9,.49-1.37v-2.73c-.79-.28-1.66-.51-2.59-.7-.93-.19-1.77-.28-2.52-.28-1.63,0-2.99,.4-4.06,1.19-1.07,.79-1.61,1.8-1.61,3.01,0,1.03,.41,1.87,1.22,2.52,.82,.65,1.86,.98,3.12,.98Z" fill="#da7901"/><path d="M392.04,273.15h-13.3v-20.72c0-1.82-.41-3.14-1.22-3.95-.82-.82-1.76-1.23-2.83-1.23s-2.31,.49-3.57,1.47-2.19,2.24-2.8,3.78v20.65h-13.3v-36.82h11.97v5.46c1.31-2.01,3.14-3.54,5.5-4.58,2.36-1.05,5.14-1.58,8.37-1.58,2.52,0,4.51,.46,5.98,1.37,1.47,.91,2.59,2.04,3.36,3.4,.77,1.35,1.27,2.8,1.5,4.34,.23,1.54,.35,2.94,.35,4.2v24.22Z" fill="#da7901"/><path d="M120.09,323.69c-1.4-.84-2.85-1.59-4.34-2.24-1.26-.56-2.67-1.08-4.24-1.57-1.56-.49-3.09-.73-4.58-.73-1.21,0-2.18,.19-2.91,.56-.72,.37-1.08,1-1.08,1.89,0,.65,.21,1.19,.63,1.61,.42,.42,1.03,.81,1.82,1.16,.79,.35,1.76,.69,2.91,1.02,1.14,.33,2.44,.72,3.88,1.19,2.29,.7,4.35,1.47,6.2,2.31,1.84,.84,3.42,1.83,4.72,2.97,1.31,1.14,2.31,2.53,3.01,4.17,.7,1.63,1.05,3.62,1.05,5.95,0,2.99-.55,5.5-1.65,7.52-1.1,2.03-2.54,3.65-4.34,4.87-1.8,1.21-3.83,2.09-6.09,2.62-2.26,.54-4.54,.8-6.83,.8-1.82,0-3.69-.14-5.6-.42-1.91-.28-3.82-.68-5.71-1.19-1.89-.51-3.71-1.12-5.46-1.82-1.75-.7-3.37-1.49-4.87-2.38l5.88-11.97c1.63,1.03,3.34,1.94,5.11,2.73,1.49,.7,3.18,1.33,5.07,1.89,1.89,.56,3.82,.84,5.78,.84,1.49,0,2.53-.2,3.12-.6,.58-.4,.88-.92,.88-1.57,0-.7-.29-1.29-.88-1.79-.58-.49-1.39-.92-2.42-1.29-1.03-.37-2.21-.75-3.54-1.12-1.33-.37-2.74-.82-4.24-1.33-2.19-.75-4.08-1.55-5.67-2.42-1.59-.86-2.89-1.84-3.92-2.94-1.03-1.1-1.79-2.34-2.27-3.75-.49-1.4-.74-3.01-.74-4.83,0-2.75,.5-5.18,1.5-7.28,1-2.1,2.37-3.85,4.09-5.25s3.7-2.46,5.92-3.19c2.22-.72,4.56-1.08,7.04-1.08,1.82,0,3.59,.18,5.32,.52,1.73,.35,3.39,.79,5,1.33,1.61,.54,3.12,1.12,4.51,1.75,1.4,.63,2.66,1.23,3.78,1.79l-5.88,11.27Z" fill="#da7901"/><path d="M157.05,355.12c-1.87,.79-3.86,1.46-5.99,1.99-2.12,.54-4.21,.81-6.26,.81-1.49,0-2.92-.19-4.27-.56s-2.53-.98-3.54-1.82c-1-.84-1.8-1.94-2.38-3.29-.58-1.35-.88-3.03-.88-5.04v-16.87h-4.55v-10.01h4.55v-11.55h13.3v11.55h7.21v10.01h-7.21v12.18c0,1.21,.26,2.06,.77,2.55,.51,.49,1.21,.74,2.1,.74,.65,0,1.4-.1,2.24-.31,.84-.21,1.68-.5,2.52-.88l2.38,10.5Z" fill="#da7901"/><path d="M171.67,357.85c-1.82,0-3.52-.3-5.11-.91-1.59-.61-2.95-1.44-4.09-2.48-1.14-1.05-2.04-2.3-2.7-3.75-.65-1.45-.98-3.01-.98-4.69,0-1.87,.4-3.57,1.19-5.11,.79-1.54,1.89-2.87,3.29-3.99,1.4-1.12,3.07-1.98,5.01-2.59,1.94-.61,4.07-.91,6.4-.91,2.99,0,5.46,.47,7.42,1.4v-1.12c0-1.73-.5-3.01-1.5-3.85-1-.84-2.62-1.26-4.87-1.26-2.1,0-4.04,.34-5.81,1.02-1.77,.68-3.64,1.67-5.6,2.98l-3.85-8.26c4.85-3.13,10.38-4.69,16.59-4.69,5.88,0,10.41,1.31,13.58,3.92,3.17,2.61,4.76,6.53,4.76,11.76v7.14c0,1.26,.19,2.14,.56,2.62,.37,.49,1.03,.78,1.96,.88v11.2c-1.07,.23-2.09,.41-3.04,.52-.96,.12-1.81,.18-2.55,.18-2.38,0-4.19-.43-5.43-1.3-1.24-.86-2.04-2.13-2.42-3.81l-.28-1.33c-1.63,2.1-3.52,3.7-5.67,4.8-2.15,1.1-4.43,1.65-6.86,1.65Zm3.99-9.52c.79,0,1.61-.13,2.45-.39,.84-.26,1.59-.59,2.24-1.02,.51-.37,.93-.78,1.26-1.22,.33-.44,.49-.9,.49-1.37v-2.73c-.79-.28-1.66-.51-2.59-.7-.93-.19-1.77-.28-2.52-.28-1.63,0-2.99,.4-4.06,1.19-1.07,.79-1.61,1.8-1.61,3.01,0,1.03,.41,1.87,1.22,2.52,.82,.65,1.86,.98,3.12,.98Z" fill="#da7901"/><path d="M228.17,355.12c-1.87,.79-3.86,1.46-5.99,1.99-2.12,.54-4.21,.81-6.26,.81-1.49,0-2.92-.19-4.27-.56s-2.53-.98-3.54-1.82c-1-.84-1.8-1.94-2.38-3.29-.58-1.35-.88-3.03-.88-5.04v-16.87h-4.55v-10.01h4.55v-11.55h13.3v11.55h7.21v10.01h-7.21v12.18c0,1.21,.26,2.06,.77,2.55,.51,.49,1.21,.74,2.1,.74,.65,0,1.4-.1,2.24-.31,.84-.21,1.68-.5,2.52-.88l2.38,10.5Z" fill="#da7901"/><path d="M231.95,317.25v-11.2h13.3v11.2h-13.3Zm0,39.9v-36.82h13.3v36.82h-13.3Z" fill="#da7901"/><path d="M267.15,357.85c-3.22,0-6.37-.53-9.45-1.58s-5.69-2.58-7.84-4.58l4.55-7.98c2.29,1.54,4.49,2.73,6.62,3.57,2.12,.84,4.07,1.26,5.84,1.26,1.87,0,2.8-.58,2.8-1.75,0-.65-.36-1.21-1.08-1.68-.72-.47-2.14-1-4.24-1.61-2.61-.75-4.79-1.48-6.54-2.21-1.75-.72-3.17-1.5-4.27-2.35-1.1-.84-1.88-1.77-2.34-2.8-.47-1.03-.7-2.24-.7-3.64,0-1.87,.37-3.59,1.12-5.18,.75-1.59,1.79-2.96,3.12-4.13,1.33-1.17,2.92-2.06,4.76-2.69,1.84-.63,3.86-.94,6.06-.94,2.71,0,5.28,.35,7.73,1.05s4.91,2.12,7.38,4.27l-5.04,7.98c-2.29-1.49-4.2-2.56-5.74-3.19s-2.99-.94-4.34-.94c-.79,0-1.45,.15-1.96,.46-.51,.3-.77,.78-.77,1.44,0,.7,.37,1.27,1.12,1.71,.75,.44,2.22,.94,4.41,1.5,2.66,.7,4.9,1.44,6.72,2.21s3.28,1.61,4.38,2.52c1.1,.91,1.88,1.94,2.34,3.08,.47,1.14,.7,2.46,.7,3.96,0,1.91-.35,3.62-1.05,5.11-.7,1.49-1.71,2.78-3.04,3.85-1.33,1.07-2.94,1.89-4.83,2.45s-4.03,.84-6.41,.84Z" fill="#da7901"/><path d="M312.44,355.12c-1.87,.79-3.86,1.46-5.99,1.99-2.12,.54-4.21,.81-6.26,.81-1.49,0-2.92-.19-4.27-.56s-2.53-.98-3.54-1.82c-1-.84-1.8-1.94-2.38-3.29-.58-1.35-.88-3.03-.88-5.04v-16.87h-4.55v-10.01h4.55v-11.55h13.3v11.55h7.21v10.01h-7.21v12.18c0,1.21,.26,2.06,.77,2.55,.51,.49,1.21,.74,2.1,.74,.65,0,1.4-.1,2.24-.31,.84-.21,1.68-.5,2.52-.88l2.38,10.5Z" fill="#da7901"/><path d="M316.22,317.25v-11.2h13.3v11.2h-13.3Zm0,39.9v-36.82h13.3v36.82h-13.3Z" fill="#da7901"/><path d="M334.21,338.74c0-2.52,.44-4.94,1.33-7.24,.89-2.31,2.18-4.34,3.88-6.09,1.7-1.75,3.82-3.15,6.33-4.2,2.52-1.05,5.41-1.58,8.68-1.58,4.48,0,8.23,.93,11.24,2.8,3.01,1.87,5.26,4.27,6.75,7.21l-12.95,3.92c-1.26-1.82-2.96-2.73-5.11-2.73-1.82,0-3.36,.69-4.62,2.06-1.26,1.38-1.89,3.32-1.89,5.84s.63,4.47,1.89,5.85c1.26,1.38,2.8,2.06,4.62,2.06,2.15,0,3.85-.91,5.11-2.73l12.95,3.92c-1.49,2.94-3.75,5.34-6.75,7.21-3.01,1.87-6.75,2.8-11.24,2.8-3.27,0-6.16-.53-8.68-1.58-2.52-1.05-4.63-2.45-6.33-4.2-1.7-1.75-3-3.78-3.88-6.09-.89-2.31-1.33-4.73-1.33-7.25Z" fill="#da7901"/><path d="M391.82,357.85c-3.22,0-6.37-.53-9.45-1.58s-5.69-2.58-7.84-4.58l4.55-7.98c2.29,1.54,4.49,2.73,6.62,3.57,2.12,.84,4.07,1.26,5.84,1.26,1.87,0,2.8-.58,2.8-1.75,0-.65-.36-1.21-1.08-1.68-.72-.47-2.14-1-4.24-1.61-2.61-.75-4.79-1.48-6.54-2.21-1.75-.72-3.17-1.5-4.27-2.35-1.1-.84-1.88-1.77-2.34-2.8-.47-1.03-.7-2.24-.7-3.64,0-1.87,.37-3.59,1.12-5.18,.75-1.59,1.79-2.96,3.12-4.13,1.33-1.17,2.92-2.06,4.76-2.69,1.84-.63,3.86-.94,6.06-.94,2.71,0,5.28,.35,7.73,1.05s4.91,2.12,7.38,4.27l-5.04,7.98c-2.29-1.49-4.2-2.56-5.74-3.19s-2.99-.94-4.34-.94c-.79,0-1.45,.15-1.96,.46-.51,.3-.77,.78-.77,1.44,0,.7,.37,1.27,1.12,1.71,.75,.44,2.22,.94,4.41,1.5,2.66,.7,4.9,1.44,6.72,2.21s3.28,1.61,4.38,2.52c1.1,.91,1.88,1.94,2.34,3.08,.47,1.14,.7,2.46,.7,3.96,0,1.91-.35,3.62-1.05,5.11-.7,1.49-1.71,2.78-3.04,3.85-1.33,1.07-2.94,1.89-4.83,2.45s-4.03,.84-6.41,.84Z" fill="#da7901"/><path d="M89.99,441.15v-49.7h22.82c2.43,0,4.67,.5,6.72,1.5,2.05,1,3.82,2.31,5.29,3.92,1.47,1.61,2.62,3.45,3.46,5.53,.84,2.08,1.26,4.17,1.26,6.26,0,2.89-.63,5.59-1.89,8.09-1.26,2.5-3.01,4.54-5.25,6.12l10.5,18.27h-15.4l-8.75-15.26h-5.11v15.26h-13.65Zm13.65-27.16h8.61c.84,0,1.62-.47,2.34-1.4,.72-.93,1.08-2.24,1.08-3.92s-.42-3.04-1.26-3.95c-.84-.91-1.68-1.37-2.52-1.37h-8.26v10.64Z" fill="#da7901"/><path d="M153.13,441.85c-3.22,0-6.09-.5-8.61-1.5-2.52-1-4.63-2.37-6.33-4.1-1.7-1.73-3-3.71-3.88-5.95-.89-2.24-1.33-4.6-1.33-7.07,0-2.66,.43-5.18,1.29-7.56,.86-2.38,2.15-4.46,3.85-6.23,1.7-1.77,3.8-3.18,6.3-4.24,2.5-1.05,5.4-1.57,8.71-1.57s6.16,.52,8.68,1.57c2.52,1.05,4.63,2.45,6.33,4.2,1.7,1.75,2.99,3.78,3.85,6.09,.86,2.31,1.29,4.73,1.29,7.25,0,.7-.04,1.41-.11,2.13-.07,.72-.15,1.37-.25,1.93h-25.83c.14,1.96,.86,3.37,2.17,4.23,1.31,.86,2.73,1.29,4.27,1.29,1.45,0,2.81-.33,4.09-.98,1.28-.65,2.13-1.56,2.55-2.73l11.27,3.22c-1.49,2.94-3.79,5.34-6.9,7.21s-6.92,2.8-11.44,2.8Zm5.88-23.03c-.23-1.77-.89-3.17-1.96-4.2-1.07-1.03-2.45-1.54-4.13-1.54s-3.06,.51-4.13,1.54c-1.07,1.03-1.73,2.43-1.96,4.2h12.18Z" fill="#da7901"/><path d="M188.48,441.85c-1.82,0-3.52-.3-5.11-.91-1.59-.61-2.95-1.43-4.09-2.49-1.14-1.05-2.04-2.3-2.7-3.75-.65-1.45-.98-3.01-.98-4.69,0-1.87,.4-3.57,1.19-5.11,.79-1.54,1.89-2.87,3.29-3.99,1.4-1.12,3.07-1.98,5.01-2.59,1.94-.61,4.07-.91,6.4-.91,2.99,0,5.46,.47,7.42,1.4v-1.12c0-1.73-.5-3.01-1.5-3.85-1-.84-2.62-1.26-4.87-1.26-2.1,0-4.04,.34-5.81,1.01-1.77,.68-3.64,1.67-5.6,2.97l-3.85-8.26c4.85-3.13,10.38-4.69,16.59-4.69,5.88,0,10.41,1.31,13.58,3.92,3.17,2.61,4.76,6.53,4.76,11.76v7.14c0,1.26,.19,2.13,.56,2.62,.37,.49,1.03,.78,1.96,.88v11.2c-1.07,.23-2.09,.41-3.04,.53-.96,.12-1.81,.17-2.55,.17-2.38,0-4.19-.43-5.43-1.29-1.24-.86-2.04-2.14-2.42-3.82l-.28-1.33c-1.63,2.1-3.52,3.7-5.67,4.79-2.15,1.1-4.43,1.65-6.86,1.65Zm3.99-9.52c.79,0,1.61-.13,2.45-.38,.84-.26,1.59-.59,2.24-1.01,.51-.37,.93-.78,1.26-1.23,.33-.44,.49-.9,.49-1.36v-2.73c-.79-.28-1.66-.51-2.59-.7-.93-.19-1.77-.28-2.52-.28-1.63,0-2.99,.4-4.06,1.19-1.07,.79-1.61,1.8-1.61,3.01,0,1.03,.41,1.87,1.22,2.52,.82,.65,1.86,.98,3.12,.98Z" fill="#da7901"/><path d="M234.96,441.85c-2.52,0-4.84-.47-6.96-1.4-2.12-.93-3.96-2.25-5.5-3.96-1.54-1.7-2.74-3.73-3.6-6.09-.86-2.36-1.29-4.93-1.29-7.74s.4-5.23,1.19-7.56c.79-2.33,1.9-4.35,3.33-6.05,1.42-1.7,3.12-3.03,5.08-3.99,1.96-.96,4.13-1.43,6.51-1.43s4.56,.54,6.54,1.61c1.98,1.07,3.51,2.59,4.58,4.55v-19.74h13.3v36.4c0,1.26,.19,2.13,.56,2.62,.37,.49,1.03,.78,1.96,.88v11.2c-2.29,.47-4.15,.7-5.6,.7-4.53,0-7.14-1.7-7.84-5.11l-.28-1.33c-1.26,2.24-2.96,3.87-5.11,4.9-2.15,1.03-4.43,1.54-6.86,1.54Zm3.64-11.2c2.43,0,4.53-1.26,6.3-3.78v-6.58c-.65-1.63-1.61-2.95-2.87-3.96-1.26-1-2.59-1.5-3.99-1.5-.98,0-1.88,.21-2.7,.63-.82,.42-1.52,1-2.1,1.75-.58,.75-1.05,1.61-1.4,2.59-.35,.98-.52,2.03-.52,3.15,0,2.33,.67,4.2,2,5.6,1.33,1.4,3.09,2.1,5.29,2.1Z" fill="#da7901"/><path d="M266.11,401.25v-11.2h13.3v11.2h-13.3Zm0,39.9v-36.82h13.3v36.82h-13.3Z" fill="#da7901"/><path d="M323.15,441.15h-13.3v-20.72c0-1.82-.41-3.14-1.22-3.96-.82-.82-1.76-1.23-2.83-1.23s-2.31,.49-3.57,1.47c-1.26,.98-2.19,2.24-2.8,3.78v20.65h-13.3v-36.82h11.97v5.46c1.31-2.01,3.14-3.53,5.5-4.58,2.36-1.05,5.14-1.57,8.37-1.57,2.52,0,4.51,.45,5.98,1.36s2.59,2.04,3.36,3.4c.77,1.35,1.27,2.8,1.5,4.34,.23,1.54,.35,2.94,.35,4.2v24.22Z" fill="#da7901"/><path d="M343.73,441.15c-2.38,0-4.56-.48-6.54-1.43-1.98-.96-3.67-2.26-5.08-3.92-1.4-1.66-2.49-3.6-3.25-5.84s-1.16-4.67-1.16-7.28c0-2.75,.42-5.3,1.26-7.63,.84-2.33,2.02-4.34,3.53-6.02s3.33-3,5.43-3.96c2.1-.96,4.41-1.43,6.93-1.43,2.66,0,4.99,.52,7,1.57,2.01,1.05,3.59,2.58,4.76,4.58v-5.46h11.55v33.46c0,2.89-.54,5.51-1.61,7.84-1.07,2.33-2.59,4.32-4.55,5.95-1.96,1.63-4.32,2.91-7.07,3.82-2.75,.91-5.81,1.37-9.17,1.37-3.92,0-7.33-.61-10.22-1.82-2.89-1.21-5.46-2.96-7.7-5.25l7-7.28c1.35,1.26,2.97,2.32,4.86,3.19,1.89,.86,3.91,1.29,6.06,1.29,1.21,0,2.37-.16,3.46-.49,1.1-.33,2.06-.85,2.91-1.58,.84-.72,1.5-1.67,1.99-2.83,.49-1.17,.74-2.57,.74-4.2v-2.38c-1.07,1.96-2.6,3.41-4.58,4.34-1.98,.93-4.17,1.4-6.54,1.4Zm4.76-10.5c1.35,0,2.53-.32,3.54-.95,1-.63,1.95-1.57,2.83-2.83v-6.58c-.65-1.68-1.62-3.01-2.91-3.99-1.28-.98-2.62-1.47-4.02-1.47-.93,0-1.81,.22-2.62,.67-.82,.44-1.53,1.03-2.13,1.75-.61,.72-1.07,1.59-1.4,2.59-.33,1-.49,2.07-.49,3.19,0,2.29,.68,4.13,2.03,5.53,1.35,1.4,3.08,2.1,5.18,2.1Z" fill="#da7901"/><path d="M390.07,441.85c-3.22,0-6.37-.53-9.45-1.58s-5.69-2.58-7.84-4.58l4.55-7.98c2.29,1.54,4.49,2.73,6.62,3.57,2.12,.84,4.07,1.26,5.84,1.26,1.87,0,2.8-.58,2.8-1.75,0-.65-.36-1.21-1.08-1.68-.72-.47-2.14-1-4.24-1.61-2.61-.75-4.79-1.48-6.54-2.21-1.75-.72-3.17-1.5-4.27-2.34s-1.88-1.77-2.34-2.8c-.47-1.03-.7-2.24-.7-3.64,0-1.87,.37-3.59,1.12-5.18,.75-1.59,1.79-2.96,3.12-4.13,1.33-1.17,2.92-2.06,4.76-2.69,1.84-.63,3.86-.95,6.06-.95,2.71,0,5.28,.35,7.73,1.05s4.91,2.12,7.38,4.27l-5.04,7.98c-2.29-1.49-4.2-2.55-5.74-3.18-1.54-.63-2.99-.95-4.34-.95-.79,0-1.45,.15-1.96,.46-.51,.3-.77,.78-.77,1.43,0,.7,.37,1.27,1.12,1.71,.75,.44,2.22,.95,4.41,1.51,2.66,.7,4.9,1.43,6.72,2.2,1.82,.77,3.28,1.61,4.38,2.52,1.1,.91,1.88,1.94,2.34,3.08,.47,1.14,.7,2.46,.7,3.96,0,1.91-.35,3.62-1.05,5.11-.7,1.49-1.71,2.78-3.04,3.85-1.33,1.07-2.94,1.89-4.83,2.45-1.89,.56-4.03,.84-6.41,.84Z" fill="#da7901"/></g></g></svg>