<?xml version="1.0" encoding="UTF-8"?><svg id="e" xmlns="http://www.w3.org/2000/svg" width="30cm" height="30cm" xmlns:xlink="http://www.w3.org/1999/xlink" viewBox="0 0 850.39 850.39"><defs><clipPath id="f"><polygon points="427.2 6.35 785.9 213.45 785.9 635.65 427.2 844.05 60.5 635.65 60.5 213.45 427.2 6.35" fill="none"/></clipPath><clipPath id="g"><polygon points="-404.3 6.35 -45.6 213.45 -45.6 635.65 -404.3 844.05 -771 635.65 -771 213.45 -404.3 6.35" fill="none"/></clipPath></defs><g><path d="M220.7,522.77l.9-.9h-.3l-.6,.9Z" fill="#dea449"/><path d="M419.6,454.07l.9-.9h-.3l-.6,.9Z" fill="#dea449"/><path d="M221.1,672.95l.9-.9h-.3l-.6,.9Z" fill="#dea449"/><path d="M420,604.25l.9-.9h-.3l-.6,.9Z" fill="#dea449"/><path d="M226.3,522.77l.9-.9h-.3l-.6,.9Z" fill="#dea449"/><path d="M425.2,454.07l.9-.9h-.3l-.6,.9Z" fill="#dea449"/><path d="M226.7,672.95l.9-.9h-.3l-.6,.9Z" fill="#dea449"/><path d="M425.6,604.25l.9-.9h-.3l-.6,.9Z" fill="#dea449"/><path d="M225.8,672.95l.9-.9h-.3l-.6,.9Z" fill="#dea449"/><g clip-path="url(#f)"><circle cx="423.2" cy="436.45" r="442.1" fill="#fbf2e6"/><g isolation="isolate"><g isolation="isolate"><path d="M-25.01,650.05c22.64-.01,44.68-6.12,65.02-14.36,23.58-9.6,45.48-22.06,66.73-35.04,87.13-53.13,178.54-129.71,290.88-131.85,116.18-1.8,210.05,77.34,299.44,131.85,38.07,22.99,83.94,49.12,131.75,49.4v190.29l-853.82-3.07v-187.22Z" fill="#04a3bd" opacity=".8"/><path d="M271.01,615.31c36.26-1.95,73.69-7.94,104.37-26.98,59.23-35.98,95.68-114.64,123.2-173.47,20.06-43.56,37.93-88.11,59.88-130.91,10.17-18.78,28.85-55.41,51.34-61.56,21.61-5.14,36.35,21.25,44.48,35.92,17.23,33.46,28.24,69.5,39.36,105.01,18.21,58.94,33.15,119.02,54.76,177.02,9.03,22.61,22.17,57.37,44.48,70.74,10.58,6.38,23.78,6.03,35.93,5.99v203.27l-853.82-3.28v-199.99c63.21-.09,183.09,.24,244.68-.25,15.96-.19,31.98-.48,47.91-1.31" fill="#931e18" opacity=".8"/></g><rect x="-67.7" y="247.6" width="939.21" height="416.86" fill="none"/></g></g><path d="M763.3,196.15L485.5,35.85,425.2,.95l-60.3,34.9L87.1,196.25l-29.3,16.9v424.2l29.3,16.9,281.2,162.4,56.9,32.8,56.9-32.8,281.2-162.4,29.3-16.9V213.15l-29.3-17Zm0,425.3l-338.1,195.2L87.1,621.45V231.05L425.2,35.85h0l338.1,195.2v390.4Z" fill="#20235b"/><path d="M424.7,604.25l.9-.9h-.3l-.6,.9Z" fill="#dea449"/></g><g clip-path="url(#g)"><circle cx="-408.3" cy="436.45" r="442.1" fill="#fbf2e6"/><g isolation="isolate"><rect x="-899.2" y="247.6" width="939.21" height="416.86" fill="none"/></g></g></svg>