<?xml version="1.0" encoding="UTF-8"?><svg id="e" xmlns="http://www.w3.org/2000/svg" width="10.21in" height="11.83in" xmlns:xlink="http://www.w3.org/1999/xlink" viewBox="0 0 735 852"><defs><clipPath id="f"><polygon points="369.5 8.15 728.2 215.25 728.2 637.45 369.5 845.85 2.8 637.45 2.8 215.25 369.5 8.15" fill="none" stroke="#dd7867" stroke-miterlimit="10"/></clipPath></defs><path d="M168.1,673.75l.9-.9h-.3l-.6,.9Z" fill="#dea449" stroke="#dd7867" stroke-miterlimit="10"/><g><g clip-path="url(#f)"><circle cx="365.5" cy="438.25" r="442.1" fill="#ffd353" stroke="#dd7867" stroke-miterlimit="10"/><path id="g" d="M393.88,131.58c178.41,175.9,178.41,412.06,0,587.96m-253.87-107.31c137.18-97.87,321.36-97.87,458.54,0M349.8,128.75c-179.64,177.12-179.64,414.91,0,592.03m17.96-591.72c-163.52,.84-295.4,134.08-294.56,297.59,.84,163.52,134.08,295.4,297.59,294.56,163.52-.84,295.4-134.08,294.56-297.59-.83-162.33-132.22-293.72-294.56-294.56h-3.04Zm1.52,0V721.22m296.08-296.08H73.2m66.81-178.15c137.18,97.87,321.36,97.87,458.54,0" fill="none" stroke="#ffb242" stroke-width="30.37"/><g><path d="M614.8,828.3l-53.63-2.19-.61-76.67v-56.82c3.38,1.97,6.55,4.02,9.46,6.16,2.84,2.08,5.4,4.22,7.67,6.4,1.45-4.57,2.65-12.81-.78-22.92-9.64-8.41-23.95-16.22-42.51-23.27v-74.18c3.03,2.53,5.8,5.16,8.25,7.9,.82-3.88,2.61-14.46-1.09-24.66-9.47-10.66-24.36-20.43-44.15-29.02-1.82-.79-3.66-1.55-5.52-2.3v-12.98h-.12v-.37s.08,.03,.12,.04c-.04-.15-.08-.3-.12-.45v-.36l-.11-.06c-17.3-67.68-51.75-115.09-95.39-130.87-1.03-.37-2.05-.72-3.09-1.05v-70.4c-2.71-1.82-6.76-4.17-11.71-5.89-1.68-.58-3.35-1.06-4.99-1.43v-8.11l-.43-.39c.14,.03,.29,.04,.43,.07-1.52-53.03-6.55-72.15-9.23-78.67-4,9-9.2,35.45-8.87,78.98h-.01v8.51c-1.31,.39-2.61,.85-3.89,1.4-3.75,1.57-7.39,3.96-10.8,7.05v67.2c-1.35,.34-2.7,.71-4.04,1.12-46.59,14.06-82.75,63.66-98,133.67,.16-.06,.32-.12,.49-.18l-.33,.18v13.19c-1.94,.79-3.87,1.59-5.77,2.42-16.98,7.46-30.29,15.78-39.66,24.86,0,0-7.23,9.38-4.82,28.53,.03-.08,.12-.11,.17-.19,3.04-3.4,6.52-6.62,10.37-9.66v78.45c-.88,.36-1.76,.71-2.62,1.08-14.47,6.15-25.85,12.83-33.93,19.87-4.22,10.86,1.12,21.11,1.12,21.11,2.96-2.63,6.3-5.13,9.95-7.53v129.17l-51.46,2.52-12.58,22.22h64.04s35.82,0,35.82,0h417.61l-15.22-21.48Z" fill="#ffb242"/><g><path d="M614.8,828.3l15.22,21.48h-72.94l-187.91-77.87h0l-168.01,69.05,.03,.03-21.36,8.78H112.55l12.58-22.22,51.58-2.52v-113.94c38.26-31.43,140.83-45.52,191.47-44.91v.15l2.85-.12h.33l2.93,.12v-.15c46.79-.58,143.93,12.29,185.94,40.82l.94,119.1,53.63,2.19Zm-84.56-37.97v-64.94c0-2.19-1.06-4.16-2.88-5.6-1.74-1.45-4.21-2.31-6.93-2.31-5.41,0-9.77,3.55-9.77,7.92v64.94c0,2.19,1.1,4.16,2.83,5.6,1.78,1.41,4.21,2.3,6.94,2.3,5.44,0,9.81-3.53,9.81-7.9Zm-50.51-14.59v-70.27c0-2.35-1.1-4.48-2.84-6.01-1.76-1.58-4.2-2.51-6.92-2.51-5.45,0-9.82,3.84-9.82,8.53v70.27c0,2.39,1.07,4.53,2.89,6.05,1.73,1.58,4.21,2.51,6.93,2.51,5.38,.01,9.76-3.83,9.76-8.56Zm-50.51-11.02v-70.24c0-2.35-1.07-4.51-2.88-6.07-1.73-1.56-4.21-2.51-6.92-2.51-5.4,0-9.78,3.84-9.78,8.58v70.24c0,2.35,1.12,4.49,2.85,6.01,1.77,1.58,4.21,2.52,6.93,2.52,5.45,0,9.81-3.84,9.81-8.54Zm-50.5-5.56v-67.12c0-2.25-1.12-4.33-2.85-5.81-1.77-1.49-4.21-2.4-6.92-2.4-5.44,0-9.8,3.68-9.8,8.21v67.12c0,2.21,1.07,4.27,2.89,5.77,1.73,1.49,4.21,2.4,6.92,2.4,5.39,0,9.76-3.67,9.76-8.16Zm-50.51,6.59v-70.27c0-2.39-1.07-4.53-2.89-6.04-1.73-1.58-4.2-2.51-6.92-2.51-5.4,0-9.77,3.83-9.77,8.57v70.26c0,2.36,1.11,4.49,2.85,6.01,1.78,1.58,4.21,2.52,6.92,2.52,5.44,0,9.81-3.84,9.81-8.54Zm-50.51,9.98v-70.27c0-2.35-1.12-4.48-2.85-6.01-1.77-1.58-4.2-2.51-6.92-2.51-5.44,0-9.81,3.84-9.81,8.53v70.27c0,2.39,1.07,4.53,2.89,6.05,1.73,1.58,4.2,2.51,6.92,2.51,5.41,.01,9.78-3.83,9.78-8.56Zm-50.51,14.59v-64.94c0-2.19-1.08-4.16-2.89-5.6-1.73-1.45-4.21-2.31-6.92-2.31-5.4,0-9.77,3.55-9.77,7.92v64.94c0,2.19,1.11,4.16,2.85,5.6,1.77,1.41,4.2,2.3,6.92,2.3,5.44,0,9.81-3.53,9.81-7.9Z" fill="#62205f"/><path d="M576.91,682.26c3.43,10.11,2.23,18.35,.78,22.92-2.27-2.18-4.83-4.32-7.67-6.4-45.55-33.46-153.24-45.99-198.68-44.93h-.33c-49.14-1.07-162.82,12.69-204.38,49.55,0,0-5.33-10.24-1.12-21.11,8.08-7.04,19.46-13.72,33.93-19.87,51.04-21.73,130.48-31.96,169.91-31.21v.08c.54-.04,1.07-.04,1.78-.04h.25c.61,0,1.15,0,1.69,.04v-.08c32.98-.63,101.09,6.63,154.18,25.16,22.07,7.71,38.81,16.41,49.67,25.88Z" fill="#62205f"/><path d="M542.65,592.71c-34.59-38.67-129.91-55.6-175.51-54.22h-.16c-41.89-1.19-139.32,13.82-175.27,54.07-.04,.08-.13,.11-.17,.19-2.4-19.15,4.82-28.53,4.82-28.53,9.36-9.08,22.68-17.4,39.66-24.86,44.86-19.63,101.88-27.38,129.59-26.72v.13c.45-.04,.86-.08,1.48-.08h.21c.45,0,.86,.04,1.28,.08v-.13c27.17-.65,83.94,6.92,128.84,26.39,19.79,8.58,34.67,18.35,44.15,29.02,3.7,10.2,1.91,20.79,1.09,24.66Z" fill="#62205f"/><path d="M534.4,602.08v43.7c-1.03-.39-2.05-.74-3.09-1.11-11.79-4.12-24.32-7.67-37.02-10.76,.08-.21,.13-.42,.13-.67v-34.63c0-2.35-3.46-4.2-7.7-4.2s-7.76,1.85-7.76,4.2v31.88c-8.29-1.72-16.58-3.26-24.71-4.53,.17-.33,.25-.67,.25-1.03v-37.68c0-2.51-3.46-4.58-7.71-4.58s-7.75,2.07-7.75,4.58v36.45c-8.49-1.2-16.75-2.15-24.54-2.9,.08-.24,.14-.48,.14-.73v-40.1c0-2.73-3.47-4.93-7.76-4.93s-7.71,2.2-7.71,4.93v39.66c-9.3-.59-17.6-.83-24.53-.73,.08-.22,.08-.43,.08-.64v-41.69c0-2.8-3.46-5.06-7.71-5.06s-7.76,2.26-7.76,5.06v41.69c0,.2,.04,.45,.13,.67-7.34,.12-15.58,.58-24.53,1.29v-39.66c0-2.73-3.46-4.92-7.76-4.92s-7.74,2.19-7.74,4.92v40.15c0,.32,.03,.62,.16,.95-7.87,.86-16.11,1.94-24.57,3.21v-37.6c0-2.51-3.47-4.57-7.75-4.57s-7.71,2.06-7.71,4.57v37.68c0,.83,.38,1.61,1.07,2.26-8.49,1.48-17.02,3.22-25.52,5.11v-33.69c0-2.35-3.46-4.2-7.71-4.2s-7.75,1.85-7.75,4.2v34.63c0,.92,.54,1.78,1.49,2.44-13.43,3.46-26.51,7.55-38.59,12.2v-48.71c32.53-33.85,119.61-49.06,162.12-48.35v.13c.66-.04,1.32-.08,2.14-.08h.45l2.47,.12v-.16c43.82-.69,134.8,15.72,164.73,51.23Z" fill="#62205f"/><polygon points="524.59 849.78 212.4 849.78 368.71 785.46 524.59 849.78" fill="#62205f"/><path d="M396.28,391.68c43.83,15.84,78.39,63.58,95.62,131.73-41.51-15.79-94.17-24.09-124.22-23.09h-.58c-26.02-.87-80.03,5.86-125.46,23.42,15.25-70.01,51.42-119.61,98-133.67,18.58-5.66,38.17-5.07,56.64,1.61Z" fill="#62205f"/><path d="M393.19,320.23v57.48c-16.28-4.62-33.14-5.13-49.51-1.49v-54.46c3.42-3.09,7.05-5.48,10.8-7.05,8.29-3.59,17.36-3.71,27.01-.37,4.95,1.72,8.99,4.07,11.71,5.89Z" fill="#62205f"/><path d="M367.26,225.81c2.68,6.52,7.71,25.64,9.23,78.67-6.22-1.15-12.33-1.08-18.11,.32-.32-43.53,4.88-70,8.87-78.99Z" fill="#62205f"/></g></g></g><polygon points="369.5 8.15 728.2 215.25 728.2 637.45 369.5 845.85 2.8 637.45 2.8 215.25 369.5 8.15" fill="none" stroke="#dd7867" stroke-miterlimit="10"/></g><path d="M705.6,196.95L427.8,36.65,367.5,1.75l-60.3,34.9L29.4,197.05,.1,213.95v424.2l29.3,16.9,281.2,162.4,56.9,32.8,56.9-32.8,281.2-162.4,29.3-16.9V213.95l-29.3-17Zm0,425.3l-338.1,195.2L29.4,622.25V231.85L367.5,36.65h0l338.1,195.2v390.4Z" fill="#bb292c" stroke="#bb292c" stroke-miterlimit="10"/><path d="M367,605.05l.9-.9h-.3l-.6,.9Z" fill="#dea449" stroke="#dd7867" stroke-miterlimit="10"/><text/></svg>