<svg xmlns="http://www.w3.org/2000/svg" xmlns:xlink="http://www.w3.org/1999/xlink" viewBox="0 0 735 852"><defs><style>.cls-1,.cls-9{fill:none;}.cls-2{clip-path:url(#clip-path);}.cls-3{fill:#fff;}.cls-4{fill:#dea449;}.cls-5{clip-path:url(#clip-path-2);}.cls-6{fill:#ff9318;}.cls-7{clip-path:url(#clip-path-3);}.cls-8{fill:#ab2494;}.cls-9{stroke:#fff;stroke-linecap:round;stroke-linejoin:round;stroke-width:2.83px;}.cls-10{fill:#da5b69;}.cls-11{fill:#0d0887;}.cls-12{fill:#6600a7;}.cls-13{fill:#f7e225;}.cls-14{fill:#f9983e;}.cls-15{font-size:120px;fill:#140c8d;font-family:Oswald-Bold, Oswald;font-weight:700;}.cls-16{letter-spacing:0em;}.cls-17{letter-spacing:0em;}</style><clipPath id="clip-path"><polygon class="cls-1" points="1179.67 7 1538.37 214.1 1538.37 636.3 1179.67 844.7 812.97 636.3 812.97 214.1 1179.67 7"/></clipPath><clipPath id="clip-path-2"><polygon class="cls-1" points="369.6 7 728.3 214.1 728.3 636.3 369.6 844.7 2.9 636.3 2.9 214.1 369.6 7"/></clipPath><clipPath id="clip-path-3"><polygon class="cls-1" points="370.36 35.12 705.7 230.7 705.7 621.68 366.58 816.88 29.5 621.1 27.54 228.16 370.36 35.12"/></clipPath></defs><title>dataviz_text</title><g id="Layer_1" data-name="Layer 1"><g class="cls-2"><circle class="cls-3" cx="1175.67" cy="437.1" r="442.1"/></g><path class="cls-4" d="M168.2,672.6l.9-.9h-.3Z"/><g class="cls-5"><circle class="cls-3" cx="365.6" cy="437.1" r="442.1"/></g><path class="cls-6" d="M705.7,195.8,427.9,35.5,367.6.6,307.3,35.5,29.5,195.9.2,212.8V637l29.3,16.9L310.7,816.3l56.9,32.8,56.9-32.8L705.7,653.9,735,637V212.8Zm0,425.3L367.6,816.3,29.5,621.1V230.7L367.6,35.5h0L705.7,230.7Z"/><path class="cls-4" d="M367.1,603.9l.9-.9h-.3Z"/></g><g id="Layer_2" data-name="Layer 2"><g class="cls-7"><path class="cls-8" d="M231.75,668.26A13.73,13.73,0,1,1,218,654.52a13.74,13.74,0,0,1,13.74,13.74"/><path class="cls-9" d="M231.75,668.26A13.73,13.73,0,1,1,218,654.52a13.74,13.74,0,0,1,13.74,13.74"/><path class="cls-10" d="M458.46,289.74c0,11.06-16.57,11.06-16.57,0s16.57-11.05,16.57,0"/><path class="cls-9" d="M458.46,289.74c0,11.06-16.57,11.06-16.57,0s16.57-11.05,16.57,0"/><path class="cls-11" d="M470.14,337.61a13.92,13.92,0,1,1-13.91-13.91,13.92,13.92,0,0,1,13.91,13.91"/><path class="cls-9" d="M470.14,337.61a13.92,13.92,0,1,1-13.91-13.91,13.92,13.92,0,0,1,13.91,13.91"/><path class="cls-11" d="M433.45,681c0,14.21-21.33,14.21-21.33,0s21.33-14.22,21.33,0"/><path class="cls-9" d="M433.45,681c0,14.21-21.33,14.21-21.33,0s21.33-14.22,21.33,0"/><path class="cls-12" d="M563.41,302.56a14.74,14.74,0,1,1-14.75-14.75,14.73,14.73,0,0,1,14.75,14.75"/><path class="cls-9" d="M563.41,302.56a14.74,14.74,0,1,1-14.75-14.75,14.73,14.73,0,0,1,14.75,14.75"/><path class="cls-13" d="M688.13,233.86c0,16.15-24.22,16.15-24.22,0s24.22-16.13,24.22,0"/><path class="cls-9" d="M688.13,233.86c0,16.15-24.22,16.15-24.22,0s24.22-16.13,24.22,0"/><path class="cls-10" d="M691.89,250.19c0,12.94-19.42,12.94-19.42,0s19.42-12.94,19.42,0"/><path class="cls-9" d="M691.89,250.19c0,12.94-19.42,12.94-19.42,0s19.42-12.94,19.42,0"/><path class="cls-8" d="M664.09,298.89c0,8.89-13.32,8.89-13.32,0s13.32-8.88,13.32,0"/><path class="cls-9" d="M664.09,298.89c0,8.89-13.32,8.89-13.32,0s13.32-8.88,13.32,0"/><path class="cls-8" d="M287,433.29A23.27,23.27,0,1,1,263.74,410,23.27,23.27,0,0,1,287,433.29"/><path class="cls-9" d="M287,433.29A23.27,23.27,0,1,1,263.74,410,23.27,23.27,0,0,1,287,433.29"/><path class="cls-10" d="M683.45,254.7c0,13.63-20.46,13.63-20.46,0s20.46-13.64,20.46,0"/><path class="cls-9" d="M683.45,254.7c0,13.63-20.46,13.63-20.46,0s20.46-13.64,20.46,0"/><path class="cls-11" d="M278,518.46c0,12.89-19.36,12.89-19.36,0s19.36-12.9,19.36,0"/><path class="cls-9" d="M278,518.46c0,12.89-19.36,12.89-19.36,0s19.36-12.9,19.36,0"/><path class="cls-12" d="M403.52,416c0,13.24-19.86,13.24-19.86,0s19.86-13.24,19.86,0"/><path class="cls-9" d="M403.52,416c0,13.24-19.86,13.24-19.86,0s19.86-13.24,19.86,0"/><path class="cls-10" d="M487.92,308c0,11.52-17.28,11.52-17.28,0s17.28-11.52,17.28,0"/><path class="cls-9" d="M487.92,308c0,11.52-17.28,11.52-17.28,0s17.28-11.52,17.28,0"/><path class="cls-11" d="M553.91,588.13c0,9.81-14.73,9.81-14.73,0s14.73-9.82,14.73,0"/><path class="cls-9" d="M553.91,588.13c0,9.81-14.73,9.81-14.73,0s14.73-9.82,14.73,0"/><path class="cls-12" d="M530,336.58a25.45,25.45,0,1,1-25.44-25.45A25.44,25.44,0,0,1,530,336.58"/><path class="cls-9" d="M530,336.58a25.45,25.45,0,1,1-25.44-25.45A25.44,25.44,0,0,1,530,336.58"/><path class="cls-10" d="M535.1,329.44c0,12.63-19,12.63-19,0s19-12.64,19,0"/><path class="cls-9" d="M535.1,329.44c0,12.63-19,12.63-19,0s19-12.64,19,0"/><path class="cls-11" d="M257.61,569.93c0,14.73-22.09,14.73-22.09,0s22.09-14.72,22.09,0"/><path class="cls-9" d="M257.61,569.93c0,14.73-22.09,14.73-22.09,0s22.09-14.72,22.09,0"/><path class="cls-11" d="M122.66,601.46c0,13-19.5,13-19.5,0s19.5-13,19.5,0"/><path class="cls-9" d="M122.66,601.46c0,13-19.5,13-19.5,0s19.5-13,19.5,0"/><path class="cls-8" d="M301.54,483.68c0,14.67-22,14.67-22,0s22-14.68,22,0"/><path class="cls-9" d="M301.54,483.68c0,14.67-22,14.67-22,0s22-14.68,22,0"/><path class="cls-11" d="M324.71,591.59c0,15.54-23.31,15.54-23.31,0s23.31-15.54,23.31,0"/><path class="cls-9" d="M324.71,591.59c0,15.54-23.31,15.54-23.31,0s23.31-15.54,23.31,0"/><path class="cls-12" d="M696.79,240.63a13.93,13.93,0,1,1-13.93-13.93,13.93,13.93,0,0,1,13.93,13.93"/><path class="cls-9" d="M696.79,240.63a13.93,13.93,0,1,1-13.93-13.93,13.93,13.93,0,0,1,13.93,13.93"/><path class="cls-11" d="M185.17,657.65c0,11.43-17.15,11.43-17.15,0s17.15-11.43,17.15,0"/><path class="cls-9" d="M185.17,657.65c0,11.43-17.15,11.43-17.15,0s17.15-11.43,17.15,0"/><path class="cls-11" d="M300,589c0,13.58-20.39,13.58-20.39,0S300,575.43,300,589"/><path class="cls-9" d="M300,589c0,13.58-20.39,13.58-20.39,0S300,575.43,300,589"/><path class="cls-12" d="M564,265c0,15.21-22.81,15.21-22.81,0S564,249.8,564,265"/><path class="cls-9" d="M564,265c0,15.21-22.81,15.21-22.81,0S564,249.8,564,265"/><path class="cls-8" d="M484.91,329.94a57.86,57.86,0,1,1-57.86-57.85,57.86,57.86,0,0,1,57.86,57.85"/><path class="cls-9" d="M484.91,329.94a57.86,57.86,0,1,1-57.86-57.85,57.86,57.86,0,0,1,57.86,57.85"/><path class="cls-12" d="M486.64,330.78a15.18,15.18,0,1,1-15.19-15.17,15.19,15.19,0,0,1,15.19,15.17"/><path class="cls-9" d="M486.64,330.78a15.18,15.18,0,1,1-15.19-15.17,15.19,15.19,0,0,1,15.19,15.17"/><path class="cls-11" d="M226.19,420.62c0,8.89-13.32,8.89-13.32,0s13.32-8.88,13.32,0"/><path class="cls-9" d="M226.19,420.62c0,8.89-13.32,8.89-13.32,0s13.32-8.88,13.32,0"/><path class="cls-11" d="M73.82,637.67a17.18,17.18,0,1,1-17.18-17.18,17.18,17.18,0,0,1,17.18,17.18"/><path class="cls-9" d="M73.82,637.67a17.18,17.18,0,1,1-17.18-17.18,17.18,17.18,0,0,1,17.18,17.18"/><path class="cls-11" d="M395.42,534.78c0,11.15-16.73,11.15-16.73,0s16.73-11.16,16.73,0"/><path class="cls-9" d="M395.42,534.78c0,11.15-16.73,11.15-16.73,0s16.73-11.16,16.73,0"/><path class="cls-12" d="M521,262.35c0,11.32-17,11.32-17,0s17-11.32,17,0"/><path class="cls-9" d="M521,262.35c0,11.32-17,11.32-17,0s17-11.32,17,0"/><path class="cls-11" d="M288.9,616c0,15.61-23.41,15.61-23.41,0s23.41-15.61,23.41,0"/><path class="cls-9" d="M288.9,616c0,15.61-23.41,15.61-23.41,0s23.41-15.61,23.41,0"/><path class="cls-10" d="M574.57,297.58c0,11.49-17.24,11.49-17.24,0s17.24-11.49,17.24,0"/><path class="cls-9" d="M574.57,297.58c0,11.49-17.24,11.49-17.24,0s17.24-11.49,17.24,0"/><path class="cls-12" d="M513.33,268.26c0,13.94-20.9,13.94-20.9,0s20.9-13.94,20.9,0"/><path class="cls-9" d="M513.33,268.26c0,13.94-20.9,13.94-20.9,0s20.9-13.94,20.9,0"/><path class="cls-10" d="M633.43,289c0,13.59-20.38,13.59-20.38,0s20.38-13.59,20.38,0"/><path class="cls-9" d="M633.43,289c0,13.59-20.38,13.59-20.38,0s20.38-13.59,20.38,0"/><path class="cls-10" d="M688.07,267.58c0,11.92-17.88,11.92-17.88,0s17.88-11.92,17.88,0"/><path class="cls-9" d="M688.07,267.58c0,11.92-17.88,11.92-17.88,0s17.88-11.92,17.88,0"/><path class="cls-11" d="M322,541c0,8.56-12.84,8.56-12.84,0S322,532.38,322,541"/><path class="cls-9" d="M322,541c0,8.56-12.84,8.56-12.84,0S322,532.38,322,541"/><path class="cls-12" d="M462.05,338.38c0,13.3-20,13.3-20,0s20-13.31,20,0"/><path class="cls-9" d="M462.05,338.38c0,13.3-20,13.3-20,0s20-13.31,20,0"/><path class="cls-12" d="M479.92,306.34c0,14.58-21.87,14.58-21.87,0s21.87-14.58,21.87,0"/><path class="cls-9" d="M479.92,306.34c0,14.58-21.87,14.58-21.87,0s21.87-14.58,21.87,0"/><path class="cls-11" d="M460.74,348.79a18.51,18.51,0,1,1-18.51-18.51,18.51,18.51,0,0,1,18.51,18.51"/><path class="cls-9" d="M460.74,348.79a18.51,18.51,0,1,1-18.51-18.51,18.51,18.51,0,0,1,18.51,18.51"/><path class="cls-12" d="M455,342.52c0,12.5-18.74,12.5-18.74,0S455,330,455,342.52"/><path class="cls-9" d="M455,342.52c0,12.5-18.74,12.5-18.74,0S455,330,455,342.52"/><path class="cls-11" d="M548.72,578.24c0,8.66-13,8.66-13,0s13-8.65,13,0"/><path class="cls-9" d="M548.72,578.24c0,8.66-13,8.66-13,0s13-8.65,13,0"/><path class="cls-11" d="M173,503.21c0,11.68-17.5,11.68-17.5,0s17.5-11.67,17.5,0"/><path class="cls-9" d="M173,503.21c0,11.68-17.5,11.68-17.5,0s17.5-11.67,17.5,0"/><path class="cls-11" d="M192,562.36a18.2,18.2,0,1,1-18.2-18.2,18.21,18.21,0,0,1,18.2,18.2"/><path class="cls-9" d="M192,562.36a18.2,18.2,0,1,1-18.2-18.2,18.21,18.21,0,0,1,18.2,18.2"/><path class="cls-10" d="M680.22,256.19c0,11.81-17.72,11.81-17.72,0s17.72-11.83,17.72,0"/><path class="cls-9" d="M680.22,256.19c0,11.81-17.72,11.81-17.72,0s17.72-11.83,17.72,0"/><path class="cls-10" d="M677.16,240.58a16.86,16.86,0,1,1-16.85-16.87,16.86,16.86,0,0,1,16.85,16.87"/><path class="cls-9" d="M677.16,240.58a16.86,16.86,0,1,1-16.85-16.87,16.86,16.86,0,0,1,16.85,16.87"/><path class="cls-11" d="M560.15,518.37c0,9.67-14.5,9.67-14.5,0s14.5-9.67,14.5,0"/><path class="cls-9" d="M560.15,518.37c0,9.67-14.5,9.67-14.5,0s14.5-9.67,14.5,0"/><path class="cls-11" d="M192.22,486.87c0,9.86-14.78,9.86-14.78,0s14.78-9.86,14.78,0"/><path class="cls-9" d="M192.22,486.87c0,9.86-14.78,9.86-14.78,0s14.78-9.86,14.78,0"/><path class="cls-10" d="M686,255.11a18.68,18.68,0,1,1-18.68-18.69A18.68,18.68,0,0,1,686,255.11"/><path class="cls-9" d="M686,255.11a18.68,18.68,0,1,1-18.68-18.69A18.68,18.68,0,0,1,686,255.11"/><path class="cls-11" d="M270.22,480.2c0,16.65-25,16.65-25,0s25-16.64,25,0"/><path class="cls-9" d="M270.22,480.2c0,16.65-25,16.65-25,0s25-16.64,25,0"/><path class="cls-10" d="M657.61,254.21c0,13.73-20.6,13.73-20.6,0s20.6-13.73,20.6,0"/><path class="cls-9" d="M657.61,254.21c0,13.73-20.6,13.73-20.6,0s20.6-13.73,20.6,0"/><path class="cls-12" d="M443.5,361.33c0,14.26-21.4,14.26-21.4,0s21.4-14.27,21.4,0"/><path class="cls-9" d="M443.5,361.33c0,14.26-21.4,14.26-21.4,0s21.4-14.27,21.4,0"/><path class="cls-11" d="M223.86,526.83c0,13.49-20.25,13.49-20.25,0s20.25-13.51,20.25,0"/><path class="cls-9" d="M223.86,526.83c0,13.49-20.25,13.49-20.25,0s20.25-13.51,20.25,0"/><path class="cls-11" d="M158.43,638.52c0,9.68-14.52,9.68-14.52,0s14.52-9.67,14.52,0"/><path class="cls-9" d="M158.43,638.52c0,9.68-14.52,9.68-14.52,0s14.52-9.67,14.52,0"/><path class="cls-12" d="M254.71,469.82c0,13-19.57,13-19.57,0s19.57-13.05,19.57,0"/><path class="cls-9" d="M254.71,469.82c0,13-19.57,13-19.57,0s19.57-13.05,19.57,0"/><path class="cls-12" d="M393.56,362c0,12.69-19,12.69-19,0s19-12.69,19,0"/><path class="cls-9" d="M393.56,362c0,12.69-19,12.69-19,0s19-12.69,19,0"/><path class="cls-8" d="M703.77,222.56c0,12.51-18.77,12.51-18.77,0s18.77-12.5,18.77,0"/><path class="cls-9" d="M703.77,222.56c0,12.51-18.77,12.51-18.77,0s18.77-12.5,18.77,0"/><path class="cls-10" d="M602.87,325.57c0,13.5-20.26,13.5-20.26,0s20.26-13.51,20.26,0"/><path class="cls-9" d="M602.87,325.57c0,13.5-20.26,13.5-20.26,0s20.26-13.51,20.26,0"/><path class="cls-10" d="M688.47,227.81c0,8.12-12.19,8.12-12.19,0s12.19-8.14,12.19,0"/><path class="cls-9" d="M688.47,227.81c0,8.12-12.19,8.12-12.19,0s12.19-8.14,12.19,0"/><path class="cls-14" d="M390.13,425.9a53.56,53.56,0,1,1-53.56-53.55,53.57,53.57,0,0,1,53.56,53.55"/><path class="cls-9" d="M390.13,425.9a53.56,53.56,0,1,1-53.56-53.55,53.57,53.57,0,0,1,53.56,53.55"/><path class="cls-8" d="M410.89,356.78a27.13,27.13,0,1,1-27.13-27.12,27.12,27.12,0,0,1,27.13,27.12"/><path class="cls-9" d="M410.89,356.78a27.13,27.13,0,1,1-27.13-27.12,27.12,27.12,0,0,1,27.13,27.12"/><path class="cls-8" d="M553.9,353.13a17.61,17.61,0,1,1-17.61-17.6,17.61,17.61,0,0,1,17.61,17.6"/><path class="cls-9" d="M553.9,353.13a17.61,17.61,0,1,1-17.61-17.6,17.61,17.61,0,0,1,17.61,17.6"/><path class="cls-8" d="M426.89,485.74c0,17.53-26.31,17.53-26.31,0s26.31-17.54,26.31,0"/><path class="cls-9" d="M426.89,485.74c0,17.53-26.31,17.53-26.31,0s26.31-17.54,26.31,0"/><path class="cls-10" d="M705.9,261.15c0,11.31-17,11.31-17,0s17-11.31,17,0"/><path class="cls-9" d="M705.9,261.15c0,11.31-17,11.31-17,0s17-11.31,17,0"/><path class="cls-8" d="M646.77,239.55c0,12.31-18.45,12.31-18.45,0s18.45-12.3,18.45,0"/><path class="cls-9" d="M646.77,239.55c0,12.31-18.45,12.31-18.45,0s18.45-12.3,18.45,0"/><path class="cls-10" d="M668.62,241.87A16.59,16.59,0,1,1,652,225.28a16.59,16.59,0,0,1,16.59,16.59"/><path class="cls-9" d="M668.62,241.87A16.59,16.59,0,1,1,652,225.28a16.59,16.59,0,0,1,16.59,16.59"/><path class="cls-12" d="M485,334.52c0,10.6-15.89,10.6-15.89,0s15.89-10.59,15.89,0"/><path class="cls-9" d="M485,334.52c0,10.6-15.89,10.6-15.89,0s15.89-10.59,15.89,0"/><path class="cls-8" d="M687.07,218a21.86,21.86,0,1,1-21.85-21.85A21.86,21.86,0,0,1,687.07,218"/><path class="cls-9" d="M687.07,218a21.86,21.86,0,1,1-21.85-21.85A21.86,21.86,0,0,1,687.07,218"/><path class="cls-8" d="M424.24,334.89c0,12.16-18.23,12.16-18.23,0s18.23-12.16,18.23,0"/><path class="cls-9" d="M424.24,334.89c0,12.16-18.23,12.16-18.23,0s18.23-12.16,18.23,0"/><path class="cls-11" d="M284.43,548.85a14.2,14.2,0,1,1-14.2-14.19,14.2,14.2,0,0,1,14.2,14.19"/><path class="cls-9" d="M284.43,548.85a14.2,14.2,0,1,1-14.2-14.19,14.2,14.2,0,0,1,14.2,14.19"/><path class="cls-8" d="M293.71,395.72c0,16.73-25.11,16.73-25.11,0s25.11-16.74,25.11,0"/><path class="cls-9" d="M293.71,395.72c0,16.73-25.11,16.73-25.11,0s25.11-16.74,25.11,0"/><path class="cls-8" d="M641.79,264.19a15.69,15.69,0,1,1-15.69-15.68,15.68,15.68,0,0,1,15.69,15.68"/><path class="cls-9" d="M641.79,264.19a15.69,15.69,0,1,1-15.69-15.68,15.68,15.68,0,0,1,15.69,15.68"/><path class="cls-8" d="M724.64,276.22c0,10.43-15.64,10.43-15.64,0s15.64-10.44,15.64,0"/><path class="cls-9" d="M724.64,276.22c0,10.43-15.64,10.43-15.64,0s15.64-10.44,15.64,0"/><path class="cls-8" d="M531.36,341.19c0,11.21-16.82,11.21-16.82,0s16.82-11.22,16.82,0"/><path class="cls-9" d="M531.36,341.19c0,11.21-16.82,11.21-16.82,0s16.82-11.22,16.82,0"/><path class="cls-11" d="M286.79,682.6c0,10.11-15.14,10.11-15.14,0s15.14-10.09,15.14,0"/><path class="cls-9" d="M286.79,682.6c0,10.11-15.14,10.11-15.14,0s15.14-10.09,15.14,0"/><path class="cls-11" d="M116.3,646.77c0,10.84-16.25,10.84-16.25,0s16.25-10.83,16.25,0"/><path class="cls-9" d="M116.3,646.77c0,10.84-16.25,10.84-16.25,0s16.25-10.83,16.25,0"/><path class="cls-11" d="M550.31,318.43c0,12.16-18.22,12.16-18.22,0s18.22-12.14,18.22,0"/><path class="cls-9" d="M550.31,318.43c0,12.16-18.22,12.16-18.22,0s18.22-12.14,18.22,0"/><path class="cls-11" d="M238.85,486.92c0,15.88-23.8,15.88-23.8,0s23.8-15.87,23.8,0"/><path class="cls-9" d="M238.85,486.92c0,15.88-23.8,15.88-23.8,0s23.8-15.87,23.8,0"/><path class="cls-11" d="M196.8,616.29c0,14.47-21.69,14.47-21.69,0s21.69-14.46,21.69,0"/><path class="cls-9" d="M196.8,616.29c0,14.47-21.69,14.47-21.69,0s21.69-14.46,21.69,0"/><path class="cls-8" d="M558.1,315.08c0,17-25.54,17-25.54,0s25.54-17,25.54,0"/><path class="cls-9" d="M558.1,315.08c0,17-25.54,17-25.54,0s25.54-17,25.54,0"/><path class="cls-11" d="M237.27,544.7c0,14.13-21.17,14.13-21.17,0s21.17-14.11,21.17,0"/><path class="cls-9" d="M237.27,544.7c0,14.13-21.17,14.13-21.17,0s21.17-14.11,21.17,0"/><path class="cls-11" d="M305.23,432.11c0,10.87-16.32,10.87-16.32,0s16.32-10.89,16.32,0"/><path class="cls-9" d="M305.23,432.11c0,10.87-16.32,10.87-16.32,0s16.32-10.89,16.32,0"/><path class="cls-11" d="M536,331.8c0,9.49-14.22,9.49-14.22,0s14.22-9.48,14.22,0"/><path class="cls-9" d="M536,331.8c0,9.49-14.22,9.49-14.22,0s14.22-9.48,14.22,0"/><path class="cls-12" d="M561,292.39a20.62,20.62,0,1,1-20.62-20.62A20.62,20.62,0,0,1,561,292.39"/><path class="cls-9" d="M561,292.39a20.62,20.62,0,1,1-20.62-20.62A20.62,20.62,0,0,1,561,292.39"/><path class="cls-8" d="M374.5,401.46c0,10.64-16,10.64-16,0s16-10.66,16,0"/><path class="cls-9" d="M374.5,401.46c0,10.64-16,10.64-16,0s16-10.66,16,0"/><path class="cls-10" d="M513.84,311.57c0,8.86-13.28,8.86-13.28,0s13.28-8.85,13.28,0"/><path class="cls-9" d="M513.84,311.57c0,8.86-13.28,8.86-13.28,0s13.28-8.85,13.28,0"/><path class="cls-11" d="M407.5,350.81a14,14,0,1,1-14-14,14,14,0,0,1,14,14"/><path class="cls-9" d="M407.5,350.81a14,14,0,1,1-14-14,14,14,0,0,1,14,14"/><path class="cls-11" d="M208.43,688.52c0,16.05-24.06,16.05-24.06,0s24.06-16,24.06,0"/><path class="cls-9" d="M208.43,688.52c0,16.05-24.06,16.05-24.06,0s24.06-16,24.06,0"/><path class="cls-8" d="M229.47,456.43a15.55,15.55,0,1,1-15.55-15.56,15.56,15.56,0,0,1,15.55,15.56"/><path class="cls-9" d="M229.47,456.43a15.55,15.55,0,1,1-15.55-15.56,15.56,15.56,0,0,1,15.55,15.56"/><path class="cls-11" d="M430.75,562.84c0,10.13-15.19,10.13-15.19,0s15.19-10.13,15.19,0"/><path class="cls-9" d="M430.75,562.84c0,10.13-15.19,10.13-15.19,0s15.19-10.13,15.19,0"/><path class="cls-8" d="M245.9,436.5c0,17.79-26.69,17.79-26.69,0s26.69-17.79,26.69,0"/><path class="cls-9" d="M245.9,436.5c0,17.79-26.69,17.79-26.69,0s26.69-17.79,26.69,0"/><path class="cls-10" d="M696,251c0,15.29-22.91,15.29-22.91,0S696,235.69,696,251"/><path class="cls-9" d="M696,251c0,15.29-22.91,15.29-22.91,0S696,235.69,696,251"/><path class="cls-13" d="M644.31,245.84c0,11.31-17,11.31-17,0s17-11.31,17,0"/><path class="cls-9" d="M644.31,245.84c0,11.31-17,11.31-17,0s17-11.31,17,0"/><path class="cls-12" d="M360.26,330.67c0,12-18,12-18,0s18-12,18,0"/><path class="cls-9" d="M360.26,330.67c0,12-18,12-18,0s18-12,18,0"/><path class="cls-11" d="M170.6,516.84c0,14.35-21.52,14.35-21.52,0s21.52-14.35,21.52,0"/><path class="cls-9" d="M170.6,516.84c0,14.35-21.52,14.35-21.52,0s21.52-14.35,21.52,0"/><path class="cls-11" d="M333.61,633.06a22.34,22.34,0,1,1-22.34-22.33,22.33,22.33,0,0,1,22.34,22.33"/><path class="cls-9" d="M333.61,633.06a22.34,22.34,0,1,1-22.34-22.33,22.33,22.33,0,0,1,22.34,22.33"/><path class="cls-10" d="M730.94,245.93c0,11.55-17.33,11.55-17.33,0s17.33-11.55,17.33,0"/><path class="cls-9" d="M730.94,245.93c0,11.55-17.33,11.55-17.33,0s17.33-11.55,17.33,0"/><path class="cls-8" d="M628.42,298.83c0,10.85-16.26,10.85-16.26,0s16.26-10.83,16.26,0"/><path class="cls-9" d="M628.42,298.83c0,10.85-16.26,10.85-16.26,0s16.26-10.83,16.26,0"/><path class="cls-8" d="M368.72,416.78a24.34,24.34,0,1,1-24.34-24.33,24.34,24.34,0,0,1,24.34,24.33"/><path class="cls-9" d="M368.72,416.78a24.34,24.34,0,1,1-24.34-24.33,24.34,24.34,0,0,1,24.34,24.33"/><path class="cls-12" d="M522.83,300c0,10.87-16.29,10.87-16.29,0s16.29-10.86,16.29,0"/><path class="cls-9" d="M522.83,300c0,10.87-16.29,10.87-16.29,0s16.29-10.86,16.29,0"/><path class="cls-12" d="M414.16,344c0,12.39-18.58,12.39-18.58,0s18.58-12.4,18.58,0"/><path class="cls-9" d="M414.16,344c0,12.39-18.58,12.39-18.58,0s18.58-12.4,18.58,0"/><path class="cls-12" d="M491.94,347.83c0,17.75-26.63,17.75-26.63,0s26.63-17.75,26.63,0"/><path class="cls-9" d="M491.94,347.83c0,17.75-26.63,17.75-26.63,0s26.63-17.75,26.63,0"/><path class="cls-8" d="M389.73,344.73a19.35,19.35,0,1,1-19.35-19.35,19.35,19.35,0,0,1,19.35,19.35"/><path class="cls-9" d="M389.73,344.73a19.35,19.35,0,1,1-19.35-19.35,19.35,19.35,0,0,1,19.35,19.35"/><path class="cls-10" d="M587.09,299.73a14.54,14.54,0,1,1-14.54-14.54,14.54,14.54,0,0,1,14.54,14.54"/><path class="cls-9" d="M587.09,299.73a14.54,14.54,0,1,1-14.54-14.54,14.54,14.54,0,0,1,14.54,14.54"/><path class="cls-10" d="M619.73,270.29c0,13.71-20.57,13.71-20.57,0s20.57-13.72,20.57,0"/><path class="cls-9" d="M619.73,270.29c0,13.71-20.57,13.71-20.57,0s20.57-13.72,20.57,0"/><path class="cls-12" d="M610.25,262.77c0,11.22-16.85,11.22-16.85,0s16.85-11.23,16.85,0"/><path class="cls-9" d="M610.25,262.77c0,11.22-16.85,11.22-16.85,0s16.85-11.23,16.85,0"/><path class="cls-11" d="M489.83,289.53c0,9-13.5,9-13.5,0s13.5-9,13.5,0"/><path class="cls-9" d="M489.83,289.53c0,9-13.5,9-13.5,0s13.5-9,13.5,0"/><path class="cls-10" d="M539.54,335.58c0,16.52-24.79,16.52-24.79,0s24.79-16.53,24.79,0"/><path class="cls-9" d="M539.54,335.58c0,16.52-24.79,16.52-24.79,0s24.79-16.53,24.79,0"/><path class="cls-11" d="M212.28,640.22c0,13.16-19.74,13.16-19.74,0s19.74-13.16,19.74,0"/><path class="cls-9" d="M212.28,640.22c0,13.16-19.74,13.16-19.74,0s19.74-13.16,19.74,0"/><path class="cls-11" d="M287.22,416.26c0,7.52-11.27,7.52-11.27,0s11.27-7.51,11.27,0"/><path class="cls-9" d="M287.22,416.26c0,7.52-11.27,7.52-11.27,0s11.27-7.51,11.27,0"/><path class="cls-8" d="M629.59,332.08c0,17.56-26.32,17.56-26.32,0s26.32-17.55,26.32,0"/><path class="cls-9" d="M629.59,332.08c0,17.56-26.32,17.56-26.32,0s26.32-17.55,26.32,0"/><path class="cls-11" d="M301.07,444.9c0,14.18-21.27,14.18-21.27,0s21.27-14.19,21.27,0"/><path class="cls-9" d="M301.07,444.9c0,14.18-21.27,14.18-21.27,0s21.27-14.19,21.27,0"/><path class="cls-10" d="M524.56,317.86c0,13.56-20.35,13.56-20.35,0s20.35-13.57,20.35,0"/><path class="cls-9" d="M524.56,317.86c0,13.56-20.35,13.56-20.35,0s20.35-13.57,20.35,0"/><path class="cls-11" d="M211.47,682.88c0,12.2-18.29,12.2-18.29,0s18.29-12.18,18.29,0"/><path class="cls-9" d="M211.47,682.88c0,12.2-18.29,12.2-18.29,0s18.29-12.18,18.29,0"/><path class="cls-8" d="M725,248.53c0,11.52-17.28,11.52-17.28,0S725,237,725,248.53"/><path class="cls-9" d="M725,248.53c0,11.52-17.28,11.52-17.28,0S725,237,725,248.53"/><path class="cls-10" d="M606.36,310.18c0,11.91-17.86,11.91-17.86,0s17.86-11.91,17.86,0"/><path class="cls-9" d="M606.36,310.18c0,11.91-17.86,11.91-17.86,0s17.86-11.91,17.86,0"/><path class="cls-10" d="M646.35,272.29c0,10.09-15.15,10.09-15.15,0s15.15-10.09,15.15,0"/><path class="cls-9" d="M646.35,272.29c0,10.09-15.15,10.09-15.15,0s15.15-10.09,15.15,0"/><path class="cls-11" d="M221.4,618c0,13.24-19.86,13.24-19.86,0s19.86-13.24,19.86,0"/><path class="cls-9" d="M221.4,618c0,13.24-19.86,13.24-19.86,0s19.86-13.24,19.86,0"/><path class="cls-11" d="M522.56,604.26a15.15,15.15,0,1,1-15.15-15.15,15.15,15.15,0,0,1,15.15,15.15"/><path class="cls-9" d="M522.56,604.26a15.15,15.15,0,1,1-15.15-15.15,15.15,15.15,0,0,1,15.15,15.15"/><path class="cls-10" d="M667.92,237.28a14.77,14.77,0,1,1-14.76-14.77,14.76,14.76,0,0,1,14.76,14.77"/><path class="cls-9" d="M667.92,237.28a14.77,14.77,0,1,1-14.76-14.77,14.76,14.76,0,0,1,14.76,14.77"/><path class="cls-8" d="M410.56,336.51c0,16.13-24.19,16.13-24.19,0s24.19-16.14,24.19,0"/><path class="cls-9" d="M410.56,336.51c0,16.13-24.19,16.13-24.19,0s24.19-16.14,24.19,0"/><path class="cls-11" d="M359.17,497.22a15,15,0,1,1-15-15,15,15,0,0,1,15,15"/><path class="cls-9" d="M359.17,497.22a15,15,0,1,1-15-15,15,15,0,0,1,15,15"/><path class="cls-11" d="M422,717.21c0,9.36-14.05,9.36-14.05,0s14.05-9.38,14.05,0"/><path class="cls-9" d="M422,717.21c0,9.36-14.05,9.36-14.05,0s14.05-9.38,14.05,0"/><path class="cls-10" d="M683.77,237.94c0,13.21-19.83,13.21-19.83,0s19.83-13.21,19.83,0"/><path class="cls-9" d="M683.77,237.94c0,13.21-19.83,13.21-19.83,0s19.83-13.21,19.83,0"/><path class="cls-10" d="M696.54,228.45c0,12.72-19.08,12.72-19.08,0s19.08-12.71,19.08,0"/><path class="cls-9" d="M696.54,228.45c0,12.72-19.08,12.72-19.08,0s19.08-12.71,19.08,0"/><path class="cls-8" d="M417.16,316.22c0,15.9-23.86,15.9-23.86,0s23.86-15.9,23.86,0"/><path class="cls-9" d="M417.16,316.22c0,15.9-23.86,15.9-23.86,0s23.86-15.9,23.86,0"/><path class="cls-8" d="M665.23,266.78c0,16.71-25.06,16.71-25.06,0s25.06-16.7,25.06,0"/><path class="cls-9" d="M665.23,266.78c0,16.71-25.06,16.71-25.06,0s25.06-16.7,25.06,0"/><path class="cls-11" d="M248.94,567.36a14.5,14.5,0,1,1-14.5-14.5,14.49,14.49,0,0,1,14.5,14.5"/><path class="cls-9" d="M248.94,567.36a14.5,14.5,0,1,1-14.5-14.5,14.49,14.49,0,0,1,14.5,14.5"/><path class="cls-8" d="M496.71,357.18A17.22,17.22,0,1,1,479.48,340a17.23,17.23,0,0,1,17.23,17.22"/><path class="cls-9" d="M496.71,357.18A17.22,17.22,0,1,1,479.48,340a17.23,17.23,0,0,1,17.23,17.22"/><path class="cls-11" d="M214.35,498.8c0,12-18,12-18,0s18-12,18,0"/><path class="cls-9" d="M214.35,498.8c0,12-18,12-18,0s18-12,18,0"/><path class="cls-12" d="M599.71,366.43c0,9.3-13.94,9.3-13.94,0s13.94-9.29,13.94,0"/><path class="cls-9" d="M599.71,366.43c0,9.3-13.94,9.3-13.94,0s13.94-9.29,13.94,0"/><path class="cls-11" d="M483.23,318.77c0,13.61-20.41,13.61-20.41,0s20.41-13.6,20.41,0"/><path class="cls-9" d="M483.23,318.77c0,13.61-20.41,13.61-20.41,0s20.41-13.6,20.41,0"/><path class="cls-10" d="M513.4,343.7a17.75,17.75,0,1,1-17.76-17.76A17.76,17.76,0,0,1,513.4,343.7"/><path class="cls-9" d="M513.4,343.7a17.75,17.75,0,1,1-17.76-17.76A17.76,17.76,0,0,1,513.4,343.7"/><path class="cls-11" d="M241.75,578.68c0,17.83-26.76,17.83-26.76,0s26.76-17.84,26.76,0"/><path class="cls-9" d="M241.75,578.68c0,17.83-26.76,17.83-26.76,0s26.76-17.84,26.76,0"/><path class="cls-10" d="M688.18,254.89a16.84,16.84,0,1,1-16.84-16.84,16.83,16.83,0,0,1,16.84,16.84"/><path class="cls-9" d="M688.18,254.89a16.84,16.84,0,1,1-16.84-16.84,16.83,16.83,0,0,1,16.84,16.84"/><path class="cls-12" d="M735,268.62A30.59,30.59,0,1,1,704.41,238,30.6,30.6,0,0,1,735,268.62"/><path class="cls-9" d="M735,268.62A30.59,30.59,0,1,1,704.41,238,30.6,30.6,0,0,1,735,268.62"/><path class="cls-12" d="M533,290.19c0,11-16.45,11-16.45,0s16.45-11,16.45,0"/><path class="cls-9" d="M533,290.19c0,11-16.45,11-16.45,0s16.45-11,16.45,0"/><path class="cls-12" d="M547.13,320.82c0,17.27-25.92,17.27-25.92,0s25.92-17.27,25.92,0"/><path class="cls-9" d="M547.13,320.82c0,17.27-25.92,17.27-25.92,0s25.92-17.27,25.92,0"/><path class="cls-8" d="M354.91,315a18.9,18.9,0,1,1-18.9-18.9,18.9,18.9,0,0,1,18.9,18.9"/><path class="cls-9" d="M354.91,315a18.9,18.9,0,1,1-18.9-18.9,18.9,18.9,0,0,1,18.9,18.9"/><path class="cls-8" d="M372,324.59c0,11.26-16.89,11.26-16.89,0s16.89-11.26,16.89,0"/><path class="cls-9" d="M372,324.59c0,11.26-16.89,11.26-16.89,0s16.89-11.26,16.89,0"/><path class="cls-8" d="M339.64,449.13c0,16.51-24.77,16.51-24.77,0s24.77-16.52,24.77,0"/><path class="cls-9" d="M339.64,449.13c0,16.51-24.77,16.51-24.77,0s24.77-16.52,24.77,0"/><path class="cls-11" d="M262.68,685c0,14-21.05,14-21.05,0s21.05-14,21.05,0"/><path class="cls-9" d="M262.68,685c0,14-21.05,14-21.05,0s21.05-14,21.05,0"/><path class="cls-11" d="M134.88,672.22c0,14.18-21.28,14.18-21.28,0s21.28-14.19,21.28,0"/><path class="cls-9" d="M134.88,672.22c0,14.18-21.28,14.18-21.28,0s21.28-14.19,21.28,0"/></g></g><g id="Layer_3" data-name="Layer 3"><text class="cls-15" transform="translate(194.75 229.98)">d<tspan class="cls-16" x="60.36" y="0">a</tspan><tspan class="cls-17" x="117.24" y="0">taviz</tspan></text></g></svg>