<svg xmlns="http://www.w3.org/2000/svg" xmlns:xlink="http://www.w3.org/1999/xlink" viewBox="0 0 850.39 850.39"><defs><style>.cls-1,.cls-8{fill:none;}.cls-2{fill:#dea449;}.cls-3{clip-path:url(#clip-path);}.cls-4{fill:#fff;}.cls-5{fill:#ff9318;}.cls-6{clip-path:url(#clip-path-2);}.cls-7{fill:#ab2494;}.cls-8{stroke:#fff;stroke-linecap:round;stroke-linejoin:round;stroke-width:2.83px;}.cls-9{fill:#da5b69;}.cls-10{fill:#0d0887;}.cls-11{fill:#6600a7;}.cls-12{fill:#f7e225;}.cls-13{fill:#f9983e;}</style><clipPath id="clip-path"><polygon class="cls-1" points="427.2 7.35 785.9 214.45 785.9 636.65 427.2 845.05 60.5 636.65 60.5 214.45 427.2 7.35"/></clipPath><clipPath id="clip-path-2"><polygon class="cls-1" points="427.95 35.47 763.3 231.05 763.3 622.02 424.18 817.23 87.1 621.45 85.13 228.5 427.95 35.47"/></clipPath></defs><title>dataviz_no-text_square</title><g id="Layer_1" data-name="Layer 1"><path class="cls-2" d="M225.8,673l.9-.9h-.3Z"/><g class="cls-3"><circle class="cls-4" cx="423.2" cy="437.45" r="442.1"/></g><path class="cls-5" d="M763.3,196.15,485.5,35.85,425.2,1l-60.3,34.9L87.1,196.25l-29.3,16.9v424.2l29.3,16.9,281.2,162.4,56.9,32.8,56.9-32.8,281.2-162.4,29.3-16.9V213.15Zm0,425.3L425.2,816.65,87.1,621.45V231.05L425.2,35.85h0l338.1,195.2Z"/><path class="cls-2" d="M424.7,604.25l.9-.9h-.3Z"/></g><g id="Layer_2" data-name="Layer 2"><g class="cls-6"><path class="cls-7" d="M289.34,668.6a13.73,13.73,0,1,1-13.73-13.73,13.73,13.73,0,0,1,13.73,13.73"/><path class="cls-8" d="M289.34,668.6a13.73,13.73,0,1,1-13.73-13.73,13.73,13.73,0,0,1,13.73,13.73"/><path class="cls-9" d="M516.06,290.09c0,11.06-16.58,11.06-16.58,0s16.58-11,16.58,0"/><path class="cls-8" d="M516.06,290.09c0,11.06-16.58,11.06-16.58,0s16.58-11,16.58,0"/><path class="cls-10" d="M527.74,338A13.92,13.92,0,1,1,513.82,324,13.92,13.92,0,0,1,527.74,338"/><path class="cls-8" d="M527.74,338A13.92,13.92,0,1,1,513.82,324,13.92,13.92,0,0,1,527.74,338"/><path class="cls-10" d="M491,681.34c0,14.21-21.32,14.21-21.32,0s21.32-14.22,21.32,0"/><path class="cls-8" d="M491,681.34c0,14.21-21.32,14.21-21.32,0s21.32-14.22,21.32,0"/><path class="cls-11" d="M621,302.9a14.75,14.75,0,1,1-14.75-14.75A14.74,14.74,0,0,1,621,302.9"/><path class="cls-8" d="M621,302.9a14.75,14.75,0,1,1-14.75-14.75A14.74,14.74,0,0,1,621,302.9"/><path class="cls-12" d="M745.72,234.21c0,16.15-24.21,16.15-24.21,0s24.21-16.14,24.21,0"/><path class="cls-8" d="M745.72,234.21c0,16.15-24.21,16.15-24.21,0s24.21-16.14,24.21,0"/><path class="cls-9" d="M749.49,250.54c0,12.94-19.42,12.94-19.42,0s19.42-12.95,19.42,0"/><path class="cls-8" d="M749.49,250.54c0,12.94-19.42,12.94-19.42,0s19.42-12.95,19.42,0"/><path class="cls-7" d="M721.69,299.24c0,8.89-13.33,8.89-13.33,0s13.33-8.88,13.33,0"/><path class="cls-8" d="M721.69,299.24c0,8.89-13.33,8.89-13.33,0s13.33-8.88,13.33,0"/><path class="cls-7" d="M344.61,433.63a23.27,23.27,0,1,1-23.27-23.27,23.27,23.27,0,0,1,23.27,23.27"/><path class="cls-8" d="M344.61,433.63a23.27,23.27,0,1,1-23.27-23.27,23.27,23.27,0,0,1,23.27,23.27"/><path class="cls-9" d="M741.05,255.05c0,13.63-20.46,13.63-20.46,0s20.46-13.64,20.46,0"/><path class="cls-8" d="M741.05,255.05c0,13.63-20.46,13.63-20.46,0s20.46-13.64,20.46,0"/><path class="cls-10" d="M335.56,518.8c0,12.89-19.35,12.89-19.35,0s19.35-12.9,19.35,0"/><path class="cls-8" d="M335.56,518.8c0,12.89-19.35,12.89-19.35,0s19.35-12.9,19.35,0"/><path class="cls-11" d="M461.12,416.3c0,13.25-19.86,13.25-19.86,0s19.86-13.23,19.86,0"/><path class="cls-8" d="M461.12,416.3c0,13.25-19.86,13.25-19.86,0s19.86-13.23,19.86,0"/><path class="cls-9" d="M545.51,308.34c0,11.51-17.28,11.51-17.28,0s17.28-11.53,17.28,0"/><path class="cls-8" d="M545.51,308.34c0,11.51-17.28,11.51-17.28,0s17.28-11.53,17.28,0"/><path class="cls-10" d="M611.51,588.48c0,9.81-14.73,9.81-14.73,0s14.73-9.82,14.73,0"/><path class="cls-8" d="M611.51,588.48c0,9.81-14.73,9.81-14.73,0s14.73-9.82,14.73,0"/><path class="cls-11" d="M587.6,336.93a25.45,25.45,0,1,1-25.44-25.46,25.44,25.44,0,0,1,25.44,25.46"/><path class="cls-8" d="M587.6,336.93a25.45,25.45,0,1,1-25.44-25.46,25.44,25.44,0,0,1,25.44,25.46"/><path class="cls-9" d="M592.7,329.78c0,12.64-19,12.64-19,0s19-12.64,19,0"/><path class="cls-8" d="M592.7,329.78c0,12.64-19,12.64-19,0s19-12.64,19,0"/><path class="cls-10" d="M315.2,570.28c0,14.72-22.08,14.72-22.08,0s22.08-14.72,22.08,0"/><path class="cls-8" d="M315.2,570.28c0,14.72-22.08,14.72-22.08,0s22.08-14.72,22.08,0"/><path class="cls-10" d="M180.26,601.81c0,13-19.5,13-19.5,0s19.5-13,19.5,0"/><path class="cls-8" d="M180.26,601.81c0,13-19.5,13-19.5,0s19.5-13,19.5,0"/><path class="cls-7" d="M359.14,484c0,14.67-22,14.67-22,0s22-14.67,22,0"/><path class="cls-8" d="M359.14,484c0,14.67-22,14.67-22,0s22-14.67,22,0"/><path class="cls-10" d="M382.31,591.93c0,15.55-23.31,15.55-23.31,0s23.31-15.54,23.31,0"/><path class="cls-8" d="M382.31,591.93c0,15.55-23.31,15.55-23.31,0s23.31-15.54,23.31,0"/><path class="cls-11" d="M754.38,241a13.92,13.92,0,1,1-13.92-13.92A13.92,13.92,0,0,1,754.38,241"/><path class="cls-8" d="M754.38,241a13.92,13.92,0,1,1-13.92-13.92A13.92,13.92,0,0,1,754.38,241"/><path class="cls-10" d="M242.77,658c0,11.43-17.16,11.43-17.16,0s17.16-11.43,17.16,0"/><path class="cls-8" d="M242.77,658c0,11.43-17.16,11.43-17.16,0s17.16-11.43,17.16,0"/><path class="cls-10" d="M357.6,589.37c0,13.59-20.39,13.59-20.39,0s20.39-13.59,20.39,0"/><path class="cls-8" d="M357.6,589.37c0,13.59-20.39,13.59-20.39,0s20.39-13.59,20.39,0"/><path class="cls-11" d="M621.56,265.35c0,15.21-22.82,15.21-22.82,0s22.82-15.2,22.82,0"/><path class="cls-8" d="M621.56,265.35c0,15.21-22.82,15.21-22.82,0s22.82-15.2,22.82,0"/><path class="cls-7" d="M542.5,330.29a57.86,57.86,0,1,1-57.85-57.86,57.85,57.85,0,0,1,57.85,57.86"/><path class="cls-8" d="M542.5,330.29a57.86,57.86,0,1,1-57.85-57.86,57.85,57.85,0,0,1,57.85,57.86"/><path class="cls-11" d="M544.23,331.13A15.18,15.18,0,1,1,529.05,316a15.18,15.18,0,0,1,15.18,15.18"/><path class="cls-8" d="M544.23,331.13A15.18,15.18,0,1,1,529.05,316a15.18,15.18,0,0,1,15.18,15.18"/><path class="cls-10" d="M283.79,421c0,8.89-13.33,8.89-13.33,0s13.33-8.89,13.33,0"/><path class="cls-8" d="M283.79,421c0,8.89-13.33,8.89-13.33,0s13.33-8.89,13.33,0"/><path class="cls-10" d="M131.42,638a17.18,17.18,0,1,1-17.18-17.18A17.18,17.18,0,0,1,131.42,638"/><path class="cls-8" d="M131.42,638a17.18,17.18,0,1,1-17.18-17.18A17.18,17.18,0,0,1,131.42,638"/><path class="cls-10" d="M453,535.13c0,11.15-16.74,11.15-16.74,0S453,524,453,535.13"/><path class="cls-8" d="M453,535.13c0,11.15-16.74,11.15-16.74,0S453,524,453,535.13"/><path class="cls-11" d="M578.6,262.69c0,11.32-17,11.32-17,0s17-11.31,17,0"/><path class="cls-8" d="M578.6,262.69c0,11.32-17,11.32-17,0s17-11.31,17,0"/><path class="cls-10" d="M346.5,616.35c0,15.61-23.41,15.61-23.41,0s23.41-15.62,23.41,0"/><path class="cls-8" d="M346.5,616.35c0,15.61-23.41,15.61-23.41,0s23.41-15.62,23.41,0"/><path class="cls-9" d="M632.16,297.93c0,11.49-17.23,11.49-17.23,0s17.23-11.49,17.23,0"/><path class="cls-8" d="M632.16,297.93c0,11.49-17.23,11.49-17.23,0s17.23-11.49,17.23,0"/><path class="cls-11" d="M570.93,268.61c0,13.93-20.91,13.93-20.91,0s20.91-13.94,20.91,0"/><path class="cls-8" d="M570.93,268.61c0,13.93-20.91,13.93-20.91,0s20.91-13.94,20.91,0"/><path class="cls-9" d="M691,289.36c0,13.59-20.38,13.59-20.38,0s20.38-13.59,20.38,0"/><path class="cls-8" d="M691,289.36c0,13.59-20.38,13.59-20.38,0s20.38-13.59,20.38,0"/><path class="cls-9" d="M745.66,267.92c0,11.92-17.87,11.92-17.87,0s17.87-11.91,17.87,0"/><path class="cls-8" d="M745.66,267.92c0,11.92-17.87,11.92-17.87,0s17.87-11.91,17.87,0"/><path class="cls-10" d="M379.59,541.3c0,8.56-12.85,8.56-12.85,0s12.85-8.58,12.85,0"/><path class="cls-8" d="M379.59,541.3c0,8.56-12.85,8.56-12.85,0s12.85-8.58,12.85,0"/><path class="cls-11" d="M519.64,338.72c0,13.31-20,13.31-20,0s20-13.31,20,0"/><path class="cls-8" d="M519.64,338.72c0,13.31-20,13.31-20,0s20-13.31,20,0"/><path class="cls-11" d="M537.52,306.69c0,14.58-21.87,14.58-21.87,0s21.87-14.58,21.87,0"/><path class="cls-8" d="M537.52,306.69c0,14.58-21.87,14.58-21.87,0s21.87-14.58,21.87,0"/><path class="cls-10" d="M518.33,349.14a18.51,18.51,0,1,1-18.5-18.51,18.5,18.5,0,0,1,18.5,18.51"/><path class="cls-8" d="M518.33,349.14a18.51,18.51,0,1,1-18.5-18.51,18.5,18.5,0,0,1,18.5,18.51"/><path class="cls-11" d="M512.54,342.87c0,12.5-18.74,12.5-18.74,0s18.74-12.5,18.74,0"/><path class="cls-8" d="M512.54,342.87c0,12.5-18.74,12.5-18.74,0s18.74-12.5,18.74,0"/><path class="cls-10" d="M606.31,578.59c0,8.66-13,8.66-13,0s13-8.65,13,0"/><path class="cls-8" d="M606.31,578.59c0,8.66-13,8.66-13,0s13-8.65,13,0"/><path class="cls-10" d="M230.61,503.56c0,11.68-17.51,11.68-17.51,0s17.51-11.67,17.51,0"/><path class="cls-8" d="M230.61,503.56c0,11.68-17.51,11.68-17.51,0s17.51-11.67,17.51,0"/><path class="cls-10" d="M249.6,562.71a18.21,18.21,0,1,1-18.2-18.21,18.2,18.2,0,0,1,18.2,18.21"/><path class="cls-8" d="M249.6,562.71a18.21,18.21,0,1,1-18.2-18.21,18.2,18.2,0,0,1,18.2,18.21"/><path class="cls-9" d="M737.82,256.54c0,11.81-17.73,11.81-17.73,0s17.73-11.83,17.73,0"/><path class="cls-8" d="M737.82,256.54c0,11.81-17.73,11.81-17.73,0s17.73-11.83,17.73,0"/><path class="cls-9" d="M734.76,240.92a16.86,16.86,0,1,1-16.85-16.86,16.86,16.86,0,0,1,16.85,16.86"/><path class="cls-8" d="M734.76,240.92a16.86,16.86,0,1,1-16.85-16.86,16.86,16.86,0,0,1,16.85,16.86"/><path class="cls-10" d="M617.74,518.71c0,9.68-14.5,9.68-14.5,0s14.5-9.66,14.5,0"/><path class="cls-8" d="M617.74,518.71c0,9.68-14.5,9.68-14.5,0s14.5-9.66,14.5,0"/><path class="cls-10" d="M249.82,487.21c0,9.86-14.78,9.86-14.78,0s14.78-9.85,14.78,0"/><path class="cls-8" d="M249.82,487.21c0,9.86-14.78,9.86-14.78,0s14.78-9.85,14.78,0"/><path class="cls-9" d="M743.56,255.45a18.68,18.68,0,1,1-18.68-18.68,18.67,18.67,0,0,1,18.68,18.68"/><path class="cls-8" d="M743.56,255.45a18.68,18.68,0,1,1-18.68-18.68,18.67,18.67,0,0,1,18.68,18.68"/><path class="cls-10" d="M327.82,480.55c0,16.64-25,16.64-25,0s25-16.65,25,0"/><path class="cls-8" d="M327.82,480.55c0,16.64-25,16.64-25,0s25-16.65,25,0"/><path class="cls-9" d="M715.21,254.56c0,13.72-20.6,13.72-20.6,0s20.6-13.74,20.6,0"/><path class="cls-8" d="M715.21,254.56c0,13.72-20.6,13.72-20.6,0s20.6-13.74,20.6,0"/><path class="cls-11" d="M501.09,361.67c0,14.26-21.39,14.26-21.39,0s21.39-14.27,21.39,0"/><path class="cls-8" d="M501.09,361.67c0,14.26-21.39,14.26-21.39,0s21.39-14.27,21.39,0"/><path class="cls-10" d="M281.46,527.17c0,13.5-20.25,13.5-20.25,0s20.25-13.5,20.25,0"/><path class="cls-8" d="M281.46,527.17c0,13.5-20.25,13.5-20.25,0s20.25-13.5,20.25,0"/><path class="cls-10" d="M216,638.87c0,9.68-14.52,9.68-14.52,0s14.52-9.67,14.52,0"/><path class="cls-8" d="M216,638.87c0,9.68-14.52,9.68-14.52,0s14.52-9.67,14.52,0"/><path class="cls-11" d="M312.3,470.17c0,13-19.56,13-19.56,0s19.56-13.05,19.56,0"/><path class="cls-8" d="M312.3,470.17c0,13-19.56,13-19.56,0s19.56-13.05,19.56,0"/><path class="cls-11" d="M451.16,362.38c0,12.69-19,12.69-19,0s19-12.69,19,0"/><path class="cls-8" d="M451.16,362.38c0,12.69-19,12.69-19,0s19-12.69,19,0"/><path class="cls-7" d="M761.36,222.91c0,12.51-18.77,12.51-18.77,0s18.77-12.51,18.77,0"/><path class="cls-8" d="M761.36,222.91c0,12.51-18.77,12.51-18.77,0s18.77-12.51,18.77,0"/><path class="cls-9" d="M660.46,325.91c0,13.51-20.25,13.51-20.25,0s20.25-13.5,20.25,0"/><path class="cls-8" d="M660.46,325.91c0,13.51-20.25,13.51-20.25,0s20.25-13.5,20.25,0"/><path class="cls-9" d="M746.07,228.15c0,8.13-12.2,8.13-12.2,0s12.2-8.13,12.2,0"/><path class="cls-8" d="M746.07,228.15c0,8.13-12.2,8.13-12.2,0s12.2-8.13,12.2,0"/><path class="cls-13" d="M447.72,426.25a53.56,53.56,0,1,1-53.56-53.55,53.56,53.56,0,0,1,53.56,53.55"/><path class="cls-8" d="M447.72,426.25a53.56,53.56,0,1,1-53.56-53.55,53.56,53.56,0,0,1,53.56,53.55"/><path class="cls-7" d="M468.49,357.13A27.13,27.13,0,1,1,441.36,330a27.13,27.13,0,0,1,27.13,27.13"/><path class="cls-8" d="M468.49,357.13A27.13,27.13,0,1,1,441.36,330a27.13,27.13,0,0,1,27.13,27.13"/><path class="cls-7" d="M611.5,353.48a17.61,17.61,0,1,1-17.61-17.61,17.62,17.62,0,0,1,17.61,17.61"/><path class="cls-8" d="M611.5,353.48a17.61,17.61,0,1,1-17.61-17.61,17.62,17.62,0,0,1,17.61,17.61"/><path class="cls-7" d="M484.49,486.09c0,17.53-26.31,17.53-26.31,0s26.31-17.54,26.31,0"/><path class="cls-8" d="M484.49,486.09c0,17.53-26.31,17.53-26.31,0s26.31-17.54,26.31,0"/><path class="cls-9" d="M763.5,261.5c0,11.31-17,11.31-17,0s17-11.31,17,0"/><path class="cls-8" d="M763.5,261.5c0,11.31-17,11.31-17,0s17-11.31,17,0"/><path class="cls-7" d="M704.37,239.9c0,12.31-18.45,12.31-18.45,0s18.45-12.3,18.45,0"/><path class="cls-8" d="M704.37,239.9c0,12.31-18.45,12.31-18.45,0s18.45-12.3,18.45,0"/><path class="cls-9" d="M726.22,242.21a16.59,16.59,0,1,1-16.6-16.58,16.6,16.6,0,0,1,16.6,16.58"/><path class="cls-8" d="M726.22,242.21a16.59,16.59,0,1,1-16.6-16.58,16.6,16.6,0,0,1,16.6,16.58"/><path class="cls-11" d="M542.63,334.87c0,10.6-15.89,10.6-15.89,0s15.89-10.6,15.89,0"/><path class="cls-8" d="M542.63,334.87c0,10.6-15.89,10.6-15.89,0s15.89-10.6,15.89,0"/><path class="cls-7" d="M744.67,218.32a21.87,21.87,0,1,1-21.86-21.86,21.87,21.87,0,0,1,21.86,21.86"/><path class="cls-8" d="M744.67,218.32a21.87,21.87,0,1,1-21.86-21.86,21.87,21.87,0,0,1,21.86,21.86"/><path class="cls-7" d="M481.84,335.24c0,12.15-18.24,12.15-18.24,0s18.24-12.16,18.24,0"/><path class="cls-8" d="M481.84,335.24c0,12.15-18.24,12.15-18.24,0s18.24-12.16,18.24,0"/><path class="cls-10" d="M342,549.2A14.2,14.2,0,1,1,327.83,535,14.19,14.19,0,0,1,342,549.2"/><path class="cls-8" d="M342,549.2A14.2,14.2,0,1,1,327.83,535,14.19,14.19,0,0,1,342,549.2"/><path class="cls-7" d="M351.3,396.06c0,16.74-25.1,16.74-25.1,0s25.1-16.73,25.1,0"/><path class="cls-8" d="M351.3,396.06c0,16.74-25.1,16.74-25.1,0s25.1-16.73,25.1,0"/><path class="cls-7" d="M699.38,264.54a15.69,15.69,0,1,1-15.69-15.68,15.68,15.68,0,0,1,15.69,15.68"/><path class="cls-8" d="M699.38,264.54a15.69,15.69,0,1,1-15.69-15.68,15.68,15.68,0,0,1,15.69,15.68"/><path class="cls-7" d="M782.24,276.57c0,10.42-15.64,10.42-15.64,0s15.64-10.44,15.64,0"/><path class="cls-8" d="M782.24,276.57c0,10.42-15.64,10.42-15.64,0s15.64-10.44,15.64,0"/><path class="cls-7" d="M589,341.53c0,11.21-16.82,11.21-16.82,0s16.82-11.21,16.82,0"/><path class="cls-8" d="M589,341.53c0,11.21-16.82,11.21-16.82,0s16.82-11.21,16.82,0"/><path class="cls-10" d="M344.39,683c0,10.1-15.14,10.1-15.14,0s15.14-10.1,15.14,0"/><path class="cls-8" d="M344.39,683c0,10.1-15.14,10.1-15.14,0s15.14-10.1,15.14,0"/><path class="cls-10" d="M173.9,647.12c0,10.84-16.25,10.84-16.25,0s16.25-10.83,16.25,0"/><path class="cls-8" d="M173.9,647.12c0,10.84-16.25,10.84-16.25,0s16.25-10.83,16.25,0"/><path class="cls-10" d="M607.91,318.78c0,12.16-18.22,12.16-18.22,0s18.22-12.14,18.22,0"/><path class="cls-8" d="M607.91,318.78c0,12.16-18.22,12.16-18.22,0s18.22-12.14,18.22,0"/><path class="cls-10" d="M296.44,487.27c0,15.87-23.79,15.87-23.79,0s23.79-15.87,23.79,0"/><path class="cls-8" d="M296.44,487.27c0,15.87-23.79,15.87-23.79,0s23.79-15.87,23.79,0"/><path class="cls-10" d="M254.4,616.63c0,14.47-21.69,14.47-21.69,0s21.69-14.46,21.69,0"/><path class="cls-8" d="M254.4,616.63c0,14.47-21.69,14.47-21.69,0s21.69-14.46,21.69,0"/><path class="cls-7" d="M615.7,315.43c0,17-25.55,17-25.55,0s25.55-17,25.55,0"/><path class="cls-8" d="M615.7,315.43c0,17-25.55,17-25.55,0s25.55-17,25.55,0"/><path class="cls-10" d="M294.87,545.05c0,14.12-21.18,14.12-21.18,0s21.18-14.11,21.18,0"/><path class="cls-8" d="M294.87,545.05c0,14.12-21.18,14.12-21.18,0s21.18-14.11,21.18,0"/><path class="cls-10" d="M362.82,432.45c0,10.88-16.31,10.88-16.31,0s16.31-10.88,16.31,0"/><path class="cls-8" d="M362.82,432.45c0,10.88-16.31,10.88-16.31,0s16.31-10.88,16.31,0"/><path class="cls-10" d="M593.61,332.15c0,9.48-14.22,9.48-14.22,0s14.22-9.49,14.22,0"/><path class="cls-8" d="M593.61,332.15c0,9.48-14.22,9.48-14.22,0s14.22-9.49,14.22,0"/><path class="cls-11" d="M618.56,292.73a20.62,20.62,0,1,1-20.62-20.61,20.63,20.63,0,0,1,20.62,20.61"/><path class="cls-8" d="M618.56,292.73a20.62,20.62,0,1,1-20.62-20.61,20.63,20.63,0,0,1,20.62,20.61"/><path class="cls-7" d="M432.1,401.8c0,10.65-16,10.65-16,0s16-10.65,16,0"/><path class="cls-8" d="M432.1,401.8c0,10.65-16,10.65-16,0s16-10.65,16,0"/><path class="cls-9" d="M571.43,311.92c0,8.86-13.27,8.86-13.27,0s13.27-8.85,13.27,0"/><path class="cls-8" d="M571.43,311.92c0,8.86-13.27,8.86-13.27,0s13.27-8.85,13.27,0"/><path class="cls-10" d="M465.09,351.16a14,14,0,1,1-14-14,14,14,0,0,1,14,14"/><path class="cls-8" d="M465.09,351.16a14,14,0,1,1-14-14,14,14,0,0,1,14,14"/><path class="cls-10" d="M266,688.87c0,16-24,16-24,0s24-16,24,0"/><path class="cls-8" d="M266,688.87c0,16-24,16-24,0s24-16,24,0"/><path class="cls-7" d="M287.07,456.77a15.56,15.56,0,1,1-15.55-15.55,15.56,15.56,0,0,1,15.55,15.55"/><path class="cls-8" d="M287.07,456.77a15.56,15.56,0,1,1-15.55-15.55,15.56,15.56,0,0,1,15.55,15.55"/><path class="cls-10" d="M488.35,563.18c0,10.13-15.19,10.13-15.19,0s15.19-10.13,15.19,0"/><path class="cls-8" d="M488.35,563.18c0,10.13-15.19,10.13-15.19,0s15.19-10.13,15.19,0"/><path class="cls-7" d="M303.49,436.85c0,17.79-26.68,17.79-26.68,0s26.68-17.8,26.68,0"/><path class="cls-8" d="M303.49,436.85c0,17.79-26.68,17.79-26.68,0s26.68-17.8,26.68,0"/><path class="cls-9" d="M753.6,251.31c0,15.29-22.91,15.29-22.91,0s22.91-15.27,22.91,0"/><path class="cls-8" d="M753.6,251.31c0,15.29-22.91,15.29-22.91,0s22.91-15.27,22.91,0"/><path class="cls-12" d="M701.91,246.19c0,11.31-17,11.31-17,0s17-11.32,17,0"/><path class="cls-8" d="M701.91,246.19c0,11.31-17,11.31-17,0s17-11.32,17,0"/><path class="cls-11" d="M417.86,331c0,12-18,12-18,0s18-12,18,0"/><path class="cls-8" d="M417.86,331c0,12-18,12-18,0s18-12,18,0"/><path class="cls-10" d="M228.2,517.18c0,14.36-21.52,14.36-21.52,0s21.52-14.35,21.52,0"/><path class="cls-8" d="M228.2,517.18c0,14.36-21.52,14.36-21.52,0s21.52-14.35,21.52,0"/><path class="cls-10" d="M391.2,633.41a22.33,22.33,0,1,1-22.33-22.34,22.33,22.33,0,0,1,22.33,22.34"/><path class="cls-8" d="M391.2,633.41a22.33,22.33,0,1,1-22.33-22.34,22.33,22.33,0,0,1,22.33,22.34"/><path class="cls-9" d="M788.53,246.27c0,11.55-17.32,11.55-17.32,0s17.32-11.54,17.32,0"/><path class="cls-8" d="M788.53,246.27c0,11.55-17.32,11.55-17.32,0s17.32-11.54,17.32,0"/><path class="cls-7" d="M686,299.18c0,10.84-16.26,10.84-16.26,0s16.26-10.84,16.26,0"/><path class="cls-8" d="M686,299.18c0,10.84-16.26,10.84-16.26,0s16.26-10.84,16.26,0"/><path class="cls-7" d="M426.31,417.13A24.34,24.34,0,1,1,402,392.8a24.33,24.33,0,0,1,24.33,24.33"/><path class="cls-8" d="M426.31,417.13A24.34,24.34,0,1,1,402,392.8a24.33,24.33,0,0,1,24.33,24.33"/><path class="cls-11" d="M580.43,300.38c0,10.86-16.3,10.86-16.3,0s16.3-10.87,16.3,0"/><path class="cls-8" d="M580.43,300.38c0,10.86-16.3,10.86-16.3,0s16.3-10.87,16.3,0"/><path class="cls-11" d="M471.76,344.33c0,12.4-18.59,12.4-18.59,0s18.59-12.39,18.59,0"/><path class="cls-8" d="M471.76,344.33c0,12.4-18.59,12.4-18.59,0s18.59-12.39,18.59,0"/><path class="cls-11" d="M549.54,348.18c0,17.74-26.63,17.74-26.63,0s26.63-17.75,26.63,0"/><path class="cls-8" d="M549.54,348.18c0,17.74-26.63,17.74-26.63,0s26.63-17.75,26.63,0"/><path class="cls-7" d="M447.32,345.08A19.34,19.34,0,1,1,428,325.72a19.33,19.33,0,0,1,19.34,19.36"/><path class="cls-8" d="M447.32,345.08A19.34,19.34,0,1,1,428,325.72a19.33,19.33,0,0,1,19.34,19.36"/><path class="cls-9" d="M644.68,300.07a14.54,14.54,0,1,1-14.53-14.54,14.53,14.53,0,0,1,14.53,14.54"/><path class="cls-8" d="M644.68,300.07a14.54,14.54,0,1,1-14.53-14.54,14.53,14.53,0,0,1,14.53,14.54"/><path class="cls-9" d="M677.33,270.64c0,13.71-20.57,13.71-20.57,0s20.57-13.72,20.57,0"/><path class="cls-8" d="M677.33,270.64c0,13.71-20.57,13.71-20.57,0s20.57-13.72,20.57,0"/><path class="cls-11" d="M667.84,263.12c0,11.22-16.84,11.22-16.84,0s16.84-11.23,16.84,0"/><path class="cls-8" d="M667.84,263.12c0,11.22-16.84,11.22-16.84,0s16.84-11.23,16.84,0"/><path class="cls-10" d="M547.43,289.87c0,9-13.51,9-13.51,0s13.51-9,13.51,0"/><path class="cls-8" d="M547.43,289.87c0,9-13.51,9-13.51,0s13.51-9,13.51,0"/><path class="cls-9" d="M597.13,335.92c0,16.53-24.78,16.53-24.78,0s24.78-16.52,24.78,0"/><path class="cls-8" d="M597.13,335.92c0,16.53-24.78,16.53-24.78,0s24.78-16.52,24.78,0"/><path class="cls-10" d="M269.88,640.57c0,13.16-19.74,13.16-19.74,0s19.74-13.16,19.74,0"/><path class="cls-8" d="M269.88,640.57c0,13.16-19.74,13.16-19.74,0s19.74-13.16,19.74,0"/><path class="cls-10" d="M344.82,416.61c0,7.52-11.27,7.52-11.27,0s11.27-7.52,11.27,0"/><path class="cls-8" d="M344.82,416.61c0,7.52-11.27,7.52-11.27,0s11.27-7.52,11.27,0"/><path class="cls-7" d="M687.19,332.43c0,17.55-26.33,17.55-26.33,0s26.33-17.55,26.33,0"/><path class="cls-8" d="M687.19,332.43c0,17.55-26.33,17.55-26.33,0s26.33-17.55,26.33,0"/><path class="cls-10" d="M358.67,445.24c0,14.18-21.27,14.18-21.27,0s21.27-14.18,21.27,0"/><path class="cls-8" d="M358.67,445.24c0,14.18-21.27,14.18-21.27,0s21.27-14.18,21.27,0"/><path class="cls-9" d="M582.16,318.2c0,13.57-20.35,13.57-20.35,0s20.35-13.56,20.35,0"/><path class="cls-8" d="M582.16,318.2c0,13.57-20.35,13.57-20.35,0s20.35-13.56,20.35,0"/><path class="cls-10" d="M269.06,683.23c0,12.19-18.28,12.19-18.28,0s18.28-12.18,18.28,0"/><path class="cls-8" d="M269.06,683.23c0,12.19-18.28,12.19-18.28,0s18.28-12.18,18.28,0"/><path class="cls-7" d="M782.62,248.88c0,11.52-17.28,11.52-17.28,0s17.28-11.52,17.28,0"/><path class="cls-8" d="M782.62,248.88c0,11.52-17.28,11.52-17.28,0s17.28-11.52,17.28,0"/><path class="cls-9" d="M664,310.53c0,11.91-17.87,11.91-17.87,0s17.87-11.91,17.87,0"/><path class="cls-8" d="M664,310.53c0,11.91-17.87,11.91-17.87,0s17.87-11.91,17.87,0"/><path class="cls-9" d="M703.94,272.63c0,10.1-15.14,10.1-15.14,0s15.14-10.09,15.14,0"/><path class="cls-8" d="M703.94,272.63c0,10.1-15.14,10.1-15.14,0s15.14-10.09,15.14,0"/><path class="cls-10" d="M279,618.31c0,13.24-19.87,13.24-19.87,0s19.87-13.25,19.87,0"/><path class="cls-8" d="M279,618.31c0,13.24-19.87,13.24-19.87,0s19.87-13.25,19.87,0"/><path class="cls-10" d="M580.16,604.61A15.16,15.16,0,1,1,565,589.45a15.15,15.15,0,0,1,15.15,15.16"/><path class="cls-8" d="M580.16,604.61A15.16,15.16,0,1,1,565,589.45a15.15,15.15,0,0,1,15.15,15.16"/><path class="cls-9" d="M725.51,237.63a14.76,14.76,0,1,1-14.75-14.77,14.75,14.75,0,0,1,14.75,14.77"/><path class="cls-8" d="M725.51,237.63a14.76,14.76,0,1,1-14.75-14.77,14.75,14.75,0,0,1,14.75,14.77"/><path class="cls-7" d="M468.16,336.86c0,16.12-24.19,16.12-24.19,0s24.19-16.14,24.19,0"/><path class="cls-8" d="M468.16,336.86c0,16.12-24.19,16.12-24.19,0s24.19-16.14,24.19,0"/><path class="cls-10" d="M416.77,497.57a15,15,0,1,1-15-15,15,15,0,0,1,15,15"/><path class="cls-8" d="M416.77,497.57a15,15,0,1,1-15-15,15,15,0,0,1,15,15"/><path class="cls-10" d="M479.57,717.55c0,9.37-14.05,9.37-14.05,0s14.05-9.37,14.05,0"/><path class="cls-8" d="M479.57,717.55c0,9.37-14.05,9.37-14.05,0s14.05-9.37,14.05,0"/><path class="cls-9" d="M741.36,238.29c0,13.21-19.82,13.21-19.82,0s19.82-13.22,19.82,0"/><path class="cls-8" d="M741.36,238.29c0,13.21-19.82,13.21-19.82,0s19.82-13.22,19.82,0"/><path class="cls-9" d="M754.13,228.8c0,12.72-19.07,12.72-19.07,0s19.07-12.71,19.07,0"/><path class="cls-8" d="M754.13,228.8c0,12.72-19.07,12.72-19.07,0s19.07-12.71,19.07,0"/><path class="cls-7" d="M474.76,316.57c0,15.9-23.86,15.9-23.86,0s23.86-15.9,23.86,0"/><path class="cls-8" d="M474.76,316.57c0,15.9-23.86,15.9-23.86,0s23.86-15.9,23.86,0"/><path class="cls-7" d="M722.82,267.13c0,16.7-25.05,16.7-25.05,0s25.05-16.7,25.05,0"/><path class="cls-8" d="M722.82,267.13c0,16.7-25.05,16.7-25.05,0s25.05-16.7,25.05,0"/><path class="cls-10" d="M306.53,567.7A14.5,14.5,0,1,1,292,553.2a14.49,14.49,0,0,1,14.5,14.5"/><path class="cls-8" d="M306.53,567.7A14.5,14.5,0,1,1,292,553.2a14.49,14.49,0,0,1,14.5,14.5"/><path class="cls-7" d="M554.3,357.52a17.22,17.22,0,1,1-17.22-17.22,17.21,17.21,0,0,1,17.22,17.22"/><path class="cls-8" d="M554.3,357.52a17.22,17.22,0,1,1-17.22-17.22,17.21,17.21,0,0,1,17.22,17.22"/><path class="cls-10" d="M271.94,499.15c0,12-18,12-18,0s18-12,18,0"/><path class="cls-8" d="M271.94,499.15c0,12-18,12-18,0s18-12,18,0"/><path class="cls-11" d="M657.31,366.78c0,9.29-13.95,9.29-13.95,0s13.95-9.3,13.95,0"/><path class="cls-8" d="M657.31,366.78c0,9.29-13.95,9.29-13.95,0s13.95-9.3,13.95,0"/><path class="cls-10" d="M540.83,319.12c0,13.6-20.41,13.6-20.41,0s20.41-13.61,20.41,0"/><path class="cls-8" d="M540.83,319.12c0,13.6-20.41,13.6-20.41,0s20.41-13.61,20.41,0"/><path class="cls-9" d="M571,344.05a17.76,17.76,0,1,1-17.76-17.76A17.75,17.75,0,0,1,571,344.05"/><path class="cls-8" d="M571,344.05a17.76,17.76,0,1,1-17.76-17.76A17.75,17.75,0,0,1,571,344.05"/><path class="cls-10" d="M299.34,579c0,17.84-26.75,17.84-26.75,0s26.75-17.83,26.75,0"/><path class="cls-8" d="M299.34,579c0,17.84-26.75,17.84-26.75,0s26.75-17.83,26.75,0"/><path class="cls-9" d="M745.77,255.23a16.83,16.83,0,1,1-16.83-16.83,16.83,16.83,0,0,1,16.83,16.83"/><path class="cls-8" d="M745.77,255.23a16.83,16.83,0,1,1-16.83-16.83,16.83,16.83,0,0,1,16.83,16.83"/><path class="cls-11" d="M792.6,269A30.59,30.59,0,1,1,762,238.38,30.6,30.6,0,0,1,792.6,269"/><path class="cls-8" d="M792.6,269A30.59,30.59,0,1,1,762,238.38,30.6,30.6,0,0,1,792.6,269"/><path class="cls-11" d="M590.61,290.54c0,11-16.46,11-16.46,0s16.46-11,16.46,0"/><path class="cls-8" d="M590.61,290.54c0,11-16.46,11-16.46,0s16.46-11,16.46,0"/><path class="cls-11" d="M604.72,321.17c0,17.26-25.91,17.26-25.91,0s25.91-17.27,25.91,0"/><path class="cls-8" d="M604.72,321.17c0,17.26-25.91,17.26-25.91,0s25.91-17.27,25.91,0"/><path class="cls-7" d="M412.51,315.34a18.9,18.9,0,1,1-18.9-18.9,18.9,18.9,0,0,1,18.9,18.9"/><path class="cls-8" d="M412.51,315.34a18.9,18.9,0,1,1-18.9-18.9,18.9,18.9,0,0,1,18.9,18.9"/><path class="cls-7" d="M429.6,324.94c0,11.26-16.89,11.26-16.89,0s16.89-11.26,16.89,0"/><path class="cls-8" d="M429.6,324.94c0,11.26-16.89,11.26-16.89,0s16.89-11.26,16.89,0"/><path class="cls-7" d="M397.23,449.47c0,16.52-24.76,16.52-24.76,0s24.76-16.51,24.76,0"/><path class="cls-8" d="M397.23,449.47c0,16.52-24.76,16.52-24.76,0s24.76-16.51,24.76,0"/><path class="cls-10" d="M320.28,685.36c0,14-21,14-21,0s21-14,21,0"/><path class="cls-8" d="M320.28,685.36c0,14-21,14-21,0s21-14,21,0"/><path class="cls-10" d="M192.47,672.56c0,14.19-21.28,14.19-21.28,0s21.28-14.19,21.28,0"/><path class="cls-8" d="M192.47,672.56c0,14.19-21.28,14.19-21.28,0s21.28-14.19,21.28,0"/></g></g></svg>