<svg xmlns="http://www.w3.org/2000/svg" xmlns:xlink="http://www.w3.org/1999/xlink" viewBox="0 0 735 852"><defs><style>.cls-1,.cls-16,.cls-9{fill:none;}.cls-2{fill:#dea449;}.cls-3{clip-path:url(#clip-path);}.cls-4{fill:#6cb9dc;}.cls-5,.cls-7{fill:#487e96;}.cls-6{clip-path:url(#clip-path-2);}.cls-7{opacity:0.5;}.cls-8{clip-path:url(#clip-path-3);}.cls-16,.cls-9{stroke:#000;stroke-miterlimit:10;}.cls-9{stroke-width:4px;}.cls-10,.cls-11,.cls-13{fill:#fff;}.cls-11{font-size:120px;font-family:Oswald-Bold, Oswald;font-weight:700;}.cls-12{letter-spacing:0em;}.cls-13{font-size:50px;font-family:Oswald-Light, Oswald;font-weight:300;}.cls-14{letter-spacing:-0.01em;}.cls-15{letter-spacing:0em;}.cls-16{stroke-width:2px;}</style><clipPath id="clip-path"><polygon class="cls-1" points="369.6 7 728.3 214.1 728.3 636.3 369.6 844.7 2.9 636.3 2.9 214.1 369.6 7"/></clipPath><clipPath id="clip-path-2"><polygon class="cls-1" points="1205.36 34.55 1539.7 227.58 1539.7 621.1 1201.6 816.3 863.57 621.1 863.57 227.58 1205.36 34.55"/></clipPath><clipPath id="clip-path-3"><polygon class="cls-1" points="371.36 34.55 705.7 227.58 705.7 621.1 367.6 816.3 29.57 621.1 29.57 227.58 371.36 34.55"/></clipPath></defs><title>dspm_text</title><g id="Layer_1" data-name="Layer 1"><path class="cls-2" d="M168.2,672.6l.9-.9h-.3Z"/><g class="cls-3"><circle class="cls-4" cx="365.6" cy="437.1" r="442.1"/></g><path class="cls-5" d="M705.7,195.8,427.9,35.5,367.6.6,307.3,35.5,29.5,195.9.2,212.8V637l29.3,16.9L310.7,816.3l56.9,32.8,56.9-32.8L705.7,653.9,735,637V212.8Zm0,425.3L367.6,816.3,29.5,621.1V230.7L367.6,35.5h0L705.7,230.7Z"/><path class="cls-2" d="M367.1,603.9l.9-.9h-.3Z"/></g><g id="Layer_2" data-name="Layer 2"><g class="cls-6"><polygon class="cls-7" points="1649.44 625.92 1641.39 625.39 1627.23 624.13 1613.06 622.5 1598.9 620.42 1584.69 617.73 1570.52 614.36 1556.36 610.13 1542.19 604.92 1527.99 598.58 1513.82 590.94 1499.66 581.83 1485.45 571.13 1471.28 558.7 1457.12 544.44 1442.95 528.29 1428.74 510.23 1414.58 490.35 1400.41 468.74 1386.25 445.58 1372.04 421.18 1357.88 395.87 1343.71 370.07 1329.5 344.27 1315.34 319.02 1301.17 294.89 1287.01 272.46 1272.8 252.32 1258.64 234.98 1244.47 220.95 1230.31 210.63 1216.1 204.31 1201.93 202.17 1187.77 204.31 1173.56 210.63 1159.39 220.95 1145.23 234.98 1131.07 252.32 1116.86 272.46 1102.69 294.89 1088.53 319.02 1074.36 344.27 1060.15 370.07 1045.99 395.87 1031.82 421.18 1017.62 445.58 1003.45 468.74 989.29 490.35 975.12 510.23 960.91 528.29 946.75 544.44 932.58 558.7 918.42 571.13 904.21 581.83 890.04 590.94 875.88 598.58 861.67 604.92 847.51 610.13 833.34 614.36 819.18 617.73 804.97 620.42 790.8 622.5 776.64 624.13 762.47 625.39 754.42 625.92 493.08 625.92 493.08 992 1910.79 992 1910.79 625.92 1649.44 625.92"/><polygon class="cls-7" points="1767.91 625.92 1759.87 625.39 1745.7 624.13 1731.54 622.5 1717.37 620.42 1703.16 617.73 1689 614.36 1674.83 610.13 1660.67 604.92 1646.46 598.58 1632.3 590.94 1618.13 581.83 1603.92 571.13 1589.76 558.7 1575.59 544.44 1561.43 528.29 1547.22 510.23 1533.05 490.35 1518.89 468.74 1504.72 445.58 1490.52 421.18 1476.35 395.87 1462.19 370.07 1447.98 344.27 1433.81 319.02 1419.65 294.89 1405.48 272.46 1391.28 252.32 1377.11 234.98 1362.94 220.95 1348.78 210.63 1334.57 204.31 1320.41 202.17 1306.24 204.31 1292.03 210.63 1277.87 220.95 1263.7 234.98 1249.54 252.32 1235.33 272.46 1221.17 294.89 1207 319.02 1192.84 344.27 1178.63 370.07 1164.46 395.87 1150.3 421.18 1136.09 445.58 1121.92 468.74 1107.76 490.35 1093.6 510.23 1079.39 528.29 1065.22 544.44 1051.06 558.7 1036.89 571.13 1022.68 581.83 1008.52 590.94 994.35 598.58 980.14 604.92 965.98 610.13 951.82 614.36 937.65 617.73 923.44 620.42 909.28 622.5 895.11 624.13 880.95 625.39 872.9 625.92 611.55 625.92 611.55 992 2029.26 992 2029.26 625.92 1767.91 625.92"/><polygon class="cls-7" points="1527.84 625.92 1519.79 625.39 1505.63 624.13 1491.46 622.5 1477.3 620.42 1463.09 617.73 1448.92 614.36 1434.76 610.13 1420.6 604.92 1406.39 598.58 1392.22 590.94 1378.06 581.83 1363.85 571.13 1349.68 558.7 1335.52 544.44 1321.35 528.29 1307.15 510.23 1292.98 490.35 1278.82 468.74 1264.65 445.58 1250.44 421.18 1236.28 395.87 1222.11 370.07 1207.9 344.27 1193.74 319.02 1179.58 294.89 1165.41 272.46 1151.2 252.32 1137.04 234.98 1122.87 220.95 1108.71 210.63 1094.5 204.31 1080.33 202.17 1066.17 204.31 1051.96 210.63 1037.8 220.95 1023.63 234.98 1009.47 252.32 995.26 272.46 981.09 294.89 966.93 319.02 952.76 344.27 938.55 370.07 924.39 395.87 910.23 421.18 896.02 445.58 881.85 468.74 867.69 490.35 853.52 510.23 839.31 528.29 825.15 544.44 810.98 558.7 796.82 571.13 782.61 581.83 768.45 590.94 754.28 598.58 740.07 604.92 725.91 610.13 711.74 614.36 697.58 617.73 683.37 620.42 669.2 622.5 655.04 624.13 640.88 625.39 632.83 625.92 371.48 625.92 371.48 992 1789.19 992 1789.19 625.92 1527.84 625.92"/></g><g class="cls-8"><polygon class="cls-7" points="643.58 626.02 638.61 625.7 629.87 624.92 621.12 623.91 612.38 622.63 603.61 620.97 594.86 618.88 586.12 616.28 577.38 613.06 568.6 609.14 559.86 604.43 551.12 598.8 542.35 592.2 533.6 584.53 524.86 575.73 516.11 565.75 507.34 554.61 498.6 542.33 489.86 528.99 481.11 514.7 472.34 499.64 463.6 484.01 454.85 468.09 446.08 452.16 437.34 436.58 428.6 421.68 419.85 407.84 411.08 395.4 402.34 384.7 393.59 376.04 384.85 369.67 376.08 365.76 367.33 364.45 358.59 365.76 349.82 369.67 341.08 376.04 332.33 384.7 323.59 395.4 314.82 407.84 306.07 421.68 297.33 436.58 288.59 452.16 279.82 468.09 271.07 484.01 262.33 499.64 253.56 514.7 244.81 528.99 236.07 542.33 227.33 554.61 218.56 565.75 209.81 575.73 201.07 584.53 192.32 592.2 183.55 598.8 174.81 604.43 166.07 609.14 157.29 613.06 148.55 616.28 139.81 618.88 131.06 620.97 122.29 622.63 113.55 623.91 104.81 624.92 96.06 625.7 91.09 626.02 -70.23 626.02 -70.23 852 804.9 852 804.9 626.02 643.58 626.02"/><polygon class="cls-7" points="716.71 626.02 711.74 625.7 703 624.92 694.25 623.91 685.51 622.63 676.74 620.97 668 618.88 659.25 616.28 650.51 613.06 641.74 609.14 632.99 604.43 624.25 598.8 615.48 592.2 606.74 584.53 597.99 575.73 589.25 565.75 580.48 554.61 571.73 542.33 562.99 528.99 554.25 514.7 545.47 499.64 536.73 484.01 527.99 468.09 519.22 452.16 510.47 436.58 501.73 421.68 492.98 407.84 484.21 395.4 475.47 384.7 466.73 376.04 457.98 369.67 449.21 365.76 440.47 364.45 431.72 365.76 422.95 369.67 414.21 376.04 405.46 384.7 396.72 395.4 387.95 407.84 379.21 421.68 370.46 436.58 361.72 452.16 352.95 468.09 344.2 484.01 335.46 499.64 326.69 514.7 317.95 528.99 309.2 542.33 300.46 554.61 291.69 565.75 282.94 575.73 274.2 584.53 265.46 592.2 256.69 598.8 247.94 604.43 239.2 609.14 230.43 613.06 221.68 616.28 212.94 618.88 204.2 620.97 195.43 622.63 186.68 623.91 177.94 624.92 169.19 625.7 164.22 626.02 2.9 626.02 2.9 852 878.03 852 878.03 626.02 716.71 626.02"/><polygon class="cls-7" points="568.52 626.02 563.55 625.7 554.8 624.92 546.06 623.91 537.32 622.63 528.54 620.97 519.8 618.88 511.06 616.28 502.31 613.06 493.54 609.14 484.8 604.43 476.06 598.8 467.28 592.2 458.54 584.53 449.8 575.73 441.05 565.75 432.28 554.61 423.54 542.33 414.79 528.99 406.05 514.7 397.28 499.64 388.54 484.01 379.79 468.09 371.02 452.16 362.28 436.58 353.53 421.68 344.79 407.84 336.02 395.4 327.27 384.7 318.53 376.04 309.79 369.67 301.02 365.76 292.27 364.45 283.53 365.76 274.76 369.67 266.01 376.04 257.27 384.7 248.53 395.4 239.76 407.84 231.01 421.68 222.27 436.58 213.53 452.16 204.75 468.09 196.01 484.01 187.27 499.64 178.5 514.7 169.75 528.99 161.01 542.33 152.26 554.61 143.49 565.75 134.75 575.73 126.01 584.53 117.26 592.2 108.49 598.8 99.75 604.43 91 609.14 82.23 613.06 73.49 616.28 64.75 618.88 56 620.97 47.23 622.63 38.49 623.91 29.74 624.92 21 625.7 16.03 626.02 -145.29 626.02 -145.29 852 729.84 852 729.84 626.02 568.52 626.02"/><line class="cls-9" x1="-51.91" y1="623.68" x2="760.76" y2="623.68"/></g></g><g id="Layer_3" data-name="Layer 3"><polygon class="cls-10" points="481.85 621.33 259.67 621.33 270.69 601.86 468.06 601.86 481.85 621.33"/><path class="cls-10" d="M459.17,589.33l5.64,7.95h-27l-69.56-28.82h0L306.06,594h0l-7.91,3.25h-24.9l4.65-8.22,19.1-.94V546c14.16-11.63,52.12-16.85,70.87-16.62v0l1.05,0h.12l1.09,0v0c17.32-.22,53.27,4.54,68.82,15.1l.35,44.09Zm-31.3-14.05v-24a2.63,2.63,0,0,0-1.06-2.07,4,4,0,0,0-2.57-.86c-2,0-3.61,1.32-3.61,2.93v24a2.69,2.69,0,0,0,1,2.07,4.15,4.15,0,0,0,2.57.85C426.26,578.2,427.87,576.9,427.87,575.28Zm-18.69-5.4v-26a3,3,0,0,0-1.05-2.23,3.84,3.84,0,0,0-2.56-.93,3.42,3.42,0,0,0-3.64,3.16v26a2.92,2.92,0,0,0,1.07,2.24,3.83,3.83,0,0,0,2.57.93A3.41,3.41,0,0,0,409.18,569.88Zm-18.7-4.08v-26a3,3,0,0,0-1.06-2.25,3.82,3.82,0,0,0-2.56-.93,3.43,3.43,0,0,0-3.63,3.18v26a3,3,0,0,0,1.06,2.23,3.84,3.84,0,0,0,2.56.93A3.41,3.41,0,0,0,390.48,565.8Zm-18.69-2.06V538.9a2.87,2.87,0,0,0-1.05-2.16,4,4,0,0,0-2.56-.88,3.36,3.36,0,0,0-3.63,3v24.85a2.73,2.73,0,0,0,1.07,2.13,3.93,3.93,0,0,0,2.56.89A3.36,3.36,0,0,0,371.79,563.74Zm-18.69,2.44v-26a2.92,2.92,0,0,0-1.07-2.24,3.82,3.82,0,0,0-2.56-.93,3.42,3.42,0,0,0-3.62,3.18v26a3,3,0,0,0,1,2.23,3.87,3.87,0,0,0,2.57.93A3.42,3.42,0,0,0,353.1,566.18Zm-18.7,3.7v-26a3,3,0,0,0-1-2.23,3.87,3.87,0,0,0-2.57-.93,3.42,3.42,0,0,0-3.63,3.16v26a2.92,2.92,0,0,0,1.07,2.24,3.8,3.8,0,0,0,2.56.93A3.41,3.41,0,0,0,334.4,569.88Zm-18.69,5.4v-24a2.64,2.64,0,0,0-1.07-2.07,4,4,0,0,0-2.56-.86c-2,0-3.62,1.32-3.62,2.93v24a2.71,2.71,0,0,0,1.05,2.07,4.15,4.15,0,0,0,2.57.85C314.09,578.2,315.71,576.9,315.71,575.28Z"/><path class="cls-10" d="M445.15,535.27a13.77,13.77,0,0,1,.29,8.49,27.61,27.61,0,0,0-2.84-2.37c-16.86-12.39-56.72-17-73.54-16.63h-.12c-18.19-.39-60.27,4.7-75.65,18.34a10.3,10.3,0,0,1-.42-7.81,47.64,47.64,0,0,1,12.56-7.36c18.9-8,48.3-11.83,62.89-11.55v0h1.38v0c12.21-.23,37.42,2.46,57.07,9.32C434.94,528.55,441.13,531.77,445.15,535.27Z"/><path class="cls-10" d="M432.47,502.13c-12.8-14.32-48.09-20.58-65-20.07h-.06c-15.5-.44-51.57,5.11-64.87,20,0,0-.05,0-.06.07-.89-7.09,1.78-10.56,1.78-10.56,3.47-3.36,8.4-6.44,14.68-9.2,16.61-7.26,37.71-10.13,48-9.89v.05a4.16,4.16,0,0,1,.54,0h.08a3.75,3.75,0,0,1,.48,0v-.05c10-.24,31.07,2.56,47.69,9.77,7.32,3.18,12.83,6.79,16.34,10.74A17.4,17.4,0,0,1,432.47,502.13Z"/><path class="cls-10" d="M429.41,505.6v16.17l-1.14-.41c-4.36-1.52-9-2.83-13.7-4a.66.66,0,0,0,.05-.25V504.31c0-.87-1.28-1.55-2.86-1.55s-2.87.69-2.87,1.55v11.8c-3.07-.63-6.13-1.2-9.14-1.67a.89.89,0,0,0,.09-.39V500.1c0-.92-1.28-1.69-2.85-1.69s-2.87.77-2.87,1.69v13.5c-3.14-.45-6.2-.8-9.08-1.08a.86.86,0,0,0,0-.27V497.41c0-1-1.28-1.83-2.88-1.83s-2.85.82-2.85,1.83v14.68c-3.44-.22-6.51-.31-9.08-.27a.69.69,0,0,0,0-.24V496.15c0-1-1.28-1.88-2.85-1.88s-2.87.84-2.87,1.88v15.43a.77.77,0,0,0,0,.25c-2.71,0-5.76.21-9.08.47V497.63c0-1-1.28-1.83-2.87-1.83s-2.86.82-2.86,1.83v14.86a1.1,1.1,0,0,0,.05.35c-2.91.32-6,.72-9.09,1.19V500.11c0-.93-1.28-1.69-2.87-1.69s-2.85.76-2.85,1.69v13.95a1.14,1.14,0,0,0,.4.84c-3.15.55-6.31,1.19-9.45,1.89V504.32c0-.87-1.28-1.55-2.85-1.55s-2.87.68-2.87,1.55v12.82a1.12,1.12,0,0,0,.55.9,132.06,132.06,0,0,0-14.29,4.52v-18c12-12.53,44.27-18.16,60-17.9v.05c.25,0,.49,0,.79,0h.17l.92.05v-.06C384.66,486.38,418.34,492.46,429.41,505.6Z"/><polygon class="cls-10" points="425.78 597.28 310.23 597.28 368.08 573.48 425.78 597.28"/><path class="cls-10" d="M378.29,427.72c16.22,5.86,29,23.53,35.39,48.76-15.36-5.85-34.85-8.92-46-8.55h-.21c-9.63-.32-29.62,2.17-46.44,8.67,5.65-25.91,19-44.27,36.28-49.48A33,33,0,0,1,378.29,427.72Z"/><path class="cls-10" d="M377.15,401.27v21.28a37.21,37.21,0,0,0-18.33-.55V401.84a14,14,0,0,1,4-2.61,13.38,13.38,0,0,1,10-.14A19.52,19.52,0,0,1,377.15,401.27Z"/><path class="cls-10" d="M367.55,366.32c1,2.41,2.85,9.49,3.42,29.12a16.09,16.09,0,0,0-6.71.12C364.14,379.45,366.07,369.65,367.55,366.32Z"/></g><g id="Layer_4" data-name="Layer 4"><text class="cls-11" transform="translate(60.29 331.25)">d<tspan class="cls-12" x="60.36" y="0">a</tspan><tspan x="117.24" y="0">ta science</tspan></text><text class="cls-13" transform="translate(173.24 694.25)">for public mana<tspan class="cls-14" x="262.94" y="0">g</tspan><tspan class="cls-15" x="284.14" y="0">ement</tspan></text><line class="cls-16" x1="363.17" y1="623.68" x2="363.17" y2="640.67"/><line class="cls-16" x1="313.17" y1="623.68" x2="313.17" y2="640.67"/><line class="cls-16" x1="263.17" y1="623.68" x2="263.17" y2="640.67"/><line class="cls-16" x1="213.17" y1="623.68" x2="213.17" y2="640.67"/><line class="cls-16" x1="163.17" y1="623.68" x2="163.17" y2="640.67"/><line class="cls-16" x1="113.17" y1="623.68" x2="113.17" y2="640.67"/><line class="cls-16" x1="63.17" y1="623.68" x2="63.17" y2="640.67"/><line class="cls-16" x1="413.17" y1="623.68" x2="413.17" y2="640.67"/><line class="cls-16" x1="463.17" y1="623.68" x2="463.17" y2="640.67"/><line class="cls-16" x1="513.17" y1="623.68" x2="513.17" y2="640.67"/><line class="cls-16" x1="563.17" y1="623.68" x2="563.17" y2="640.67"/><line class="cls-16" x1="613.17" y1="623.68" x2="613.17" y2="640.67"/><line class="cls-16" x1="663.17" y1="623.68" x2="663.17" y2="640.67"/></g></svg>