<svg xmlns="http://www.w3.org/2000/svg" xmlns:xlink="http://www.w3.org/1999/xlink" viewBox="0 0 735 852"><defs><style>.cls-1,.cls-12,.cls-8{fill:none;}.cls-2{fill:#dea449;}.cls-3{clip-path:url(#clip-path);}.cls-4{fill:#6cb9dc;}.cls-5,.cls-7{fill:#487e96;}.cls-6{clip-path:url(#clip-path-2);}.cls-7{opacity:0.5;}.cls-12,.cls-8{stroke:#000;stroke-miterlimit:10;}.cls-8{stroke-width:4px;}.cls-9{clip-path:url(#clip-path-3);}.cls-10{clip-path:url(#clip-path-4);}.cls-11{fill:#fff;}.cls-12{stroke-width:2px;}</style><clipPath id="clip-path"><polygon class="cls-1" points="369.6 7 728.3 214.1 728.3 636.3 369.6 844.7 2.9 636.3 2.9 214.1 369.6 7"/></clipPath><clipPath id="clip-path-2"><polygon class="cls-1" points="371.36 34.55 705.7 227.58 705.7 621.1 367.6 816.3 29.57 621.1 29.57 227.58 371.36 34.55"/></clipPath><clipPath id="clip-path-3"><polygon class="cls-1" points="1202.5 40.91 1531.56 230.89 1531.56 618.2 1198.8 810.32 866.11 618.2 866.11 230.89 1202.5 40.91"/></clipPath><clipPath id="clip-path-4"><polygon class="cls-1" points="-462.64 34.55 -128.3 227.58 -128.3 621.1 -466.4 816.3 -804.43 621.1 -804.43 227.58 -462.64 34.55"/></clipPath></defs><title>dspm_no-text</title><g id="Layer_1" data-name="Layer 1"><path class="cls-2" d="M168.2,672.6l.9-.9h-.3Z"/><g class="cls-3"><circle class="cls-4" cx="365.6" cy="437.1" r="442.1"/></g><path class="cls-5" d="M705.7,195.8,427.9,35.5,367.6.6,307.3,35.5,29.5,195.9.2,212.8V637l29.3,16.9L310.7,816.3l56.9,32.8,56.9-32.8L705.7,653.9,735,637V212.8Zm0,425.3L367.6,816.3,29.5,621.1V230.7L367.6,35.5h0L705.7,230.7Z"/><path class="cls-2" d="M367.1,603.9l.9-.9h-.3Z"/></g><g id="Layer_2" data-name="Layer 2"><g class="cls-6"><polygon class="cls-7" points="815.44 625.92 807.39 625.39 793.23 624.13 779.06 622.5 764.9 620.42 750.69 617.73 736.52 614.36 722.36 610.13 708.19 604.92 693.99 598.58 679.82 590.94 665.66 581.83 651.45 571.13 637.28 558.7 623.12 544.44 608.95 528.29 594.75 510.23 580.58 490.35 566.41 468.74 552.25 445.58 538.04 421.18 523.88 395.87 509.71 370.07 495.5 344.27 481.34 319.02 467.17 294.89 453.01 272.46 438.8 252.32 424.64 234.98 410.47 220.95 396.31 210.63 382.1 204.31 367.93 202.17 353.77 204.31 339.56 210.63 325.39 220.95 311.23 234.98 297.06 252.32 282.86 272.46 268.69 294.89 254.53 319.02 240.36 344.27 226.15 370.07 211.99 395.87 197.82 421.18 183.62 445.58 169.45 468.74 155.29 490.35 141.12 510.23 126.91 528.29 112.75 544.44 98.58 558.7 84.42 571.13 70.21 581.83 56.05 590.94 41.88 598.58 27.67 604.92 13.51 610.13 -0.66 614.36 -14.82 617.73 -29.03 620.42 -43.2 622.5 -57.36 624.13 -71.53 625.39 -79.58 625.92 -340.92 625.92 -340.92 992 1076.79 992 1076.79 625.92 815.44 625.92"/><polygon class="cls-7" points="933.91 625.92 925.87 625.39 911.7 624.13 897.54 622.5 883.37 620.42 869.16 617.73 855 614.36 840.83 610.13 826.67 604.92 812.46 598.58 798.29 590.94 784.13 581.83 769.92 571.13 755.76 558.7 741.59 544.44 727.43 528.29 713.22 510.23 699.05 490.35 684.89 468.74 670.72 445.58 656.52 421.18 642.35 395.87 628.19 370.07 613.98 344.27 599.81 319.02 585.65 294.89 571.48 272.46 557.27 252.32 543.11 234.98 528.95 220.95 514.78 210.63 500.57 204.31 486.41 202.17 472.24 204.31 458.03 210.63 443.87 220.95 429.7 234.98 415.54 252.32 401.33 272.46 387.17 294.89 373 319.02 358.84 344.27 344.63 370.07 330.46 395.87 316.3 421.18 302.09 445.58 287.92 468.74 273.76 490.35 259.6 510.23 245.39 528.29 231.22 544.44 217.06 558.7 202.89 571.13 188.68 581.83 174.52 590.94 160.35 598.58 146.15 604.92 131.98 610.13 117.81 614.36 103.65 617.73 89.44 620.42 75.28 622.5 61.11 624.13 46.95 625.39 38.9 625.92 -222.45 625.92 -222.45 992 1195.26 992 1195.26 625.92 933.91 625.92"/><polygon class="cls-7" points="693.84 625.92 685.79 625.39 671.63 624.13 657.46 622.5 643.3 620.42 629.09 617.73 614.92 614.36 600.76 610.13 586.6 604.92 572.39 598.58 558.22 590.94 544.06 581.83 529.85 571.13 515.68 558.7 501.52 544.44 487.35 528.29 473.15 510.23 458.98 490.35 444.82 468.74 430.65 445.58 416.44 421.18 402.28 395.87 388.11 370.07 373.9 344.27 359.74 319.02 345.57 294.89 331.41 272.46 317.2 252.32 303.04 234.98 288.87 220.95 274.71 210.63 260.5 204.31 246.33 202.17 232.17 204.31 217.96 210.63 203.8 220.95 189.63 234.98 175.47 252.32 161.26 272.46 147.09 294.89 132.93 319.02 118.76 344.27 104.56 370.07 90.39 395.87 76.22 421.18 62.02 445.58 47.85 468.74 33.69 490.35 19.52 510.23 5.31 528.29 -8.85 544.44 -23.02 558.7 -37.18 571.13 -51.39 581.83 -65.55 590.94 -79.72 598.58 -93.93 604.92 -108.09 610.13 -122.26 614.36 -136.42 617.73 -150.63 620.42 -164.8 622.5 -178.96 624.13 -193.13 625.39 -201.18 625.92 -462.52 625.92 -462.52 992 955.19 992 955.19 625.92 693.84 625.92"/><line class="cls-8" x1="-51.91" y1="623.68" x2="760.76" y2="623.68"/></g><g class="cls-9"><polygon class="cls-7" points="1639.57 622.95 1631.64 622.42 1617.7 621.19 1603.76 619.58 1589.82 617.53 1575.84 614.88 1561.9 611.56 1547.95 607.41 1534.01 602.27 1520.03 596.04 1506.09 588.51 1492.15 579.55 1478.16 569.02 1464.22 556.78 1450.28 542.75 1436.34 526.85 1422.36 509.08 1408.41 489.51 1394.47 468.24 1380.53 445.45 1366.55 421.44 1352.61 396.53 1338.67 371.13 1324.68 345.74 1310.74 320.9 1296.8 297.14 1282.86 275.07 1268.87 255.24 1254.93 238.18 1240.99 224.37 1227.05 214.21 1213.07 207.99 1199.13 205.89 1185.18 207.99 1171.2 214.21 1157.26 224.37 1143.32 238.18 1129.38 255.24 1115.39 275.07 1101.45 297.14 1087.51 320.9 1073.57 345.74 1059.59 371.13 1045.64 396.53 1031.7 421.44 1017.72 445.45 1003.78 468.24 989.84 489.51 975.89 509.08 961.91 526.85 947.97 542.75 934.03 556.78 920.09 569.02 906.1 579.55 892.16 588.51 878.22 596.04 864.24 602.27 850.3 607.41 836.36 611.56 822.41 614.88 808.43 617.53 794.49 619.58 780.55 621.19 766.61 622.42 758.68 622.95 501.47 622.95 501.47 983.24 1896.78 983.24 1896.78 622.95 1639.57 622.95"/><polygon class="cls-7" points="1756.17 622.95 1748.25 622.42 1734.31 621.19 1720.37 619.58 1706.42 617.53 1692.44 614.88 1678.5 611.56 1664.56 607.41 1650.62 602.27 1636.63 596.04 1622.69 588.51 1608.75 579.55 1594.77 569.02 1580.83 556.78 1566.88 542.75 1552.94 526.85 1538.96 509.08 1525.02 489.51 1511.08 468.24 1497.13 445.45 1483.15 421.44 1469.21 396.53 1455.27 371.13 1441.29 345.74 1427.34 320.9 1413.4 297.14 1399.46 275.07 1385.48 255.24 1371.54 238.18 1357.6 224.37 1343.65 214.21 1329.67 207.99 1315.73 205.89 1301.79 207.99 1287.8 214.21 1273.86 224.37 1259.92 238.18 1245.98 255.24 1232 275.07 1218.05 297.14 1204.11 320.9 1190.17 345.74 1176.19 371.13 1162.25 396.53 1148.31 421.44 1134.32 445.45 1120.38 468.24 1106.44 489.51 1092.5 509.08 1078.51 526.85 1064.57 542.75 1050.63 556.78 1036.69 569.02 1022.71 579.55 1008.76 588.51 994.82 596.04 980.84 602.27 966.9 607.41 952.96 611.56 939.02 614.88 925.03 617.53 911.09 619.58 897.15 621.19 883.21 622.42 875.29 622.95 618.07 622.95 618.07 983.24 2013.39 983.24 2013.39 622.95 1756.17 622.95"/><polygon class="cls-7" points="1519.89 622.95 1511.97 622.42 1498.03 621.19 1484.08 619.58 1470.14 617.53 1456.16 614.88 1442.22 611.56 1428.28 607.41 1414.34 602.27 1400.35 596.04 1386.41 588.51 1372.47 579.55 1358.48 569.02 1344.54 556.78 1330.6 542.75 1316.66 526.85 1302.68 509.08 1288.74 489.51 1274.8 468.24 1260.85 445.45 1246.87 421.44 1232.93 396.53 1218.99 371.13 1205 345.74 1191.06 320.9 1177.12 297.14 1163.18 275.07 1149.2 255.24 1135.25 238.18 1121.31 224.37 1107.37 214.21 1093.39 207.99 1079.45 205.89 1065.51 207.99 1051.52 214.21 1037.58 224.37 1023.64 238.18 1009.7 255.24 995.71 275.07 981.77 297.14 967.83 320.9 953.89 345.74 939.91 371.13 925.97 396.53 912.02 421.44 898.04 445.45 884.1 468.24 870.16 489.51 856.22 509.08 842.23 526.85 828.29 542.75 814.35 556.78 800.41 569.02 786.42 579.55 772.48 588.51 758.54 596.04 744.56 602.27 730.62 607.41 716.68 611.56 702.74 614.88 688.75 617.53 674.81 619.58 660.87 621.19 646.93 622.42 639 622.95 381.79 622.95 381.79 983.24 1777.11 983.24 1777.11 622.95 1519.89 622.95"/></g><g class="cls-10"><polygon class="cls-7" points="-117.29 626.02 -122.26 625.7 -131 624.92 -139.75 623.91 -148.49 622.63 -157.26 620.97 -166 618.88 -174.75 616.28 -183.49 613.06 -192.26 609.14 -201.01 604.43 -209.75 598.8 -218.52 592.2 -227.26 584.53 -236.01 575.73 -244.75 565.75 -253.52 554.61 -262.27 542.33 -271.01 528.99 -279.75 514.7 -288.53 499.64 -297.27 484.01 -306.01 468.09 -314.78 452.16 -323.53 436.58 -332.27 421.68 -341.02 407.84 -349.79 395.4 -358.53 384.7 -367.27 376.04 -376.02 369.67 -384.79 365.76 -393.53 364.45 -402.28 365.76 -411.05 369.67 -419.79 376.04 -428.54 384.7 -437.28 395.4 -446.05 407.84 -454.79 421.68 -463.54 436.58 -472.28 452.16 -481.05 468.09 -489.8 484.01 -498.54 499.64 -507.31 514.7 -516.05 528.99 -524.8 542.33 -533.54 554.61 -542.31 565.75 -551.06 575.73 -559.8 584.53 -568.54 592.2 -577.31 598.8 -586.06 604.43 -594.8 609.14 -603.57 613.06 -612.32 616.28 -621.06 618.88 -629.8 620.97 -638.58 622.63 -647.32 623.91 -656.06 624.92 -664.81 625.7 -669.77 626.02 -831.1 626.02 -831.1 852 44.03 852 44.03 626.02 -117.29 626.02"/></g></g><g id="Layer_3" data-name="Layer 3"><polygon class="cls-11" points="544 621.33 197.53 621.33 214.7 590.97 522.49 590.97 544 621.33"/><path class="cls-11" d="M508.63,571.43l8.79,12.4H475.31l-108.46-45h0l-97,39.86,0,0-12.33,5.07H218.73L226,571l29.77-1.45V503.78c22.08-18.14,81.29-26.28,110.52-25.92v.08l1.64-.06h.19l1.69.06v-.08c27-.34,83.08,7.09,107.33,23.56l.55,68.75Zm-48.81-21.91V512a4.1,4.1,0,0,0-1.66-3.23,6.26,6.26,0,0,0-4-1.34c-3.12,0-5.64,2.05-5.64,4.57v37.49a4.23,4.23,0,0,0,1.64,3.23,6.45,6.45,0,0,0,4,1.33C457.3,554.08,459.82,552,459.82,549.52Zm-29.15-8.43V500.53a4.65,4.65,0,0,0-1.64-3.47,6,6,0,0,0-4-1.45c-3.15,0-5.68,2.22-5.68,4.92v40.56a4.49,4.49,0,0,0,1.67,3.49,5.9,5.9,0,0,0,4,1.46C428.14,546,430.67,543.83,430.67,541.09Zm-29.15-6.36V494.19a4.61,4.61,0,0,0-1.66-3.5,5.94,5.94,0,0,0-4-1.45c-3.12,0-5.65,2.21-5.65,4.95v40.55a4.69,4.69,0,0,0,1.64,3.47,6,6,0,0,0,4,1.46C399,539.66,401.52,537.45,401.52,534.73Zm-29.15-3.2V492.78a4.47,4.47,0,0,0-1.64-3.35,6.22,6.22,0,0,0-4-1.39c-3.14,0-5.66,2.12-5.66,4.74v38.74a4.32,4.32,0,0,0,1.67,3.33,6.14,6.14,0,0,0,4,1.38C369.84,536.24,372.37,534.11,372.37,531.53Zm-29.15,3.8V494.77a4.51,4.51,0,0,0-1.67-3.49,5.94,5.94,0,0,0-4-1.45c-3.11,0-5.64,2.21-5.64,4.95v40.56a4.64,4.64,0,0,0,1.65,3.47,6,6,0,0,0,4,1.45C340.69,540.26,343.22,538,343.22,535.33Zm-29.16,5.76V500.53a4.65,4.65,0,0,0-1.64-3.47,6,6,0,0,0-4-1.45c-3.14,0-5.66,2.22-5.66,4.92v40.56a4.48,4.48,0,0,0,1.66,3.49,5.89,5.89,0,0,0,4,1.46C311.54,546,314.06,543.83,314.06,541.09Zm-29.15,8.43V512a4.13,4.13,0,0,0-1.66-3.23,6.24,6.24,0,0,0-4-1.34c-3.12,0-5.64,2.05-5.64,4.57v37.49a4.23,4.23,0,0,0,1.64,3.23,6.43,6.43,0,0,0,4,1.33C282.39,554.08,284.91,552,284.91,549.52Z"/><path class="cls-11" d="M486.76,487.13a21.35,21.35,0,0,1,.45,13.23,43.13,43.13,0,0,0-4.42-3.69c-26.29-19.31-88.45-26.55-114.68-25.93h-.19c-28.37-.62-94,7.32-118,28.6,0,0-3.08-5.91-.65-12.19,4.67-4.06,11.23-7.91,19.59-11.46,29.46-12.55,75.32-18.45,98.07-18v.05c.31,0,.62,0,1,0h.14c.35,0,.66,0,1,0v0c19-.37,58.36,3.83,89,14.52C470.84,476.65,480.5,481.67,486.76,487.13Z"/><path class="cls-11" d="M467,435.45c-20-22.32-75-32.1-101.31-31.3h-.09c-24.18-.69-80.42,8-101.17,31.21,0,.05-.08.06-.1.11-1.38-11.05,2.79-16.47,2.79-16.47,5.4-5.24,13.09-10,22.89-14.35,25.89-11.33,58.8-15.8,74.8-15.42v.08a6.7,6.7,0,0,1,.85-.05h.12a5.87,5.87,0,0,1,.74.05v-.08c15.69-.38,48.45,4,74.37,15.23,11.42,5,20,10.59,25.48,16.75C468.5,427.1,467.46,433.21,467,435.45Z"/><path class="cls-11" d="M462.22,440.86v25.22l-1.78-.64c-6.8-2.38-14-4.42-21.37-6.21a1,1,0,0,0,.08-.39v-20c0-1.35-2-2.42-4.45-2.42s-4.48,1.07-4.48,2.42v18.4c-4.78-1-9.57-1.88-14.26-2.61a1.27,1.27,0,0,0,.15-.6V432.29c0-1.45-2-2.65-4.45-2.65s-4.47,1.2-4.47,2.65v21c-4.9-.69-9.67-1.24-14.17-1.67a1.26,1.26,0,0,0,.08-.43V428.09c0-1.58-2-2.85-4.48-2.85s-4.45,1.27-4.45,2.85V451c-5.37-.34-10.16-.48-14.16-.43a1,1,0,0,0,.05-.37V426.12c0-1.62-2-2.92-4.45-2.92s-4.48,1.3-4.48,2.92v24.06a.91.91,0,0,0,.08.39c-4.24.07-9,.33-14.16.74V428.42c0-1.57-2-2.84-4.48-2.84s-4.47,1.27-4.47,2.84V451.6a1.55,1.55,0,0,0,.09.55c-4.55.5-9.3,1.12-14.18,1.85V432.3c0-1.45-2-2.64-4.47-2.64s-4.45,1.19-4.45,2.64v21.75a1.77,1.77,0,0,0,.62,1.31c-4.91.85-9.83,1.86-14.73,2.95V438.86c0-1.35-2-2.42-4.45-2.42s-4.48,1.07-4.48,2.42v20a1.76,1.76,0,0,0,.86,1.41,205.92,205.92,0,0,0-22.27,7V439.19c18.77-19.54,69-28.32,93.57-27.91v.08c.38,0,.77-.05,1.24-.05h.26l1.43.07v-.09C392.43,410.89,445,420.36,462.22,440.86Z"/><polygon class="cls-11" points="456.56 583.83 276.37 583.83 366.59 546.7 456.56 583.83"/><path class="cls-11" d="M382.5,319.41c25.3,9.15,45.25,36.7,55.19,76-24-9.11-54.35-13.9-71.7-13.33h-.33c-15-.5-46.2,3.39-72.42,13.52,8.81-40.41,29.68-69,56.57-77.15A51.41,51.41,0,0,1,382.5,319.41Z"/><path class="cls-11" d="M380.72,278.17v33.18a58,58,0,0,0-28.58-.86V279.05a22.21,22.21,0,0,1,6.24-4.07c4.78-2.07,10-2.14,15.58-.21A30.31,30.31,0,0,1,380.72,278.17Z"/><path class="cls-11" d="M365.75,223.67c1.55,3.76,4.45,14.8,5.33,45.41a25,25,0,0,0-10.45.19C360.44,244.14,363.45,228.87,365.75,223.67Z"/></g><g id="Layer_4" data-name="Layer 4"><line class="cls-12" x1="363.17" y1="623.68" x2="363.17" y2="640.67"/><line class="cls-12" x1="313.17" y1="623.68" x2="313.17" y2="640.67"/><line class="cls-12" x1="263.17" y1="623.68" x2="263.17" y2="640.67"/><line class="cls-12" x1="213.17" y1="623.68" x2="213.17" y2="640.67"/><line class="cls-12" x1="163.17" y1="623.68" x2="163.17" y2="640.67"/><line class="cls-12" x1="113.17" y1="623.68" x2="113.17" y2="640.67"/><line class="cls-12" x1="63.17" y1="623.68" x2="63.17" y2="640.67"/><line class="cls-12" x1="413.17" y1="623.68" x2="413.17" y2="640.67"/><line class="cls-12" x1="463.17" y1="623.68" x2="463.17" y2="640.67"/><line class="cls-12" x1="513.17" y1="623.68" x2="513.17" y2="640.67"/><line class="cls-12" x1="563.17" y1="623.68" x2="563.17" y2="640.67"/><line class="cls-12" x1="613.17" y1="623.68" x2="613.17" y2="640.67"/><line class="cls-12" x1="663.17" y1="623.68" x2="663.17" y2="640.67"/></g></svg>