<svg xmlns="http://www.w3.org/2000/svg" xmlns:xlink="http://www.w3.org/1999/xlink" viewBox="0 0 850.39 850.39"><defs><style>.cls-1,.cls-10,.cls-12{fill:none;}.cls-2{clip-path:url(#clip-path);}.cls-3{fill:#6cb9dc;}.cls-4{fill:#dea449;}.cls-5{clip-path:url(#clip-path-2);}.cls-6,.cls-8{fill:#487e96;}.cls-7{clip-path:url(#clip-path-3);}.cls-8{opacity:0.5;}.cls-9{clip-path:url(#clip-path-4);}.cls-10,.cls-12{stroke:#000;stroke-miterlimit:10;}.cls-10{stroke-width:4px;}.cls-11{fill:#fff;}.cls-12{stroke-width:2px;}</style><clipPath id="clip-path"><polygon class="cls-1" points="-404.2 6.2 -45.5 213.3 -45.5 635.5 -404.2 843.9 -770.9 635.5 -770.9 213.3 -404.2 6.2"/></clipPath><clipPath id="clip-path-2"><polygon class="cls-1" points="426.96 13 780 216.82 780 632.36 426.96 837.47 66.05 632.36 66.05 216.82 426.96 13"/></clipPath><clipPath id="clip-path-3"><polygon class="cls-1" points="-402.44 33.74 -68.1 226.77 -68.1 620.3 -406.2 815.5 -744.23 620.3 -744.23 226.77 -402.44 33.74"/></clipPath><clipPath id="clip-path-4"><polygon class="cls-1" points="428.7 40.1 757.75 230.09 757.75 617.4 425 809.51 92.31 617.4 92.31 230.09 428.7 40.1"/></clipPath></defs><title>dspm_square</title><g id="Layer_1" data-name="Layer 1"><g class="cls-2"><circle class="cls-3" cx="-408.2" cy="436.3" r="442.1"/></g><path class="cls-4" d="M228.74,668.08l.89-.88h-.3Z"/><g class="cls-5"><circle class="cls-3" cx="423.03" cy="436.3" r="435.12"/></g><path class="cls-6" d="M757.76,198.81,484.34,41.05,425,6.7,365.65,41.05,92.23,198.91,63.4,215.55v417.5l28.83,16.63L369,809.51l56,32.29,56-32.29L757.76,649.68l28.83-16.63V215.55Zm0,418.59L425,809.51,92.23,617.4V233.16L425,41.05h0L757.76,233.16Z"/><path class="cls-4" d="M424.5,600.47l.89-.89h-.3Z"/></g><g id="Layer_2" data-name="Layer 2"><g class="cls-7"><polygon class="cls-8" points="41.64 625.12 33.59 624.59 19.42 623.33 5.26 621.7 -8.91 619.62 -23.11 616.93 -37.28 613.55 -51.44 609.33 -65.61 604.12 -79.82 597.78 -93.98 590.13 -108.15 581.02 -122.36 570.33 -136.52 557.9 -150.69 543.63 -164.85 527.48 -179.06 509.43 -193.22 489.54 -207.39 467.93 -221.55 444.77 -235.76 420.38 -249.93 395.07 -264.09 369.27 -278.3 343.47 -292.46 318.22 -306.63 294.08 -320.79 271.66 -335 251.52 -349.17 234.18 -363.33 220.14 -377.5 209.83 -391.7 203.5 -405.87 201.37 -420.04 203.5 -434.24 209.83 -448.41 220.14 -462.57 234.18 -476.74 251.52 -490.95 271.66 -505.11 294.08 -519.28 318.22 -533.44 343.47 -547.65 369.27 -561.81 395.07 -575.98 420.38 -590.19 444.77 -604.35 467.93 -618.52 489.54 -632.68 509.43 -646.89 527.48 -661.06 543.63 -675.22 557.9 -689.38 570.33 -703.59 581.02 -717.76 590.13 -731.92 597.78 -746.13 604.12 -760.3 609.33 -774.46 613.55 -788.63 616.93 -802.84 619.62 -817 621.7 -831.16 623.33 -845.33 624.59 -853.38 625.12 -1114.72 625.12 -1114.72 991.2 302.98 991.2 302.98 625.12 41.64 625.12"/><polygon class="cls-8" points="160.11 625.12 152.06 624.59 137.9 623.33 123.73 621.7 109.57 619.62 95.36 616.93 81.19 613.55 67.03 609.33 52.87 604.12 38.66 597.78 24.49 590.13 10.33 581.02 -3.88 570.33 -18.05 557.9 -32.21 543.63 -46.38 527.48 -60.58 509.43 -74.75 489.54 -88.91 467.93 -103.08 444.77 -117.29 420.38 -131.45 395.07 -145.62 369.27 -159.82 343.47 -173.99 318.22 -188.16 294.08 -202.32 271.66 -216.53 251.52 -230.69 234.18 -244.86 220.14 -259.02 209.83 -273.23 203.5 -287.4 201.37 -301.56 203.5 -315.77 209.83 -329.94 220.14 -344.1 234.18 -358.26 251.52 -372.47 271.66 -386.64 294.08 -400.8 318.22 -414.97 343.47 -429.18 369.27 -443.34 395.07 -457.51 420.38 -471.71 444.77 -485.88 467.93 -500.04 489.54 -514.21 509.43 -528.42 527.48 -542.58 543.63 -556.75 557.9 -570.91 570.33 -585.12 581.02 -599.28 590.13 -613.45 597.78 -627.66 604.12 -641.82 609.33 -655.99 613.55 -670.15 616.93 -684.36 619.62 -698.53 621.7 -712.69 623.33 -726.86 624.59 -734.9 625.12 -996.25 625.12 -996.25 991.2 421.46 991.2 421.46 625.12 160.11 625.12"/><polygon class="cls-8" points="-79.96 625.12 -88.01 624.59 -102.17 623.33 -116.34 621.7 -130.5 619.62 -144.71 616.93 -158.88 613.55 -173.04 609.33 -187.21 604.12 -201.42 597.78 -215.58 590.13 -229.75 581.02 -243.95 570.33 -258.12 557.9 -272.28 543.63 -286.45 527.48 -300.66 509.43 -314.82 489.54 -328.99 467.93 -343.15 444.77 -357.36 420.38 -371.52 395.07 -385.69 369.27 -399.9 343.47 -414.06 318.22 -428.23 294.08 -442.39 271.66 -456.6 251.52 -470.77 234.18 -484.93 220.14 -499.1 209.83 -513.3 203.5 -527.47 201.37 -541.63 203.5 -555.84 209.83 -570.01 220.14 -584.17 234.18 -598.34 251.52 -612.55 271.66 -626.71 294.08 -640.88 318.22 -655.04 343.47 -669.25 369.27 -683.41 395.07 -697.58 420.38 -711.79 444.77 -725.95 467.93 -740.12 489.54 -754.28 509.43 -768.49 527.48 -782.65 543.63 -796.82 557.9 -810.98 570.33 -825.19 581.02 -839.36 590.13 -853.52 597.78 -867.73 604.12 -881.9 609.33 -896.06 613.55 -910.23 616.93 -924.43 619.62 -938.6 621.7 -952.76 623.33 -966.93 624.59 -974.98 625.12 -1236.32 625.12 -1236.32 991.2 181.38 991.2 181.38 625.12 -79.96 625.12"/></g><g class="cls-9"><polygon class="cls-8" points="865.76 622.15 857.84 621.62 843.9 620.38 829.96 618.78 816.02 616.73 802.03 614.08 788.09 610.76 774.15 606.61 760.21 601.47 746.23 595.23 732.28 587.71 718.34 578.74 704.36 568.22 690.42 555.98 676.48 541.95 662.54 526.05 648.55 508.28 634.61 488.71 620.67 467.44 606.73 444.65 592.75 420.63 578.8 395.72 564.86 370.33 550.88 344.94 536.94 320.09 523 296.34 509.06 274.27 495.07 254.44 481.13 237.37 467.19 223.56 453.25 213.41 439.26 207.19 425.32 205.08 411.38 207.19 397.4 213.41 383.46 223.56 369.51 237.37 355.57 254.44 341.59 274.27 327.65 296.34 313.71 320.09 299.77 344.94 285.78 370.33 271.84 395.72 257.9 420.63 243.92 444.65 229.97 467.44 216.03 488.71 202.09 508.28 188.11 526.05 174.17 541.95 160.23 555.98 146.28 568.22 132.3 578.74 118.36 587.71 104.42 595.23 90.43 601.47 76.49 606.61 62.55 610.76 48.61 614.08 34.63 616.73 20.69 618.78 6.75 620.38 -7.2 621.62 -15.12 622.15 -272.34 622.15 -272.34 982.44 1122.98 982.44 1122.98 622.15 865.76 622.15"/><polygon class="cls-8" points="982.37 622.15 974.44 621.62 960.5 620.38 946.56 618.78 932.62 616.73 918.64 614.08 904.7 610.76 890.75 606.61 876.81 601.47 862.83 595.23 848.89 587.71 834.95 578.74 820.96 568.22 807.02 555.98 793.08 541.95 779.14 526.05 765.15 508.28 751.21 488.71 737.27 467.44 723.33 444.65 709.35 420.63 695.41 395.72 681.47 370.33 667.48 344.94 653.54 320.09 639.6 296.34 625.66 274.27 611.67 254.44 597.73 237.37 583.79 223.56 569.85 213.41 555.87 207.19 541.92 205.08 527.98 207.19 514 213.41 500.06 223.56 486.12 237.37 472.18 254.44 458.19 274.27 444.25 296.34 430.31 320.09 416.37 344.94 402.38 370.33 388.44 395.72 374.5 420.63 360.52 444.65 346.58 467.44 332.64 488.71 318.69 508.28 304.71 526.05 290.77 541.95 276.83 555.98 262.89 568.22 248.9 578.74 234.96 587.71 221.02 595.23 207.04 601.47 193.1 606.61 179.16 610.76 165.21 614.08 151.23 616.73 137.29 618.78 123.35 620.38 109.41 621.62 101.48 622.15 -155.73 622.15 -155.73 982.44 1239.58 982.44 1239.58 622.15 982.37 622.15"/><polygon class="cls-8" points="746.09 622.15 738.16 621.62 724.22 620.38 710.28 618.78 696.34 616.73 682.36 614.08 668.41 610.76 654.47 606.61 640.53 601.47 626.55 595.23 612.61 587.71 598.66 578.74 584.68 568.22 570.74 555.98 556.8 541.95 542.86 526.05 528.87 508.28 514.93 488.71 500.99 467.44 487.05 444.65 473.07 420.63 459.13 395.72 445.18 370.33 431.2 344.94 417.26 320.09 403.32 296.34 389.38 274.27 375.39 254.44 361.45 237.37 347.51 223.56 333.57 213.41 319.58 207.19 305.64 205.08 291.7 207.19 277.72 213.41 263.78 223.56 249.84 237.37 235.9 254.44 221.91 274.27 207.97 296.34 194.03 320.09 180.09 344.94 166.1 370.33 152.16 395.72 138.22 420.63 124.24 444.65 110.3 467.44 96.36 488.71 82.41 508.28 68.43 526.05 54.49 541.95 40.55 555.98 26.61 568.22 12.62 578.74 -1.32 587.71 -15.26 595.23 -29.24 601.47 -43.19 606.61 -57.13 610.76 -71.07 614.08 -85.05 616.73 -98.99 618.78 -112.93 620.38 -126.88 621.62 -134.8 622.15 -392.01 622.15 -392.01 982.44 1003.3 982.44 1003.3 622.15 746.09 622.15"/><line class="cls-10" x1="12.11" y1="619.94" x2="811.94" y2="619.94"/></g></g><g id="Layer_3" data-name="Layer 3"><polygon class="cls-11" points="598.61 617.63 257.61 617.63 274.51 587.74 577.43 587.74 598.61 617.63"/><path class="cls-11" d="M563.8,568.51l8.64,12.21H531L424.26,536.48h0l-95.45,39.23,0,0-12.13,5H278.47l7.15-12.62,29.3-1.43V501.93c21.74-17.85,80-25.86,108.78-25.51v.08l1.61-.06h.19l1.66.06v-.08c26.59-.33,81.77,7,105.64,23.19l.53,67.66Zm-48-21.57V510.05a4,4,0,0,0-1.64-3.18,6.12,6.12,0,0,0-3.93-1.31c-3.07,0-5.55,2-5.55,4.49v36.89a4.15,4.15,0,0,0,1.61,3.19,6.4,6.4,0,0,0,3.94,1.3C513.28,551.43,515.76,549.43,515.76,546.94Zm-28.69-8.29V498.73a4.58,4.58,0,0,0-1.61-3.41,5.87,5.87,0,0,0-3.94-1.43c-3.09,0-5.58,2.18-5.58,4.84v39.92a4.42,4.42,0,0,0,1.65,3.44,5.81,5.81,0,0,0,3.93,1.43C484.58,543.53,487.07,541.34,487.07,538.65Zm-28.69-6.25V492.49a4.56,4.56,0,0,0-1.64-3.45,5.85,5.85,0,0,0-3.93-1.42c-3.07,0-5.56,2.18-5.56,4.87V532.4a4.58,4.58,0,0,0,1.62,3.42,5.89,5.89,0,0,0,3.93,1.43C455.9,537.25,458.38,535.07,458.38,532.4Zm-28.69-3.16V491.11a4.43,4.43,0,0,0-1.62-3.31,6.11,6.11,0,0,0-3.93-1.36c-3.09,0-5.57,2.09-5.57,4.66v38.13a4.26,4.26,0,0,0,1.64,3.28,6.07,6.07,0,0,0,3.93,1.36C427.2,533.88,429.69,531.79,429.69,529.24ZM401,533V493.06a4.42,4.42,0,0,0-1.64-3.43,5.83,5.83,0,0,0-3.94-1.43c-3.07,0-5.55,2.18-5.55,4.87V533a4.52,4.52,0,0,0,1.62,3.41,5.87,5.87,0,0,0,3.93,1.44C398.51,537.84,401,535.65,401,533Zm-28.7,5.67V498.73a4.56,4.56,0,0,0-1.62-3.41,5.83,5.83,0,0,0-3.93-1.43c-3.09,0-5.57,2.18-5.57,4.84v39.92a4.41,4.41,0,0,0,1.64,3.44,5.79,5.79,0,0,0,3.93,1.43C369.82,543.53,372.3,541.34,372.3,538.65Zm-28.69,8.29V510.05a4.06,4.06,0,0,0-1.64-3.18,6.1,6.1,0,0,0-3.93-1.31c-3.07,0-5.55,2-5.55,4.49v36.89a4.16,4.16,0,0,0,1.62,3.19,6.35,6.35,0,0,0,3.93,1.3C341.13,551.43,343.61,549.43,343.61,546.94Z"/><path class="cls-11" d="M542.28,485.55a21,21,0,0,1,.44,13,43,43,0,0,0-4.36-3.64c-25.87-19-87.05-26.13-112.86-25.52h-.19c-27.92-.61-92.5,7.21-116.11,28.15a15.83,15.83,0,0,1-.63-12c4.59-4,11.05-7.8,19.27-11.29,29-12.34,74.13-18.16,96.53-17.73v.05c.3,0,.61,0,1,0h.14c.34,0,.65,0,1,0v-.05c18.73-.35,57.43,3.77,87.58,14.3C526.6,475.23,536.11,480.17,542.28,485.55Z"/><path class="cls-11" d="M522.81,434.68c-19.65-22-73.8-31.59-99.7-30.81H423c-23.8-.67-79.15,7.86-99.58,30.72,0,.05-.07.06-.09.11-1.37-10.88,2.74-16.21,2.74-16.21,5.32-5.16,12.88-9.88,22.53-14.12,25.48-11.15,57.88-15.56,73.62-15.18v.07c.25,0,.49,0,.84,0h.12c.25,0,.48,0,.72,0v-.07c15.44-.37,47.69,3.93,73.2,15,11.24,4.88,19.69,10.43,25.08,16.48C524.3,426.46,523.28,432.47,522.81,434.68Z"/><path class="cls-11" d="M518.12,440v24.83c-.58-.22-1.16-.42-1.75-.63-6.7-2.34-13.82-4.36-21-6.12a.92.92,0,0,0,.07-.38V438c0-1.33-2-2.38-4.37-2.38s-4.41,1.05-4.41,2.38v18.11c-4.71-1-9.42-1.85-14-2.58a1.3,1.3,0,0,0,.14-.58V431.57c0-1.43-2-2.6-4.38-2.6s-4.4,1.17-4.4,2.6v20.71c-4.83-.68-9.52-1.22-13.94-1.65a1.54,1.54,0,0,0,.07-.42V427.43c0-1.55-2-2.8-4.41-2.8s-4.38,1.25-4.38,2.8V450c-5.28-.33-10-.47-13.93-.42a1.11,1.11,0,0,0,0-.36V425.5c0-1.59-2-2.88-4.38-2.88s-4.4,1.29-4.4,2.88v23.68a1.06,1.06,0,0,0,.07.38c-4.17.07-8.85.33-13.93.73V427.76c0-1.55-2-2.79-4.41-2.79s-4.4,1.24-4.4,2.79v22.81a1.46,1.46,0,0,0,.09.54c-4.47.49-9.16,1.1-14,1.83V431.58c0-1.43-2-2.6-4.4-2.6s-4.38,1.17-4.38,2.6V453a1.77,1.77,0,0,0,.61,1.28c-4.83.84-9.67,1.83-14.5,2.91V438c0-1.34-2-2.39-4.38-2.39s-4.4,1.06-4.4,2.39v19.67a1.75,1.75,0,0,0,.85,1.39A200.37,200.37,0,0,0,329.56,466V438.36c18.48-19.23,67.95-27.87,92.1-27.47V411c.38,0,.75-.05,1.22-.05h.26l1.4.07v-.09C449.43,410.51,501.12,419.83,518.12,440Z"/><polygon class="cls-11" points="512.55 580.72 335.2 580.72 424 544.18 512.55 580.72"/><path class="cls-11" d="M439.66,320.47c24.9,9,44.53,36.13,54.32,74.84-23.58-9-53.5-13.68-70.57-13.11h-.33c-14.78-.5-45.46,3.33-71.27,13.3,8.67-39.77,29.21-67.95,55.68-75.94A50.64,50.64,0,0,1,439.66,320.47Z"/><path class="cls-11" d="M437.91,279.88v32.66a57.18,57.18,0,0,0-28.13-.85V280.75a21.85,21.85,0,0,1,6.14-4c4.7-2,9.86-2.11,15.34-.21A29.77,29.77,0,0,1,437.91,279.88Z"/><path class="cls-11" d="M423.18,226.25c1.52,3.7,4.38,14.56,5.24,44.69a24.38,24.38,0,0,0-10.29.18C418,246.39,420.91,231.36,423.18,226.25Z"/></g><g id="Layer_4" data-name="Layer 4"><line class="cls-12" x1="420.63" y1="619.94" x2="420.63" y2="636.66"/><line class="cls-12" x1="371.42" y1="619.94" x2="371.42" y2="636.66"/><line class="cls-12" x1="322.21" y1="619.94" x2="322.21" y2="636.66"/><line class="cls-12" x1="273" y1="619.94" x2="273" y2="636.66"/><line class="cls-12" x1="223.79" y1="619.94" x2="223.79" y2="636.66"/><line class="cls-12" x1="174.58" y1="619.94" x2="174.58" y2="636.66"/><line class="cls-12" x1="125.37" y1="619.94" x2="125.37" y2="636.66"/><line class="cls-12" x1="469.84" y1="619.94" x2="469.84" y2="636.66"/><line class="cls-12" x1="519.05" y1="619.94" x2="519.05" y2="636.66"/><line class="cls-12" x1="568.27" y1="619.94" x2="568.27" y2="636.66"/><line class="cls-12" x1="617.48" y1="619.94" x2="617.48" y2="636.66"/><line class="cls-12" x1="666.69" y1="619.94" x2="666.69" y2="636.66"/><line class="cls-12" x1="715.9" y1="619.94" x2="715.9" y2="636.66"/></g></svg>