<svg xmlns="http://www.w3.org/2000/svg" xmlns:xlink="http://www.w3.org/1999/xlink" viewBox="0 0 735 852"><defs><style>.cls-1{fill:none;}.cls-2{clip-path:url(#clip-path);}.cls-3{fill:#eceff4;}.cls-4{fill:#dea449;}.cls-5{clip-path:url(#clip-path-2);}.cls-6{fill:#d8dee9;}.cls-7{fill:#4c566a;}.cls-8{fill:#b48ead;}.cls-9{fill:#ebcb8b;}.cls-10{fill:#a3be8c;}</style><clipPath id="clip-path"><polygon class="cls-1" points="1180.49 7 1539.19 214.1 1539.19 636.3 1180.49 844.7 813.79 636.3 813.79 214.1 1180.49 7"/></clipPath><clipPath id="clip-path-2"><polygon class="cls-1" points="369.6 7 728.3 214.1 728.3 636.3 369.6 844.7 2.9 636.3 2.9 214.1 369.6 7"/></clipPath></defs><title>espp_text</title><g id="Layer_1" data-name="Layer 1"><g class="cls-2"><circle class="cls-3" cx="1176.49" cy="437.1" r="442.1"/></g><path class="cls-4" d="M168.2,672.6l.9-.9h-.3Z"/><g class="cls-5"><circle class="cls-3" cx="365.6" cy="437.1" r="442.1"/><polygon class="cls-6" points="679.1 654.92 365.6 829.45 50.66 654.92 19.13 608.66 718.52 608.66 679.1 654.92"/></g><path class="cls-7" d="M705.7,195.8,427.9,35.5,367.6.6,307.3,35.5,29.5,195.9.2,212.8V637l29.3,16.9L310.7,816.3l56.9,32.8,56.9-32.8L705.7,653.9,735,637V212.8Zm0,425.3L367.6,816.3,29.5,621.1V230.7L367.6,35.5h0L705.7,230.7Z"/><path class="cls-4" d="M367.1,603.9l.9-.9h-.3Z"/></g><g id="Layer_3" data-name="Layer 3"><path class="cls-6" d="M581.22,578.91l13.38,18.88H530.47L365.26,529.33h0L217.54,590l0,0-18.78,7.72H139.64l11.06-19.54L196.05,576V475.86c33.63-27.63,123.82-40,168.34-39.49v.14l2.5-.11h.29l2.58.11v-.14c41.14-.5,126.54,10.81,163.48,35.89L534.07,577Zm-74.35-33.39V488.43a6.26,6.26,0,0,0-2.53-4.93,9.56,9.56,0,0,0-6.09-2c-4.76,0-8.59,3.13-8.59,7v57.09a6.46,6.46,0,0,0,2.49,4.93,9.8,9.8,0,0,0,6.1,2C503,552.47,506.87,549.37,506.87,545.52Zm-44.4-12.82V470.91a7.08,7.08,0,0,0-2.5-5.29,9.1,9.1,0,0,0-6.09-2.21c-4.79,0-8.63,3.38-8.63,7.5V532.7a6.84,6.84,0,0,0,2.54,5.31,9,9,0,0,0,6.09,2.21C458.62,540.24,462.47,536.86,462.47,532.7ZM418.06,523V461.25a7.06,7.06,0,0,0-2.53-5.34,9.11,9.11,0,0,0-6.09-2.2c-4.75,0-8.6,3.37-8.6,7.55V523a7.06,7.06,0,0,0,2.5,5.28,9.1,9.1,0,0,0,6.1,2.22C414.23,530.52,418.06,527.14,418.06,523Zm-44.4-4.89v-59a6.83,6.83,0,0,0-2.5-5.12,9.49,9.49,0,0,0-6.09-2.1c-4.78,0-8.62,3.23-8.62,7.21v59a6.59,6.59,0,0,0,2.54,5.07,9.41,9.41,0,0,0,6.09,2.1C369.82,525.3,373.66,522.07,373.66,518.12Zm-44.4,5.8V462.14a6.86,6.86,0,0,0-2.54-5.32,9,9,0,0,0-6.09-2.21c-4.75,0-8.59,3.37-8.59,7.54v61.77a7.07,7.07,0,0,0,2.5,5.29,9.13,9.13,0,0,0,6.09,2.22C325.41,531.43,329.26,528.05,329.26,523.92Zm-44.41,8.78V470.91a7.09,7.09,0,0,0-2.51-5.29,9.09,9.09,0,0,0-6.08-2.21c-4.79,0-8.63,3.38-8.63,7.5V532.7a6.84,6.84,0,0,0,2.54,5.31,9,9,0,0,0,6.09,2.21C281,540.24,284.85,536.86,284.85,532.7Zm-44.4,12.82V488.43a6.3,6.3,0,0,0-2.54-4.93,9.54,9.54,0,0,0-6.09-2c-4.75,0-8.59,3.13-8.59,7v57.09a6.47,6.47,0,0,0,2.5,4.93,9.77,9.77,0,0,0,6.09,2C236.6,552.47,240.45,549.37,240.45,545.52Z"/><path class="cls-6" d="M547.91,450.51a32.57,32.57,0,0,1,.69,20.15,66.16,66.16,0,0,0-6.75-5.63c-40-29.42-134.73-40.44-174.67-39.5h-.29c-43.21-.94-143.15,11.16-179.7,43.56,0,0-4.69-9-1-18.55,7.11-6.19,17.11-12.06,29.83-17.47C260.92,414,330.77,405,365.43,405.63v.07c.47,0,.94,0,1.56,0h.22c.54,0,1,0,1.48,0v-.07c29-.55,88.88,5.84,135.55,22.12C523.65,434.53,538.37,442.18,547.91,450.51Z"/><path class="cls-6" d="M517.79,371.77c-30.41-34-114.22-48.88-154.31-47.67h-.14c-36.84-1-122.5,12.15-154.11,47.54,0,.07-.11.1-.14.17-2.12-16.84,4.24-25.08,4.24-25.08,8.23-8,19.94-15.3,34.86-21.86,39.45-17.26,89.58-24.07,113.94-23.49v.11c.39,0,.76-.07,1.3-.07h.18c.4,0,.76,0,1.13.07v-.11c23.89-.58,73.8,6.08,113.28,23.2,17.39,7.54,30.48,16.13,38.81,25.51C520.08,359.06,518.51,368.36,517.79,371.77Z"/><path class="cls-6" d="M510.53,380v38.42c-.91-.34-1.8-.65-2.72-1-10.36-3.62-21.38-6.74-32.54-9.46a1.63,1.63,0,0,0,.11-.59V377c0-2.06-3-3.68-6.77-3.68s-6.82,1.63-6.82,3.68v28c-7.29-1.51-14.58-2.86-21.72-4a1.94,1.94,0,0,0,.22-.91V367c0-2.2-3-4-6.78-4s-6.81,1.82-6.81,4V399c-7.47-1.05-14.72-1.89-21.58-2.55a1.78,1.78,0,0,0,.13-.64V360.56c0-2.4-3.05-4.33-6.83-4.33s-6.78,1.93-6.78,4.33v34.87c-8.18-.52-15.48-.73-21.57-.64a1.65,1.65,0,0,0,.07-.57V357.57c0-2.47-3-4.45-6.77-4.45s-6.82,2-6.82,4.45v36.65a1.58,1.58,0,0,0,.11.59c-6.45.11-13.7.51-21.57,1.13V361.08c0-2.4-3-4.33-6.82-4.33s-6.81,1.93-6.81,4.33v35.3a2.23,2.23,0,0,0,.14.83c-6.92.76-14.17,1.71-21.6,2.83V367c0-2.21-3.05-4-6.81-4s-6.78,1.81-6.78,4v33.14a2.71,2.71,0,0,0,.94,2c-7.46,1.3-15,2.84-22.43,4.5V377c0-2.07-3-3.69-6.78-3.69s-6.81,1.63-6.81,3.69v30.45a2.68,2.68,0,0,0,1.3,2.14A311.25,311.25,0,0,0,218.7,420.3V377.47c28.6-29.76,105.16-43.13,142.54-42.51v.12c.58,0,1.16-.07,1.88-.07h.4l2.18.11V335C404.22,334.37,484.22,348.8,510.53,380Z"/><polygon class="cls-6" points="501.91 597.79 227.43 597.79 364.86 541.24 501.91 597.79"/><path class="cls-6" d="M389.1,195C427.63,209,458,250.93,473.17,310.85c-36.5-13.88-82.8-21.18-109.22-20.3h-.51c-22.88-.76-70.36,5.16-110.3,20.59,13.41-61.55,45.2-105.16,86.16-117.52A78.37,78.37,0,0,1,389.1,195Z"/><path class="cls-6" d="M386.38,132.21v50.54a88.33,88.33,0,0,0-43.53-1.31V133.56a33.6,33.6,0,0,1,9.5-6.21c7.28-3.15,15.26-3.26,23.74-.32A45.82,45.82,0,0,1,386.38,132.21Z"/><path class="cls-6" d="M363.58,49.2c2.36,5.73,6.78,22.54,8.12,69.16a37.86,37.86,0,0,0-15.92.29C355.5,80.37,360.07,57.11,363.58,49.2Z"/></g><g id="Layer_4" data-name="Layer 4"><path class="cls-7" d="M85.58,566.32q-4.18-5.49-4.18-17.06,0-22.54,16.4-22.55,7.62,0,11.39,5.25T113,548.44v3.12H90.5c0,4.37.68,7.63,1.88,9.76a6.13,6.13,0,0,0,5.74,3.2,5.24,5.24,0,0,0,4.47-2.34,10.85,10.85,0,0,0,1.68-6.44H113q0,7.8-4.1,11.93A14.58,14.58,0,0,1,98,571.81Q89.76,571.81,85.58,566.32Zm18.12-21.49q0-5.24-1.48-8A4.74,4.74,0,0,0,97.8,534a5.71,5.71,0,0,0-5.17,2.71c-1.15,1.8-1.83,4.51-2,8.11Z"/><path class="cls-7" d="M122.93,566.36q-3.81-5.45-3.81-17.1t3.85-17q3.86-5.49,11.73-5.5,14.43,0,14.43,17.14h-9c0-3.33-.43-5.78-1.27-7.34a4.35,4.35,0,0,0-4.14-2.33,5.07,5.07,0,0,0-4.88,3.36c-1,2.24-1.52,5.63-1.52,10.17v3.11q0,6.81,1.56,10.17a5.26,5.26,0,0,0,5.08,3.36,4.4,4.4,0,0,0,4.18-2.42q1.32-2.41,1.32-7.25h8.69q0,8.28-3.65,12.71t-10.54,4.42Q126.75,571.81,122.93,566.36Z"/><path class="cls-7" d="M159.5,566.32q-4.14-5.49-4.14-17.06t4.14-17q4.14-5.49,12.42-5.5t12.51,5.54q4.14,5.54,4.14,17t-4.14,17q-4.14,5.54-12.51,5.53T159.5,566.32ZM177.58,561q1.8-3.36,1.8-10.17v-3.11q0-6.81-1.8-10.17a6.45,6.45,0,0,0-11.32,0q-1.8,3.36-1.8,10.17v3.11q0,6.81,1.8,10.17a6.45,6.45,0,0,0,11.32,0Z"/><path class="cls-7" d="M196.52,527.7h7.14l.9,5.25h.49a14.14,14.14,0,0,1,4.51-4.56,11.55,11.55,0,0,1,6.23-1.68q11.24,0,11.24,13.62v30.5h-8.78V542.21q0-4.1-1.47-5.82a5.42,5.42,0,0,0-4.35-1.72,6.16,6.16,0,0,0-5.08,2.7,11.22,11.22,0,0,0-2,7v26.49h-8.78Z"/><path class="cls-7" d="M239.2,566.32q-4.14-5.49-4.14-17.06t4.14-17q4.14-5.49,12.43-5.5t12.5,5.54q4.14,5.54,4.14,17t-4.14,17q-4.14,5.54-12.5,5.53T239.2,566.32ZM257.28,561q1.82-3.36,1.81-10.17v-3.11q0-6.81-1.81-10.17a6.44,6.44,0,0,0-11.31,0q-1.82,3.36-1.81,10.17v3.11q0,6.81,1.81,10.17a6.44,6.44,0,0,0,11.31,0Z"/><path class="cls-7" d="M276.22,527.7h7.14l.9,5.25h.49a13,13,0,0,1,4.27-4.56,10.7,10.7,0,0,1,5.9-1.68q6.88,0,9.18,6.32a13.79,13.79,0,0,1,4.68-4.59,12,12,0,0,1,6.31-1.73q10.5,0,10.5,13.62v30.5h-8.78V542.21c0-2.73-.43-4.67-1.31-5.82a4.53,4.53,0,0,0-3.85-1.72,5.47,5.47,0,0,0-4.55,2.54,11.19,11.19,0,0,0-1.85,6.72v26.9h-8.69V542.21q0-4.1-1.31-5.82a4.55,4.55,0,0,0-3.86-1.72,5.39,5.39,0,0,0-4.59,2.66,12.33,12.33,0,0,0-1.8,7v26.49h-8.78Z"/><path class="cls-7" d="M335.55,585.51a9.22,9.22,0,0,1-2.09-.49v-6.56h3.69a6.38,6.38,0,0,0,4.47-1.81,11.17,11.17,0,0,0,2.83-5.82L330.51,527.7h9.35l6.8,22.14c.22.76.79,3.31,1.72,7.62l.5,2.38h.33l.49-2.38q1.07-5.9,1.55-7.62l5.58-22.14h8.86l-11.57,40.92a36.62,36.62,0,0,1-5.74,12.54,11,11,0,0,1-9.1,4.59A25.48,25.48,0,0,1,335.55,585.51Z"/><path class="cls-7" d="M369.46,570.83h-4V560.42h10.25v9.51l-4.92,12.79h-5.33Z"/><path class="cls-7" d="M405.17,568.12a12.69,12.69,0,0,1-3.9-9.67,8.27,8.27,0,0,1,0-.91,2.57,2.57,0,0,0,.05-.32h9v.65a6.46,6.46,0,0,0,1.8,5,6.36,6.36,0,0,0,4.43,1.64,6.91,6.91,0,0,0,4.26-1.36,5.14,5.14,0,0,0-.25-8,23.64,23.64,0,0,0-6.31-2.59,47,47,0,0,1-6.39-2.42,10.61,10.61,0,0,1-4.19-3.73,11.91,11.91,0,0,1-1.72-6.8q0-6.15,4.1-9.51t10.66-3.37a15,15,0,0,1,10,3.24,10.58,10.58,0,0,1,3.85,8.49l-.08,1.8h-8.94v-.32q-.17-5.91-5.25-5.91a5.3,5.3,0,0,0-3.93,1.4,4.67,4.67,0,0,0-1.4,3.44,3.92,3.92,0,0,0,1.89,3.61,25.26,25.26,0,0,0,5.9,2.29,45.62,45.62,0,0,1,6.56,2.34,11,11,0,0,1,4.39,3.85,12.42,12.42,0,0,1,1.84,7.18q0,7.14-4.14,10.41t-11.19,3.28Q409.07,571.81,405.17,568.12Z"/><path class="cls-7" d="M442.15,566.32Q438,560.83,438,549.26t4.14-17q4.14-5.49,12.42-5.5t12.51,5.54q4.14,5.54,4.14,17t-4.14,17q-4.14,5.54-12.51,5.53T442.15,566.32ZM460.23,561q1.8-3.36,1.8-10.17v-3.11q0-6.81-1.8-10.17a6.45,6.45,0,0,0-11.32,0q-1.8,3.36-1.8,10.17v3.11q0,6.81,1.8,10.17a6.45,6.45,0,0,0,11.32,0Z"/><path class="cls-7" d="M481.51,566.36q-3.81-5.45-3.81-17.1t3.85-17q3.85-5.49,11.73-5.5,14.43,0,14.43,17.14h-9c0-3.33-.43-5.78-1.27-7.34a4.35,4.35,0,0,0-4.14-2.33,5.07,5.07,0,0,0-4.88,3.36c-1,2.24-1.52,5.63-1.52,10.17v3.11q0,6.81,1.56,10.17a5.26,5.26,0,0,0,5.08,3.36,4.4,4.4,0,0,0,4.18-2.42q1.32-2.41,1.32-7.25h8.69q0,8.28-3.65,12.71t-10.54,4.42Q485.32,571.81,481.51,566.36Z"/><path class="cls-7" d="M514.92,511.54h8.78v8.61h-8.78Zm0,16.16h8.78v43.13h-8.78Z"/><path class="cls-7" d="M535,566.32q-4.18-5.49-4.18-17.06,0-22.54,16.4-22.55,7.62,0,11.4,5.25t3.77,16.48v3.12H539.93c.06,4.37.69,7.63,1.89,9.76a6.11,6.11,0,0,0,5.74,3.2,5.24,5.24,0,0,0,4.47-2.34,10.85,10.85,0,0,0,1.68-6.44h8.69q0,7.8-4.1,11.93a14.54,14.54,0,0,1-10.82,4.14Q539.19,571.81,535,566.32Zm18.12-21.49q0-5.24-1.47-8a4.75,4.75,0,0,0-4.43-2.79,5.71,5.71,0,0,0-5.17,2.71c-1.14,1.8-1.83,4.51-2,8.11Z"/><path class="cls-7" d="M572.53,568.62a13.47,13.47,0,0,1-2.18-7.88V535.16h-4.1V527.7h4.1l1.48-12.06h7.3V527.7h6.07v7.46h-6.07v25.5q0,3.69,3.61,3.69h2.46v6.4a15.47,15.47,0,0,1-2.63.69,16,16,0,0,1-2.87.29C576.37,571.73,574,570.69,572.53,568.62Z"/><path class="cls-7" d="M592,585.51A9.22,9.22,0,0,1,590,585v-6.56h3.69a6.36,6.36,0,0,0,4.47-1.81,11.17,11.17,0,0,0,2.83-5.82L587,527.7h9.35l6.8,22.14c.22.76.79,3.31,1.73,7.62l.49,2.38h.33l.49-2.38q1.06-5.9,1.56-7.62l5.57-22.14h8.86l-11.56,40.92a37,37,0,0,1-5.74,12.54,11,11,0,0,1-9.11,4.59A25.48,25.48,0,0,1,592,585.51Z"/><path class="cls-7" d="M626,570.83h-4V560.42h10.25v9.51l-4.92,12.79h-5.33Z"/><path class="cls-7" d="M150.51,658.16a11.53,11.53,0,0,1-4.06-9.29,12,12,0,0,1,2-7,10.21,10.21,0,0,1,5.27-3.9v-.26a12.87,12.87,0,0,1-4.68-3.93,10.21,10.21,0,0,1-1.69-6.08q0-5.85,3.9-9t10.53-3.18A16.63,16.63,0,0,1,169,617a11.35,11.35,0,0,1,6.69,10.69v1.62h-6.95v-1a6.62,6.62,0,0,0-1.86-5.1,8.78,8.78,0,0,0-10.4,0,6.14,6.14,0,0,0-1.91,4.87,7.28,7.28,0,0,0,1.85,5.3,6.25,6.25,0,0,0,4.71,1.92H164v5.91h-2.73q-7.54,0-7.54,7.35a6.77,6.77,0,0,0,2,5.36,8.12,8.12,0,0,0,5.59,1.79q7.41,0,7.41-7.22V635.22h11.89v6H175.7v7q0,6.18-3.77,9.78t-10.79,3.61Q154.57,661.61,150.51,658.16Z"/><path class="cls-7" d="M198.42,617.7h7.14l.9,5.25h.41a11.58,11.58,0,0,1,4.1-4.64,10.3,10.3,0,0,1,5.58-1.6,11.33,11.33,0,0,1,10.12,5.58q3.57,5.58,3.57,17.06,0,11.24-3.65,16.85T217,661.81a12.19,12.19,0,0,1-5.82-1.35,7.71,7.71,0,0,1-3.61-3.81h-.41V675h-8.78Zm21,33q1.64-3.2,1.64-9.84v-3.11q0-6.65-1.64-9.84a5.5,5.5,0,0,0-5.25-3.2,5.57,5.57,0,0,0-5.29,3.24c-1.12,2.16-1.68,5.42-1.68,9.8v3q0,6.56,1.68,9.84a5.91,5.91,0,0,0,10.54.08Z"/><path class="cls-7" d="M238.28,648.2V617.7h8.77v28.62q0,4.09,1.43,5.82a5.3,5.3,0,0,0,4.31,1.72,6.32,6.32,0,0,0,5.13-2.67,10.89,10.89,0,0,0,2.09-6.92V617.7h8.77v43.13h-7.13l-1-5.25h-.49a13.16,13.16,0,0,1-4.47,4.55,11.77,11.77,0,0,1-6.27,1.68Q238.27,661.81,238.28,648.2Z"/><path class="cls-7" d="M290.67,660.21a11.55,11.55,0,0,1-4.1-4.63h-.41l-.9,5.25h-7.13V601.54h8.77V622h.41a8.11,8.11,0,0,1,3.65-3.89,11.66,11.66,0,0,1,5.78-1.44q5.91,0,9.55,5.62t3.65,16.85q0,11.49-3.56,17.06a11.35,11.35,0,0,1-10.13,5.57A10.27,10.27,0,0,1,290.67,660.21Zm8.45-9.55q1.63-3.2,1.64-9.84v-3.11q0-6.65-1.64-9.84a5.48,5.48,0,0,0-5.25-3.2,5.56,5.56,0,0,0-5.29,3.32q-1.68,3.32-1.68,10v2.87c0,4.38.56,7.64,1.68,9.8a5.58,5.58,0,0,0,5.29,3.24A5.5,5.5,0,0,0,299.12,650.66Z"/><path class="cls-7" d="M317.65,601.54h8.77v59.29h-8.77Z"/><path class="cls-7" d="M335,601.54h8.78v8.61H335Zm0,16.16h8.78v43.13H335Z"/><path class="cls-7" d="M355.08,656.36q-3.81-5.45-3.81-17.1t3.85-17q3.86-5.49,11.73-5.5,14.43,0,14.43,17.14h-9q0-5-1.27-7.34a4.35,4.35,0,0,0-4.14-2.33,5.08,5.08,0,0,0-4.88,3.36q-1.52,3.36-1.52,10.17v3.11q0,6.81,1.56,10.17a5.26,5.26,0,0,0,5.09,3.36,4.41,4.41,0,0,0,4.18-2.42q1.31-2.41,1.31-7.25h8.69q0,8.28-3.65,12.71t-10.53,4.42Q358.9,661.81,355.08,656.36Z"/><path class="cls-7" d="M407.52,617.7h7.13l.91,5.25H416a11.43,11.43,0,0,1,4.1-4.64,10.29,10.29,0,0,1,5.57-1.6,11.36,11.36,0,0,1,10.13,5.58q3.57,5.58,3.57,17.06,0,11.24-3.65,16.85t-9.56,5.61a12.25,12.25,0,0,1-5.82-1.35,7.75,7.75,0,0,1-3.61-3.81h-.41V675h-8.77Zm21,33q1.64-3.2,1.64-9.84v-3.11q0-6.65-1.64-9.84a5.48,5.48,0,0,0-5.25-3.2,5.58,5.58,0,0,0-5.29,3.24c-1.12,2.16-1.68,5.42-1.68,9.8v3q0,6.56,1.68,9.84a5.57,5.57,0,0,0,5.29,3.28A5.5,5.5,0,0,0,428.51,650.66Z"/><path class="cls-7" d="M450.2,656.32q-4.14-5.49-4.14-17.06t4.14-17q4.14-5.49,12.42-5.5t12.51,5.54q4.14,5.54,4.14,17t-4.14,17q-4.14,5.54-12.51,5.53T450.2,656.32ZM468.28,651q1.8-3.36,1.8-10.17v-3.11q0-6.81-1.8-10.17a6.45,6.45,0,0,0-11.32,0q-1.8,3.36-1.8,10.17v3.11q0,6.81,1.8,10.17a6.45,6.45,0,0,0,11.32,0Z"/><path class="cls-7" d="M486.89,601.54h8.78v59.29h-8.78Z"/><path class="cls-7" d="M504.28,601.54h8.77v8.61h-8.77Zm0,16.16h8.77v43.13h-8.77Z"/><path class="cls-7" d="M524.33,656.36q-3.83-5.45-3.82-17.1t3.86-17q3.86-5.49,11.72-5.5,14.43,0,14.44,17.14h-9q0-5-1.28-7.34a4.33,4.33,0,0,0-4.14-2.33,5.08,5.08,0,0,0-4.88,3.36q-1.51,3.36-1.51,10.17v3.11q0,6.81,1.56,10.17a5.25,5.25,0,0,0,5.08,3.36,4.4,4.4,0,0,0,4.18-2.42c.88-1.61,1.31-4,1.31-7.25h8.7q0,8.28-3.65,12.71t-10.54,4.42Q528.14,661.81,524.33,656.36Z"/><path class="cls-7" d="M558.93,675.51a9.07,9.07,0,0,1-2.09-.49v-6.56h3.69a6.38,6.38,0,0,0,4.47-1.81,11.25,11.25,0,0,0,2.83-5.82L553.89,617.7h9.34L570,639.84c.22.76.79,3.31,1.72,7.62l.49,2.38h.33l.49-2.38q1.06-5.9,1.56-7.62l5.58-22.14h8.85L577.5,658.62a36.62,36.62,0,0,1-5.74,12.54,11,11,0,0,1-9.1,4.59A25.48,25.48,0,0,1,558.93,675.51Z"/><path class="cls-8" d="M136.28,471.84l-6.64-25.21,12.6-3.32c.73-.19,73.87-19.74,156.25-61.94,48.08-24.63,89.85-52,124.15-81.48C465,263.54,496,224,514.67,182.46L520,170.57l23.77,10.7-5.35,11.89c-20.32,45.17-53.65,87.8-99.05,126.72-35.93,30.8-79.5,59.38-129.5,84.95-84.83,43.38-157.93,62.88-161,63.69Z"/><path class="cls-9" d="M579.35,472.92l-12.74-2.77c-47.88-10.42-98-31.44-148.88-62.48C377.3,383,336.23,352,295.66,315.53c-69-62-112.07-117.72-113.87-120.07l-7.95-10.33,20.67-15.9,8,10.33c.42.56,43.72,56.46,111,116.92,39.34,35.35,79.07,65.32,118.08,89.07,48.34,29.45,95.66,49.34,140.62,59.12l12.74,2.77Z"/><path class="cls-10" d="M238.2,186.5,234,181c-5.51-7.18-8.38-11.29-8.5-11.46l-4-5.72,11.45-8,4,5.72s2.84,4,8.14,11l4.25,5.54Z"/><path class="cls-10" d="M528.88,414.87l-6.45-2.7c-8.11-3.4-16.32-7.08-24.41-10.95l-6.31-3,6-12.6,6.3,3c7.88,3.77,15.89,7.36,23.79,10.67l6.44,2.69Zm-48.56-22.44-6.16-3.31C466.43,385,458.6,380.55,450.9,376l-6-3.57,7.13-12,6,3.57c7.53,4.48,15.17,8.8,22.73,12.86l6.15,3.3Zm-46.24-26.77-5.85-3.81c-7.36-4.8-14.78-9.84-22.07-15l-5.7-4,8.07-11.4,5.7,4c7.14,5.06,14.42,10,21.63,14.71l5.85,3.81Zm-43.86-30.39L384.67,331c-7-5.33-14-10.9-20.89-16.57l-5.4-4.43,8.87-10.79,5.39,4.43c6.77,5.56,13.68,11,20.52,16.27l5.55,4.24ZM348.71,301.8l-5.24-4.61c-6.61-5.8-13.25-11.82-19.74-17.9l-5.1-4.78,9.55-10.19,5.1,4.77c6.38,6,12.91,11.91,19.4,17.61l5.25,4.61Zm-39.19-36.1-4.95-4.93c-6.26-6.24-12.51-12.66-18.58-19.09l-4.8-5.08L291.35,227l4.8,5.08c6,6.33,12.12,12.65,18.28,18.79l4.95,4.93Zm-36.89-38.45L268,222c-5.95-6.71-11.8-13.52-17.37-20.23l-4.46-5.37,10.74-8.92,4.47,5.37c5.47,6.59,11.22,13.28,17.07,19.88l4.64,5.23Z"/><path class="cls-10" d="M567.35,428.59l-6.64-2.17c-4.43-1.44-8.94-3-13.41-4.59l-6.57-2.35,4.71-13.15,6.57,2.35c4.35,1.56,8.73,3.06,13,4.46l6.64,2.17Z"/></g></svg>