<svg xmlns="http://www.w3.org/2000/svg" xmlns:xlink="http://www.w3.org/1999/xlink" viewBox="0 0 850.39 850.39"><defs><style>.cls-1{fill:none;}.cls-2{clip-path:url(#clip-path);}.cls-3{fill:#eceff4;}.cls-4{fill:#dea449;}.cls-5{clip-path:url(#clip-path-2);}.cls-6{fill:#d8dee9;}.cls-7{fill:#4c566a;}.cls-8{fill:#b48ead;}.cls-9{fill:#ebcb8b;}.cls-10{fill:#a3be8c;}</style><clipPath id="clip-path"><polygon class="cls-1" points="-427.31 7 -68.61 214.1 -68.61 636.3 -427.31 844.7 -794.01 636.3 -794.01 214.1 -427.31 7"/></clipPath><clipPath id="clip-path-2"><polygon id="SVGID" class="cls-1" points="426.47 15.83 777.44 218.47 777.44 631.58 426.47 835.49 67.66 631.58 67.66 218.47 426.47 15.83"/></clipPath></defs><title>espp_square</title><g id="Layer_1" data-name="Layer 1"><g class="cls-2"><circle class="cls-3" cx="-431.31" cy="437.1" r="442.1"/></g></g><g id="Layer_4" data-name="Layer 4"><path class="cls-4" d="M229.4,667.1l.88-.88H230Z"/><g class="cls-5"><circle class="cls-3" cx="422.55" cy="436.67" r="432.58"/><polygon class="cls-6" points="729.3 649.8 422.55 820.57 114.39 649.8 83.54 604.54 767.87 604.54 729.3 649.8"/></g><path class="cls-7" d="M755.33,200.56,483.51,43.72l-59-34.15-59,34.15L93.69,200.66,65,217.2V632.26L93.69,648.8,368.83,807.7l55.68,32.1,55.67-32.1L755.33,648.8,784,632.26V217.2Zm0,416.15-330.82,191-330.82-191v-382l330.82-191h0l330.82,191Z"/><path class="cls-4" d="M424,599.88l.88-.88h-.29Z"/><path class="cls-6" d="M633.53,575.42l13.09,18.48H583.87l-161.65-67h0l-144.54,59.4,0,0-18.37,7.55H201.45l10.83-19.11,44.37-2.17v-98c32.91-27,121.16-39.16,164.72-38.63v.13l2.45-.1h.28l2.52.1V436c40.25-.5,123.82,10.57,160,35.11l.82,102.47Zm-72.75-32.66V486.89a6.13,6.13,0,0,0-2.47-4.82,9.33,9.33,0,0,0-6-2c-4.65,0-8.4,3.06-8.4,6.81v55.87a6.31,6.31,0,0,0,2.44,4.82,9.61,9.61,0,0,0,6,2C557,549.56,560.78,546.52,560.78,542.76Zm-43.45-12.55V469.75a6.88,6.88,0,0,0-2.44-5.17,8.84,8.84,0,0,0-5.95-2.17c-4.69,0-8.46,3.31-8.46,7.34v60.46a6.74,6.74,0,0,0,2.49,5.2,8.85,8.85,0,0,0,6,2.16C513.57,537.58,517.33,534.28,517.33,530.21Zm-43.44-9.48V460.3a6.86,6.86,0,0,0-2.48-5.22,8.87,8.87,0,0,0-6-2.16c-4.65,0-8.41,3.3-8.41,7.38v60.43a7,7,0,0,0,2.44,5.18,8.91,8.91,0,0,0,6,2.17C470.13,528.07,473.89,524.77,473.89,520.73ZM430.44,516V458.2a6.65,6.65,0,0,0-2.45-5,9.22,9.22,0,0,0-5.95-2.06c-4.68,0-8.44,3.16-8.44,7.05v57.75a6.43,6.43,0,0,0,2.49,5,9.14,9.14,0,0,0,6,2.06C426.68,523,430.44,519.8,430.44,516ZM387,521.62V461.16a6.7,6.7,0,0,0-2.48-5.19,8.83,8.83,0,0,0-6-2.17c-4.64,0-8.4,3.3-8.4,7.38v60.44a6.89,6.89,0,0,0,2.45,5.18,9,9,0,0,0,5.95,2.17C383.23,529,387,525.66,387,521.62Zm-43.45,8.59V469.75a6.92,6.92,0,0,0-2.45-5.17,8.89,8.89,0,0,0-6-2.17c-4.68,0-8.44,3.31-8.44,7.34v60.46a6.71,6.71,0,0,0,2.49,5.2,8.78,8.78,0,0,0,5.95,2.16C339.79,537.58,343.54,534.28,343.54,530.21Zm-43.45,12.55V486.89a6.17,6.17,0,0,0-2.48-4.82,9.3,9.3,0,0,0-6-2c-4.64,0-8.4,3.06-8.4,6.81v55.87a6.29,6.29,0,0,0,2.45,4.82,9.56,9.56,0,0,0,5.95,2C296.33,549.56,300.09,546.52,300.09,542.76Z"/><path class="cls-6" d="M600.94,449.78a31.92,31.92,0,0,1,.67,19.72A65.6,65.6,0,0,0,595,464c-39.18-28.79-131.83-39.57-170.92-38.65h-.28C381.53,424.43,283.74,436.27,248,468c0,0-4.59-8.81-1-18.16,6.95-6.05,16.73-11.8,29.19-17.09,43.91-18.69,112.25-27.49,146.16-26.85v.07c.46,0,.93,0,1.53,0h.21c.53,0,1,0,1.46,0v-.06c28.37-.54,87,5.71,132.63,21.64C577.2,434.16,591.6,441.64,600.94,449.78Z"/><path class="cls-6" d="M571.46,372.75c-29.75-33.27-111.75-47.84-151-46.65h-.13c-36-1-119.86,11.89-150.79,46.52,0,.07-.11.09-.14.16-2.07-16.47,4.15-24.54,4.15-24.54,8.05-7.81,19.51-15,34.11-21.39,38.6-16.88,87.65-23.55,111.49-23V304a11.11,11.11,0,0,1,1.27-.07h.18a9.84,9.84,0,0,1,1.1.07v-.11c23.38-.57,72.21,5.95,110.84,22.7,17,7.38,29.83,15.79,38,25C573.71,360.31,572.17,369.41,571.46,372.75Z"/><path class="cls-6" d="M564.36,380.81v37.6l-2.66-1c-10.14-3.54-20.92-6.59-31.84-9.25a1.58,1.58,0,0,0,.11-.58V377.83c0-2-3-3.61-6.63-3.61s-6.67,1.59-6.67,3.61v27.42c-7.14-1.48-14.26-2.8-21.25-3.9a1.83,1.83,0,0,0,.22-.89V368c0-2.15-3-3.94-6.64-3.94s-6.66,1.79-6.66,3.94V399.4c-7.31-1-14.41-1.85-21.11-2.49a2,2,0,0,0,.11-.63v-34.5c0-2.35-3-4.24-6.68-4.24s-6.63,1.89-6.63,4.24v34.11c-8-.5-15.14-.71-21.1-.63a1.51,1.51,0,0,0,.07-.55V358.85c0-2.41-3-4.36-6.63-4.36s-6.68,1.95-6.68,4.36v35.86a1.54,1.54,0,0,0,.12.58c-6.32.1-13.41.5-21.11,1.11V362.28c0-2.35-3-4.23-6.67-4.23s-6.66,1.88-6.66,4.23v34.54a2.13,2.13,0,0,0,.13.82c-6.77.74-13.86,1.67-21.13,2.76V368.06c0-2.16-3-3.93-6.67-3.93s-6.63,1.77-6.63,3.93v32.42a2.63,2.63,0,0,0,.92,1.94c-7.31,1.28-14.64,2.78-21.95,4.4v-29c0-2-3-3.61-6.63-3.61s-6.67,1.59-6.67,3.61v29.79a2.62,2.62,0,0,0,1.28,2.1,305.11,305.11,0,0,0-33.2,10.5v-41.9c28-29.12,102.89-42.21,139.47-41.6v.11c.57,0,1.13-.07,1.84-.07h.39l2.13.11v-.14C460.34,336.15,538.62,350.27,564.36,380.81Z"/><polygon class="cls-6" points="555.92 593.9 287.36 593.9 421.82 538.57 555.92 593.9"/><path class="cls-6" d="M445.54,199.81c37.71,13.63,67.44,54.7,82.26,113.33-35.71-13.59-81-20.72-106.86-19.86h-.5c-22.39-.75-68.85,5-107.93,20.14,13.12-60.23,44.23-102.89,84.31-115A76.63,76.63,0,0,1,445.54,199.81Z"/><path class="cls-6" d="M442.89,138.34v49.45a86.5,86.5,0,0,0-42.6-1.28V139.66a33,33,0,0,1,9.3-6.07c7.13-3.09,14.93-3.19,23.23-.31A45.18,45.18,0,0,1,442.89,138.34Z"/><path class="cls-6" d="M420.58,57.12c2.31,5.6,6.63,22.06,7.94,67.68a37.21,37.21,0,0,0-15.57.27C412.67,87.62,417.14,64.86,420.58,57.12Z"/><path class="cls-8" d="M139.78,607.66l-8.2-31.13,15.56-4.1c.9-.23,91.21-24.37,192.91-76.47C399.41,465.55,451,431.71,493.34,395.37c52.3-44.89,90.52-93.67,113.62-145l6.6-14.68,29.36,13.21-6.6,14.67C611.22,319.35,570.08,372,514,420c-44.36,38-98.15,73.31-159.88,104.88-104.73,53.57-195,77.64-198.78,78.64Z"/><path class="cls-9" d="M686.83,609l-15.73-3.42c-59.12-12.86-121-38.81-183.83-77.13C437.36,498,386.66,459.74,336.56,414.68,251.43,338.11,198.2,269.32,196,266.43l-9.82-12.75L211.67,234l9.82,12.76c.53.69,54,69.71,137.05,144.35,48.58,43.65,97.62,80.65,145.78,110,59.7,36.35,118.11,60.9,173.62,73l15.73,3.43Z"/><path class="cls-10" d="M265.62,255.36l-5.25-6.84c-6.8-8.88-10.35-14-10.49-14.16l-4.94-7.06,14.13-9.88,4.94,7.06c0,.05,3.51,5,10.05,13.54l5.25,6.85Z"/><path class="cls-10" d="M624.51,537.32l-8-3.33c-10-4.19-20.16-8.74-30.15-13.52l-7.78-3.72,7.44-15.56,7.78,3.72c9.73,4.66,19.61,9.09,29.37,13.17l7.95,3.33Zm-60-27.71-7.6-4.08c-9.54-5.12-19.21-10.58-28.72-16.24l-7.41-4.4,8.81-14.83,7.41,4.41c9.3,5.52,18.74,10.86,28.07,15.87l7.6,4.08Zm-57.08-33-7.23-4.71c-9.08-5.92-18.25-12.15-27.25-18.53l-7-5,10-14.08,7,5c8.82,6.25,17.8,12.35,26.7,18.15l7.22,4.71ZM453.31,439l-6.85-5.24c-8.6-6.58-17.28-13.46-25.79-20.46L414,407.87,425,394.54l6.66,5.48c8.36,6.86,16.88,13.62,25.33,20.08l6.85,5.24Zm-51.25-41.32L395.59,392c-8.16-7.16-16.36-14.6-24.37-22.11L364.93,364l11.79-12.59,6.29,5.9c7.88,7.38,15.94,14.69,24,21.73l6.48,5.7Zm-48.39-44.57-6.11-6.09c-7.73-7.7-15.44-15.63-22.94-23.57l-5.92-6.27,12.54-11.84,5.92,6.27c7.38,7.82,15,15.62,22.58,23.2l6.1,6.09Zm-45.54-47.48-5.72-6.45c-7.36-8.29-14.58-16.69-21.46-25l-5.51-6.64,13.27-11,5.51,6.64c6.76,8.14,13.85,16.4,21.09,24.54l5.72,6.46Z"/><path class="cls-10" d="M672,554.26l-8.2-2.68c-5.46-1.78-11-3.68-16.55-5.66L639.13,543,645,526.77l8.12,2.91c5.36,1.93,10.77,3.78,16.08,5.51l8.2,2.67Z"/></g></svg>