<svg xmlns="http://www.w3.org/2000/svg" xmlns:xlink="http://www.w3.org/1999/xlink" viewBox="0 0 735 852"><defs><style>.cls-1{fill:none;}.cls-2{fill:#dea449;}.cls-3{clip-path:url(#clip-path);}.cls-4{fill:#eceff4;}.cls-5{fill:#d8dee9;}.cls-6{fill:#4c566a;}.cls-7{fill:#b48ead;}.cls-8{fill:#ebcb8b;}.cls-9{fill:#a3be8c;}</style><clipPath id="clip-path"><polygon class="cls-1" points="369.6 7 728.3 214.1 728.3 636.3 369.6 844.7 2.9 636.3 2.9 214.1 369.6 7"/></clipPath></defs><title>espp_no-text</title><g id="Layer_1" data-name="Layer 1"><path class="cls-2" d="M168.2,672.6l.9-.9h-.3Z"/><g class="cls-3"><circle class="cls-4" cx="365.6" cy="437.1" r="442.1"/><polygon class="cls-5" points="679.1 654.92 365.6 829.45 50.66 654.92 19.13 608.66 718.52 608.66 679.1 654.92"/></g><path class="cls-6" d="M705.7,195.8,427.9,35.5,367.6.6,307.3,35.5,29.5,195.9.2,212.8V637l29.3,16.9L310.7,816.3l56.9,32.8,56.9-32.8L705.7,653.9,735,637V212.8Zm0,425.3L367.6,816.3,29.5,621.1V230.7L367.6,35.5h0L705.7,230.7Z"/><path class="cls-2" d="M367.1,603.9l.9-.9h-.3Z"/></g><g id="Layer_3" data-name="Layer 3"><path class="cls-5" d="M581.22,578.91l13.38,18.88H530.47L365.26,529.33h0L217.54,590l0,0-18.78,7.72H139.64l11.06-19.54L196.05,576V475.86c33.63-27.63,123.82-40,168.34-39.49v.14l2.5-.11h.29l2.58.11v-.14c41.14-.5,126.54,10.81,163.48,35.89L534.07,577Zm-74.35-33.39V488.43a6.26,6.26,0,0,0-2.53-4.93,9.56,9.56,0,0,0-6.09-2c-4.76,0-8.59,3.13-8.59,7v57.09a6.46,6.46,0,0,0,2.49,4.93,9.8,9.8,0,0,0,6.1,2C503,552.47,506.87,549.37,506.87,545.52Zm-44.4-12.82V470.91a7.08,7.08,0,0,0-2.5-5.29,9.1,9.1,0,0,0-6.09-2.21c-4.79,0-8.63,3.38-8.63,7.5V532.7a6.84,6.84,0,0,0,2.54,5.31,9,9,0,0,0,6.09,2.21C458.62,540.24,462.47,536.86,462.47,532.7ZM418.06,523V461.25a7.06,7.06,0,0,0-2.53-5.34,9.11,9.11,0,0,0-6.09-2.2c-4.75,0-8.6,3.37-8.6,7.55V523a7.06,7.06,0,0,0,2.5,5.28,9.1,9.1,0,0,0,6.1,2.22C414.23,530.52,418.06,527.14,418.06,523Zm-44.4-4.89v-59a6.83,6.83,0,0,0-2.5-5.12,9.49,9.49,0,0,0-6.09-2.1c-4.78,0-8.62,3.23-8.62,7.21v59a6.59,6.59,0,0,0,2.54,5.07,9.41,9.41,0,0,0,6.09,2.1C369.82,525.3,373.66,522.07,373.66,518.12Zm-44.4,5.8V462.14a6.86,6.86,0,0,0-2.54-5.32,9,9,0,0,0-6.09-2.21c-4.75,0-8.59,3.37-8.59,7.54v61.77a7.07,7.07,0,0,0,2.5,5.29,9.13,9.13,0,0,0,6.09,2.22C325.41,531.43,329.26,528.05,329.26,523.92Zm-44.41,8.78V470.91a7.09,7.09,0,0,0-2.51-5.29,9.09,9.09,0,0,0-6.08-2.21c-4.79,0-8.63,3.38-8.63,7.5V532.7a6.84,6.84,0,0,0,2.54,5.31,9,9,0,0,0,6.09,2.21C281,540.24,284.85,536.86,284.85,532.7Zm-44.4,12.82V488.43a6.3,6.3,0,0,0-2.54-4.93,9.54,9.54,0,0,0-6.09-2c-4.75,0-8.59,3.13-8.59,7v57.09a6.47,6.47,0,0,0,2.5,4.93,9.77,9.77,0,0,0,6.09,2C236.6,552.47,240.45,549.37,240.45,545.52Z"/><path class="cls-5" d="M547.91,450.51a32.57,32.57,0,0,1,.69,20.15,66.16,66.16,0,0,0-6.75-5.63c-40-29.42-134.73-40.44-174.67-39.5h-.29c-43.21-.94-143.15,11.16-179.7,43.56,0,0-4.69-9-1-18.55,7.11-6.19,17.11-12.06,29.83-17.47C260.92,414,330.77,405,365.43,405.63v.07c.47,0,.94,0,1.56,0h.22c.54,0,1,0,1.48,0v-.07c29-.55,88.88,5.84,135.55,22.12C523.65,434.53,538.37,442.18,547.91,450.51Z"/><path class="cls-5" d="M517.79,371.77c-30.41-34-114.22-48.88-154.31-47.67h-.14c-36.84-1-122.5,12.15-154.11,47.54,0,.07-.11.1-.14.17-2.12-16.84,4.24-25.08,4.24-25.08,8.23-8,19.94-15.3,34.86-21.86,39.45-17.26,89.58-24.07,113.94-23.49v.11c.39,0,.76-.07,1.3-.07h.18c.4,0,.76,0,1.13.07v-.11c23.89-.58,73.8,6.08,113.28,23.2,17.39,7.54,30.48,16.13,38.81,25.51C520.08,359.06,518.51,368.36,517.79,371.77Z"/><path class="cls-5" d="M510.53,380v38.42c-.91-.34-1.8-.65-2.72-1-10.36-3.62-21.38-6.74-32.54-9.46a1.63,1.63,0,0,0,.11-.59V377c0-2.06-3-3.68-6.77-3.68s-6.82,1.63-6.82,3.68v28c-7.29-1.51-14.58-2.86-21.72-4a1.94,1.94,0,0,0,.22-.91V367c0-2.2-3-4-6.78-4s-6.81,1.82-6.81,4V399c-7.47-1.05-14.72-1.89-21.58-2.55a1.78,1.78,0,0,0,.13-.64V360.56c0-2.4-3.05-4.33-6.83-4.33s-6.78,1.93-6.78,4.33v34.87c-8.18-.52-15.48-.73-21.57-.64a1.65,1.65,0,0,0,.07-.57V357.57c0-2.47-3-4.45-6.77-4.45s-6.82,2-6.82,4.45v36.65a1.58,1.58,0,0,0,.11.59c-6.45.11-13.7.51-21.57,1.13V361.08c0-2.4-3-4.33-6.82-4.33s-6.81,1.93-6.81,4.33v35.3a2.23,2.23,0,0,0,.14.83c-6.92.76-14.17,1.71-21.6,2.83V367c0-2.21-3.05-4-6.81-4s-6.78,1.81-6.78,4v33.14a2.71,2.71,0,0,0,.94,2c-7.46,1.3-15,2.84-22.43,4.5V377c0-2.07-3-3.69-6.78-3.69s-6.81,1.63-6.81,3.69v30.45a2.68,2.68,0,0,0,1.3,2.14A311.25,311.25,0,0,0,218.7,420.3V377.47c28.6-29.76,105.16-43.13,142.54-42.51v.12c.58,0,1.16-.07,1.88-.07h.4l2.18.11V335C404.22,334.37,484.22,348.8,510.53,380Z"/><polygon class="cls-5" points="501.91 597.79 227.43 597.79 364.86 541.24 501.91 597.79"/><path class="cls-5" d="M389.1,195C427.63,209,458,250.93,473.17,310.85c-36.5-13.88-82.8-21.18-109.22-20.3h-.51c-22.88-.76-70.36,5.16-110.3,20.59,13.41-61.55,45.2-105.16,86.16-117.52A78.37,78.37,0,0,1,389.1,195Z"/><path class="cls-5" d="M386.38,132.21v50.54a88.33,88.33,0,0,0-43.53-1.31V133.56a33.6,33.6,0,0,1,9.5-6.21c7.28-3.15,15.26-3.26,23.74-.32A45.82,45.82,0,0,1,386.38,132.21Z"/><path class="cls-5" d="M363.58,49.2c2.36,5.73,6.78,22.54,8.12,69.16a37.86,37.86,0,0,0-15.92.29C355.5,80.37,360.07,57.11,363.58,49.2Z"/></g><g id="Layer_4" data-name="Layer 4"><path class="cls-7" d="M76.61,611.86,68.23,580l15.9-4.19c.92-.24,93.21-24.9,197.16-78.15C342,466.62,394.66,432,437.94,394.89c53.45-45.87,92.52-95.73,116.13-148.18l6.75-15,30,13.5-6.75,15c-25.65,57-67.7,110.79-125,159.9C413.74,459,358.76,495,295.67,527.3,188.64,582,96.39,606.65,92.51,607.67Z"/><path class="cls-8" d="M635.69,613.22l-16.08-3.5C559.2,596.57,496,570.05,431.74,530.89c-51-31.1-102.83-70.21-154-116.27-87-78.25-141.4-148.55-143.67-151.5l-10-13L150.08,230l10,13c.54.7,55.18,71.25,140.07,147.53C349.82,435.19,400,473,449.17,503c61,37.15,120.7,62.25,177.44,74.59l16.07,3.5Z"/><path class="cls-9" d="M205.22,251.8l-5.37-7c-6.95-9.07-10.58-14.25-10.73-14.47l-5-7.22L198.52,213l5,7.22c0,.05,3.59,5.11,10.27,13.83l5.36,7Z"/><path class="cls-9" d="M572,540l-8.13-3.41c-10.24-4.28-20.61-8.93-30.82-13.81L525.1,519l7.61-15.9,7.95,3.8c9.94,4.75,20,9.28,30,13.46l8.13,3.4Zm-61.27-28.32L503,507.48c-9.76-5.24-19.64-10.82-29.35-16.6l-7.58-4.5,9-15.15,7.57,4.5c9.5,5.65,19.15,11.11,28.68,16.22l7.77,4.17Zm-58.35-33.77L445,473.07c-9.28-6.05-18.66-12.42-27.85-18.94L410,449l10.19-14.39,7.19,5.1c9,6.38,18.2,12.62,27.29,18.55l7.38,4.81ZM397,439.52l-7-5.35c-8.8-6.73-17.67-13.76-26.37-20.91l-6.81-5.59,11.19-13.62,6.81,5.59c8.54,7,17.25,13.93,25.88,20.53l7,5.35ZM344.66,397.3,338,391.48c-8.33-7.32-16.71-14.92-24.9-22.6l-6.43-6,12-12.86,6.44,6c8.05,7.55,16.29,15,24.48,22.22l6.62,5.82ZM295.2,351.74,289,345.52c-7.9-7.87-15.79-16-23.45-24.09L259.46,315l12.82-12.1,6.05,6.41c7.54,8,15.3,16,23.07,23.71l6.24,6.22Zm-46.54-48.52-5.85-6.59c-7.52-8.47-14.89-17.06-21.92-25.53l-5.64-6.77,13.56-11.27,5.63,6.78c6.91,8.32,14.16,16.76,21.55,25.09l5.85,6.59Z"/><path class="cls-9" d="M620.54,557.28l-8.38-2.74c-5.58-1.82-11.28-3.76-16.92-5.79l-8.29-3,5.95-16.59,8.29,3c5.48,2,11,3.86,16.43,5.63l8.38,2.73Z"/></g></svg>