<?xml version="1.0" encoding="UTF-8"?><svg id="e" xmlns="http://www.w3.org/2000/svg" width="25.93cm" height="30.06cm" xmlns:xlink="http://www.w3.org/1999/xlink" viewBox="0 0 735 852"><defs><clipPath id="f"><polygon points="1200.5 8.15 1559.2 215.25 1559.2 637.45 1200.5 845.85 833.8 637.45 833.8 215.25 1200.5 8.15" fill="none"/></clipPath><clipPath id="g"><polygon points="369.5 8.15 728.2 215.25 728.2 637.45 369.5 845.85 2.8 637.45 2.8 215.25 369.5 8.15" fill="none"/></clipPath><clipPath id="h"><polygon points="-464.5 8.15 -105.8 215.25 -105.8 637.45 -464.5 845.85 -831.2 637.45 -831.2 215.25 -464.5 8.15" fill="none"/></clipPath><clipPath id="i"><polygon points="369.34 1001.79 699.81 1192.59 699.81 1581.55 369.34 1773.55 31.51 1581.55 31.51 1192.59 369.34 1001.79" fill="none"/></clipPath></defs><g clip-path="url(#f)"><g><path d="M610.94,291.35c-13.46,50.37-20.68,103.3-20.68,157.91h610.03l-589.35-157.91Z" fill="#aadce0"/><g><path d="M768.93,17.91c-37.56,37.56-70.24,80.01-97.02,126.3l528.37,305.06L768.93,17.91Z" fill="#aadce0"/><path d="M671.91,754.32c26.78,46.29,59.45,88.74,97.02,126.3l431.36-431.36-528.37,305.06Z" fill="#aadce0"/><path d="M590.25,449.26c0,54.62,7.22,107.54,20.68,157.91l589.35-157.91H590.25Z" fill="#aadce0"/></g><g><path d="M671.91,144.21c-26.4,45.64-47.04,95.02-60.97,147.14l589.35,157.91L671.91,144.21Z" fill="#b3e7e8"/><path d="M610.94,607.18c13.93,52.12,34.57,101.51,60.97,147.14l528.37-305.06-589.35,157.91Z" fill="#b3e7e8"/></g></g></g><g><path d="M163,523.58l.9-.9h-.3l-.6,.9Z" fill="#dea449"/><path d="M361.9,454.88l.9-.9h-.3l-.6,.9Z" fill="#dea449"/><path d="M163.4,673.75l.9-.9h-.3l-.6,.9Z" fill="#dea449"/><path d="M362.3,605.05l.9-.9h-.3l-.6,.9Z" fill="#dea449"/><path d="M168.6,523.58l.9-.9h-.3l-.6,.9Z" fill="#dea449"/><path d="M367.5,454.88l.9-.9h-.3l-.6,.9Z" fill="#dea449"/><path d="M169,673.75l.9-.9h-.3l-.6,.9Z" fill="#dea449"/><path d="M367.9,605.05l.9-.9h-.3l-.6,.9Z" fill="#dea449"/><path d="M168.1,673.75l.9-.9h-.3l-.6,.9Z" fill="#dea449"/><g clip-path="url(#g)"><circle cx="365.5" cy="438.25" r="442.1" fill="#f3c483"/><g><path d="M-220.06,291.35c-13.46,50.37-20.68,103.3-20.68,157.91H369.28L-220.06,291.35Z" fill="#aadce0"/><g><path d="M527.2-140.08c-50.37-13.46-103.3-20.68-157.91-20.68V449.26L527.2-140.08Z" fill="#aadce0"/><path d="M369.28-160.77c-54.62,0-107.54,7.22-157.91,20.68L369.28,449.26V-160.77Z" fill="#aadce0"/><path d="M-62.07,17.91c-37.56,37.56-70.24,80.01-97.02,126.3L369.28,449.26-62.07,17.91Z" fill="#aadce0"/><path d="M64.23-79.11C17.94-52.33-24.51-19.66-62.07,17.91L369.28,449.26,64.23-79.11Z" fill="#aadce0"/><path d="M897.66,144.21c-26.78-46.29-59.45-88.74-97.02-126.3L369.28,449.26,897.66,144.21Z" fill="#aadce0"/><path d="M979.31,449.26c0-54.62-7.22-107.54-20.68-157.91L369.28,449.26H979.31Z" fill="#aadce0"/><path d="M958.63,607.18c13.46-50.37,20.68-103.3,20.68-157.91H369.28l589.35,157.91Z" fill="#aadce0"/><path d="M800.64,17.91c-37.56-37.56-80.01-70.24-126.3-97.02L369.28,449.26,800.64,17.91Z" fill="#aadce0"/><path d="M369.28,1059.29c54.62,0,107.54-7.22,157.91-20.68L369.28,449.26v610.03Z" fill="#aadce0"/><path d="M674.34,977.64c46.29-26.78,88.74-59.45,126.3-97.02L369.28,449.26l305.06,528.37Z" fill="#aadce0"/><path d="M800.64,880.62c37.56-37.56,70.24-80.01,97.02-126.3L369.28,449.26l431.36,431.36Z" fill="#aadce0"/><path d="M211.37,1038.61c50.37,13.46,103.3,20.68,157.91,20.68V449.26l-157.91,589.35Z" fill="#aadce0"/><path d="M-159.09,754.32c26.78,46.29,59.45,88.74,97.02,126.3L369.28,449.26-159.09,754.32Z" fill="#aadce0"/><path d="M-240.75,449.26c0,54.62,7.22,107.54,20.68,157.91L369.28,449.26H-240.75Z" fill="#aadce0"/><path d="M-62.07,880.62c37.56,37.56,80.01,70.24,126.3,97.02L369.28,449.26-62.07,880.62Z" fill="#aadce0"/></g><g><path d="M211.37-140.08c-52.12,13.93-101.51,34.57-147.14,60.97L369.28,449.26,211.37-140.08Z" fill="#b3e7e8"/><path d="M958.63,291.35c-13.93-52.12-34.57-101.51-60.97-147.14L369.28,449.26l589.35-157.91Z" fill="#b3e7e8"/><path d="M674.34-79.11c-45.64-26.4-95.02-47.04-147.14-60.97L369.28,449.26,674.34-79.11Z" fill="#b3e7e8"/><path d="M-159.09,144.21c-26.4,45.64-47.04,95.02-60.97,147.14L369.28,449.26-159.09,144.21Z" fill="#b3e7e8"/><path d="M527.2,1038.61c52.12-13.93,101.51-34.57,147.14-60.97L369.28,449.26l157.91,589.35Z" fill="#b3e7e8"/><path d="M369.28,449.26l528.37,305.06c26.4-45.64,47.04-95.02,60.97-147.14L369.28,449.26Z" fill="#b3e7e8"/><path d="M-220.06,607.18c13.93,52.12,34.57,101.51,60.97,147.14L369.28,449.26-220.06,607.18Z" fill="#b3e7e8"/><path d="M64.23,977.64c45.64,26.4,95.02,47.04,147.14,60.97L369.28,449.26,64.23,977.64Z" fill="#b3e7e8"/></g></g></g><path d="M705.6,196.95L427.8,36.65,367.5,1.75l-60.3,34.9L29.4,197.05,.1,213.95v424.2l29.3,16.9,281.2,162.4,56.9,32.8,56.9-32.8,281.2-162.4,29.3-16.9V213.95l-29.3-17Zm0,425.3l-338.1,195.2L29.4,622.25V231.85L367.5,36.65h0l338.1,195.2v390.4Z" fill="#1e466e"/><path d="M367,605.05l.9-.9h-.3l-.6,.9Z" fill="#dea449"/><circle cx="369.28" cy="427.69" r="240.94" fill="#ffd06f"/><g><g><circle cx="366.96" cy="190.42" r="85.89" fill="#ef8a47" stroke="#ffe6b7" stroke-miterlimit="10" stroke-width="30.4"/><circle cx="366.96" cy="429.42" r="85.89" fill="#aadce0" stroke="#ffe6b7" stroke-miterlimit="10" stroke-width="30.4"/><circle cx="160.59" cy="549.78" r="85.89" fill="#ef8a47" stroke="#ffe6b7" stroke-miterlimit="10" stroke-width="30.4"/><circle cx="160.59" cy="308.04" r="85.89" fill="#e76254" stroke="#ffe6b7" stroke-miterlimit="10" stroke-width="30.4"/><circle cx="366.14" cy="666.46" r="85.89" fill="#e76254" stroke="#ffe6b7" stroke-miterlimit="10" stroke-width="30.4"/><circle cx="573.76" cy="308.04" r="85.89" fill="#e76254" stroke="#ffe6b7" stroke-miterlimit="10" stroke-width="30.4"/><circle cx="573.76" cy="550.92" r="85.89" fill="#ef8a47" stroke="#ffe6b7" stroke-miterlimit="10" stroke-width="30.4"/><path d="M132.32,468.66c-2.22-13.07-3.38-26.51-3.38-40.21s1.11-26.54,3.23-39.33" fill="none" stroke="#ffe6b7" stroke-miterlimit="10" stroke-width="30.4"/><path d="M281.79,650.77c-23.46-8.99-45.14-21.59-64.35-37.12" fill="none" stroke="#ffe6b7" stroke-miterlimit="10" stroke-width="30.4"/><path d="M515.74,614.24c-19.42,15.57-41.33,28.16-65.04,37.07" fill="none" stroke="#ffe6b7" stroke-miterlimit="10" stroke-width="30.4"/><path d="M601.77,389.26c2.11,12.75,3.21,25.84,3.21,39.19,0,14.03-1.21,27.78-3.54,41.14" fill="none" stroke="#ffe6b7" stroke-miterlimit="10" stroke-width="30.4"/><path d="M451.46,205.86c23.91,9.08,45.98,21.91,65.49,37.76" fill="none" stroke="#ffe6b7" stroke-miterlimit="10" stroke-width="30.4"/><path d="M217.19,243.44c19.45-15.77,41.44-28.53,65.26-37.58" fill="none" stroke="#ffe6b7" stroke-miterlimit="10" stroke-width="30.4"/></g><line x1="366.96" y1="428.44" x2="98.05" y2="273.19" fill="none"/><line x1="366.96" y1="428.44" x2="98.05" y2="583.7" fill="none"/><line x1="366.96" y1="428.44" x2="366.96" y2="738.95" fill="none"/><line x1="366.96" y1="428.44" x2="635.87" y2="583.7" fill="none"/><line x1="366.96" y1="428.44" x2="635.87" y2="273.19" fill="none"/></g></g><g clip-path="url(#h)"><g><g><path d="M63.66,144.21C36.88,97.92,4.2,55.47-33.36,17.91L-464.72,449.26,63.66,144.21Z" fill="#aadce0"/><path d="M145.31,449.26c0-54.62-7.22-107.54-20.68-157.91L-464.72,449.26H145.31Z" fill="#aadce0"/><path d="M124.63,607.18c13.46-50.37,20.68-103.3,20.68-157.91H-464.72L124.63,607.18Z" fill="#aadce0"/><path d="M-33.36,880.62c37.56-37.56,70.24-80.01,97.02-126.3L-464.72,449.26-33.36,880.62Z" fill="#aadce0"/></g><g><path d="M124.63,291.35c-13.93-52.12-34.57-101.51-60.97-147.14L-464.72,449.26,124.63,291.35Z" fill="#b3e7e8"/><path d="M-464.72,449.26L63.66,754.32c26.4-45.64,47.04-95.02,60.97-147.14L-464.72,449.26Z" fill="#b3e7e8"/></g></g></g><g clip-path="url(#i)"><g><path d="M514.63,865.23c-46.41-12.4-95.17-19.05-145.48-19.05v562.01l145.48-542.95Z" fill="#aadce0"/><path d="M369.14,846.17c-50.32,0-99.08,6.65-145.48,19.05l145.48,542.95V846.17Z" fill="#aadce0"/></g></g></svg>