<?xml version="1.0" encoding="UTF-8"?><svg id="e" xmlns="http://www.w3.org/2000/svg" width="25.93cm" height="30.06cm" xmlns:xlink="http://www.w3.org/1999/xlink" viewBox="0 0 735 852"><defs><clipPath id="f"><polygon points="1203.5 8.15 1562.2 215.25 1562.2 637.45 1203.5 845.85 836.8 637.45 836.8 215.25 1203.5 8.15" fill="none"/></clipPath><clipPath id="g"><polygon points="369.5 8.15 728.2 215.25 728.2 637.45 369.5 845.85 2.8 637.45 2.8 215.25 369.5 8.15" fill="none"/></clipPath><clipPath id="h"><polygon points="1203.34 1001.79 1533.81 1192.59 1533.81 1581.55 1203.34 1773.55 865.51 1581.55 865.51 1192.59 1203.34 1001.79" fill="none"/></clipPath></defs><g clip-path="url(#f)"><g><path d="M613.94,291.35c-13.46,50.37-20.68,103.3-20.68,157.91h610.03l-589.35-157.91Z" fill="#aadce0"/><g><path d="M771.93,17.91c-37.56,37.56-70.24,80.01-97.02,126.3l528.37,305.06L771.93,17.91Z" fill="#aadce0"/><path d="M674.91,754.32c26.78,46.29,59.45,88.74,97.02,126.3l431.36-431.36-528.37,305.06Z" fill="#aadce0"/><path d="M593.25,449.26c0,54.62,7.22,107.54,20.68,157.91l589.35-157.91H593.25Z" fill="#aadce0"/></g><g><path d="M674.91,144.21c-26.4,45.64-47.04,95.02-60.97,147.14l589.35,157.91L674.91,144.21Z" fill="#b3e7e8"/><path d="M613.94,607.18c13.93,52.12,34.57,101.51,60.97,147.14l528.37-305.06-589.35,157.91Z" fill="#b3e7e8"/></g></g></g><g><path d="M163,523.58l.9-.9h-.3l-.6,.9Z" fill="#dea449"/><path d="M361.9,454.88l.9-.9h-.3l-.6,.9Z" fill="#dea449"/><path d="M163.4,673.75l.9-.9h-.3l-.6,.9Z" fill="#dea449"/><path d="M362.3,605.05l.9-.9h-.3l-.6,.9Z" fill="#dea449"/><path d="M168.6,523.58l.9-.9h-.3l-.6,.9Z" fill="#dea449"/><path d="M367.5,454.88l.9-.9h-.3l-.6,.9Z" fill="#dea449"/><path d="M169,673.75l.9-.9h-.3l-.6,.9Z" fill="#dea449"/><path d="M367.9,605.05l.9-.9h-.3l-.6,.9Z" fill="#dea449"/><path d="M168.1,673.75l.9-.9h-.3l-.6,.9Z" fill="#dea449"/><g clip-path="url(#g)"><circle cx="365.5" cy="438.25" r="442.1" fill="#f3c483"/><g><path d="M-220.06,291.35c-13.46,50.37-20.68,103.3-20.68,157.91H369.28L-220.06,291.35Z" fill="#aadce0"/><g><path d="M527.2-140.08c-50.37-13.46-103.3-20.68-157.91-20.68V449.26L527.2-140.08Z" fill="#aadce0"/><path d="M369.28-160.77c-54.62,0-107.54,7.22-157.91,20.68L369.28,449.26V-160.77Z" fill="#aadce0"/><path d="M-62.07,17.91c-37.56,37.56-70.24,80.01-97.02,126.3L369.28,449.26-62.07,17.91Z" fill="#aadce0"/><path d="M64.23-79.11C17.94-52.33-24.51-19.66-62.07,17.91L369.28,449.26,64.23-79.11Z" fill="#aadce0"/><path d="M897.66,144.21c-26.78-46.29-59.45-88.74-97.02-126.3L369.28,449.26,897.66,144.21Z" fill="#aadce0"/><path d="M979.31,449.26c0-54.62-7.22-107.54-20.68-157.91L369.28,449.26H979.31Z" fill="#aadce0"/><path d="M958.63,607.18c13.46-50.37,20.68-103.3,20.68-157.91H369.28l589.35,157.91Z" fill="#aadce0"/><path d="M800.64,17.91c-37.56-37.56-80.01-70.24-126.3-97.02L369.28,449.26,800.64,17.91Z" fill="#aadce0"/><path d="M369.28,1059.29c54.62,0,107.54-7.22,157.91-20.68L369.28,449.26v610.03Z" fill="#aadce0"/><path d="M674.34,977.64c46.29-26.78,88.74-59.45,126.3-97.02L369.28,449.26l305.06,528.37Z" fill="#aadce0"/><path d="M800.64,880.62c37.56-37.56,70.24-80.01,97.02-126.3L369.28,449.26l431.36,431.36Z" fill="#aadce0"/><path d="M211.37,1038.61c50.37,13.46,103.3,20.68,157.91,20.68V449.26l-157.91,589.35Z" fill="#aadce0"/><path d="M-159.09,754.32c26.78,46.29,59.45,88.74,97.02,126.3L369.28,449.26-159.09,754.32Z" fill="#aadce0"/><path d="M-240.75,449.26c0,54.62,7.22,107.54,20.68,157.91L369.28,449.26H-240.75Z" fill="#aadce0"/><path d="M-62.07,880.62c37.56,37.56,80.01,70.24,126.3,97.02L369.28,449.26-62.07,880.62Z" fill="#aadce0"/></g><g><path d="M211.37-140.08c-52.12,13.93-101.51,34.57-147.14,60.97L369.28,449.26,211.37-140.08Z" fill="#b3e7e8"/><path d="M958.63,291.35c-13.93-52.12-34.57-101.51-60.97-147.14L369.28,449.26l589.35-157.91Z" fill="#b3e7e8"/><path d="M674.34-79.11c-45.64-26.4-95.02-47.04-147.14-60.97L369.28,449.26,674.34-79.11Z" fill="#b3e7e8"/><path d="M-159.09,144.21c-26.4,45.64-47.04,95.02-60.97,147.14L369.28,449.26-159.09,144.21Z" fill="#b3e7e8"/><path d="M527.2,1038.61c52.12-13.93,101.51-34.57,147.14-60.97L369.28,449.26l157.91,589.35Z" fill="#b3e7e8"/><path d="M369.28,449.26l528.37,305.06c26.4-45.64,47.04-95.02,60.97-147.14L369.28,449.26Z" fill="#b3e7e8"/><path d="M-220.06,607.18c13.93,52.12,34.57,101.51,60.97,147.14L369.28,449.26-220.06,607.18Z" fill="#b3e7e8"/><path d="M64.23,977.64c45.64,26.4,95.02,47.04,147.14,60.97L369.28,449.26,64.23,977.64Z" fill="#b3e7e8"/></g></g></g><path d="M705.6,196.95L427.8,36.65,367.5,1.75l-60.3,34.9L29.4,197.05,.1,213.95v424.2l29.3,16.9,281.2,162.4,56.9,32.8,56.9-32.8,281.2-162.4,29.3-16.9V213.95l-29.3-17Zm0,425.3l-338.1,195.2L29.4,622.25V231.85L367.5,36.65h0l338.1,195.2v390.4Z" fill="#1e466e"/><path d="M367,605.05l.9-.9h-.3l-.6,.9Z" fill="#dea449"/><circle cx="369.28" cy="427.69" r="240.94" fill="#ffd06f"/><g><g><circle cx="366.96" cy="190.42" r="85.89" fill="#ef8a47" stroke="#ffe6b7" stroke-miterlimit="10" stroke-width="30.4"/><circle cx="366.96" cy="429.42" r="85.89" fill="#aadce0" stroke="#ffe6b7" stroke-miterlimit="10" stroke-width="30.4"/><circle cx="160.59" cy="549.78" r="85.89" fill="#ef8a47" stroke="#ffe6b7" stroke-miterlimit="10" stroke-width="30.4"/><circle cx="160.59" cy="308.04" r="85.89" fill="#e76254" stroke="#ffe6b7" stroke-miterlimit="10" stroke-width="30.4"/><circle cx="366.14" cy="666.46" r="85.89" fill="#e76254" stroke="#ffe6b7" stroke-miterlimit="10" stroke-width="30.4"/><circle cx="573.76" cy="308.04" r="85.89" fill="#e76254" stroke="#ffe6b7" stroke-miterlimit="10" stroke-width="30.4"/><circle cx="573.76" cy="550.92" r="85.89" fill="#ef8a47" stroke="#ffe6b7" stroke-miterlimit="10" stroke-width="30.4"/><path d="M132.32,468.66c-2.22-13.07-3.38-26.51-3.38-40.21s1.11-26.54,3.23-39.33" fill="none" stroke="#ffe6b7" stroke-miterlimit="10" stroke-width="30.4"/><path d="M281.79,650.77c-23.46-8.99-45.14-21.59-64.35-37.12" fill="none" stroke="#ffe6b7" stroke-miterlimit="10" stroke-width="30.4"/><path d="M515.74,614.24c-19.42,15.57-41.33,28.16-65.04,37.07" fill="none" stroke="#ffe6b7" stroke-miterlimit="10" stroke-width="30.4"/><path d="M601.77,389.26c2.11,12.75,3.21,25.84,3.21,39.19,0,14.03-1.21,27.78-3.54,41.14" fill="none" stroke="#ffe6b7" stroke-miterlimit="10" stroke-width="30.4"/><path d="M451.46,205.86c23.91,9.08,45.98,21.91,65.49,37.76" fill="none" stroke="#ffe6b7" stroke-miterlimit="10" stroke-width="30.4"/><path d="M217.19,243.44c19.45-15.77,41.44-28.53,65.26-37.58" fill="none" stroke="#ffe6b7" stroke-miterlimit="10" stroke-width="30.4"/></g><line x1="366.96" y1="428.44" x2="98.05" y2="273.19" fill="none"/><line x1="366.96" y1="428.44" x2="98.05" y2="583.7" fill="none"/><line x1="366.96" y1="428.44" x2="366.96" y2="738.95" fill="none"/><line x1="366.96" y1="428.44" x2="635.87" y2="583.7" fill="none"/><line x1="366.96" y1="428.44" x2="635.87" y2="273.19" fill="none"/></g></g><g><rect x="29.8" y="303.5" width="675.8" height="251.84" opacity=".6"/><g><g><path d="M145.02,330.67v62.5h-12.95v-62.5h12.95Z" fill="#fff"/><path d="M182.34,361.92c-1.07-1.43-2.8-2.14-5.18-2.14-1.61,0-3.04,.34-4.29,1.03-1.25,.69-2.2,1.65-2.86,2.9-.66,1.25-.98,2.74-.98,4.46v25h-11.61v-41.07h11.61v6.25c1.25-2.32,2.9-4.09,4.96-5.31,2.05-1.22,4.54-1.83,7.46-1.83,4.88,0,8.51,1.38,10.89,4.15,2.38,2.77,3.57,6.62,3.57,11.56v26.25h-11.96v-25c0-2.74-.54-4.82-1.61-6.25Z" fill="#fff"/><path d="M227.43,352.1v9.73h-25.36v-9.73h25.36Zm-7.14-14.29v55.35h-11.16v-55.35h11.16Z" fill="#fff"/><path d="M244.92,393.17h-11.34v-41.07h11.34v41.07Zm9.69-30.67c-.8-.39-1.8-.58-2.99-.58-1.43,0-2.65,.39-3.66,1.16-1.01,.77-1.77,1.86-2.28,3.26-.51,1.4-.76,3.08-.76,5.04l-3.21-3.21c0-3.27,.62-6.17,1.88-8.7,1.25-2.53,2.89-4.55,4.91-6.07,2.02-1.52,4.11-2.28,6.25-2.28,1.49,0,2.9,.27,4.24,.8s2.42,1.34,3.26,2.41l-5.27,9.82c-.77-.71-1.56-1.26-2.37-1.65Z" fill="#fff"/><path d="M267.29,361.38c1.99-3.21,4.7-5.71,8.12-7.5,3.42-1.79,7.31-2.68,11.65-2.68s8.23,.89,11.65,2.68c3.42,1.79,6.13,4.29,8.12,7.5,1.99,3.21,2.99,6.96,2.99,11.25s-1,7.96-2.99,11.21c-1.99,3.24-4.7,5.76-8.12,7.54-3.42,1.79-7.31,2.68-11.65,2.68s-8.23-.89-11.65-2.68c-3.42-1.79-6.13-4.3-8.12-7.54-1.99-3.24-2.99-6.98-2.99-11.21s1-8.04,2.99-11.25Zm10.27,17.36c.98,1.76,2.31,3.12,3.97,4.11,1.67,.98,3.51,1.47,5.54,1.47s3.87-.49,5.54-1.47c1.67-.98,2.99-2.35,3.97-4.11,.98-1.75,1.47-3.79,1.47-6.12s-.49-4.37-1.47-6.16-2.31-3.15-3.97-4.11c-1.67-.95-3.51-1.43-5.54-1.43s-3.87,.48-5.54,1.43c-1.67,.95-2.99,2.32-3.97,4.11-.98,1.79-1.47,3.84-1.47,6.16s.49,4.36,1.47,6.12Z" fill="#fff"/><path d="M318.49,360.98c1.84-3.18,4.29-5.61,7.32-7.28,3.04-1.67,6.25-2.5,9.64-2.5s6.5,.86,9.15,2.59c2.65,1.73,4.73,4.18,6.25,7.37,1.52,3.18,2.28,7.01,2.28,11.47s-.76,8.21-2.28,11.43c-1.52,3.21-3.6,5.68-6.25,7.41s-5.7,2.59-9.15,2.59-6.61-.83-9.64-2.5-5.48-4.11-7.32-7.32c-1.85-3.21-2.77-7.08-2.77-11.61s.92-8.47,2.77-11.65Zm10.71,17.99c1.01,1.79,2.38,3.16,4.11,4.11,1.72,.95,3.57,1.43,5.54,1.43,1.73,0,3.41-.46,5.04-1.38,1.64-.92,2.97-2.28,4.02-4.06,1.04-1.79,1.56-3.93,1.56-6.43s-.52-4.64-1.56-6.43c-1.04-1.79-2.38-3.14-4.02-4.06-1.64-.92-3.32-1.38-5.04-1.38-1.96,0-3.81,.48-5.54,1.43-1.73,.95-3.1,2.32-4.11,4.11s-1.52,3.9-1.52,6.34,.51,4.55,1.52,6.34Zm31.87-55.44v69.64h-11.61v-69.64h11.61Z" fill="#fff"/><path d="M385.81,383.3c1.07,1.46,2.8,2.19,5.18,2.19,1.67,0,3.11-.34,4.33-1.03,1.22-.68,2.17-1.65,2.86-2.9,.68-1.25,1.03-2.74,1.03-4.46v-25h11.52v41.07h-11.52v-6.25c-1.31,2.32-2.98,4.09-5,5.31-2.02,1.22-4.49,1.83-7.41,1.83-4.88,0-8.53-1.4-10.94-4.2-2.41-2.8-3.62-6.64-3.62-11.52v-26.25h11.96v25c0,2.68,.54,4.75,1.61,6.21Z" fill="#fff"/><path d="M432.5,378.88c1.07,1.79,2.51,3.18,4.33,4.2,1.82,1.01,3.82,1.52,6.03,1.52,1.79,0,3.51-.28,5.18-.85,1.67-.56,3.17-1.34,4.51-2.32,1.34-.98,2.37-2.13,3.08-3.44v11.87c-1.43,1.31-3.29,2.34-5.58,3.08-2.29,.74-4.96,1.12-7.99,1.12-4.34,0-8.26-.89-11.74-2.68-3.48-1.79-6.22-4.3-8.21-7.54-1.99-3.24-2.99-6.98-2.99-11.21s1-8.04,2.99-11.25c1.99-3.21,4.73-5.71,8.21-7.5,3.48-1.79,7.4-2.68,11.74-2.68,3.04,0,5.7,.37,7.99,1.12,2.29,.75,4.15,1.74,5.58,2.99v11.87c-.71-1.31-1.77-2.46-3.17-3.44-1.4-.98-2.93-1.74-4.6-2.28-1.67-.54-3.33-.8-5-.8-2.2,0-4.21,.52-6.03,1.56-1.82,1.04-3.26,2.46-4.33,4.24s-1.61,3.84-1.61,6.16,.54,4.46,1.61,6.25Z" fill="#fff"/><path d="M485.89,352.1v9.73h-25.36v-9.73h25.36Zm-7.14-14.29v55.35h-11.16v-55.35h11.16Z" fill="#fff"/><path d="M493.57,331.52c1.37-1.22,3-1.83,4.91-1.83s3.53,.61,4.87,1.83c1.34,1.22,2.01,2.78,2.01,4.69s-.67,3.39-2.01,4.64-2.96,1.88-4.87,1.88-3.54-.62-4.91-1.88c-1.37-1.25-2.05-2.8-2.05-4.64s.68-3.47,2.05-4.69Zm10.45,20.58v41.07h-11.25v-41.07h11.25Z" fill="#fff"/><path d="M516.47,361.38c1.99-3.21,4.7-5.71,8.12-7.5,3.42-1.79,7.31-2.68,11.65-2.68s8.23,.89,11.65,2.68c3.42,1.79,6.13,4.29,8.12,7.5,1.99,3.21,2.99,6.96,2.99,11.25s-1,7.96-2.99,11.21c-2,3.24-4.7,5.76-8.12,7.54-3.42,1.79-7.31,2.68-11.65,2.68s-8.23-.89-11.65-2.68c-3.42-1.79-6.13-4.3-8.12-7.54-2-3.24-2.99-6.98-2.99-11.21s1-8.04,2.99-11.25Zm10.27,17.36c.98,1.76,2.31,3.12,3.97,4.11,1.67,.98,3.51,1.47,5.54,1.47s3.87-.49,5.54-1.47c1.67-.98,2.99-2.35,3.97-4.11,.98-1.75,1.47-3.79,1.47-6.12s-.49-4.37-1.47-6.16c-.98-1.79-2.31-3.15-3.97-4.11-1.67-.95-3.51-1.43-5.54-1.43s-3.87,.48-5.54,1.43c-1.67,.95-2.99,2.32-3.97,4.11-.98,1.79-1.47,3.84-1.47,6.16s.49,4.36,1.47,6.12Z" fill="#fff"/><path d="M592.58,361.92c-1.07-1.43-2.8-2.14-5.18-2.14-1.61,0-3.04,.34-4.29,1.03-1.25,.69-2.2,1.65-2.86,2.9-.66,1.25-.98,2.74-.98,4.46v25h-11.61v-41.07h11.61v6.25c1.25-2.32,2.9-4.09,4.96-5.31,2.05-1.22,4.54-1.83,7.46-1.83,4.88,0,8.51,1.38,10.89,4.15,2.38,2.77,3.57,6.62,3.57,11.56v26.25h-11.96v-25c0-2.74-.54-4.82-1.61-6.25Z" fill="#fff"/><path d="M217.6,453.43v65.62l-44.46-41.87v38.75h-12.32v-65.62l44.46,41.87v-38.75h12.32Z" fill="#fff"/><path d="M230.33,484.14c1.99-3.21,4.7-5.71,8.12-7.5,3.42-1.79,7.31-2.68,11.65-2.68s8.23,.89,11.65,2.68c3.42,1.79,6.13,4.29,8.12,7.5,1.99,3.21,2.99,6.96,2.99,11.25s-1,7.96-2.99,11.2c-1.99,3.25-4.7,5.76-8.12,7.54-3.42,1.79-7.31,2.68-11.65,2.68s-8.23-.89-11.65-2.68c-3.42-1.79-6.13-4.3-8.12-7.54-1.99-3.24-2.99-6.98-2.99-11.2s1-8.04,2.99-11.25Zm10.27,17.37c.98,1.76,2.31,3.12,3.97,4.11,1.67,.98,3.51,1.47,5.54,1.47s3.87-.49,5.54-1.47c1.67-.98,2.99-2.35,3.97-4.11,.98-1.75,1.47-3.79,1.47-6.12s-.49-4.38-1.47-6.16c-.98-1.79-2.31-3.15-3.97-4.11-1.67-.95-3.51-1.43-5.54-1.43s-3.87,.48-5.54,1.43c-1.67,.95-2.99,2.32-3.97,4.11-.98,1.79-1.47,3.84-1.47,6.16s.49,4.36,1.47,6.12Z" fill="#fff"/><path d="M306.44,484.68c-1.07-1.43-2.8-2.14-5.18-2.14-1.61,0-3.04,.34-4.29,1.03-1.25,.69-2.2,1.65-2.86,2.9-.66,1.25-.98,2.74-.98,4.46v25h-11.61v-41.07h11.61v6.25c1.25-2.32,2.9-4.09,4.96-5.31,2.05-1.22,4.54-1.83,7.46-1.83,4.88,0,8.51,1.38,10.89,4.15,2.38,2.77,3.57,6.62,3.57,11.56v26.25h-11.96v-25c0-2.74-.54-4.82-1.61-6.25Z" fill="#fff"/><path d="M331.17,535.57v-60.71h11.61v60.71h-11.61Zm42.59-28.3c-1.85,3.27-4.27,5.74-7.28,7.41-3.01,1.67-6.24,2.5-9.69,2.5s-6.56-.89-9.15-2.68c-2.59-1.79-4.58-4.31-5.98-7.59-1.4-3.27-2.1-7.11-2.1-11.52s.7-8.32,2.1-11.56c1.4-3.24,3.39-5.76,5.98-7.54,2.59-1.79,5.64-2.68,9.15-2.68s6.68,.83,9.69,2.5c3.01,1.67,5.43,4.12,7.28,7.37,1.84,3.24,2.77,7.22,2.77,11.92s-.92,8.6-2.77,11.87Zm-10.71-18.12c-1.01-1.73-2.37-3.04-4.06-3.93-1.7-.89-3.56-1.34-5.58-1.34-1.73,0-3.41,.43-5.04,1.29-1.64,.86-2.98,2.16-4.02,3.88-1.04,1.73-1.56,3.84-1.56,6.34s.52,4.61,1.56,6.34c1.04,1.73,2.38,3.02,4.02,3.88,1.64,.86,3.32,1.29,5.04,1.29,2.02,0,3.88-.45,5.58-1.34s3.05-2.2,4.06-3.93c1.01-1.73,1.52-3.81,1.52-6.25s-.51-4.52-1.52-6.25Z" fill="#fff"/><path d="M396.52,515.93h-11.34v-41.07h11.34v41.07Zm9.69-30.67c-.8-.39-1.8-.58-2.99-.58-1.43,0-2.65,.39-3.66,1.16-1.01,.77-1.77,1.86-2.28,3.26-.51,1.4-.76,3.08-.76,5.04l-3.21-3.21c0-3.27,.62-6.17,1.87-8.71,1.25-2.53,2.89-4.55,4.91-6.07,2.02-1.52,4.11-2.28,6.25-2.28,1.49,0,2.9,.27,4.24,.8,1.34,.54,2.42,1.34,3.26,2.41l-5.27,9.82c-.77-.71-1.56-1.26-2.37-1.65Z" fill="#fff"/><path d="M418.89,484.14c1.99-3.21,4.7-5.71,8.12-7.5,3.42-1.79,7.31-2.68,11.65-2.68s8.23,.89,11.65,2.68c3.42,1.79,6.13,4.29,8.12,7.5,1.99,3.21,2.99,6.96,2.99,11.25s-1,7.96-2.99,11.2c-2,3.25-4.7,5.76-8.12,7.54-3.42,1.79-7.31,2.68-11.65,2.68s-8.23-.89-11.65-2.68c-3.42-1.79-6.13-4.3-8.12-7.54-2-3.24-2.99-6.98-2.99-11.2s1-8.04,2.99-11.25Zm10.27,17.37c.98,1.76,2.31,3.12,3.97,4.11,1.67,.98,3.51,1.47,5.54,1.47s3.87-.49,5.54-1.47c1.67-.98,2.99-2.35,3.97-4.11,.98-1.75,1.47-3.79,1.47-6.12s-.49-4.38-1.47-6.16c-.98-1.79-2.31-3.15-3.97-4.11-1.67-.95-3.51-1.43-5.54-1.43s-3.87,.48-5.54,1.43c-1.67,.95-2.99,2.32-3.97,4.11-.98,1.79-1.47,3.84-1.47,6.16s.49,4.36,1.47,6.12Z" fill="#fff"/><path d="M492.32,474.86v9.73h-25.71v-9.73h25.71Zm-3.26-18.79c-.74-.33-1.47-.49-2.19-.49-.89,0-1.65,.22-2.28,.67s-1.12,1.18-1.47,2.19c-.36,1.01-.54,2.29-.54,3.84v53.66h-11.16v-56.25c0-3.15,.54-5.8,1.61-7.95s2.68-3.79,4.82-4.96c2.14-1.16,4.76-1.74,7.86-1.74,1.84,0,3.42,.22,4.73,.67,1.31,.45,2.42,1,3.35,1.65,.92,.66,1.65,1.28,2.19,1.88l-4.91,8.66c-.6-.89-1.27-1.5-2.01-1.83Z" fill="#fff"/><path d="M500.71,454.28c1.37-1.22,3-1.83,4.91-1.83s3.53,.61,4.87,1.83c1.34,1.22,2.01,2.78,2.01,4.69s-.67,3.39-2.01,4.64-2.96,1.88-4.87,1.88-3.54-.62-4.91-1.88c-1.37-1.25-2.05-2.8-2.05-4.64s.68-3.47,2.05-4.69Zm10.45,20.58v41.07h-11.25v-41.07h11.25Z" fill="#fff"/><path d="M543.47,474.86v9.73h-25.36v-9.73h25.36Zm-7.14-14.28v55.35h-11.16v-55.35h11.16Z" fill="#fff"/><path d="M556.51,505.62c1.49,.98,2.9,1.71,4.24,2.19,1.34,.48,2.6,.71,3.79,.71,1.55,0,2.74-.34,3.57-1.03,.83-.68,1.25-1.62,1.25-2.81,0-1.07-.34-1.98-1.03-2.72-.68-.74-1.68-1.41-2.99-2.01-1.31-.59-2.98-1.22-5-1.88-1.91-.71-3.75-1.56-5.54-2.54-1.79-.98-3.26-2.29-4.42-3.93-1.16-1.64-1.74-3.73-1.74-6.29s.65-4.51,1.96-6.21c1.31-1.7,3.08-2.98,5.31-3.84,2.23-.86,4.72-1.29,7.46-1.29,2.32,0,4.49,.3,6.52,.89,2.02,.6,3.9,1.38,5.62,2.37,1.73,.98,3.24,2.13,4.55,3.44l-5.09,7.14c-1.49-1.61-3.26-2.92-5.31-3.93-2.05-1.01-4.06-1.52-6.03-1.52-1.31,0-2.34,.25-3.08,.76-.74,.51-1.12,1.27-1.12,2.28,0,.89,.37,1.68,1.12,2.37,.74,.68,1.82,1.29,3.21,1.83,1.4,.54,2.99,1.19,4.78,1.96,2.2,.83,4.24,1.77,6.12,2.81,1.88,1.04,3.38,2.34,4.51,3.88,1.13,1.55,1.7,3.57,1.7,6.07,0,4.11-1.34,7.31-4.02,9.6s-6.37,3.44-11.07,3.44c-2.92,0-5.58-.39-7.99-1.16-2.41-.77-4.58-1.8-6.52-3.08-1.93-1.28-3.68-2.66-5.22-4.15l5.62-7.23c1.73,1.61,3.33,2.9,4.82,3.88Z" fill="#fff"/></g><text transform="translate(347.38 449.76)" fill="#fff" font-family="Jost-SemiBold, Jost" font-size="53.32" font-weight="600"><tspan x="0" y="0">to</tspan></text></g></g></svg>