<?xml version="1.0" encoding="UTF-8"?><svg id="e" xmlns="http://www.w3.org/2000/svg" width="30cm" height="30cm" xmlns:xlink="http://www.w3.org/1999/xlink" viewBox="0 0 850.39 850.39"><defs><clipPath id="f"><polygon points="426.7 7.35 785.4 214.45 785.4 636.65 426.7 845.05 60 636.65 60 214.45 426.7 7.35" fill="none"/></clipPath><clipPath id="g"><polygon points="-404.3 7.35 -45.6 214.45 -45.6 636.65 -404.3 845.05 -771 636.65 -771 214.45 -404.3 7.35" fill="none"/></clipPath><clipPath id="h"><polygon points="-404.46 1000.99 -74 1191.78 -74 1580.75 -404.46 1772.75 -742.3 1580.75 -742.3 1191.78 -404.46 1000.99" fill="none"/></clipPath></defs><g><path d="M220.2,522.77l.9-.9h-.3l-.6,.9Z" fill="#dea449"/><path d="M419.1,454.07l.9-.9h-.3l-.6,.9Z" fill="#dea449"/><path d="M220.6,672.95l.9-.9h-.3l-.6,.9Z" fill="#dea449"/><path d="M419.5,604.25l.9-.9h-.3l-.6,.9Z" fill="#dea449"/><path d="M225.8,522.77l.9-.9h-.3l-.6,.9Z" fill="#dea449"/><path d="M424.7,454.07l.9-.9h-.3l-.6,.9Z" fill="#dea449"/><path d="M226.2,672.95l.9-.9h-.3l-.6,.9Z" fill="#dea449"/><path d="M425.1,604.25l.9-.9h-.3l-.6,.9Z" fill="#dea449"/><path d="M225.3,672.95l.9-.9h-.3l-.6,.9Z" fill="#dea449"/><g clip-path="url(#f)"><circle cx="422.7" cy="437.45" r="442.1" fill="#f3c483"/><g><path d="M-162.87,290.55c-13.46,50.37-20.68,103.3-20.68,157.91H426.48L-162.87,290.55Z" fill="#aadce0"/><g><path d="M584.39-140.89c-50.37-13.46-103.3-20.68-157.91-20.68V448.46L584.39-140.89Z" fill="#aadce0"/><path d="M426.48-161.57c-54.62,0-107.54,7.22-157.91,20.68L426.48,448.46V-161.57Z" fill="#aadce0"/><path d="M-4.88,17.1c-37.56,37.56-70.24,80.01-97.02,126.3L426.48,448.46-4.88,17.1Z" fill="#aadce0"/><path d="M121.42-79.91C75.14-53.13,32.69-20.46-4.88,17.1L426.48,448.46,121.42-79.91Z" fill="#aadce0"/><path d="M954.85,143.4c-26.78-46.29-59.45-88.74-97.02-126.3L426.48,448.46,954.85,143.4Z" fill="#aadce0"/><path d="M1036.51,448.46c0-54.62-7.22-107.54-20.68-157.91L426.48,448.46h610.03Z" fill="#aadce0"/><path d="M1015.83,606.37c13.46-50.37,20.68-103.3,20.68-157.91H426.48l589.35,157.91Z" fill="#aadce0"/><path d="M857.84,17.1c-37.56-37.56-80.01-70.24-126.3-97.02L426.48,448.46,857.84,17.1Z" fill="#aadce0"/><path d="M426.48,1058.49c54.62,0,107.54-7.22,157.91-20.68L426.48,448.46v610.03Z" fill="#aadce0"/><path d="M731.54,976.83c46.29-26.78,88.74-59.45,126.3-97.02L426.48,448.46l305.06,528.37Z" fill="#aadce0"/><path d="M857.84,879.82c37.56-37.56,70.24-80.01,97.02-126.3L426.48,448.46l431.36,431.36Z" fill="#aadce0"/><path d="M268.57,1037.81c50.37,13.46,103.3,20.68,157.91,20.68V448.46l-157.91,589.35Z" fill="#aadce0"/><path d="M-101.89,753.52c26.78,46.29,59.45,88.74,97.02,126.3L426.48,448.46-101.89,753.52Z" fill="#aadce0"/><path d="M-183.55,448.46c0,54.62,7.22,107.54,20.68,157.91L426.48,448.46H-183.55Z" fill="#aadce0"/><path d="M-4.88,879.82c37.56,37.56,80.01,70.24,126.3,97.02L426.48,448.46-4.88,879.82Z" fill="#aadce0"/></g><g><path d="M268.57-140.89c-52.12,13.93-101.51,34.57-147.14,60.97L426.48,448.46,268.57-140.89Z" fill="#b3e7e8"/><path d="M1015.83,290.55c-13.93-52.12-34.57-101.51-60.97-147.14L426.48,448.46l589.35-157.91Z" fill="#b3e7e8"/><path d="M731.54-79.91c-45.64-26.4-95.02-47.04-147.14-60.97L426.48,448.46,731.54-79.91Z" fill="#b3e7e8"/><path d="M-101.89,143.4c-26.4,45.64-47.04,95.02-60.97,147.14L426.48,448.46-101.89,143.4Z" fill="#b3e7e8"/><path d="M584.39,1037.81c52.12-13.93,101.51-34.57,147.14-60.97L426.48,448.46l157.91,589.35Z" fill="#b3e7e8"/><path d="M426.48,448.46l528.37,305.06c26.4-45.64,47.04-95.02,60.97-147.14L426.48,448.46Z" fill="#b3e7e8"/><path d="M-162.87,606.37c13.93,52.12,34.57,101.51,60.97,147.14L426.48,448.46-162.87,606.37Z" fill="#b3e7e8"/><path d="M121.42,976.83c45.64,26.4,95.02,47.04,147.14,60.97L426.48,448.46,121.42,976.83Z" fill="#b3e7e8"/></g></g></g><path d="M762.8,196.15L485,35.85,424.7,.95l-60.3,34.9L86.6,196.25l-29.3,16.9v424.2l29.3,16.9,281.2,162.4,56.9,32.8,56.9-32.8,281.2-162.4,29.3-16.9V213.15l-29.3-17Zm0,425.3l-338.1,195.2L86.6,621.45V231.05L424.7,35.85h0l338.1,195.2v390.4Z" fill="#1e466e"/><path d="M424.2,604.25l.9-.9h-.3l-.6,.9Z" fill="#dea449"/><circle cx="426.48" cy="426.89" r="240.94" fill="#ffd06f"/><g><g><circle cx="424.15" cy="189.62" r="85.89" fill="#ef8a47" stroke="#ffe6b7" stroke-miterlimit="10" stroke-width="30.4"/><circle cx="424.15" cy="428.62" r="85.89" fill="#aadce0" stroke="#ffe6b7" stroke-miterlimit="10" stroke-width="30.4"/><circle cx="217.78" cy="548.98" r="85.89" fill="#ef8a47" stroke="#ffe6b7" stroke-miterlimit="10" stroke-width="30.4"/><circle cx="217.78" cy="307.23" r="85.89" fill="#e76254" stroke="#ffe6b7" stroke-miterlimit="10" stroke-width="30.4"/><circle cx="423.34" cy="665.66" r="85.89" fill="#e76254" stroke="#ffe6b7" stroke-miterlimit="10" stroke-width="30.4"/><circle cx="630.96" cy="307.23" r="85.89" fill="#e76254" stroke="#ffe6b7" stroke-miterlimit="10" stroke-width="30.4"/><circle cx="630.96" cy="550.12" r="85.89" fill="#ef8a47" stroke="#ffe6b7" stroke-miterlimit="10" stroke-width="30.4"/><path d="M189.52,467.85c-2.22-13.07-3.38-26.51-3.38-40.21s1.11-26.54,3.23-39.33" fill="none" stroke="#ffe6b7" stroke-miterlimit="10" stroke-width="30.4"/><path d="M338.98,649.97c-23.46-8.99-45.14-21.59-64.35-37.12" fill="none" stroke="#ffe6b7" stroke-miterlimit="10" stroke-width="30.4"/><path d="M572.94,613.44c-19.42,15.57-41.33,28.16-65.04,37.07" fill="none" stroke="#ffe6b7" stroke-miterlimit="10" stroke-width="30.4"/><path d="M658.97,388.45c2.11,12.75,3.21,25.84,3.21,39.19,0,14.03-1.21,27.78-3.54,41.14" fill="none" stroke="#ffe6b7" stroke-miterlimit="10" stroke-width="30.4"/><path d="M508.66,205.05c23.91,9.08,45.98,21.91,65.49,37.76" fill="none" stroke="#ffe6b7" stroke-miterlimit="10" stroke-width="30.4"/><path d="M274.38,242.63c19.45-15.77,41.44-28.53,65.26-37.58" fill="none" stroke="#ffe6b7" stroke-miterlimit="10" stroke-width="30.4"/></g><line x1="424.15" y1="427.64" x2="155.25" y2="272.38" fill="none"/><line x1="424.15" y1="427.64" x2="155.25" y2="582.89" fill="none"/><line x1="424.15" y1="427.64" x2="424.15" y2="738.15" fill="none"/><line x1="424.15" y1="427.64" x2="693.06" y2="582.89" fill="none"/><line x1="424.15" y1="427.64" x2="693.06" y2="272.38" fill="none"/></g></g><g clip-path="url(#g)"><circle cx="-408.3" cy="437.45" r="442.1" fill="#f3c483"/><g><g><path d="M123.85,143.4C97.07,97.12,64.4,54.67,26.84,17.1L-404.52,448.46,123.85,143.4Z" fill="#aadce0"/><path d="M205.51,448.46c0-54.62-7.22-107.54-20.68-157.91L-404.52,448.46H205.51Z" fill="#aadce0"/><path d="M184.83,606.37c13.46-50.37,20.68-103.3,20.68-157.91H-404.52L184.83,606.37Z" fill="#aadce0"/><path d="M26.84,17.1C-10.73-20.46-53.18-53.13-99.46-79.91L-404.52,448.46,26.84,17.1Z" fill="#aadce0"/><path d="M-99.46,976.83c46.29-26.78,88.74-59.45,126.3-97.02L-404.52,448.46-99.46,976.83Z" fill="#aadce0"/><path d="M26.84,879.82c37.56-37.56,70.24-80.01,97.02-126.3L-404.52,448.46,26.84,879.82Z" fill="#aadce0"/></g><g><path d="M184.83,290.55c-13.93-52.12-34.57-101.51-60.97-147.14L-404.52,448.46,184.83,290.55Z" fill="#b3e7e8"/><path d="M-404.52,448.46L123.85,753.52c26.4-45.64,47.04-95.02,60.97-147.14L-404.52,448.46Z" fill="#b3e7e8"/></g></g></g></svg>