<svg xmlns="http://www.w3.org/2000/svg" xmlns:xlink="http://www.w3.org/1999/xlink" viewBox="0 0 735 852"><defs><style>.cls-1{fill:url(#linear-gradient);}.cls-2{fill:none;}.cls-3{fill:#dea449;}.cls-4{clip-path:url(#clip-path);}.cls-5{fill:#276b42;}.cls-6{fill:#8f562b;}.cls-7{font-size:120px;font-family:IBMPlexSans-Medium, IBM Plex Sans Medium;font-weight:500;}.cls-11,.cls-7{fill:#fff;}.cls-8{letter-spacing:-0.01em;}.cls-9{mask:url(#mask);}.cls-10{opacity:0.5;}.cls-11{fill-rule:evenodd;}</style><linearGradient id="linear-gradient" x1="366.6" y1="145.79" x2="366.6" y2="673.69" gradientUnits="userSpaceOnUse"><stop offset="0" stop-color="#fff"/><stop offset="0.12" stop-color="#d6d6d6"/><stop offset="0.37" stop-color="#8b8b8b"/><stop offset="0.59" stop-color="#4f4f4f"/><stop offset="0.77" stop-color="#242424"/><stop offset="0.91" stop-color="#0a0a0a"/><stop offset="1"/></linearGradient><clipPath id="clip-path"><polygon class="cls-2" points="369.6 7 728.3 214.1 728.3 636.3 369.6 844.7 2.9 636.3 2.9 214.1 369.6 7"/></clipPath><mask id="mask" x="28.8" y="145.79" width="675.6" height="527.9" maskUnits="userSpaceOnUse"><rect class="cls-1" x="28.8" y="145.79" width="675.6" height="527.9"/></mask></defs><title>quRan</title><g id="Layer_1" data-name="Layer 1"><path class="cls-3" d="M168.2,672.6l.9-.9h-.3Z"/><g class="cls-4"><circle class="cls-5" cx="365.6" cy="437.1" r="442.1"/></g><path class="cls-6" d="M705.7,195.8,427.9,35.5,367.6.6,307.3,35.5,29.5,195.9.2,212.8V637l29.3,16.9L310.7,816.3l56.9,32.8,56.9-32.8L705.7,653.9,735,637V212.8Zm0,425.3L367.6,816.3,29.5,621.1V230.7L367.6,35.5h0L705.7,230.7Z"/><path class="cls-3" d="M367.1,603.9l.9-.9h-.3Z"/><text class="cls-7" transform="translate(186.38 671.7)">qu<tspan class="cls-8" x="140.64" y="0">R</tspan><tspan x="218.04" y="0">an</tspan></text></g><g id="Layer_3" data-name="Layer 3"><g class="cls-9"><g class="cls-10"><path class="cls-11" d="M643,421.78c.32,1.67.63,3.34.92,5,.88,5.31,3,34.59,4.45,53.93.42,5.43.77,6.68-5.06,6.68h-4.45c-10,0-20.5.2-29.33,6.67-2.28,1.67-5.28,3.79-7.89,5.52-5,3.28-10.23,7.41-15.26.41-2.93-4.09-.8-10,.87-14a20.64,20.64,0,0,1,2.24-4.1c4.44-6.41,9.66-10.7,14.84-12.92,2.34-1,18.22-4.55,21.59-4.83,3.8-.31,7.42-.34,11.14-.42a1.54,1.54,0,0,0,1.62-.81c2.31-3,4.22-5.77,1.92-6.89-.95-.46-2.64-.21-4.33-.22-1.51,0-11.86-3.49-14.4-4.83-10.2-5.41-26.92-14.47-29.69-15.38-4.94-1.62-7.24-1.3-11.06.88a17.69,17.69,0,0,0-4.68,5.27,36.09,36.09,0,0,0-1.35,5.27,7.83,7.83,0,0,0,.8.26c2.11.58,2.52-1.24,4-2.28,3.54-2.53,9.21-.26,15.58,2.54,5.46,2.66,11.23,6.37,15.79,8.46,4.07,1.86,1.48,3.82-1,4.54-3.67,1.09-10.47,3-15.39,4-9.75,2-16,.65-20-7.55-3.81-7.84-4.49-16.54-9.69-14.85s-15.46,21.24-16.64,28.11a40.33,40.33,0,0,0-.41,5.16c0,.89-.13,1-.91,1.5-5.63,3.29-10.25,6.17-14.65,10.47-5.18,5.06-11.06,12.14-16.57,9.22-7.46-3.95-1.65-14.72,3.75-20.86,5.19-5.9,16.71-16.26,16.71-16.26s-1.92.51-3.49,1.11c-5.16,2-13.41,10.8-18.29,17.11-4.1,5.28-10.31,16.8-6.46,23.92,2.09,3.88,7.42,5.83,11.08,4.65a46,46,0,0,0,9.72-5.93c3.3-3,6-6.66,9.35-9.45,6.86-5.63,14.56-8.56,21.42-7.9,2.08.2,6.94,1.82,7.91,2.63,2.07,1.73,3.47,4.07,5,1.93,2.28-3.28,2.3-8.33.71-10.45a22.64,22.64,0,0,0-4.77-4.21c-8.27-4.83-15.19-2.71-14.21-8.79.22-1.39,6.16-10.74,8.39-11.86,2.54-1.26,4.19,4.4,5.34,8.35,2,7,6.8,12.74,14.49,12.74h2.65c9.18,0,7.77.14,2.7,6.79s-11.8,21.13-6.27,28.54c4,5.35,10.49,4.78,15.4,1.09,2.83-2.13,6.38-5.22,9.66-7.44a34.57,34.57,0,0,1,15.61-5.87c3.83-.35,9.79-.39,14.07-.35,11.51-.53,18.68-2.78,18.12-12.68-.21-3.66-2.94-51.85-2.94-51.85a1.63,1.63,0,0,1,.66-1.69c2-1.92,3.26-3,2.43-4.42-.4-.69-1.24-1.37-1.8-2.19-.93-1.4-1-3.22-1.8-5.71a68.49,68.49,0,0,0-4.7-10.31c-2-3.63-3.75-3.75-4.81,1s0,6.19,1.4,13.53Zm16.8,1.73c.4,2.46.81,5.11,1.21,7.7,1,6.74,5.17,57.53,4.9,60.09a14.63,14.63,0,0,1-.85,3.6c-.76,2.27-2.25,6.15-2.25,6.15a6,6,0,0,0,1.35,0c.63-.11,3-3.76,3.6-5.45,1-3.15,2.26-6.26,3.29-9.42a3.75,3.75,0,0,0,.24-1.93l-3.91-58.2a1.6,1.6,0,0,1,.64-1.69c1.81-1.76,2.1-2.29,1.54-4.13-.86-2.81-6.52-14.28-7.31-14.82-1.43-1-2.21.32-3.06,3.19-1.6,5.4-.34,9,.61,14.91ZM176,428c.48,2.48.92,5,1.39,7.58.75,4.29,4,54.82,3.59,56.22-.56,2-1.2,3.3-2.7,2.64-3.09-1.37-6.31-7.66-6.74-10.1-.71-4,1.38-8.08,4.18-14,.45-.95,2.79-5.27,1.68-5.76a2,2,0,0,0-1.52,0c-5.22,2.66-9.79,17.35-9.74,23.28A20,20,0,0,0,172.63,503c10.39,9.5,28.09,10.44,39.12.76,1.62-1.42,3.19-3,4.77-4.65a15.82,15.82,0,0,0,3.6-5.53c2-6.08,1-13.46,5.55-12.3,3.55.92.75,5.57-.15,11.42-1.34,8.62,2.61,16.65,10.35,18,6.45,1.13,10.57-1.49,14.84-6.33a46.51,46.51,0,0,0,6.3-9.48c1.65-3.47,3.52-8.26,3.52-8.26a127.9,127.9,0,0,0,5.74,13c2.49,4.48,4.5,6.76,9.24,5.16,4.45-1.5,6.32-5.33,7.38-10.22a5.89,5.89,0,0,0,.18-2l-1.29-47.65c0-.89,0-1.05.49-1.55,2.64-2.84,5.25-2.13,5-4.95a2.75,2.75,0,0,0-.61-1.48l-6.18-9.71c-2.82-4.43-5.12-10.48-6.86-.48a21.53,21.53,0,0,0-.37,3.56,11.69,11.69,0,0,0,1.35,4.4c.67,1.59,1.63,9.78,1.8,15.37.44,14,1.18,26.69,1.7,40,.22,5.54-5.22,8.18-8.37,2.26S251.29,447.49,250.26,447s-2.18,0-3.15,1.76c-3.27,6,6.46,19.62,9.45,27.23,2.13,5.43-.13,9.32-4.68,15.53-7.24,9.85-15.23,13.75-21.41,4.06-2-3.17-2.22-5.26-1.8-9.05.23-2.13,1-4.57,1.8-5.53,1.74-2.07,5.29-3.13,7.19-5.18s3.67-8.8,3.15-11.69a30.5,30.5,0,0,0-3.38-7.23c-3.35-5.37-7.31-6.15-7.73,0a15.59,15.59,0,0,0,.14,4,6.42,6.42,0,0,0,1.46,2.34c3,3.59,4.87,7.32-2.51,7.84h-.12a13.8,13.8,0,0,1-12.15-5.45c-1.84-2.35-3.29-5.87-5.13-7.29a2.17,2.17,0,0,0-2.37-.19,3.65,3.65,0,0,0-.67,1.14c-2.08,5-2,6.89,1.15,11.74,1.1,1.67,2.38,3.48,3.42,4.88,2.74,3.67,5.16,10,4.05,12.74-.89,2.2-5.78,6.22-8.28,7.9-6.27,4.23-10.37,5.16-16,4.12-6.86-1.28-10.38-1.82-9.5-5.87.65-3,2.7-6.37,3.6-9.67.58-2.09.67-6.26.45-9.66-.74-11.46-1.68-26.58-2.63-39.86a2.19,2.19,0,0,1,.48-1.82c1.66-2.54,1.92-2.68,1.77-4.82a3.5,3.5,0,0,0-.52-1.82l-7.5-14.63s-.87,1.19-1.83,2.71c-3.25,5.18-2.75,3.9-1.05,12.69Zm-53.68,73.8c-2.12,2.57-3.28,3.11-7.46,4.06C101.12,509,76.11,513,66,505c-4.89-3.86-7.64-11.52-3.78-16.52,4.39-5.66,8.42-6.13,7.65-9.83-.21-1-1-2.16-1.62-2.2-.86-.06-2,1-3.16,1.43-3.5,1.24-5.48-3.75-5.12-6.7a30.44,30.44,0,0,1,3.6-8.52c3-4.5,9.65-11,5.75-11.6-.48-.08-.6,0-1.2.66-5.75,6.38-8,8.67-10.32,14.59-3.87,9.84-2.69,17.31,2.7,18.05a2.61,2.61,0,0,1,.37,1.31c-.13.87-1.35,1.93-2.24,3.08-2.69,3.44-3.82,13-3.15,16.69,1.11,6.2,7.84,10.78,14.39,12.3a93,93,0,0,0,16.2,1.31c3,0,12.12-.93,18.14-1.75,10.12-1.37,21.38-3.49,24.36-14.83.91-3.44.88-7.41.68-12.4-.06-1.5-5.39-48.77-4-50.95,1-1.61,2.69-2.73,1.8-5-.43-1.1-1.57-1.83-2.7-3.54a34.1,34.1,0,0,1-2.76-5.8c-1.21-3.13-2.9-9.8-5.41-.86a17.65,17.65,0,0,0-.82,4.2c.87,7.83,2.44,16.14,3.59,25,1.38,10.53,2.72,31.26,4,46.89a1.8,1.8,0,0,1-.55,1.76Zm16.21.17a17,17,0,0,0,1,2.7c3.16,6.34,13.35,9,18.72,3.45,3.43-3.54,5.2-9.73,4.29-15.44-.32-2-5.07-14.93-9-14.05-2.57.57-4.13,7.11-3.15,9.22.54,1.14,1.71,2,2.7,3.25,3.48,4.37,3.61,9.07.9,9.93-2.89.92-6.65-1.38-9.38-5.91a3.52,3.52,0,0,1-.64-1.84s-7.84-60.35-8.55-65.8c0-.26-.43-12.27-4.36-6.72-1.32,1.86-2,7.21-1.91,8,1.7,13.49,9,71.33,9,71.33a9.6,9.6,0,0,0,.41,1.93ZM305.76,482.9c.31-.78.58-1.48.8-2a3.2,3.2,0,0,0,.33-1.9l-2.15-43.27c0-.89,0-1,.37-1.57,1.23-1.71,1.11-3.81.93-5.56s-4-11.6-5-12.74-2.36-2.56-2.36-2.56-3.56,6.39-3.87,9.18c-.1.93,1.22,3.21,2.18,4.8.59,1,4.18,41.09,3.45,42.9a4.32,4.32,0,0,1-1.86,1.89c-.47.21-.57.32-1.07,1.06-5.31,7.92-8.58,11.81-10.36,16.95-2.24,6.47-3.49,16.52,4.12,20.12a8.32,8.32,0,0,0,5.72.53c6.39-1.81,12.24-11.53,18-18.67,5.06-6.27,15.4-15.53,21.14-16.47,9.5-1.56,12.71,1,14.85-2.37a9.61,9.61,0,0,0,1.35-8.17c-.51-1.65-6.14-10.38-7.65-11.86-4.26-4.14-9.67-5.76-12.6-.44a13.51,13.51,0,0,0-1.35,5.27c-.37,4.05-.76,10.55-1.35,11.42s-1.66,1.07-3,1.76c-1.6.85-7,5.88-9.62,9-7.71,9.07-16.8,25-24.11,20.91A8.14,8.14,0,0,1,289,492.7c.21-.83,8.39-17.12,10.61-18,1.45-.58,2.21,2.2,2.22,6.34,0,1.32,0,2.88-.09,4.21-.21,5.25-.54,9.18,4.07-2.34Zm32.24-17-.65,0c-2.8.07-3.42-3.62-1.49-5.29a2.14,2.14,0,0,1,2.74-.25c3.65,2.05,3.3,5.12-.6,5.5Zm66.7,39.15c1.77,0,3.89,0,5.71-.09,5.34-.3,16.67-3.62,21.41-6.15,3.47-1.86,7.44-5.39,8.46-4.83s2,4.29,3.41,6.41a9.49,9.49,0,0,0,12.87,2.37c7.17-5.31,7.86-11.54,7.38-20.2-.62-11.12-2.55-30.54-4.05-40.85-.41-2.8-.48-6,0-6.73.71-1.08,2.32-1.17,2.7-2,.29-.67-.56-2.74-1.58-5.19-2.5-6-6.77-17.13-7.6-17.87s-1.52.07-3,2.42a11.37,11.37,0,0,0-1.8,3.95c-.24,1.35,1.25,9.47,2.7,15.37.87,3.54,4.5,40.33,6.65,60.51a1.66,1.66,0,0,1-.39,1.61c-2.55,3.27-7.16,1.68-9.41-2.12a10.69,10.69,0,0,1-1.1-3.84c-3.29-20.17-12.1-75.25-12.1-75.25a3.44,3.44,0,0,0-1.64.21c-.64.31-1.63,3.74-2.35,5.66a2.84,2.84,0,0,0-.22,1.9c2.87,21.63,8.8,64.13,8.42,64.9-2.38,4.88-14.7,8.83-27,10.55-7.79,1.08-13.41.28-18-5.89-2.34-3.15-3.23-7.23-2.25-12.12a14.18,14.18,0,0,1,2.7-5.71c5.1-6.36,9.31-8.46,8.1-16.69-.69-4.67-5.63-13-10.19-15.37-2-1-3.34.8-4.21,4.83a5,5,0,0,0,.27,3.56c.86,1.59,3.4,4.09,5.21,6.25,5.63,6.74,1.55,8-5.13,10a38.35,38.35,0,0,1-9.95,1.29s-5.43-7-8.57-9.66c-4.05-3.47-8.36-2.61-11.52,1.93-3,4.32-4,13.29-2.25,16.34,2.7,4.64,7,2.74,16.24,2,.91-.07,1.07,0,1.61.41,3.16,2.59.55,4.95-3.18,7.86a47,47,0,0,1-9.27,5.7c-13.42,5.66-40.89,16.26-40.93,17.13a7.46,7.46,0,0,0,0,.88s17.05-1.21,24.66-2.9c5.59-1.24,20.73-8.74,26.44-13.79,5-4.44,6.21-7.47,6.93-12.3a9,9,0,0,1,2.43-4.39c.89-.7,6.37-2,7.17-1.75,2.84,1,.38,4.12-1.36,7.53-1.94,3.78-1.81,12.26.95,16.43s10.6,7.68,16.59,7.75Zm-39.35-37h-.85c-1,0-4.92-1.21-3.36-3.41.72-1,3-.49,4.4.2,2.59,1.31.9,3.21-.19,3.21Zm98.8-45.23c1.06,5.84,3.17,17.85,4.29,27.66,1.88,16.46,1.19,28,2.7,37.77.95,6.2,3.32,11.4,9,12.74,7.81,1.83,18.18-7.46,21.15-15.38,1.73-4.63-.84-11.44-7-14.05-2.29-1-3.51.32-5.55,3.51a22.63,22.63,0,0,0-2.7,5.71C484.6,485,483,492.1,483,492.1a30.49,30.49,0,0,1-4.26-4,10.23,10.23,0,0,1-1.41-2.86,4.63,4.63,0,0,1-.47-1.9c-1.55-19.15-3.26-44.19-4.86-57.43-.37-3.06-2.24-18-5.56-16.25a4.15,4.15,0,0,0-.86,1c-3.93,5.59-2.47,6.75-1.47,12.18Zm24.58,65.39c-1.06-2.32-.53-5.81,2.31-6.51a1.69,1.69,0,0,1,1.47.46c3.34,2.75,3,4.1.64,6.48-2.2,2.19-3.41,1.78-4.42-.43Zm143-56.6c-2.41.59-5.85.55-6.92-1.37a13.92,13.92,0,0,1-7.21,2.09c-5.7-3.49-5.25-10.19-2.69-14.5.24-.33.88-.25,1.39-.26,3.9,2.78-1.84,7.13,3.45,9.57,1.41.07,2-1.07,3.15-1.49a11.08,11.08,0,0,1-.18-6.45,4.59,4.59,0,0,1,2.83.85c.94,2-2.15,5.44,2.84,6.11,2,0,2.25-1.48,2.74-2.37-1.85-2.16-.89-4.36.72-6.15,1.52-.34,1.17.8,1.82,1.19.12,4.44,5,9.64-1.94,12.78Zm-372.89,0c-2.4.59-5.84.55-6.92-1.37a13.85,13.85,0,0,1-7.2,2.09c-5.7-3.49-5.25-10.19-2.69-14.5.24-.33.88-.25,1.39-.26,3.9,2.78-1.84,7.13,3.45,9.57,1.4.07,2-1.07,3.14-1.49a11.08,11.08,0,0,1-.17-6.45,4.56,4.56,0,0,1,2.82.85c1,2-2.14,5.44,2.85,6.11,2,0,2.25-1.48,2.74-2.37-1.85-2.16-.89-4.36.72-6.15,1.52-.34,1.17.8,1.82,1.19.12,4.44,5,9.64-1.95,12.78ZM164.71,452c-2.4.59-5.85.55-6.92-1.38a13.86,13.86,0,0,1-7.2,2.1c-5.71-3.49-5.26-10.2-2.7-14.51.25-.32.89-.25,1.4-.26,3.9,2.79-1.85,7.13,3.45,9.58,1.4.06,2-1.08,3.14-1.49a11.2,11.2,0,0,1-.18-6.46,4.58,4.58,0,0,1,2.83.86c.95,2-2.14,5.43,2.84,6.1,2,0,2.26-1.48,2.74-2.37-1.84-2.16-.88-4.35.73-6.14,1.51-.34,1.16.79,1.81,1.19.12,4.44,5,9.63-1.94,12.78Zm48.49-21.95v0c0,.11-.06.11-.07.14s.18.3.35.45c.82.71,2,.49,3.25.21a32.45,32.45,0,0,0,9.8-3.54c.25-.14.5-.29.74-.45s.35-.27.54-.4a9.79,9.79,0,0,0,1.14-1c.13-.36.07-.5.26-.46,0,0,0,0,.11-.09a16.53,16.53,0,0,0,2.19-4.09.61.61,0,0,0,.06-.21c0-.1,0-.2,0-.3s.2-.22.12-.33l-.08-.1h.14l0-.87h-.07V419h.07s0-.28,0-.46a3.35,3.35,0,0,0-.21-1.14l0,0-.06,0s0-.14,0-.24c0-.27-.84-1.17-.92-1.17s-.16.06-.17,0,0-.05,0-.08-.19-.15-.35-.21a8.7,8.7,0,0,0-2.32-.59c-.35,0-2.61,0-3.07,0l-.88.09c-.44.05-3.3.6-3.38.66a3.37,3.37,0,0,0-.74.94c-.15.24-1.16,2.66-1.24,2.95a1.42,1.42,0,0,0,0,.84,3.2,3.2,0,0,0,.4.39s2.5-.57,3.48-.7c.24,0,3.53.09,3.92.14,1,.13,2.34.33,2.44,1.25a.74.74,0,0,1-.31.66,21.84,21.84,0,0,1-4.05,2.36c-.93.44-7.78,3.32-11.67,5-.1,0-.11.05-.12.13a.32.32,0,0,0,0,.17.86.86,0,0,0,.44.2,1.65,1.65,0,0,0,.28,0Zm137.26,13.76v0c0,.11-.06.11-.07.14s.18.3.35.45c.82.71,2,.49,3.25.21a32.3,32.3,0,0,0,9.79-3.54q.39-.21.75-.45c.18-.13.35-.27.54-.4a9.79,9.79,0,0,0,1.14-1c.13-.36.07-.5.26-.46,0,0,0,0,.11-.09a17.22,17.22,0,0,0,2.19-4.09.61.61,0,0,0,.06-.21c0-.1,0-.2,0-.3s.2-.22.12-.33l-.08-.1H369l0-.87H369v-.1H369s0-.28,0-.46a3.35,3.35,0,0,0-.21-1.14l0,0-.06,0s0-.14,0-.24c0-.27-.85-1.17-.92-1.17s-.16.06-.17,0,0-.05,0-.08-.19-.15-.35-.21a8.8,8.8,0,0,0-2.32-.59c-.35,0-2.61,0-3.07,0l-.89.09c-.43.05-3.3.6-3.38.66a3.36,3.36,0,0,0-.73.94c-.15.24-1.16,2.66-1.24,2.95a1.42,1.42,0,0,0,0,.84,2.62,2.62,0,0,0,.4.39s2.5-.57,3.47-.7c.25,0,3.54.09,3.93.14,1,.13,2.34.33,2.44,1.25a.74.74,0,0,1-.31.66,21.84,21.84,0,0,1-4.05,2.36c-.93.44-7.78,3.32-11.67,5-.1,0-.12,0-.13.13a.47.47,0,0,0,0,.17c0,.06.33.2.43.2a1.72,1.72,0,0,0,.29,0Zm204.05-23.93v0c0,.1-.06.11-.07.14s.18.3.35.45c.82.71,2,.49,3.25.2a32,32,0,0,0,9.79-3.53,7.66,7.66,0,0,0,.74-.45l.55-.4a9.79,9.79,0,0,0,1.14-1c.12-.36.07-.5.26-.46,0,0,.05,0,.11-.09a17.22,17.22,0,0,0,2.19-4.09,1,1,0,0,0,.06-.21c0-.1,0-.2,0-.3s.2-.22.12-.33l-.08-.1h.13l0-.87H573v-.1h.07s0-.28,0-.46a3.61,3.61,0,0,0-.21-1.14l0,0-.06,0s0-.14,0-.24c0-.27-.85-1.17-.92-1.17s-.16.06-.17,0,0-.05,0-.08-.19-.15-.35-.21a8.8,8.8,0,0,0-2.32-.59c-.35,0-2.61,0-3.08,0l-.88.09c-.43,0-3.3.6-3.38.66a3.36,3.36,0,0,0-.73.94c-.15.24-1.17,2.66-1.24,2.95a1.42,1.42,0,0,0,0,.84,2.62,2.62,0,0,0,.4.39s2.5-.57,3.47-.7c.25,0,3.54.08,3.93.14,1,.13,2.33.32,2.44,1.25a.74.74,0,0,1-.31.66,21.91,21.91,0,0,1-4.06,2.36c-.92.44-7.77,3.32-11.66,5-.1,0-.12.05-.13.13a.47.47,0,0,0,0,.17.9.9,0,0,0,.44.2,1.72,1.72,0,0,0,.29,0Zm6.11,71.95h0s0,0-.05,0,0,.1-.08.06,0-.05-.07-.07l-.14,0c-.06,0-.08,0-.15.1-.9,1-2.37,2.64-2.66,3-.81,1.09-2.15,2.87-2.27,3a2.38,2.38,0,0,1-1.37.47,5.79,5.79,0,0,1-2.61-1.55,27.85,27.85,0,0,1-2.92-3.82c-.15-.36-.39-1.21-.9-1a.83.83,0,0,0-.16.09,22.44,22.44,0,0,0-1.54,1.75c-.5.66-3.43,4.92-3.53,5.13a.8.8,0,0,0,0,.84,19.56,19.56,0,0,0,3.18,4.51c1,.94,2.68,2.26,3.83,1.86a6.28,6.28,0,0,0,1.65-1.08c.56-.5,4.59-4.95,4.59-4.95s1.39,1.68,2.29,2.66a23.56,23.56,0,0,0,1.9,1.65,22.9,22.9,0,0,0,2.13,1c.47.07.94-.36,1.47-1,1-1.16,2.08-2.55,3.24-3.89a22,22,0,0,0,1.39-1.94.71.71,0,0,0-.3-.81c-.3-.19-1.22-.45-1.77-.7a12.46,12.46,0,0,1-2.51-2.17c-.39-.39-2.19-2.51-2.34-2.74s-.12-.22-.17-.33-.06-.12-.1-.12Zm-179.5,5.52h-.05s-.05,0-.05,0,0,.1-.09.06,0-.05-.06-.07l-.14,0c-.06,0-.08,0-.15.1-.9,1-2.38,2.63-2.67,3-.8,1.09-2.14,2.87-2.26,3a2.43,2.43,0,0,1-1.37.47,5.77,5.77,0,0,1-2.62-1.55,28.53,28.53,0,0,1-2.91-3.82c-.15-.36-.39-1.21-.91-1a.75.75,0,0,0-.15.09,22.44,22.44,0,0,0-1.54,1.75c-.5.66-3.43,4.91-3.53,5.13a.77.77,0,0,0,0,.84,19.87,19.87,0,0,0,3.18,4.51c1,.94,2.69,2.26,3.83,1.86a6.12,6.12,0,0,0,1.65-1.08c.56-.5,4.6-4.95,4.6-4.95s1.39,1.68,2.29,2.66a23.47,23.47,0,0,0,1.89,1.65c.3.19,2,1,2.13,1.05.48.07.94-.36,1.47-1,1-1.16,2.09-2.55,3.25-3.89a22,22,0,0,0,1.39-1.94.71.71,0,0,0-.3-.81c-.3-.19-1.22-.45-1.77-.7a12.19,12.19,0,0,1-2.51-2.17c-.4-.39-2.2-2.51-2.34-2.74a2.68,2.68,0,0,1-.18-.33c0-.1,0-.12-.09-.12Zm-158.31,11h0c-.05,0-.05,0-.05,0s0,.1-.09.06,0-.05-.07-.07l-.13,0c-.07,0-.08,0-.16.1-.89,1-2.37,2.63-2.66,3-.8,1.09-2.14,2.87-2.26,3A2.43,2.43,0,0,1,216,515a5.77,5.77,0,0,1-2.62-1.55,28.53,28.53,0,0,1-2.91-3.82c-.15-.36-.39-1.21-.91-1a.83.83,0,0,0-.16.09c-.15.12-1.16,1.26-1.54,1.75-.5.66-3.43,4.91-3.53,5.13a.8.8,0,0,0,0,.84,19.87,19.87,0,0,0,3.18,4.51c1,.94,2.68,2.26,3.83,1.86a6.12,6.12,0,0,0,1.65-1.08c.56-.5,4.59-4.95,4.59-4.95s1.39,1.68,2.3,2.66a23.47,23.47,0,0,0,1.89,1.65,22.9,22.9,0,0,0,2.13,1.05c.48.06.94-.36,1.47-1,1-1.16,2.09-2.55,3.25-3.89.28-.33,1.36-1.84,1.39-2a.7.7,0,0,0-.3-.8c-.3-.19-1.23-.45-1.77-.7a12.55,12.55,0,0,1-2.52-2.17c-.39-.39-2.19-2.51-2.33-2.74a2.68,2.68,0,0,1-.18-.33c0-.1,0-.12-.1-.12Zm-65,3.45h-.05s-.05,0-.05,0,0,.1-.09.06,0,0-.06-.07l-.14,0c-.06,0-.08,0-.15.1-.9,1-2.38,2.63-2.67,3-.8,1.09-2.14,2.87-2.26,3a2.43,2.43,0,0,1-1.37.47,5.82,5.82,0,0,1-2.62-1.55,28.53,28.53,0,0,1-2.91-3.82c-.15-.36-.39-1.21-.91-1a.75.75,0,0,0-.15.09,22.44,22.44,0,0,0-1.54,1.75c-.5.66-3.43,4.91-3.53,5.13a.76.76,0,0,0,0,.84,19.53,19.53,0,0,0,3.17,4.51c1,.94,2.69,2.26,3.83,1.86a6.12,6.12,0,0,0,1.65-1.08c.56-.5,4.6-5,4.6-5s1.39,1.68,2.29,2.66a23.47,23.47,0,0,0,1.89,1.65,23,23,0,0,0,2.14,1c.47.06.94-.36,1.47-1,1-1.16,2.08-2.55,3.24-3.89a20.53,20.53,0,0,0,1.39-1.95.7.7,0,0,0-.3-.8c-.3-.19-1.22-.45-1.77-.7a12.51,12.51,0,0,1-2.51-2.17c-.4-.39-2.2-2.51-2.34-2.74a2.68,2.68,0,0,1-.18-.33c0-.1,0-.12-.09-.12Zm38.8-37.66a59.09,59.09,0,0,0-4.34,6.24c-.46.9-.35,1,.14,1.46a35.6,35.6,0,0,0,7.15,6.1c1.92,1.22,2.47.14,3.72-1.35a40.81,40.81,0,0,0,2.57-3.4c1.28-1.93,1.46-2.51-.63-3.77a29.39,29.39,0,0,1-6.24-5c-1.75-2.4-1.86-.56-2.37-.26Zm68.45,34c-.54-.55-1.3,0-1.76.25-2.1,1-18.74,8.33-18.74,8.33a9.93,9.93,0,0,0-2,1.74c-1.26,1.54-2.18,3.78-.74,3.46,6.59-3.22,13.9-6.25,20.78-9.41,1.1-1.15,3-2.64,2.45-4.37Zm-63.6,6.21c-.54-.55-1.31,0-1.77.25-2.1,1-18.73,8.33-18.73,8.33a9.71,9.71,0,0,0-2,1.74c-1.25,1.54-2.17,3.78-.74,3.46,6.6-3.22,13.91-6.25,20.78-9.41,1.1-1.15,3-2.64,2.46-4.37ZM434,500.63c-.53-.55-1.3,0-1.76.25-2.1,1-18.73,8.33-18.73,8.33a9.71,9.71,0,0,0-2,1.74c-1.25,1.54-2.17,3.78-.74,3.46,6.59-3.22,13.91-6.25,20.78-9.41,1.1-1.15,3-2.64,2.45-4.37Zm39.58-2.07c-.54-.55-1.31,0-1.77.25-2.1,1-18.73,8.33-18.73,8.33a9.93,9.93,0,0,0-2,1.74c-1.26,1.54-2.18,3.78-.75,3.46,6.6-3.22,13.91-6.25,20.79-9.41,1.09-1.15,2.95-2.64,2.45-4.37Zm64.31,4.14c-.54-.55-1.31,0-1.77.25-2.1,1-18.73,8.33-18.73,8.33a9.93,9.93,0,0,0-2,1.74c-1.26,1.54-2.18,3.78-.75,3.46,6.6-3.22,13.91-6.25,20.79-9.41,1.09-1.15,3-2.64,2.45-4.37ZM170.35,410.24c-.53-.55-1.3,0-1.76.25-2.1,1-18.73,8.34-18.73,8.34a10,10,0,0,0-2,1.73c-1.26,1.54-2.18,3.78-.74,3.46,6.59-3.22,13.91-6.25,20.78-9.41,1.1-1.15,3-2.64,2.45-4.37Zm-61,1c-7.91,3.4-39.34,17-40.38,18-1.72,2.28-2.63,3.67-2.09,4.71.25.49,1.82-.12,2.42-.4l32.87-14.21c4.18-1.7,8.23-3.65,8.88-7.89.08-.49-.74-.6-1.7-.19Zm298.23-9.66c-7.91,3.4-39.34,17-40.38,18-1.72,2.28-2.63,3.67-2.09,4.71.25.49,1.82-.12,2.42-.4l32.87-14.21c4.18-1.69,8.23-3.65,8.88-7.89.08-.49-.74-.6-1.7-.19Zm113.07,17.25c-7.91,3.4-39.33,17-40.38,18-1.72,2.28-2.63,3.67-2.09,4.71.25.49,1.82-.12,2.42-.4L513.5,427c4.18-1.7,8.23-3.65,8.89-7.89.08-.5-.75-.6-1.71-.19Zm112.37-21.39c-7.91,3.4-39.34,17-40.38,18-1.72,2.28-2.63,3.67-2.1,4.71.26.49,1.83-.12,2.43-.4l32.87-14.21c4.18-1.69,8.23-3.65,8.88-7.89.08-.49-.74-.6-1.7-.19ZM350.88,482.69c-.65-.55-1.59,0-2.15.25-2.56,1-22.85,8.33-22.85,8.33a11.69,11.69,0,0,0-2.43,1.74c-1.54,1.54-2.66,3.78-.91,3.46,8-3.22,17-6.25,25.35-9.41,1.34-1.15,3.61-2.64,3-4.37Zm280.4-12.52c.54-1-.24-1.32-.84-1.06l-27.68,13.27c-4.38,2.22-10.59,3.88-11,9.4l.69.16,36.63-17.57c1.44-1.41,1.31-2.44,2.15-4.2ZM330.87,411.08c3.46,1.8,6.86,5.88,7.49,9,.95-1.29.62-1.83,1.73-3.28,1.88-2.47,1.11-1.85,3-3.51a3.57,3.57,0,0,1,4.27-.1,2.48,2.48,0,0,1,.75,2.86,13.57,13.57,0,0,1-4.79,5.91,3.26,3.26,0,0,0-.44-2.46c-2.71,1.12-3.22,6.05-5.95,8.54a.61.61,0,0,1-1-.32c-.71-2.06-2.08-4.48-3.83-5.55a25.39,25.39,0,0,1-8.19,8.4c-3.25,2.11-6.73,4.75-10.74,5-1.5.21-1.78-1.58-.63-2.3,5.75-2.84,11.47-6.14,15.81-11.06.4-.63,1.33-1.43,1.37-1.86a8.32,8.32,0,0,0-3-2.8c2.48-4,2.17-4.13,4.12-6.47Zm193.78,19c3.47,1.81,6.86,5.88,7.5,9,1-1.29.62-1.83,1.72-3.28,1.89-2.46,1.12-1.85,3-3.5a3.57,3.57,0,0,1,4.28-.11,2.47,2.47,0,0,1,.74,2.86,13.36,13.36,0,0,1-4.78,5.91,3.24,3.24,0,0,0-.44-2.45c-2.71,1.11-3.22,6-6,8.53a.6.6,0,0,1-1-.31c-.71-2.07-2.09-4.49-3.83-5.55a25.27,25.27,0,0,1-8.19,8.39c-3.25,2.11-6.74,4.75-10.75,5-1.49.21-1.78-1.58-.62-2.3,5.75-2.84,11.47-6.14,15.81-11,.4-.64,1.33-1.43,1.36-1.86a8.08,8.08,0,0,0-3-2.8c2.49-4,2.18-4.14,4.12-6.48Zm-335,82.12c-.44-.46-1.07,0-1.45.2-1.73.82-15.45,6.88-15.45,6.88a8.55,8.55,0,0,0-1.64,1.42c-1,1.28-1.8,3.13-.61,2.86,5.43-2.66,11.46-5.15,17.13-7.76.91-.95,2.44-2.17,2-3.6Zm296-79.29a1.48,1.48,0,0,0-.19,1.53c.27.49.69.38,1.2.19,1.42-.54,2.42-2.67,3-4.6,2.94-11.73-.91-15.71-3.16-17.37-1.92-1.66-2.27-.79-2.82.2-2.31,4.19-.88,3.52.49,4.72,4.34,3.49,3,13.13,1.45,15.33ZM83.7,484.19c3.69.06,16.46,0,19.51-.45,1.61-.22,4.9-.7,6.16-1.69a6.85,6.85,0,0,0,1-1.06c.21-.31,2.43-4.63,2.57-5a4.34,4.34,0,0,0-.09-2.94,5.49,5.49,0,0,0-.27-.78,14.43,14.43,0,0,0-1.15-1.86c-.22-.27-2.22-2.07-2.51-2.26a9.23,9.23,0,0,0-4-1.47c-.27,0-5.43.52-8.39.87-.66.08-5.58.27-6.29.24a7.86,7.86,0,0,1-3.93-.89c-.38-.22-.5-.33-.42-.53s2.45-2.06,2.79-2.26a21.24,21.24,0,0,1,3.41-1.69c.53-.21,3.07-1,3.42-1a8,8,0,0,1,1.73-.11c.34.1.66.41,1,.48.68.16,1.35-.59,1.84-1.26,1.11-1.49,2-3.08,1.55-4.8-.35-1.4-1.56-1.17-3.3-.76-.51.12-1,.26-1.51.41-.79.24-4.12,1.47-4.67,1.73a18.53,18.53,0,0,0-4.64,3.16,15.3,15.3,0,0,0-4.94,6.5c-1.27,2.77-2,4.69.07,6.25s4.46,1.68,7.06,1.54c2.14-.12,11.66-1.2,12.33-1.17a5.28,5.28,0,0,1,2.15.45,17.43,17.43,0,0,1,2,1.1,10.88,10.88,0,0,1,1.74,1.72c.06.16,0,.23-.27.34a9.73,9.73,0,0,1-1.69.46c-.42.07-9.3.48-11.18.52-6.07.11-10.63.56-15.4.31-.45,0-5.47-.87-5.69-1-1.14-.47-2.6-1.26-3.48.08-.34.52.19,1.43.62,1.95.23.28,3.07,2.85,3.39,3.07a6.32,6.32,0,0,0,2.15,1,34.76,34.76,0,0,0,7.38.82Zm324-2.44c3.22-.34,14.34-1.75,17-2.43,1.38-.36,4.19-1.12,5.18-2.11a5.26,5.26,0,0,0,.72-1c.16-.29,1.61-4.29,1.69-4.64a3.71,3.71,0,0,0-.4-2.56,6.49,6.49,0,0,0-.31-.65,14.47,14.47,0,0,0-1.21-1.5c-.22-.21-2.16-1.57-2.43-1.7a8,8,0,0,0-3.62-.87c-.24,0-4.68,1-7.23,1.63-.56.13-4.83.81-5.45.86a6.93,6.93,0,0,1-3.53-.37c-.35-.15-.46-.23-.42-.42s1.91-2,2.19-2.26a18.68,18.68,0,0,1,2.79-1.82c.43-.24,2.57-1.18,2.86-1.26a6.56,6.56,0,0,1,1.5-.28c.31.05.62.28.9.32.61.07,1.11-.66,1.46-1.29.81-1.42,1.4-2.89.83-4.35-.46-1.18-1.48-.86-3-.32-.43.16-.85.34-1.27.52-.67.29-3.43,1.71-3.89,2a16,16,0,0,0-3.69,3.23,13.31,13.31,0,0,0-3.6,6.17c-.81,2.55-1.24,4.3.74,5.45s4.08,1,6.33.6c1.85-.32,10-2.25,10.61-2.3a4.65,4.65,0,0,1,1.93.18,14,14,0,0,1,1.85.74,9.37,9.37,0,0,1,1.71,1.33c.07.13,0,.2-.2.32a8.15,8.15,0,0,1-1.42.57c-.36.11-8.05,1.39-9.69,1.62-5.28.73-9.21,1.6-13.39,1.87-.39,0-4.86-.19-5.06-.24-1-.29-2.41-.83-3,.43-.24.48.32,1.23.76,1.64.23.21,3,2.16,3.29,2.32a5.57,5.57,0,0,0,2,.65,31,31,0,0,0,6.52-.05Zm65.6,72.62c.13,2,2.89,9.4,4.5,14.5.83,2.63,2.53,15.35,2.7,20.2.38,11,1.51,28.71,2.25,32.5,1.47,7.52,8.24,12.32,16.64,10.1,6.31-1.66,12.71-9.42,12.6-16.69-.07-4.38-3.41-11.25-7.38-14.05-2.17-1.54-3.55-.41-4.77,2.63-.59,1.49-.85,4.81-.45,5.71,1.24,2.74,7.54,6.39,5.53,10.28-1.28,2.48-6.42,3.51-9.12,2.9-4-.91-6.62-4.55-7.65-8.35-1.18-4.33-2.12-25.36-3.6-41.72-.35-3.84-4.69-23.84-5.4-24.86s-1.57-1.7-2.7-.61c-.86.82-3.21,6.39-3.15,7.46ZM461.6,563.1c1.25,9.06,6.29,45.53,7.32,53,1.59,11.52,1.3,11.55-12.86,15.39a81.24,81.24,0,0,1-10.17,1.08c-5.05-.23-9.6-.63-13.38-2.12-7.65-3-12.92-13.26-8.5-20.23,1.83-2.87,4.58-6.39,4.34-7.08-.11-.3-.74-.35-1.5,0-4.5,2.06-8.33,10.79-9.3,14.94-2.06,8.81.55,15.2,8.73,20.2,7.21,4.41,19.72,4.75,30.41,2.2A40.17,40.17,0,0,0,466,637c10.79-6.57,10.1-16.28,9.46-24.06-.68-8.33-3.51-30.57-5.13-44.41a1.55,1.55,0,0,1,.58-1.7,11.66,11.66,0,0,0,1.55-1.92c.41-.68.16-3.13-.45-4.39-2.09-4.32-7.77-13.31-7.77-13.31s-.91.91-1.75,1.93c-4.93,6-1.44,9.7-.86,14ZM174.09,639.58a1.41,1.41,0,0,0,1.44.46c.59-.34,1.24-1.8,1.8-3.08a40,40,0,0,0,2.7-7.46c.45-1.94-.52-37.51-.88-56.26a1.67,1.67,0,0,1,.71-1.68c2.81-2.64,4-3.4,3.32-4.87-.94-2.05-4.57-6.36-5.7-9.49-.68-1.91-.44-3.38-1.92-5.41-2.82-3.86-3.16-3.57-5.47.78-2,3.78-.05,7.63,1.4,11.92.57,1.71,3.19,46.68,3.14,54,0,5.14,0,10.71,0,13.94,0,.24-1.35,6.23-.53,7.12ZM51.41,566.53c.32,1.36.7,2.77,1.07,4.1,3.45,12.18,2.87,47.94,4.45,59.8.15,1.18.34,2.36.57,3.37a12.41,12.41,0,0,0,8.27,9.31,26.26,26.26,0,0,0,8.55.44A12.61,12.61,0,0,0,82,637.4a35.21,35.21,0,0,0,2.69-9.66,20.48,20.48,0,0,0-2.69-9.4,48.12,48.12,0,0,0-4-4.83,15.57,15.57,0,0,0-1.66,1.81c-1.09,1.48-2.23,7.35-2,8,.33,1.2,2.11,2.14,3.15,3.51.68.91,1.22,3.35.9,4.1a2.41,2.41,0,0,1-.73.74c-2.56,1.91-6.73,2.56-9.8.27-8.93-6.66-5-36.43-8.91-62.69-.67-5.74-1.24-10-1.26-10.06-.5-2.09-1.44-4.23-2.25-4.83a2,2,0,0,0-2.24,0,3.76,3.76,0,0,0-.74,1.11c-2.06,4.34-2.82,3.25-1,11Zm202.76,27.78a6.37,6.37,0,0,0,.09.91c.29,1.57,1.36,1.94,1.8,2.63,1,1.62-.68,3.9-3,5.5-5.21,3.55-10.19,3.45-15.42-.53-2-1.55-3.88-3.21-3.88-3.21s-1.18,1.46-2,2.63c-.54.8-.87,5-.44,5.71,3.21,5.33,13,15.35,11.69,18.6-1.1,2.74-10.27,8.28-13.94,10a40,40,0,0,1-14.13,3.73c-14.77.86-27.23-11.75-22.36-26.4a45.74,45.74,0,0,1,2.4-5.69c0,.08,3.86-6.44,1.59-5.76a1.57,1.57,0,0,0-.52.3,23.33,23.33,0,0,0-6.77,10.07C183.55,629,188.73,649,210.12,650c1.78.08,3.75.13,5.45.1,11.32-.23,21.75-7.5,29.24-15.11a15.4,15.4,0,0,0,1.72-2.26c8.05-16.62-4.83-15.25,9.21-22.31l3-1.12.28,9.76c.39,13.38,3.15,25.76,20.33,25.27a21.56,21.56,0,0,0,10.48-3c3-1.81,7-4.54,7.64-4.39s1.22,1.15,2.05,2a16.85,16.85,0,0,0,6.05,3.22c4.69,1,14-1.09,17.81-4.39a66.85,66.85,0,0,0,6.26-6.62s.37.75.9,1.74c2.79,5.22,9,11.1,15.35,5.57,1.49-1.3,2.88-2.68,4.61-2.17a5.76,5.76,0,0,1,1.49.83c4,2.69,10,3.47,13.9,0,.92-.82,1.78-1.52,2.34-1.5s1,.5,1.65,1.11c5.19,5.12,8.28,1.15,11.47-1.45,1-.61,1.8-.92,2.49-.58a7.54,7.54,0,0,1,1.71,1.48c4.48,4.6,13.54,4.66,19.56,1.67,12.63-6.27,7.26-19.81.42-33.57-1.61-2.66-4.32-7-6.43-9-4.9-4.63-4.93-.34-5.27,2.72a20,20,0,0,0-.09,4.17c.11,1,3.91,5.82,6.75,9.4,2.44,3.08,7.45,14.05,6.3,16.23a3.19,3.19,0,0,1-.95.9c-4.5,3-12.8,2.81-16.91-1.3-.6-.6-1-1.07-1-1.07l1.06-3.78c.18-.66-1.19-2.82-2.4-.63-.54,1-1,2.55-1.81,3.75a7.21,7.21,0,0,1-1.34,1.52c-2.37,2.06-6.7,4.43-9.26,1.47-1.55-1.79-.44-3.65-.05-5.61a6.66,6.66,0,0,0-.14-1.55c-.14-.47-1-.47-1.35,0-.95,1.13-1.65,3.65-2.7,5.49a6.62,6.62,0,0,1-5.46,3.75c-6.7.93-8.3-1-8-4.17a27.93,27.93,0,0,1,.59-3.42c.34-1.46-1.65-2.15-2.54-.58-.44.78-1.06,1.83-1.66,2.71-4.17,6.16-11.17,7.69-15.29,3.07-3.77-4.22-3.15-6-5-11.68-.6-1.92-5-12.55-6.41-13.06a2.24,2.24,0,0,0-.92-.13c-.42,0-.53.1-1,.84-2.45,3.64-4.13,5.35-3.34,7.52a21.16,21.16,0,0,0,1.15,2.27c2,3.67,5,15.06-1.22,17.23a32.35,32.35,0,0,1-6.22,1.58c-4.2.31-10-.18-11.7-4.68-.92-2.39,1.67-3.51,3.15-6.74a8.86,8.86,0,0,0-.45-8.17,16.1,16.1,0,0,0-2.4-2.39c-4.77-4-13.31-6.58-18.43,0-2.15,2.74-6,9.33-4.36,10.58,1.22.91,5,.08,7.38.88,2.06.7,6,5.21,5.21,7-1.22,2.82-8.33,4.61-10.79,4.83-10.42.93-16.47-4.47-17.55-14.94-.56-5.49-.8-12.21-1.35-18-.31-3.34-.73-6.37-1.16-9.13a13.14,13.14,0,0,0-2-3.85c-3.3-4.53-4.68-.56-5.89,5.92Zm322.63-29.4a44.77,44.77,0,0,0,.28,8.28c.36,2.57,14.29,27.47,15.46,31.69,1,3.45-3,7.35-11,14.93l-.31.3c-5.84,5.49-16.3,14.4-24.26,7.75a19.86,19.86,0,0,1-1.74-1.63c-3.25-3.58-2.9-8.66-.66-12.25a40.61,40.61,0,0,1,4.37-5.8c1.38-1.48,2.76-2.6,3.93-3.91,6.53-7.36,5-16.66,0-25.57-2.41-4.29-6-8.5-9.91-10.19-5.92-2.53-8.77.61-11,5.47-2,4.45-3.81,11.45-.76,15.95,1.52,2.24,3.6,2.81,6.77,2.39,1.79-.24,11.6-5,13,0a9.46,9.46,0,0,1-.32,4.87c-.38,1.06-8.33,9.13-11,11.15-17.92,13.67-29.88,20.06-52.86,28.64-.85.32-.94.38-.94.64v.59s11.12-1,18.35-2c6.65-.38,21-8.31,25-11.35,3.08-2.32,6.06-4.81,7.92-5.51.64-.24,1.2-.16,1.91.74.3.39.33.53.28,1.42l-.39,6.63h.3c.13,0,.16.1.28,1,1.23,9.21,7.94,12.51,16.51,10.88,5.09-1,9.26-3.69,14.22-8.35,6.23-5.86,15.91-16.52,15.91-16.52s2.66,11.32,4.51,15.64a9.27,9.27,0,0,0,4,4.54c4.77,2.63,8.8-.46,10.5-4.65.23-.57.49-1.2.83-1.91.94-1.93,2-.92,4,.75,7.43,6.16,13.17,4.4,20.34-.9a8.12,8.12,0,0,1,3.13-1.78c1.54-.12,5.4,3.38,9,4.39,4.45,1.26,12.69-1.23,17.58-5,9.44-7.27,6.56-18.38,1.61-27.15a42.37,42.37,0,0,0-3.81-5.92c-4.48-5.42-5.43-3.61-6.3.17a17,17,0,0,0-.53,4.95c.15,1.6,4.5,5.73,6.94,9.79,1.77,2.94,3.19,7.59,3,8.22-1.43,3.89-15.11,7.16-17.88,4.27-2-2.1,2.21-2.38,4.83-5.76,1.76-2.27,2.18-6.38,1.8-7a16.93,16.93,0,0,0-3.77-2.53c-6.14-3.44-18.26-5.26-24.94-.43a10.61,10.61,0,0,0-4.28,6.41c-.39,1.72-.75,4.16-.75,4.16s1.22.16,2.65.37c6.38.93,5.78,1.31,10.13,5.81l.81.85-1,.32c-6.82,3.29-13,4.51-18.76-1.83a4.15,4.15,0,0,1-1-1.57c-.66-2.44,1-6.41.45-7.9a1.08,1.08,0,0,0-1.53-.44,7.82,7.82,0,0,0-2.51,4c-.7,2.54-.17,5.35-.9,7.47a6.91,6.91,0,0,1-1.4,1.85c-1.94,2-4.66,4-6.79.76-4.6-6.89-12.37-38.66-17.08-45-3.13-5.8-6.48-11.11-8-14.54a2.27,2.27,0,0,0-1.65-1.5,10.54,10.54,0,0,0-2,0v.88Zm70.76,49.37c-1.11.91-2.21.42-3.23-.75a4,4,0,0,1-.38-.46c-1.2-1.85.92-1.79,2-1.41s3.33,1.21,1.59,2.62ZM103.83,589.57c3.25,5,8.47,11.22,12.42,24.91a10.05,10.05,0,0,1,.35,3.6c-.48,3.09-4.64,10-8.92,13.28-3.82,2.89-9.36,4-12.53-1.13a12.83,12.83,0,0,1-1.33-3c-1.37-4.5-1-8.15.57-12.75.37-1,2.62-3.74-.42-3.15l-.76.15s-2.66,8-3.6,12.74c-1.37,6.87-.23,13.55,4.23,17.56,5.13,4.61,12.28,2.72,17.82-2.81a20.45,20.45,0,0,0,4-6.41c1.34-3.44,3.25-11.46,6-8.07a3.33,3.33,0,0,1,.65,1.37c2.07,6.24,3,11.92,7.57,14.12s9.83,2.13,13.52-2.09c.84-1,1.32-1.52,2.89-1.38,1.74.16,4.13,1.25,6.3,1.76,2.94.69,11.21.59,13.5-.44,3.4-1.52,1.87-11.31,0-15.81-4.16-10-17-24.11-25.37-29.87-.26-.17-.52-.35-.78-.5-3.23-2-4.47-.14-4.71,2.73a13.87,13.87,0,0,0,.27,5c1.11,3.26,4.8,2.35,2.7,5.56-.13.19-.27.37-.42.56-6.66,8.18-5.22,16.28-4.54,22.15a6.19,6.19,0,0,1-.44,2.33c-.28.4-1,0-1.62-.44a15.76,15.76,0,0,1-2-1.94c-1.67-1.93-10.21-26.29-16.19-38.91a58,58,0,0,0-6.75-10.8l-.09-.11c-2.84-3.49-4.08-1.28-4.6.79-.9,3.54-.77,6.33,2.26,11Zm42.13,33-.29.45c-1.74,2.71-3.64,2.15-5.76-.27-2.55-2.9-3.52-5-1.7-7.84,2.87-4.5,4.8-4.86,8.62-.53,2.11,2.38,1.41,4.53-.87,8.19Zm9.55-3.44c.67.79,1.36,1.61,2,2.42,3.41,4.26,5.37,7.07-1.05,6.8-2.42-.1-5.69-.53-6.14-2.59.39-2,3-10.55,5.18-6.63ZM508,569.74c-2.41.59-5.85.55-6.92-1.38a13.8,13.8,0,0,1-7.21,2.1c-5.7-3.49-5.25-10.2-2.69-14.51.25-.32.89-.25,1.39-.25,3.9,2.78-1.84,7.12,3.45,9.57,1.41.06,2-1.07,3.15-1.49a11.2,11.2,0,0,1-.18-6.46,4.58,4.58,0,0,1,2.83.86c.95,2-2.15,5.43,2.84,6.1,2,0,2.26-1.47,2.74-2.37-1.84-2.16-.88-4.35.72-6.14,1.52-.34,1.17.79,1.82,1.19.12,4.44,5,9.63-1.94,12.78ZM628.92,583v0c0,.11,0,.12-.07.15a1.31,1.31,0,0,0,.35.44c.83.72,2,.5,3.25.21a32,32,0,0,0,9.8-3.53,7.66,7.66,0,0,0,.74-.45l.55-.4a9.56,9.56,0,0,0,1.13-1c.13-.36.08-.5.27-.46,0,0,0,0,.1-.09a16.77,16.77,0,0,0,2.2-4.1.83.83,0,0,0,.06-.21c0-.1,0-.2,0-.29s.2-.23.12-.33l-.09-.1h.14l0-.87h-.06v-.1h.06s0-.28,0-.46a3.46,3.46,0,0,0-.2-1.15l0,0-.07,0s0-.15,0-.24c0-.27-.85-1.17-.92-1.17s-.16.06-.18,0,0,0,0-.09a.85.85,0,0,0-.35-.2,8.43,8.43,0,0,0-2.33-.6c-.35,0-2.61,0-3.07,0l-.88.09c-.43,0-3.3.6-3.38.66a3.46,3.46,0,0,0-.74.93c-.14.24-1.16,2.67-1.23,3a1.32,1.32,0,0,0,0,.83,2.19,2.19,0,0,0,.4.39s2.5-.56,3.47-.69c.25,0,3.54.08,3.93.14,1,.13,2.33.32,2.43,1.25a.74.74,0,0,1-.3.66,22.24,22.24,0,0,1-4.06,2.36c-.93.44-7.77,3.31-11.66,5-.11,0-.12,0-.13.13a.32.32,0,0,0,0,.17,1,1,0,0,0,.44.2ZM357.47,598.54v0c0,.11-.06.12-.07.15a1.41,1.41,0,0,0,.35.44c.83.71,2,.49,3.25.21a32.17,32.17,0,0,0,9.8-3.53c.25-.15.51-.29.74-.46l.55-.4a9.62,9.62,0,0,0,1.13-1c.13-.36.07-.5.26-.46,0,0,0,0,.11-.1a16.35,16.35,0,0,0,2.19-4.09.86.86,0,0,0,.07-.21,1.5,1.5,0,0,1,0-.3c0-.18.19-.22.12-.33l-.09-.09H376l0-.88H376v-.1h.07s0-.27,0-.46a3.13,3.13,0,0,0-.21-1.14,0,0,0,0,0,0,0l-.06,0s0-.14,0-.24c0-.26-.85-1.17-.92-1.16s-.16,0-.18,0,0-.06,0-.09-.2-.15-.35-.21a8.77,8.77,0,0,0-2.33-.59c-.35,0-2.61,0-3.07,0l-.88.09c-.43,0-3.3.6-3.38.66a3.37,3.37,0,0,0-.74.94c-.14.24-1.16,2.66-1.24,2.95s-.13.67,0,.84a2.62,2.62,0,0,0,.4.39s2.49-.57,3.47-.69c.25,0,3.54.08,3.92.13,1,.13,2.34.33,2.44,1.26a.73.73,0,0,1-.31.65,21.9,21.9,0,0,1-4.05,2.37c-.93.44-7.77,3.31-11.67,4.95-.1,0-.11.06-.12.13a.37.37,0,0,0,0,.18,1.06,1.06,0,0,0,.44.2Zm-120.1-25.73v0c0,.11-.06.12-.07.15s.19.3.35.44c.83.72,2,.5,3.25.21a32.17,32.17,0,0,0,9.8-3.53c.25-.14.51-.29.74-.45l.54-.4a9.79,9.79,0,0,0,1.14-1c.13-.36.07-.5.26-.46,0,0,.05,0,.11-.09a16.42,16.42,0,0,0,2.19-4.1.86.86,0,0,0,.07-.21,1.5,1.5,0,0,1,0-.3c0-.17.19-.22.11-.32a.55.55,0,0,0-.08-.1h.14l0-.87h-.07v-.1H256s0-.28,0-.46a3.46,3.46,0,0,0-.21-1.15l0,0-.06,0s0-.15,0-.24c0-.27-.84-1.17-.91-1.17s-.16,0-.18,0,0,0,0-.09-.19-.14-.34-.2a8.43,8.43,0,0,0-2.33-.6c-.35,0-2.61,0-3.07,0l-.88.09c-.44,0-3.3.6-3.38.66a3.46,3.46,0,0,0-.74.93c-.14.24-1.16,2.67-1.24,3s-.13.66,0,.83a2.19,2.19,0,0,0,.4.39s2.49-.56,3.47-.69c.25,0,3.54.08,3.92.14,1,.13,2.34.32,2.44,1.25a.75.75,0,0,1-.31.66,22.41,22.41,0,0,1-4,2.36c-.93.44-7.77,3.31-11.67,5-.1,0-.11,0-.12.13a.32.32,0,0,0,0,.17,1,1,0,0,0,.44.2ZM134.43,560.9v0c0,.11-.06.12-.07.15s.18.3.35.44c.82.71,2,.49,3.25.21a32,32,0,0,0,9.79-3.53c.26-.15.51-.29.75-.46s.35-.26.54-.4a9.86,9.86,0,0,0,1.14-1c.13-.36.07-.5.26-.46,0,0,.05,0,.11-.09a16.94,16.94,0,0,0,2.19-4.1.56.56,0,0,0,.06-.21c0-.1,0-.2,0-.3s.2-.22.12-.33l-.08-.09H153l0-.88h-.07v-.1H153s0-.27,0-.46a3.35,3.35,0,0,0-.21-1.14l0,0s-.05,0-.06,0,0-.14,0-.23c0-.27-.85-1.18-.92-1.17s-.16,0-.17,0,0-.05,0-.09-.19-.15-.35-.21a8.8,8.8,0,0,0-2.32-.59c-.35,0-2.61,0-3.07,0l-.89.1c-.43,0-3.3.6-3.37.65a3.34,3.34,0,0,0-.74.94c-.15.24-1.16,2.67-1.24,3a1.42,1.42,0,0,0,0,.84,2.62,2.62,0,0,0,.4.39s2.5-.57,3.47-.69c.25,0,3.54.08,3.93.13,1,.14,2.34.33,2.44,1.26a.73.73,0,0,1-.31.65,21.9,21.9,0,0,1-4,2.37c-.93.44-7.78,3.31-11.67,4.95-.1,0-.12.06-.12.14a.33.33,0,0,0,0,.17,1.08,1.08,0,0,0,.43.2Zm120.65,81.81H255s-.05,0-.05,0,0,.1-.09.06,0,0-.06-.07l-.14,0c-.06,0-.08,0-.15.1-.9,1-2.38,2.63-2.66,3-.81,1.09-2.15,2.87-2.27,3a2.41,2.41,0,0,1-1.37.47,5.82,5.82,0,0,1-2.62-1.55,28.53,28.53,0,0,1-2.91-3.82c-.15-.36-.39-1.21-.9-1a.83.83,0,0,0-.16.09,22.44,22.44,0,0,0-1.54,1.75c-.5.66-3.43,4.91-3.53,5.13a.76.76,0,0,0,0,.84,19.53,19.53,0,0,0,3.17,4.51c1,.94,2.69,2.26,3.83,1.86a6.12,6.12,0,0,0,1.65-1.08c.56-.5,4.6-5,4.6-5s1.39,1.68,2.29,2.66a22,22,0,0,0,1.9,1.65,21.74,21.74,0,0,0,2.13,1c.47.07.94-.36,1.47-1,1-1.16,2.08-2.55,3.24-3.89a22,22,0,0,0,1.39-1.94.71.71,0,0,0-.3-.81c-.3-.19-1.22-.45-1.77-.7a12.51,12.51,0,0,1-2.51-2.17c-.39-.39-2.19-2.51-2.34-2.74s-.13-.22-.18-.33,0-.12-.09-.12Zm228.26-6.9h0c-.05,0-.05,0-.05,0s0,.1-.09.06,0,0-.07-.07l-.13,0c-.07,0-.08,0-.16.1-.89,1-2.37,2.63-2.66,3-.8,1.09-2.14,2.87-2.26,3a2.43,2.43,0,0,1-1.37.47,5.77,5.77,0,0,1-2.62-1.55A28.53,28.53,0,0,1,471,637c-.15-.36-.39-1.21-.91-1a.83.83,0,0,0-.16.09c-.15.12-1.16,1.26-1.54,1.75-.5.66-3.43,4.91-3.53,5.13a.8.8,0,0,0,0,.84,19.87,19.87,0,0,0,3.18,4.51c1,.94,2.68,2.26,3.83,1.86a6.12,6.12,0,0,0,1.65-1.08c.56-.5,4.59-4.95,4.59-4.95s1.39,1.68,2.3,2.66a23.47,23.47,0,0,0,1.89,1.65,22.9,22.9,0,0,0,2.13,1.05c.48.07.94-.36,1.47-1,1-1.16,2.09-2.55,3.25-3.89.28-.33,1.36-1.84,1.39-1.94a.71.71,0,0,0-.3-.81c-.3-.19-1.23-.45-1.77-.7A12.24,12.24,0,0,1,486,639c-.39-.39-2.19-2.51-2.33-2.74a2.68,2.68,0,0,1-.18-.33c0-.1-.05-.12-.1-.12ZM323.63,572.34h-.05s-.05,0-.05,0,0,.1-.09,0,0,0-.06-.06a.21.21,0,0,0-.14,0c-.06,0-.08,0-.15.09-.9,1-2.38,2.64-2.66,3-.81,1.09-2.15,2.87-2.27,3a2.41,2.41,0,0,1-1.37.47,5.73,5.73,0,0,1-2.62-1.55,27.9,27.9,0,0,1-2.91-3.82c-.15-.36-.39-1.2-.9-1l-.16.08a21.14,21.14,0,0,0-1.54,1.76c-.5.65-3.43,4.91-3.53,5.12a.78.78,0,0,0,0,.84,19.54,19.54,0,0,0,3.18,4.52c1,.94,2.68,2.25,3.82,1.85a6.12,6.12,0,0,0,1.65-1.08c.56-.5,4.6-4.94,4.6-4.94s1.39,1.67,2.29,2.66a23.67,23.67,0,0,0,1.9,1.64,21.74,21.74,0,0,0,2.13,1c.47.07.94-.36,1.47-1,1-1.16,2.08-2.55,3.24-3.89a22,22,0,0,0,1.39-1.94.71.71,0,0,0-.3-.81c-.3-.19-1.22-.44-1.77-.7a12.72,12.72,0,0,1-2.51-2.16c-.39-.4-2.19-2.52-2.34-2.75a3.47,3.47,0,0,1-.18-.33c0-.1-.05-.11-.09-.11Zm334.21-14.21a56.26,56.26,0,0,0-4.34,6.24c-.46.9-.36,1,.13,1.47a36.43,36.43,0,0,0,7.15,6.09c1.93,1.22,2.48.14,3.72-1.35.79-1,1.83-2.27,2.58-3.4,1.28-1.93,1.45-2.5-.63-3.77a29.44,29.44,0,0,1-6.25-5c-1.74-2.4-1.85-.56-2.36-.26ZM390,567.1a56.26,56.26,0,0,0-4.34,6.24c-.46.9-.36,1,.13,1.47a36.15,36.15,0,0,0,7.15,6.09c1.93,1.22,2.47.14,3.72-1.35.79-.95,1.83-2.27,2.58-3.4,1.28-1.93,1.45-2.5-.64-3.77a29.64,29.64,0,0,1-6.24-5c-1.74-2.4-1.85-.56-2.36-.26ZM211.91,610.57a56.26,56.26,0,0,0-4.34,6.24c-.46.9-.36,1,.13,1.46a35.87,35.87,0,0,0,7.15,6.1c1.93,1.22,2.47.14,3.72-1.35.79-.95,1.83-2.27,2.58-3.4,1.28-1.93,1.45-2.51-.64-3.77a29.64,29.64,0,0,1-6.24-5c-1.74-2.4-1.85-.56-2.36-.26ZM73.39,589.82a59.21,59.21,0,0,0-4.34,6.25c-.46.9-.35,1,.14,1.46a35.77,35.77,0,0,0,7.14,6.09c1.93,1.22,2.48.15,3.73-1.35a40.61,40.61,0,0,0,2.57-3.39c1.28-1.93,1.45-2.51-.63-3.77a29.7,29.7,0,0,1-6.24-5c-1.75-2.4-1.86-.57-2.37-.27ZM619,635.41a57.64,57.64,0,0,0-4.34,6.24c-.46.9-.35,1,.14,1.46a35.82,35.82,0,0,0,7.14,6.1c1.93,1.22,2.48.14,3.72-1.35.79-1,1.83-2.27,2.58-3.4,1.28-1.93,1.45-2.51-.63-3.77a29.39,29.39,0,0,1-6.24-5c-1.75-2.4-1.86-.56-2.37-.26ZM352.82,540.05c-10,3.4-49.65,17-51,18-2.17,2.28-3.32,3.67-2.64,4.71.31.49,2.3-.12,3.05-.4l41.5-14.21c5.28-1.69,10.39-3.65,11.22-7.89.1-.49-1-.6-2.16-.19Zm72.09,0c-10,3.4-49.66,17-51,18-2.18,2.28-3.33,3.67-2.65,4.71.32.49,2.31-.12,3.06-.4l41.5-14.21c5.27-1.69,10.38-3.65,11.21-7.89.1-.49-.94-.6-2.15-.19Zm247.61-4.72c.54-1-.24-1.32-.84-1.06L644,547.55c-4.38,2.21-10.59,3.88-11,9.4l.68.15,36.64-17.57c1.44-1.41,1.31-2.44,2.15-4.2Zm-96-.81c.54-1-.24-1.31-.84-1L548,546.74c-4.38,2.21-10.59,3.88-10.95,9.4l.68.16,36.64-17.58c1.44-1.41,1.31-2.43,2.15-4.2ZM521.92,534c.5-.91-.21-1.21-.77-1l-25.33,12.15c-4,2-9.69,3.55-10,8.6l.63.14L520,537.79c1.32-1.29,1.19-2.23,2-3.84Zm-66.17,23.42c.49-.91-.22-1.21-.78-1l-25.33,12.15c-4,2-9.69,3.55-10,8.6l.63.14,33.53-16.08c1.32-1.29,1.19-2.23,2-3.84Zm88.51,71.88c.5-.9-.22-1.2-.77-1l-25.33,12.15c-4,2-9.69,3.55-10,8.61l.62.14,33.53-16.09c1.32-1.29,1.2-2.23,2-3.84ZM307.72,647.36c-.75-.55-1.82,0-2.46.25-2.92,1-26.05,8.34-26.05,8.34a13.46,13.46,0,0,0-2.77,1.73c-1.75,1.55-3,3.79-1,3.46,9.18-3.22,19.35-6.24,28.91-9.4,1.52-1.16,4.11-2.64,3.41-4.38Zm-120-5.09c-.75-.55-1.82,0-2.46.25-2.92,1-26.05,8.34-26.05,8.34a13.46,13.46,0,0,0-2.77,1.73c-1.75,1.54-3,3.78-1,3.46,9.17-3.22,19.35-6.25,28.91-9.41,1.52-1.15,4.11-2.64,3.41-4.37Zm-79.75-99c-7.91,3.4-39.33,17-40.38,18-1.72,2.28-2.63,3.66-2.09,4.71.25.49,1.83-.13,2.42-.41l32.87-14.21c4.18-1.69,8.23-3.64,8.89-7.88.08-.5-.75-.61-1.71-.19Zm84.11,46c-.29.22-.57.43-.79.61-3.06,2.2-1.23,2.65.53,2.09,12.54-4,24.41-10.92,33.09-19.76.26-.27.51-.54.75-.82a11.71,11.71,0,0,1,1.44-1.34c.37-.11,1.16.59,1.91,1.27a18.72,18.72,0,0,1,1.55,1.83c.1.22.23.52.47.38,0,0,.1-.12.16-.14a5.49,5.49,0,0,0,.94-7.78c-.25-.34-.58-.76-.81-1.06a.25.25,0,0,1-.06-.29l.26-.9c1.3-4.73,2.28-12-3.28-14.94a4.56,4.56,0,0,0-2.46-.64,6.67,6.67,0,0,0-2.89,1.19,9.38,9.38,0,0,0-1.23,1.27,32.24,32.24,0,0,0-1.74,2.9c-.59,1.36-1.78,5.86-1.65,7.71a9,9,0,0,0,2.09,5.11,5.79,5.79,0,0,0,1.14.87c.67.37,1.74.87,1.74.87l-1.19,1.14c-.54.51-5.47,4.54-6,4.93l-1.28.89c-5.69,3.91-17.78,11-22.65,14.61Zm36.4-26.8a.43.43,0,0,1-.22-.07c-.59-.34-.95-.77-1.46-1.11-.36-.25-2.58-1-3.61-1.52-2.92-1.34-.77-4.22,1.1-4.49a3.08,3.08,0,0,1,.8,0c2.26.33,4.79,3.13,4.29,5.51a3.52,3.52,0,0,1-.71,1.51.42.42,0,0,1-.19.15Zm-102.3,77.94c-.74-.55-1.81,0-2.45.25-2.92,1-26,8.34-26,8.34A13.8,13.8,0,0,0,95,650.73c-1.74,1.55-3,3.79-1,3.46,9.17-3.22,19.34-6.25,28.9-9.4,1.53-1.16,4.12-2.65,3.41-4.38ZM606.77,575c-4.6,1.69-6.08,1.63-10.56,3.18,8.7-5.84,16.47-14,24.82-20.8a13.9,13.9,0,0,1-4.56-4.09c-.07-5.21,1.09-10.73,4.77-13.13,3.15-.5,6.26,3,8.1,6,1.32,13.71-15.45,23-22.57,28.83Zm19.05-24.15c-2.36.19-5.06.26-6.11-2.47l0-1c2.79-1.65,5.07,0,6.13,3.48Zm-48.27,8.88c-4.59,1.36-6.08,1.31-10.56,2.55,8.7-4.68,16.47-11.21,24.82-16.7a13.29,13.29,0,0,1-4.56-3.28c-.07-4.18,1.1-8.62,4.78-10.54,3.14-.4,6.26,2.42,8.1,4.82,1.31,11-15.45,18.49-22.58,23.15Zm19.05-19.39c-2.36.16-5.06.21-6.11-2v-.81c2.79-1.33,5.06,0,6.12,2.79Zm-316.93,5.92c3.46,1.81,6.86,5.88,7.49,9,.95-1.29.62-1.84,1.73-3.28,1.88-2.47,1.11-1.85,3-3.51a3.57,3.57,0,0,1,4.27-.1,2.46,2.46,0,0,1,.74,2.86,13.39,13.39,0,0,1-4.78,5.9,3.24,3.24,0,0,0-.44-2.45c-2.71,1.12-3.22,6-6,8.53a.6.6,0,0,1-1-.31c-.71-2.06-2.09-4.49-3.83-5.55a25.39,25.39,0,0,1-8.19,8.4c-3.25,2.1-6.73,4.75-10.74,5-1.5.21-1.79-1.58-.63-2.3,5.75-2.85,11.47-6.15,15.81-11.06.4-.63,1.33-1.43,1.36-1.86a8.12,8.12,0,0,0-3-2.8c2.48-4,2.17-4.14,4.12-6.48Zm160.17,66.51c3.22-.34,14.34-1.75,17-2.43,1.38-.35,4.19-1.11,5.18-2.11a5.61,5.61,0,0,0,.72-1c.15-.29,1.61-4.29,1.69-4.65A3.74,3.74,0,0,0,464,600a4.9,4.9,0,0,0-.31-.65,13.56,13.56,0,0,0-1.21-1.51c-.22-.2-2.16-1.57-2.43-1.7a8.18,8.18,0,0,0-3.62-.87c-.24,0-4.68,1-7.23,1.63-.57.14-4.83.82-5.45.87a7,7,0,0,1-3.53-.37c-.35-.15-.47-.24-.42-.42s1.91-2,2.19-2.26a18.71,18.71,0,0,1,2.79-1.83c.43-.24,2.56-1.18,2.86-1.26a6.52,6.52,0,0,1,1.5-.27c.3.05.62.28.9.31.61.07,1.11-.66,1.46-1.28.8-1.42,1.4-2.9.83-4.35-.46-1.19-1.48-.86-3-.32-.43.16-.85.33-1.27.51-.67.3-3.43,1.71-3.89,2a15.83,15.83,0,0,0-3.69,3.24,13.26,13.26,0,0,0-3.6,6.17c-.81,2.55-1.24,4.3.74,5.44s4.08,1,6.33.61c1.85-.32,10-2.25,10.61-2.3a4.64,4.64,0,0,1,1.93.17,15.45,15.45,0,0,1,1.85.75,8.92,8.92,0,0,1,1.7,1.32c.07.13,0,.2-.19.32a8.08,8.08,0,0,1-1.42.58c-.36.1-8,1.39-9.69,1.61-5.28.73-9.21,1.6-13.39,1.88-.39,0-4.86-.19-5.07-.25-1-.29-2.4-.83-3,.43-.24.49.32,1.23.75,1.64.23.22,3,2.16,3.3,2.33a5.49,5.49,0,0,0,2,.64,30.3,30.3,0,0,0,6.52-.05ZM523,617.21a1.47,1.47,0,0,0,1.38.31,6.62,6.62,0,0,0,1.59-2.55,29.8,29.8,0,0,0,2.28-6.12c.35-1.57-1.8-30.19-2.79-45.28,0-.72,0-.85.6-1.38,2.55-2.24,3.65-2.89,3-4.05-1-1.62-4.53-4.95-5.7-7.43-.71-1.51-.53-2.7-2-4.28-2.78-3-3.09-2.75-5.12.84-1.76,3.12.22,6.15,1.73,9.55.61,1.36,4.64,37.48,4.85,43.4.15,4.15.35,8.63.48,11.23,0,.2-1.06,5.07-.26,5.76ZM512.19,324.44a232.43,232.43,0,0,1,9,35.65,3,3,0,0,1-1.6,3.33,9.69,9.69,0,0,1-9.83-1.57,17.31,17.31,0,0,1-6.42-10q-1.32-7.12-2.41-14.3-2.28-11.22-5.21-22.32a1,1,0,0,0-1-.78,1,1,0,0,0-1,.78l-2,4.31a12.39,12.39,0,0,0,.81,4.89,97,97,0,0,1,5,30.75,14,14,0,0,1-4.61,9.21,8.24,8.24,0,0,1-10.63-.79,14.13,14.13,0,0,1-5.22-11.16q-.51-10.49-1.4-21a65.94,65.94,0,0,0-2.61-8.22,3,3,0,0,0-4-.39,19.15,19.15,0,0,0-5.82,10.77A130.55,130.55,0,0,0,460.44,353a31.29,31.29,0,0,1-3.21,13.71,5.37,5.37,0,0,1-4,3.6,5.49,5.49,0,0,1-5.2-1.65A35.32,35.32,0,0,1,438.78,353l-.81-1.77-1.2,1.18a42.73,42.73,0,0,0,7,20.56,10,10,0,0,0,8.22,5.88,11.81,11.81,0,0,0,7.63-4.9,48.27,48.27,0,0,0,3.41-16.64,97.6,97.6,0,0,1,2.61-20q.93-2.08,2-4.11a2,2,0,0,1,1.63-.12,2,2,0,0,1,1.18,1.09,12.23,12.23,0,0,1,1.4,6.86q.92,9.2,1.61,18.41A20.84,20.84,0,0,0,479.7,373a9.2,9.2,0,0,0,11.63-.19,13.8,13.8,0,0,0,5.82-8.23,2.41,2.41,0,0,1,2.09-1.94,2.44,2.44,0,0,1,2.52,1.35,11.24,11.24,0,0,0,6.82,8,14.86,14.86,0,0,0,11-1.76,13.77,13.77,0,0,0,4-7,25.08,25.08,0,0,0,1.4-12.34l-2.4-12.73a1.74,1.74,0,0,1-.08-1.75,1.83,1.83,0,0,1,1.48-1l2.41.59a1.37,1.37,0,0,0,1.18-.92,1.31,1.31,0,0,0-.38-1.43q-4.63-8.73-10-17a1.57,1.57,0,0,0-1.35-1.3,1.6,1.6,0,0,0-1.66.91l-2,5.28a5.44,5.44,0,0,0,0,2.94Zm-85.56-4.17,6.57,13.39a17,17,0,0,0,4.24,5.27,3.88,3.88,0,0,1,1.54,2.71,3.81,3.81,0,0,1-1,2.95,216.5,216.5,0,0,1-63.33,34.12,1.07,1.07,0,0,0,.26,1.42,1.13,1.13,0,0,0,1.48-.1,15.66,15.66,0,0,1,5,0,158.13,158.13,0,0,0,23.75-5.47A100.74,100.74,0,0,0,439,353.26a15.06,15.06,0,0,0,5.41-10.93,19.81,19.81,0,0,0-3.09-11.69l-2.9-2.83a2.81,2.81,0,0,1,.39-3.39l1.54.19a1.35,1.35,0,0,0,1.55-.66,1.28,1.28,0,0,0-.39-1.61,35.47,35.47,0,0,0-11.39-9.61,1.5,1.5,0,0,0-1.43-.17,1.44,1.44,0,0,0-.89,1.11l-1.35,3a4.55,4.55,0,0,0,.19,3.58Zm-79,6.6a26.32,26.32,0,0,0-8.3,10.93,17.72,17.72,0,0,0,3.48,18.48A36,36,0,0,0,365.62,364a126.77,126.77,0,0,0,32.44-5.85,42.87,42.87,0,0,0,20.46-12.25,8,8,0,0,0-.38-10.56,22.63,22.63,0,0,0-10.43-6.78,2.35,2.35,0,0,0-2.32.94l-.77,5.09a4.18,4.18,0,0,0,2.32,2.07,13.06,13.06,0,0,1,6.18,4.9,1.67,1.67,0,0,1,.8,1.63,1.7,1.7,0,0,1-1.19,1.39A110.67,110.67,0,0,1,384.16,354a51,51,0,0,1-29.35-.94,19.21,19.21,0,0,1-10.43-8.29,10.31,10.31,0,0,1-1-10.37,28.29,28.29,0,0,1,5.79-6,1.06,1.06,0,0,0-.09-1.42,1.12,1.12,0,0,0-1.46-.09Zm8.5,27.52a19.67,19.67,0,0,0,3.47-12.82L356,297.46a27.08,27.08,0,0,0-3.48-8.48,3.26,3.26,0,0,1-.19-3l3.67-5.09a2.09,2.09,0,0,1,1.66-.16,2,2,0,0,1,1.23,1.11,142.55,142.55,0,0,1,6.57,15.26,1.94,1.94,0,0,1-.39,2.64l-1.93.76a2.24,2.24,0,0,0-.77,2.83,255.36,255.36,0,0,1,2.7,36.75,17.08,17.08,0,0,1-3.09,8.68L357.32,355l-1.16-.57ZM324.11,295a20.64,20.64,0,0,1,2.06,10.56,439.41,439.41,0,0,1,3.09,51.27,6.18,6.18,0,0,1-2.32,5.78,12.5,12.5,0,0,1-13.39-1.25,6,6,0,0,1,0-3.52l2.06-2.52a4.81,4.81,0,0,0-1-5.78,17.81,17.81,0,0,0-18-1.51l-3.09,6.29a2.36,2.36,0,0,0,1.81,1.76,9.79,9.79,0,0,1,9.78,4.77,3.46,3.46,0,0,1-1.29,3.52,17.29,17.29,0,0,1-16.22-2,11.89,11.89,0,0,1-3.34-7.54L277,285.71a1.3,1.3,0,0,0-.61-1.59,1.36,1.36,0,0,0-1.71.33l-3.35,4.28a18.09,18.09,0,0,0,.26,4l5.15,41.72a4.68,4.68,0,0,1-.52,4.53l-11.32,8.54a11.3,11.3,0,0,0-5.41,7.29v5.28a2.12,2.12,0,0,1-1.19,2.07,2.23,2.23,0,0,1-2.41-.31,13.86,13.86,0,0,1-4.89-8.55A90.08,90.08,0,0,1,251,339a49.48,49.48,0,0,0-2.06-16.84,1.89,1.89,0,0,0-3.35.25l-.52,2.26a5,5,0,0,0,.26,4.52,6.41,6.41,0,0,1-1.28,5,12.57,12.57,0,0,1-5.41,3.52,3.13,3.13,0,0,1-2.36.55,3.06,3.06,0,0,1-2-1.3l-6.43-7.54a1.49,1.49,0,0,0-1.37-.23,1.46,1.46,0,0,0-1,1L224,336a23.29,23.29,0,0,0,1,4.52,60,60,0,0,1,8,13.33,6.44,6.44,0,0,1-.26,5,59.62,59.62,0,0,1-21.11,14.58,19.22,19.22,0,0,1-18.28-.75,19.22,19.22,0,0,1-11.84-13.58,15.17,15.17,0,0,1,.77-11.56,37,37,0,0,1,10.81-15.33,1.43,1.43,0,0,0-.86-1.14,1.5,1.5,0,0,0-1.45.13,35.94,35.94,0,0,0-13.91,25.64,22.21,22.21,0,0,0,10.56,22.37,26.05,26.05,0,0,0,29.86,0,79.37,79.37,0,0,0,18.28-14.83,16.84,16.84,0,0,0,2.06-14.83,5.38,5.38,0,0,1,1-3.52l5.41-4.27a2.22,2.22,0,0,1,1.68,0,2.15,2.15,0,0,1,1.15,1.22,51.91,51.91,0,0,0,.51,17.84,16.81,16.81,0,0,0,9.27,11.57,17.34,17.34,0,0,0,14.42-2,26,26,0,0,0,1.54-4l.77-5a1.94,1.94,0,0,0-.5-1.59,2.07,2.07,0,0,0-1.56-.68l-4.89-.75a2.69,2.69,0,0,1-2.42-1.69,2.58,2.58,0,0,1,.62-2.83l9-6.29a1.94,1.94,0,0,1,1.91-.64,1.89,1.89,0,0,1,1.44,1.4,59.38,59.38,0,0,0,3.6,17.09,16.83,16.83,0,0,0,13.9,8.79,15.14,15.14,0,0,0,10.56-4.27,3.57,3.57,0,0,1,2.89-1.66,3.62,3.62,0,0,1,3,1.41,12.08,12.08,0,0,0,15.19,1.76,16.76,16.76,0,0,0,9.27-15.33l-2.58-48.76,2.06-2.52a2.6,2.6,0,0,0,1.74-1.85,2.54,2.54,0,0,0-.71-2.42,54.35,54.35,0,0,0-7.21-13.82,2,2,0,0,0-1.89-.55,2,2,0,0,0-1.45,1.3L323.59,290a4.35,4.35,0,0,0,.52,5Zm-174.9,5.06a341,341,0,0,1,3.8,53.31A14.18,14.18,0,0,1,151.8,360a9.87,9.87,0,0,1-3.8,2.36,18.83,18.83,0,0,1-5.7.51,21.72,21.72,0,0,0-10.89.17,67.39,67.39,0,0,0-25.92,14.51A25.82,25.82,0,0,1,97,383.92a6.42,6.42,0,0,1-8.29-2.53,9.83,9.83,0,0,1-.52-9.11,88.9,88.9,0,0,1,7.6-13L91,362.49q-3.67,7.36-7.09,14.85a12.75,12.75,0,0,0,2.94,12.82,13.45,13.45,0,0,0,11.75.68,65.91,65.91,0,0,0,6.57-5.06,46.18,46.18,0,0,1,20.91-13.5,34.43,34.43,0,0,1,15.38-2.19,15.34,15.34,0,0,0,12.44-4.39,26.37,26.37,0,0,0,4.66-14.17l-2.24-37.12a3.78,3.78,0,0,1,1.21-3l1.55-1.18a1.85,1.85,0,0,0,0-2,46.46,46.46,0,0,1-4.49-15,1.76,1.76,0,0,0-1.17-1.1,1.83,1.83,0,0,0-1.6.26l-1.55,4.21a17.62,17.62,0,0,0-1,3.55Zm-35.94,34.25,3.63,1.52a2.91,2.91,0,0,0,2.33-.08A2.78,2.78,0,0,0,120.7,334l.17-4.22a3,3,0,0,0-3.63-1.85,16.3,16.3,0,0,0-4.66,2.19,2.66,2.66,0,0,0-.71,2.27,2.71,2.71,0,0,0,1.4,1.95ZM125,328.41a11.08,11.08,0,0,1,1.38,6.75,15.59,15.59,0,0,1-4.32,7.42,4.16,4.16,0,0,1-4.49,1.19l-9-3.55a6.63,6.63,0,0,0-2.76-1,4.09,4.09,0,0,0-3.11,1.52,4.78,4.78,0,0,0,0,3.71,9.36,9.36,0,0,1-1.21,10.63,81.15,81.15,0,0,1-31.28,17.72,24.88,24.88,0,0,1-18.84-4.05,21.42,21.42,0,0,1-7.95-13.5,32.45,32.45,0,0,1,1.39-14.34,36.07,36.07,0,0,1,11.4-15,1.19,1.19,0,0,1,1.41-.12,1.12,1.12,0,0,1,.49,1.3q-4.38,5-8.29,10.29a18.61,18.61,0,0,0,2.59,20.59A19.93,19.93,0,0,0,73,364.18,50.28,50.28,0,0,0,95.47,351.7a2.35,2.35,0,0,0,.69-3.21L84.41,335.33a4.29,4.29,0,0,1-.86-4.05l2.07-4.22a1.47,1.47,0,0,1,1-1.1,1.54,1.54,0,0,1,1.46.26l5.7,6.75A9,9,0,0,0,105,330.44a14,14,0,0,1,6.74-4.9l11.58-4.21,2.07-1.19a1.29,1.29,0,0,0-.34-1.68,108.88,108.88,0,0,0-16.76-6.08,8,8,0,0,0-6.92.85l-3.62,2a1,1,0,0,1-.59.53,1.06,1.06,0,0,1-.8,0,1,1,0,0,1-.52-1.35,27.93,27.93,0,0,1,5.36-6.75,11.69,11.69,0,0,1,11.23-2,109,109,0,0,0,34.91,10.3,2.15,2.15,0,0,1,0,2.36L145.58,320a7.87,7.87,0,0,1-4.66,2,24.44,24.44,0,0,0-14.52,2.7,3.09,3.09,0,0,0-1.38,3.71Zm376.62-18.3c-2.55.63-6.19.58-7.33-1.45a14.69,14.69,0,0,1-7.62,2.22c-6-3.7-5.56-10.8-2.85-15.36.26-.34.93-.26,1.47-.27,4.13,2.95-1.95,7.54,3.65,10.13,1.49.07,2.13-1.13,3.33-1.57a11.9,11.9,0,0,1-.19-6.84,4.88,4.88,0,0,1,3,.91c1,2.12-2.27,5.75,3,6.46,2.15,0,2.38-1.57,2.9-2.51-2-2.29-.94-4.61.76-6.51,1.61-.36,1.24.85,1.92,1.26.13,4.7,5.28,10.2-2.05,13.53Zm137.82-11.72c-17.91,5.44-36.39,10-55.29,13.94,1.07-1.57,1.68-3.27,2.92-4.65,14.57-3.52,39.13-9.52,53.27-13.64,1.79.59,0,3.48-.9,4.35ZM461.68,286.85c-17.53,5.33-35.61,9.83-54.11,13.65,1-1.53,1.65-3.2,2.86-4.56,14.26-3.44,38.29-9.31,52.13-13.34,1.75.57,0,3.4-.88,4.25ZM94.41,300.52v0c0,.09,0,.1-.06.13a1.16,1.16,0,0,0,.31.38c.72.62,1.74.43,2.83.18a27.73,27.73,0,0,0,8.52-3.07c.23-.13.45-.25.65-.39l.47-.35a7.94,7.94,0,0,0,1-.9c.12-.31.07-.43.23-.4s0,0,.1-.08a14.81,14.81,0,0,0,1.9-3.56.64.64,0,0,0,.06-.18,2.25,2.25,0,0,1,0-.26c0-.16.17-.2.1-.29l-.07-.08h.12l0-.76h-.06v-.09h.06s0-.24,0-.4a3.36,3.36,0,0,0-.18-1l0,0a.07.07,0,0,0-.06,0s0-.13,0-.21c0-.24-.74-1-.8-1s-.14,0-.15,0,0-.05,0-.08-.16-.13-.3-.18a7.69,7.69,0,0,0-2-.52c-.3,0-2.27,0-2.67,0l-.77.08c-.37,0-2.87.52-2.94.57a3,3,0,0,0-.64.81c-.13.21-1,2.32-1.08,2.57a1.21,1.21,0,0,0,0,.73,2.46,2.46,0,0,0,.35.34s2.17-.49,3-.6c.21,0,3.08.07,3.41.12.85.11,2,.28,2.13,1.09a.67.67,0,0,1-.27.57,19.38,19.38,0,0,1-3.53,2.06c-.81.38-6.77,2.88-10.15,4.31-.09,0-.1.05-.11.12a.22.22,0,0,0,0,.14.75.75,0,0,0,.38.18Zm304.64,6.71c-2.55.63-6.19.58-7.33-1.46a14.6,14.6,0,0,1-7.63,2.22c-6-3.69-5.55-10.79-2.85-15.35.26-.35.94-.27,1.48-.27,4.13,2.94-2,7.54,3.65,10.13,1.49.07,2.13-1.14,3.33-1.58a11.87,11.87,0,0,1-.19-6.83,4.77,4.77,0,0,1,3,.9c1,2.13-2.27,5.76,3,6.47,2.15,0,2.38-1.57,2.89-2.51-2-2.29-.93-4.61.77-6.51,1.61-.36,1.24.84,1.92,1.26.13,4.7,5.27,10.2-2.05,13.53Zm-257.42-.81c-2.38.59-5.79.55-6.85-1.36a13.75,13.75,0,0,1-7.14,2.08c-5.65-3.46-5.2-10.11-2.67-14.37.25-.33.88-.25,1.38-.26,3.87,2.76-1.82,7.06,3.42,9.48,1.39.07,2-1.06,3.12-1.47a11,11,0,0,1-.18-6.4,4.55,4.55,0,0,1,2.8.85c.94,2-2.12,5.38,2.82,6,2,0,2.23-1.47,2.71-2.35-1.82-2.14-.87-4.31.72-6.09,1.5-.34,1.16.79,1.8,1.18.12,4.4,4.93,9.55-1.93,12.66Zm88.5,9.17v0c0,.11-.06.12-.08.15a1.43,1.43,0,0,0,.37.47c.88.76,2.12.52,3.44.22a33.91,33.91,0,0,0,10.37-3.73c.27-.16.54-.31.79-.48l.58-.43a10,10,0,0,0,1.2-1.09c.13-.38.07-.52.28-.48,0,0,0,0,.11-.1a17.67,17.67,0,0,0,2.32-4.34.81.81,0,0,0,.07-.22,1.61,1.61,0,0,1,0-.31c0-.19.21-.24.12-.35l-.09-.1h.15l0-.93h-.08v-.1h.08s0-.29,0-.49a4.07,4.07,0,0,0-.22-1.21s0,0,0,0l-.06,0c-.05,0,0-.15,0-.25,0-.29-.9-1.24-1-1.24s-.17.06-.19,0,0,0,0-.09-.21-.15-.37-.22a9.48,9.48,0,0,0-2.46-.63c-.37,0-2.77,0-3.25,0l-.94.1c-.46,0-3.49.63-3.57.69a3.75,3.75,0,0,0-.79,1c-.15.26-1.23,2.83-1.31,3.13a1.43,1.43,0,0,0,0,.89,2.44,2.44,0,0,0,.42.41s2.64-.6,3.67-.73c.27,0,3.75.08,4.16.14,1,.14,2.47.34,2.58,1.33a.76.76,0,0,1-.33.69,22.75,22.75,0,0,1-4.29,2.5c-1,.47-8.23,3.51-12.35,5.25-.11,0-.12.06-.13.14a.36.36,0,0,0,0,.18,1,1,0,0,0,.47.21,1.88,1.88,0,0,0,.3,0Zm75.49-27.51v0c0,.12-.06.12-.08.16a1.54,1.54,0,0,0,.37.47c.88.75,2.12.52,3.44.22a34.19,34.19,0,0,0,10.37-3.74c.27-.15.54-.31.79-.48l.58-.43a11,11,0,0,0,1.2-1.08c.13-.38.07-.53.28-.49,0,0,.05,0,.11-.09a17.67,17.67,0,0,0,2.32-4.34,1.11,1.11,0,0,0,.07-.22,1.71,1.71,0,0,1,0-.32c.05-.19.21-.23.12-.34l-.09-.11h.15l0-.92h-.08v-.11h.08s0-.29,0-.48a4.14,4.14,0,0,0-.22-1.22l0,0-.06,0c-.05,0,0-.16,0-.26,0-.28-.9-1.24-1-1.23s-.17.05-.19,0,0-.06,0-.09-.21-.16-.37-.22a8.75,8.75,0,0,0-2.46-.63c-.37,0-2.77,0-3.25,0l-.94.1c-.46.05-3.49.64-3.58.69a4,4,0,0,0-.78,1c-.15.25-1.23,2.82-1.31,3.12s-.14.71,0,.89a2.44,2.44,0,0,0,.42.41s2.64-.6,3.67-.73c.27,0,3.75.09,4.16.14,1,.14,2.47.35,2.58,1.33a.78.78,0,0,1-.33.7,23.88,23.88,0,0,1-4.29,2.5c-1,.46-8.23,3.5-12.35,5.24-.11.05-.12.06-.13.14a.41.41,0,0,0,0,.19,1.21,1.21,0,0,0,.47.21ZM571,302.42v0c0,.11-.06.12-.07.16s.19.31.37.46c.87.76,2.12.53,3.44.23a34.19,34.19,0,0,0,10.37-3.74c.27-.16.54-.31.78-.48l.58-.43a10.1,10.1,0,0,0,1.2-1.08c.14-.38.08-.53.28-.49,0,0,.05,0,.12-.1a17.94,17.94,0,0,0,2.32-4.33.66.66,0,0,0,.06-.22c0-.11,0-.22,0-.32s.21-.24.13-.35l-.09-.1h.14l0-.92h-.07v-.11h.07s0-.29,0-.49a3.52,3.52,0,0,0-.22-1.21l0,0s0,0-.07,0,0-.15,0-.25c0-.28-.9-1.24-1-1.24s-.17.06-.18,0,0-.06,0-.1-.2-.15-.37-.22a9,9,0,0,0-2.46-.62c-.37,0-2.76,0-3.25,0l-.93.1c-.46.05-3.5.63-3.58.69a3.81,3.81,0,0,0-.78,1c-.15.25-1.23,2.82-1.31,3.12a1.51,1.51,0,0,0,0,.89,2.88,2.88,0,0,0,.42.41s2.65-.6,3.68-.73c.26,0,3.74.08,4.15.14,1,.14,2.48.35,2.59,1.33a.79.79,0,0,1-.33.69,23.37,23.37,0,0,1-4.29,2.51c-1,.46-8.23,3.5-12.35,5.24-.11.05-.12.06-.13.14a.36.36,0,0,0,0,.18,1,1,0,0,0,.46.22l.3,0Zm53.85-13.26v0c0,.12-.06.13-.07.16s.19.32.37.47c.87.75,2.12.52,3.44.22a33.93,33.93,0,0,0,10.37-3.74,8.54,8.54,0,0,0,.78-.48l.58-.42a9.26,9.26,0,0,0,1.2-1.09c.14-.38.08-.53.28-.49,0,0,.05,0,.12-.09a18,18,0,0,0,2.32-4.34,1,1,0,0,0,.06-.22,1.71,1.71,0,0,1,0-.32c.05-.18.21-.23.13-.34l-.09-.11h.14l0-.92h-.07v-.11h.07s0-.29,0-.48a3.58,3.58,0,0,0-.22-1.22l0,0-.07,0s0-.16,0-.26a3.4,3.4,0,0,0-1-1.23c-.08,0-.17.05-.18,0s0-.06,0-.09a.78.78,0,0,0-.37-.22,9,9,0,0,0-2.46-.63c-.37,0-2.76,0-3.25,0l-.93.09c-.46.05-3.5.64-3.58.7a3.58,3.58,0,0,0-.78,1c-.16.25-1.23,2.82-1.31,3.12a1.51,1.51,0,0,0,0,.89,2.88,2.88,0,0,0,.42.41s2.65-.6,3.68-.73c.26,0,3.74.09,4.15.14,1,.15,2.48.35,2.59,1.33a.8.8,0,0,1-.33.7,23.3,23.3,0,0,1-4.29,2.5c-1,.46-8.23,3.51-12.35,5.24-.11.05-.12.06-.13.15a.37.37,0,0,0,0,.18,1,1,0,0,0,.46.21Zm-108,16.44L516,306c-3.33,1.54-1.68,2.31.11,2.09,12.72-1.52,25.37-5.94,35.34-12.78l.88-.64a10.24,10.24,0,0,1,1.63-1c.37,0,1,.78,1.58,1.56a16.48,16.48,0,0,1,1.12,2c.05.23.12.54.37.44.07,0,.12-.08.19-.1a5.36,5.36,0,0,0,2.39-7.24c-.18-.37-.41-.83-.58-1.16a.24.24,0,0,1,0-.29c.05-.09.21-.4.41-.81,2.15-4.27,4.48-11-.25-14.85A4.51,4.51,0,0,0,557,272.2a6.55,6.55,0,0,0-3,.61,8.61,8.61,0,0,0-1.43,1c-.35.3-2,2.1-2.21,2.44a25.86,25.86,0,0,0-3.06,7.06,8.8,8.8,0,0,0,1,5.25,5.82,5.82,0,0,0,.92,1c.57.49,1.5,1.15,1.5,1.15l-1.35.87c-.62.39-6.09,3.33-6.71,3.6l-1.4.61c-6.17,2.69-19.06,7.26-24.4,9.79Zm39.86-18.89c-.06,0-.13-.06-.2-.11-.5-.43-.75-.9-1.18-1.33s-2.26-1.47-3.15-2.11c-2.52-1.8.08-4.16,1.91-4.07a2.71,2.71,0,0,1,.77.16c2.08.73,4,3.86,3,6a3.33,3.33,0,0,1-1,1.31.48.48,0,0,1-.21.11ZM66.35,338.5a61,61,0,0,0-4.59,6.61c-.49.95-.37,1,.14,1.54a37.77,37.77,0,0,0,7.57,6.45c2,1.29,2.62.16,3.94-1.43a41.61,41.61,0,0,0,2.72-3.59c1.36-2,1.54-2.65-.66-4a30.88,30.88,0,0,1-6.61-5.32c-1.85-2.54-2-.59-2.51-.27Zm138.87,3.11a61.58,61.58,0,0,0-4.59,6.61c-.49,1-.38,1,.14,1.55a38.1,38.1,0,0,0,7.57,6.45c2,1.29,2.62.15,3.94-1.43.83-1,1.93-2.4,2.72-3.59,1.36-2.05,1.54-2.66-.67-4a31.7,31.7,0,0,1-6.6-5.32c-1.85-2.54-2-.59-2.51-.28Zm152.44,27.47a60.69,60.69,0,0,0-4.6,6.61c-.48.95-.37,1,.15,1.55a38.1,38.1,0,0,0,7.56,6.45c2,1.29,2.62.15,3.94-1.43a43.81,43.81,0,0,0,2.73-3.59c1.35-2.05,1.53-2.66-.67-4a31.5,31.5,0,0,1-6.61-5.32c-1.85-2.54-2-.6-2.5-.28ZM302,327.67a3.81,3.81,0,0,0-.2,2.61c.28.82.71.65,1.25.32,1.47-.93,2.52-4.54,3.15-7.83,3.06-20-1-26.76-3.29-29.6-2-2.81-2.36-1.34-2.93.35-2.41,7.14-.92,6,.5,8,4.53,6,3.09,22.37,1.52,26.12ZM84,319.23a3.84,3.84,0,0,0-.19,2.6c.28.83.71.66,1.24.32,1.48-.92,2.52-4.54,3.16-7.83,3.06-20-1-26.75-3.29-29.59-2-2.81-2.37-1.34-2.94.35-2.41,7.13-.92,6,.51,8,4.52,6,3.09,22.37,1.51,26.12ZM490.5,293.45a1.29,1.29,0,0,0-.16,1.34c.23.42.6.34,1,.16,1.25-.47,2.12-2.33,2.66-4,2.58-10.28-.8-13.77-2.77-15.23-1.68-1.45-2-.69-2.47.18-2,3.67-.77,3.09.43,4.13,3.8,3.07,2.6,11.52,1.27,13.45ZM165.22,384.66l4.56-5.91a18.16,18.16,0,0,0,3.36-12.06,220.36,220.36,0,0,0-.41-51.27A6.07,6.07,0,0,1,174,310.8a6.05,6.05,0,0,0,.21-3.62,29.94,29.94,0,0,1-4.65-14,1,1,0,0,0-1.66-.24l-2,4a13.2,13.2,0,0,0-.75,4.39,415.76,415.76,0,0,1,1.86,72.21,16,16,0,0,1-1.58,7.19l-2.29,3.71a1,1,0,0,0,.38,1,1,1,0,0,0,1.12,0l.65-.84Zm-11.16-5.18a1,1,0,1,0-2,.11c-1.18,4.13-3.6,0-7.41,1.3-7.81,2.7-7.62,4.79-11.43,7.44-.79,1.13-.25,1.48.51,1.81,3.91-1.66,5.91-4.1,9.74-5,1.93-.43,3.22,1.41,5.42.58,2.62-1,4.32-3.88,5.16-6.28Zm92.58-4.77h0c-.05,0-.05,0-.06,0s0,.1-.09.05,0-.05-.07-.06a.29.29,0,0,0-.14,0c-.07,0-.09,0-.16.1-.95,1.07-2.52,2.8-2.82,3.21-.86,1.16-2.27,3-2.4,3.14a2.5,2.5,0,0,1-1.45.49,6,6,0,0,1-2.77-1.63,30,30,0,0,1-3.08-4.05c-.16-.38-.42-1.28-1-1.1a.48.48,0,0,0-.17.1,21.66,21.66,0,0,0-1.63,1.85c-.53.69-3.63,5.2-3.73,5.43a.82.82,0,0,0,0,.89,20.8,20.8,0,0,0,3.37,4.77c1,1,2.84,2.39,4.05,2a6.4,6.4,0,0,0,1.75-1.15c.59-.53,4.86-5.23,4.86-5.23s1.47,1.77,2.43,2.82a26.17,26.17,0,0,0,2,1.74,24.3,24.3,0,0,0,2.26,1.11c.5.07,1-.38,1.55-1,1.08-1.23,2.21-2.7,3.44-4.11a23.86,23.86,0,0,0,1.47-2.06.76.76,0,0,0-.31-.85c-.33-.21-1.3-.48-1.88-.75a13,13,0,0,1-2.66-2.29c-.42-.42-2.32-2.66-2.47-2.9a3,3,0,0,1-.19-.35c-.05-.11-.06-.12-.1-.12Zm-12.56-92.4c-8.38,3.6-41.64,17.94-42.74,19-1.83,2.41-2.79,3.88-2.22,5,.27.51,1.93-.13,2.56-.43l34.8-15c4.42-1.79,8.71-3.86,9.4-8.35.09-.53-.79-.64-1.8-.2Zm449.21-9.39c-.57-.58-1.38,0-1.87.27-2.22,1.05-19.83,8.82-19.83,8.82a11.06,11.06,0,0,0-2.11,1.83c-1.33,1.64-2.3,4-.79,3.67,7-3.41,14.73-6.61,22-10,1.17-1.22,3.13-2.79,2.6-4.63ZM477,373.8c-.57-.58-1.38,0-1.87.27-2.22,1-19.83,8.82-19.83,8.82a11.06,11.06,0,0,0-2.11,1.83c-1.33,1.64-2.3,4-.79,3.67,7-3.41,14.73-6.62,22-10,1.17-1.22,3.14-2.8,2.6-4.63Zm48.53-.61c-.57-.58-1.38,0-1.87.27-2.22,1.05-19.83,8.82-19.83,8.82a11.06,11.06,0,0,0-2.11,1.83c-1.33,1.64-2.3,4-.79,3.67,7-3.41,14.73-6.61,22-10,1.17-1.22,3.13-2.79,2.6-4.63Zm-176-2.88c-.57-.58-1.38,0-1.87.27-2.22,1-19.83,8.82-19.83,8.82a10.77,10.77,0,0,0-2.11,1.83c-1.33,1.64-2.3,4-.79,3.67,7-3.41,14.73-6.62,22-10,1.16-1.22,3.13-2.8,2.6-4.63Zm-64.09,6.07c-.56-.58-1.38,0-1.86.27-2.23,1.05-19.83,8.82-19.83,8.82a10.24,10.24,0,0,0-2.11,1.84c-1.33,1.63-2.31,4-.79,3.66,7-3.41,14.72-6.61,22-10,1.16-1.22,3.13-2.79,2.59-4.63Zm2.79-108.9c-8.38,3.88-41.64,19.31-42.74,20.48-1.83,2.59-2.79,4.17-2.22,5.36.27.55,1.93-.14,2.56-.46l34.8-16.19c4.42-1.92,8.71-4.14,9.41-9,.08-.57-.8-.69-1.81-.22ZM186.26,277.81c-.57-.59-1.38,0-1.87.26-2.22,1.05-19.83,8.83-19.83,8.83a10.72,10.72,0,0,0-2.11,1.83c-1.33,1.64-2.3,4-.78,3.66,7-3.4,14.72-6.61,22-9.95,1.17-1.23,3.14-2.8,2.6-4.63Zm-35.58-1c-.74-.58-1.81,0-2.45.27-2.92,1-26,8.82-26,8.82a13.55,13.55,0,0,0-2.77,1.83c-1.75,1.64-3,4-1,3.67,9.17-3.41,19.33-6.62,28.87-10,1.53-1.22,4.11-2.8,3.41-4.63ZM80,382.43c-.75-.58-1.81,0-2.45.27-2.92,1-26,8.82-26,8.82a13.89,13.89,0,0,0-2.78,1.83c-1.74,1.64-3,4-1,3.67,9.16-3.41,19.32-6.62,28.87-10,1.53-1.22,4.11-2.79,3.41-4.63Zm601.22-26.08c.13-4.45.24-9.59.23-14.28,0-15.86-1.35-26.59-1.36-35,0-1.42,0-2.78.56-3.49s1.33-.77,1.82-1.2.67-1.52.42-2.85c-.32-1.68-6.52-13.93-7.51-14.82a2.51,2.51,0,0,0-2.54.2c-3,4.19-1.83,9.34-.62,18.44,1.09,8.17,2.59,77.32,2.59,77.32s1-1.16,1.94-2.53c5.07-7.3,4.2-13,4.47-21.78Zm-30.66,21.06c5,5,11.06,4.86,13.65-1.31,2.9-6.91-1.23-53.32-1.66-60.33-.29-4.64-.11-8.93,1.46-9.95,2.39-3,2.53-3.54-1.17-9.39-.2-.31-.4-.63-.59-.95a64.79,64.79,0,0,1-3.36-6.48c-2.49-5.49-3.29-5.54-4.51-3.26-3.79,7.11-.49,10.46.33,17.71,1.9,16.8,2.42,43.09,3.9,60.6.34,4.37-.09,7.54-4.06,5.65-5.31-2.53-9.76-10.08-12.61-14.4l-1.26-1.92c-1.39-2.15.07-1.81,1.92-1.95l.56-.07q3.33-.24,6.68-.19a4.3,4.3,0,0,0,2.05-1.81l2.23-2.9a1.9,1.9,0,0,0,.11-1.78,2,2,0,0,0-1.41-1.12q-6.84-1.11-13.56-2.72a73.25,73.25,0,0,1-15.6-4.9,98.6,98.6,0,0,0-15.23-4,10.78,10.78,0,0,0-10.4,1.64,27.05,27.05,0,0,0-7.8,9.06,1,1,0,0,0,.45,1.14,1,1,0,0,0,1.22-.23c1.77-1.07,3.57-2.09,5.39-3.08a10,10,0,0,1,6.87-1.45,43.36,43.36,0,0,1,17.27,5.44,2,2,0,0,1,.62,1.77,2,2,0,0,1-1.18,1.49,100.77,100.77,0,0,0-18.57,3.44,14.17,14.17,0,0,0-6.87,4.9l-5.57,9.25L588.32,367a3.13,3.13,0,0,1-3.9-.18,9.2,9.2,0,0,1-4.45-5.44q-6.68-18.66-14.68-36.81a69,69,0,0,0-12.62-19.58,1.37,1.37,0,0,0-1.33-.56,1.33,1.33,0,0,0-1.09.92l-.93,3.81a7.73,7.73,0,0,0,.93,4.89,179.38,179.38,0,0,1,19.5,37.72,2.93,2.93,0,0,1-.56,3.62A65,65,0,0,1,551.92,370a12.93,12.93,0,0,1-13.93-.36,12.21,12.21,0,0,1-4.64-11.79,43.85,43.85,0,0,1,5.76-16.13,1.31,1.31,0,0,0-.74-1.27,1.37,1.37,0,0,0-1.49.18A50.87,50.87,0,0,0,530,356.8a28,28,0,0,0,.74,17.95,12.45,12.45,0,0,0,13.74,6.16,27.39,27.39,0,0,0,13-6.71q6.38-5.46,12.26-11.42a2.39,2.39,0,0,1,1.81-.95,2.45,2.45,0,0,1,1.91.77c1.47,3.15,2.84,6.36,4.08,9.61a6.73,6.73,0,0,0,5.94,4.89,8.82,8.82,0,0,0,5.76-2.9l2.23-3.26a2.63,2.63,0,0,1,3.71-.36l12.08,6.7a3,3,0,0,0,3.52-.9l3-5.44a9.49,9.49,0,0,0,1.3-4.9l-.56-7.61a2.36,2.36,0,0,1,1.3-2.72l17.43-3.07c3.47-.61,3.6-.38,4.78,1.95.85,1.7,1.69,3.42,2.57,5.25,3.59,7.44,6.87,14.53,9.92,17.57Zm-41-19.35v7.62a1.53,1.53,0,0,1-1.85,1.09l-8.55-4.72a1.85,1.85,0,0,1-.66-1.85,1.89,1.89,0,0,1,1.41-1.41l7.8-2.18a1.28,1.28,0,0,1,1.48.05,1.19,1.19,0,0,1,.37,1.4Z"/><path class="cls-11" d="M283.82,174.91c-.86-2.7-2.93-4.28-4.58-6.79-2.64-.66-2.35,2.23-3.43,4.09s.79,3.26,1.43,4.75c1,4.65,1.29,10.24,1.72,15.45.07,3.54,1.07,5.68,1,9.77-1,1.12-2.29,1.12-3.57,1-10.5-2-19.51,6-25.08,14.33-2.28.84-4.36-.65-5.71-2.42-.57-2.51-1.5-5.58,0-8,2.07-3.17,4.64-6.7,6.86-10.15.85-2.14,3.28-4.19,1.92-6.42-11.28.56-19.93-6.61-29.86-9.87a10.26,10.26,0,0,0-7.93,1.58c-3.71,2.42-6.5,6.43-5.93,10.8.36.65.58.65,1.15,0,.64-.93,1.57-1.95,2.43-3.16,6.21-6.24,13.28,1,19.21,3.16-8.28,3.26-17.5,7.26-26.79,4.28-7.71-2.6-4.92-15.54-14.43-14.8-4,2-8.35,5-10.21,9.22-.93,2.23-1.5,5.3-1.14,6.33s.64,2-.43,2.79c-5.93,1.58-11.65,3.45-16.43,8-3.29,2.79-6.22,7.63-10.86,8.28-2.29-.84-3-3.16-3.36-6,1.86-9.68,10.93-13.87,17.15-20.66.5-.75-.08-1.68-1.22-1.21-4.43,2.88-9.36,6.24-12.93,10.42-4.78,5.78-5.36,6.71-6.86,13.69-.43,3.91.15,7.35,2,9.77,1.43,1.86,3.72,1.77,6,1,4.58-2.51,7.93-6.7,12.08-10.42,2.28-2.42,5.21-3.44,7.93-4.47,6.07-2.23,17.43-.84,23.5,4.1,2.43.46,3.29-3.45,3.29-5.4-1.36-6.52-8.72-6.42-12.93-10.15-1.08-1.21-2.79-2.23-3-3.72,2.22-2.23,4.29-4.1,7.79-4.84,2.72.46,3.93,3.63,4.86,5.77.78,1.86,3.07,4.84,3.93,6.52,5.86,6.7,16.29,3.35,23.43,1.21a106.91,106.91,0,0,0,11-3.91c5.64-4.1,8.64-1.59,12.79-2l.57.65c-1.72,2.24-3.93,4.47-5.07,7-2.43,4.57-4.57,9.78-3,15.36,1,2.14,1.85,3.07,4.78,4.66,3.15.65,6.36,0,8.22-2.8,3.07-5,8-10.23,13.79-11.07,4.42-1.31,9.28-.1,13.5-1.21,1.78-.28,4-3.26,3.35-6,.08-2.24-1.21-15.83-1.78-19.46,0-2.88-1.72-5.3.86-9.12Z"/><path class="cls-11" d="M409.69,169.05a1.38,1.38,0,0,0-1.5-.65c-1.65.93-1.93,3-2.72,4.65.72,4.19,1.43,9.12,2.15,13.78.78,5.67.28,11.63,1.42,17.5a8.82,8.82,0,0,1-4.85,3.07c-4.43.28-8.93.28-12.86,1.49-6.57.65-10.36,7.63-16.22,10.24a5.29,5.29,0,0,1-5.43-1.21c-2.07-1.68-2.43-4.84-1.78-7.17,2.5-4.94,6.64-9.22,9.85-14.06,3.93-2.88,9.22-1.95,13.65-3.63,2.28-.56,5.21.1,7.14-1.39.65-2,2.79-4.19.86-6.33-11.86,2.42-18-10.24-29.43-8.38-4.07,1-5,5.58-6.43,8.75-.29.74.21,1.39,1,1.12,1.5-1.77,3.43-4.29,6.36-3.26,3.57,1.49,7.43,2.23,9.93,5.4l-.72.65a47.31,47.31,0,0,1-17.64,3.72c-4.5.19-7.65-1.3-9.29-3.16s-2.71-4.19-5.21-4.47c-1.58,1-1.36,2.88-2.08,4.19.29,2.23-2.07,1.95-3.35,3.07-5.22,2.42-6.93-3.07-10.22-5.49-1.07-.75-1.28-.1-1.86.28-.28,2.14-2.64,4.74-.64,6.79,2,2.42,5.22,5.21,5.5,8.84-3.21,5.12-8.57,8.2-13.86,9.59a12.41,12.41,0,0,1-8.78,0,11.25,11.25,0,0,1-5.43-3.63A12.85,12.85,0,0,1,304.68,198c.85-3.45,3-6.52,3.85-9.87,0-.65-.57-1.49-1.5-.65-3.71,4.09-5.64,9.21-6.93,14.43-.93,5.21-.14,11.82,4.58,15.26s11.93,5.4,17.64,2.89c8.14-3.26,17.93-9.68,18.07-20,2.08-.93,4.5-.93,6.29-2.14a8,8,0,0,0,.93,1.59c3,2.79,3.5,4.46,6.43,6.14,2.71,1.12,2.28-3.54,3.5-5.31.57-.74,2.93.65,7.14-.37a22.28,22.28,0,0,1,7.43-.84,69.25,69.25,0,0,0-8.29,11.82c-1.85,3.54-1.57,9.31.36,11.55,1.72,1.86,3.5,3.63,5.79,4,3.5.93,6.57-.47,9-2.79,6.93-8.57,15.64-8.66,25.93-9.22,3.22-.09,5.93-3,7.36-5.86,1.21-2.61,2.07-10.8.86-14.71-.15-2.51-1-6.52.78-8.56.93-2,2.14-4.19.93-6.52-1.86-1.77-2.14-4.19-3.57-5.77,0-1.58-1.93-2.33-1.57-4Z"/><path class="cls-11" d="M486,180.87a2.73,2.73,0,0,0-2.36-.75c-1.43.75-.71,2.42-1.78,3.45,0,2.05-1.07,3.35-.72,5.21,1.43,1.3,1.86,3.63,2.57,5.86a47.92,47.92,0,0,1,3,8.2c1.07,2.14-.72,3.16-1.86,4.56-2.29.93-4.15.09-6.57-.56-1.86-.84-2.79-2.89-3.65-4.66-.28-5.58-1.93-11-3.07-16.56-.29-1.87-.71-4.29-2.14-4-2.5.56-2.36,2.8-2.86,5.22C466.62,192.41,468,198,468,204c0,2.61-3.79,4.28-6.57,4.66-1.86,0-3.43-1.59-4.5-3.26C455,199.11,455.62,191,454.48,184c-.43-1.77-1.93-2.23-3.65-2-2.42,1.39-3.42,3.63-4.21,6-1.43,6.7-.93,8.09-2.07,16.56-.65,5.4,0,7.92-6.43,8.38-4.29-1.12-4.5-6.51-5.15-11.73-.14-1.11-1-3.53-1.42-2.14-.79,2.42-1.22,3.17-1.15,8.66.72,4.19,1.29,13.5,8.08,12.29,11-2.61,8.93-16,9.64-26.44.43-1.58,1.29-2.61,2.43-2,1.57,6,0,13.4,2.14,19.64,2.22,3.16,5.29,4.93,9,4.65,4.22-.65,7.36-4.19,9.43-7.63a11.62,11.62,0,0,0,7.65,7.91c4,1.4,6.85-1.21,9.5-3.26,4.21-5.21,2.07-12,.85-18.15,3.29-4.93-1.42-9.49-3.14-14Z"/><path class="cls-11" d="M168.59,167.37c-.36-.56-.72-1.21-1.5-.74-4.5,5.12,1,10.33,0,16-.86,1.11-2.43,1.11-3.86,1-1.93,0-3.5.09-4.5.93-.86.65-.79,1.49.14,1.49,4.58.09,9.29,3,14.15.75a8.48,8.48,0,0,0,5.78-8.38,3.86,3.86,0,0,0-3.35-3.17c-2.72-.18-3.65,1.31-5,3.08-.86-3.64-.72-7.27-1.86-11Z"/><path class="cls-11" d="M244.31,162.81c-1.71-2.05-2.78,1.12-3.86,1.86-1.21.1-1.42-.46-2.57-1.21-5.64-.28-7,5.4-11.64,7.82-2.29.65-4.43,1.58-3.79,2.89,1,.18,2.65-.47,4.07-.75A59.05,59.05,0,0,0,233.6,170c1.71-2.24,3.71.37,6,.28,3.28-.84,4.28-4.84,4.71-7.45Z"/><path class="cls-11" d="M219.59,215.4c-.5-2.88-4-3.07-5.85-4.65-2.65.28-2.72,2.88-4.36,4.28-2.29.09-4.07-2.33-6.22-2.7-2.35,1.3-2.42,4-3.71,6,.86,1.4,2.43,1.68,4,2.14,2.07.93,3.21,1.4,4.86-.84,2.43-4.28,4.57,1.77,7.86.38,1.71-.75,2.5-3.35,3.42-4.66Z"/><path class="cls-11" d="M580.63,211.77c.36-.74-.07-.93-1.07-.46,0,0-12.71,6.79-14.43,7.91A7.07,7.07,0,0,0,562,224.9c.21.83.78.65,1.28.46l14.65-7.82a13.27,13.27,0,0,0,2.71-5.77Z"/><path class="cls-11" d="M184.59,212.24c.07-.38.07-.75-.36-.56-4.64,1.4-10.07,5-15.36,7-1,1.21-2.64,3.54-2.35,5.31.07,1.49,10.86-4.57,16-7.17,1.71-.75,1.43-3.07,2.07-4.56Z"/><path class="cls-11" d="M269.1,173.79c-3.29-.28-.64,4.84-2.57,7-3.93.09-1.57-4.47-3.65-6.06a1.52,1.52,0,0,0-1.42.56c-2,1.87,1.35,7.92-2.79,7.08-3.36-.47-.93-4.1-2.71-5.59-2.29-.46-1.86,1.86-2.15,3.45-.07,2.88-.35,6.05,2.72,7.63,1.28.28,3.28.47,4.57-.65,2.5-4.1,3.43.46,5.93-.93,2.57-.38,3.21-2.7,3.64-4.38.22-.93.22-3.07-.36-6.61-.07-.74-.71-1.49-1.21-1.49Z"/><path class="cls-11" d="M375.68,162.72c-.78-3.45-5.43-2.14-7.86-2.14-5.07,1.11-5.85,3-7,4.56-.5,1.49.43,1.77,1.58,1.77,2,.37,5.42-2,6.35-.38-2.21,2.42-5.78,4.56-8.57,4.75-1.14.28-1.5,1.4-.5,2.14,1.86,1.3,6.64-1,7.57-1.58,3.08-2,7.36-5.21,8.43-9.12Z"/><path class="cls-11" d="M317.89,170.07a13.59,13.59,0,0,0-1.28-1.49,1.3,1.3,0,0,0-2.08.56c-.35.65-.5,1.3-.78,2s-.36,2,.07,2.33c2.57,1.86,3.21,3.91,4.43,6,.57,1.21.71,2.88,2,3.26,2.71-1.77,2.93-5.31,5.36-7.36,1.35.56,1.78-.74,2.14-1.77.28-1.39.93-2.69-.36-3.81-3.86-1.12-4.5,4.47-6.28,6.61a5.8,5.8,0,0,0-.36-1.31,41.8,41.8,0,0,0-2.86-4.93Z"/><path class="cls-11" d="M556.85,167.28c-2.93-3.63-9.58-2.51-13,0-.64,1.39-1.42,2.6-1.42,4.09.07.66.92.66,1.71.28,1.93-1.77,5.14-1.77,7.36-.93-1.5,1.77-4.22,3.17-6,5.31-.5,1-.36,1.39,1.07,1.49,4.5-1.21,9.36-5.31,10.29-10.24Z"/><path class="cls-11" d="M206.59,167.74c-.85-.93-1.93-1.11-3-1.58-3.07-1.3-7.78.19-9.07.84-1.93,1-2.14,2.14-1.71,3.72,1.78,1.4,7.07-2.05,9.43.1-.72,1.48-5.65,4.37-9.15,4.46-1.07.66-.28,1.59.72,1.87,1.35,1,5.71-1.21,7.28-2.05a13.6,13.6,0,0,0,4.65-4.94c.5-.74,1.07-1.67.85-2.42Z"/><path class="cls-11" d="M452.76,215c-.21-.56-.57-.47-.93,0-1.71,2.61-4.71,4.37-6.71,6.79s-5.57,3.26-5.57,7.08c-.07,1.95,1,1.67,2,.56,4.14-4.19,12.07-7.64,11.21-14.43Z"/><path class="cls-11" d="M401.54,167.28c-.28-.56-.64-.56-1.21-.56-1.72.47-.86,4.19-1,7.17-.22.74-.64.93-1.14.83-1.36-.83-1.22-1.76-1.22-3.25.22-1.59-.21-3.07-2.14-2.24-.79.65-.65,1.68-.79,2.52s-.28,2.32-.36,2.79-.07.74-.92.84c-2.65-.28-.86-3.45-1.43-5.22a.53.53,0,0,0-.79-.09c-.57.37-1.14,2.51-1.57,4.47-.5,2.61-.14,5.68,1.14,6.7,1.72,1.21,3.65-.93,5.08-2.23a2.91,2.91,0,0,0,3.35,1.58c2.36-.56,3.36-4.1,3.79-6.42a15.41,15.41,0,0,0-.79-6.89Z"/><path class="cls-11" d="M424.19,169.33c-2.07,1-3.22,3.53-3.79,5.86-.78,3.26.29,10,.72,14.43.21,1.86.57,15.92.78,27.36.07,1-.35,2.05.86,2.7l1.14-1.3c.43-2.88,1.29-4.28,1.65-8.66.07-.46.14-8.93.35-18.05a14.81,14.81,0,0,0-.14-3.54l2.57-4.38c.29-4.09-1.36-6.6-4.14-14.42Z"/><path class="cls-11" d="M293.39,171.47c-2.64-1.86-3.93,2.51-4.15,4,.65,8.28,1.65,16.48,2,26,.42,5.31.42,10.24-1.08,15.17-.21,1.4.93,1.58,1.5.84a24.65,24.65,0,0,0,4.58-11.36c.21-1.21-.15-7-.65-11.45-.21-2.6-.57-5.39.79-7.07a11.23,11.23,0,0,0,1.86-4.28,7.14,7.14,0,0,0-1.22-4.93c-1.71-2.15-3.28-4.29-3.64-6.89Z"/><path class="cls-11" d="M321.39,200.42c1-3.63-3.5-3.26-5.64-4.94a1.08,1.08,0,0,0-1.15.19c-1.5,1.3-1.92,3.82-2.28,5.86,1.57,2.52,4.29,2.7,6.93,2.8a6.86,6.86,0,0,0,2.14-3.91Z"/><path class="cls-11" d="M572.56,209.91c-1.93-1-3-3.16-5-3.91a14.37,14.37,0,0,0-4.07,5.59c.71,1.95,3.57,2.6,4.79,4.09,2.07-.46,3.64-3.63,4.28-5.77Z"/><path class="cls-11" d="M443.33,173.51c-.21-.27-.43-.18-.71,0-3.43,2.8-6.07,7.45-5,11.55a3.51,3.51,0,0,0,4.14,1.95c2.14-.56,3-3,3.29-4.93a2.29,2.29,0,0,0-1.15-2.51c-1.35-.47-2.07,1.21-3,.65-.07-1,.36-1.49,1.15-2.42,1.43-2.05,1.93-2.42,1.28-4.29Z"/><path class="cls-11" d="M348.25,162.34a16.71,16.71,0,0,0-1.64-2.42c-3.07,0-2.79,4.1-3.14,5.87a20.69,20.69,0,0,1,2.71,15.08c-.07.28.29.18.57,0,4.22-4.56,3.57-13.5,1.5-18.53Z"/><path class="cls-11" d="M173.66,181.33c0-.55-.21-.93-1.21-.83-1,.37-1.22.46-1.5,1.58a2.79,2.79,0,0,0,2.71-.75Z"/><path class="cls-11" d="M517.48,214a21,21,0,0,1,21.22-.38,8,8,0,0,0,3.22,1.77,8.63,8.63,0,0,0,2-6.89c-2.93-2-5.22-2.79-9.51-4.18-2.71-.94-5.85-1.87-5.71-5.31a12.32,12.32,0,0,1,8.29-3.26c5.07.75.64,4.66,2.43,7.45,1.57,2.23,7.92,1.95,10.71.65,1.93.84,6.22,1.49,8.79-.09,2.28.56,2.43,1,6.07.65,5.57-.56,7.29-5.4,7.64-9.87a147.68,147.68,0,0,0-5.07-16.19c-.93-2.8,2-5.59-.43-8.1-2.43-1.31-3.36-4.19-5.64-4.94-1.57,2-1.79,4.29-2.72,6.43.58,1.11.72,1.39,1.5,3.16,3.08,7,5.93,13.68,7.72,21a5.37,5.37,0,0,1-4.79,2c-2.14-.37-1.35-2.7-1.43-4.09-.57-.28-.71-1.12-1.5-.84-2.14.09-1.92,2.42-2.42,3.72a4.52,4.52,0,0,1-4.29,1.58c-1.5-.55-.21-1.58-.21-2.51-.65-.56-.65-2-1.93-1.67-2.5.37-2.08,3.16-3.15,4.65a7.35,7.35,0,0,1-5.14-1.21c-1.21-1.95,1.36-2.79,1.07-4.56-1.86-3.63-6.29-3.63-9.93-3.07-4.93,2.14-8.5,4.56-9.43,8.47a13.84,13.84,0,0,0-.21,6c-2.86,1.48-6.15,2.79-8.93,4.65-4.5,2.61-7.93,8.56-13.22,7.63-2.07-.09-4.21-3.81-3.71-7.26,2.57-6.42,9.21-13,15.36-16.66.35,4.28.85,7.54.5,11.36-.15,1.39-.5,3,.21,4,.72.37,1.14-.56,1.72-.93a35.36,35.36,0,0,0,2.5-16.57c.28-4.93-2.93-12.57,1.28-14.15,2.29-1.21-1.36-5.4-2.64-8.84-.72-1.77-1.43-4-3.22-5.22a11.06,11.06,0,0,0-2.85,6.15,19.28,19.28,0,0,0,.42,6.79c1.51,4.66,1.51,10,1.79,14.62-7.64,5-16.07,11.73-19,20.57-1.14,4.28-.57,8.28,2.43,11.35,1.85,2.05,4.64,2.05,7.36,1.87,9.07-2.89,7.42-6.24,12.85-9.68Z"/><path class="cls-11" d="M512.2,223.78a4.22,4.22,0,0,0-2.5,3c-.36.74-.22,2.42.93,2.14L529,217.73a7.32,7.32,0,0,0,2.07-3.82c.07-1.11-.72-1.21-1.79-.65L512.2,223.78Z"/><path class="cls-11" d="M270.81,162.53c.72-.74.22-1.49-.92-.93-6.72,2.42-12.58,6-18.79,9.22-1.72,2-2.22,4.37-1.93,4.93a4.47,4.47,0,0,0,1.71-.19c1.58-.37,14.43-7.26,17.22-8.37a10.47,10.47,0,0,0,2.71-4.66Z"/><path class="cls-11" d="M402.69,159.27c.71-.83.21-1.58-.93-1-6.65,2.42-12.58,6.05-18.79,9.21-1.72,2-2.22,4.47-1.93,4.94a4.53,4.53,0,0,0,1.72-.19c1.64-.37,14.43-7.26,17.21-8.38a10.74,10.74,0,0,0,2.72-4.56Z"/><path class="cls-11" d="M239.17,209.91c.07-.37.07-.74-.36-.56-4.64,1.4-10.07,5-15.36,7-1.07,1.21-2.64,3.54-2.36,5.31.08,1.49,10.86-4.56,15.93-7.17,1.79-.74,1.51-3.07,2.15-4.56Z"/><path class="cls-11" d="M343.82,214.47c.07-.37.07-.74-.35-.56-4.65,1.49-10.08,5-15.36,7-1,1.21-2.65,3.54-2.36,5.31.07,1.49,10.86-4.56,16-7.17,1.72-.74,1.43-3.07,2.07-4.56Z"/><path class="cls-11" d="M503.55,172.49c.5-.56.08-1.4-.78-.74a21.85,21.85,0,0,0-5.86,5.4c-.93,1.67-1.71,5.21.57,6.42,1.5.65,3.22,0,4.86-.56a8.19,8.19,0,0,0,3.07-4.93c-1.28-1.77-2.78.46-4.28,0-.93-1.77,1.35-3.82,2.42-5.59Z"/><path class="cls-11" d="M475.27,170.91c-.43-1.3,0-3.45-1.93-3.82-1.58.65-1.43,3.63-.58,5.68,0,1-.92.93-1.64.74-1.28-1.67-.07-4.56-2.28-5.39a1.56,1.56,0,0,0-1.15.18c-1.28.93-.85,3.54-.21,5.21-.57,1-2,1.12-3.14.84-2.58-1.3.14-3.44.07-5.3a1,1,0,0,0-1.36-.47,8.76,8.76,0,0,0-2,7.36,3.07,3.07,0,0,0,2,2.14c3.93,1.3,4.43-2.33,5.86-1.12a3.67,3.67,0,0,0,1.43.84,4.62,4.62,0,0,0,3.28-1.12c1.5-1.68,2.29-3.63,1.65-5.77Z"/><path class="cls-11" d="M469,155.08a8.67,8.67,0,0,0-1-1.39,4.86,4.86,0,0,0-1.93,3.54,12,12,0,0,1,1.29,9c-.15.56.57.47.71.28,2.64-2.79,2.21-8.37.93-11.45Z"/></g></g></g></svg>