<svg xmlns="http://www.w3.org/2000/svg" xmlns:xlink="http://www.w3.org/1999/xlink" viewBox="0 0 141.91 164.24"><defs><style>.cls-1{fill:url(#linear-gradient);}.cls-2{fill:none;}.cls-3{fill:#dea449;}.cls-4{clip-path:url(#clip-path);}.cls-5{fill:#276b42;}.cls-6{fill:#8f562b;}.cls-7{font-size:23.13px;font-family:IBMPlexSans-Medium, IBM Plex Sans Medium;font-weight:500;}.cls-11,.cls-7{fill:#fff;}.cls-8{letter-spacing:-0.01em;}.cls-9{mask:url(#mask);}.cls-10{opacity:0.5;}.cls-11{fill-rule:evenodd;}</style><linearGradient id="linear-gradient" x1="70.9" y1="27.98" x2="70.9" y2="129.74" gradientUnits="userSpaceOnUse"><stop offset="0" stop-color="#fff"/><stop offset="0.12" stop-color="#d6d6d6"/><stop offset="0.37" stop-color="#8b8b8b"/><stop offset="0.59" stop-color="#4f4f4f"/><stop offset="0.77" stop-color="#242424"/><stop offset="0.91" stop-color="#0a0a0a"/><stop offset="1"/></linearGradient><clipPath id="clip-path"><polygon class="cls-2" points="71.48 1.23 140.62 41.15 140.62 122.53 71.48 162.7 0.8 122.53 0.8 41.15 71.48 1.23"/></clipPath><mask id="mask" x="5.79" y="27.98" width="130.22" height="101.75" maskUnits="userSpaceOnUse"><rect class="cls-1" x="5.79" y="27.98" width="130.22" height="101.75"/></mask></defs><title>quRan_small</title><g id="Layer_1" data-name="Layer 1"><path class="cls-3" d="M32.66,129.53l.17-.18h0Z"/><g class="cls-4"><circle class="cls-5" cx="70.71" cy="84.14" r="85.21"/></g><path class="cls-6" d="M136.26,37.62,82.72,6.73,71.1,0,59.47,6.73,5.93,37.64.28,40.9v81.77l5.65,3.25,54.2,31.31,11,6.32,11-6.32,54.2-31.31,5.65-3.25V40.9Zm0,82L71.1,157.23,5.93,119.6V44.35L71.1,6.73h0l65.16,37.62Z"/><path class="cls-3" d="M71,116.29l.17-.18h-.06Z"/><text class="cls-7" transform="translate(36.16 129.35)">qu<tspan class="cls-8" x="27.11" y="0">R</tspan><tspan x="42.03" y="0">an</tspan></text></g><g id="Layer_3" data-name="Layer 3"><g class="cls-9"><g class="cls-10"><path class="cls-11" d="M124.17,81.18l.18,1c.17,1,.57,6.67.85,10.4.09,1,.15,1.29-1,1.29h-.86c-1.93,0-4,0-5.65,1.28-.44.32-1,.73-1.52,1.07-1,.63-2,1.42-2.94.08-.57-.79-.16-1.93.17-2.71a3.39,3.39,0,0,1,.43-.79,6.85,6.85,0,0,1,2.86-2.49,33.61,33.61,0,0,1,4.16-.93c.73-.06,1.43-.07,2.15-.08.17,0,.2,0,.31-.16.44-.57.81-1.11.37-1.33a2.7,2.7,0,0,0-.84,0,15.53,15.53,0,0,1-2.77-.93c-2-1-5.19-2.79-5.72-3a2.17,2.17,0,0,0-2.14.17,3.45,3.45,0,0,0-.9,1,6.48,6.48,0,0,0-.26,1l.15,0c.41.11.49-.24.77-.44.69-.49,1.78,0,3,.49,1,.51,2.16,1.23,3,1.63s.28.73-.19.87c-.71.21-2,.59-3,.78-1.88.39-3.09.13-3.86-1.45s-.87-3.19-1.87-2.86-3,4.09-3.2,5.41a6.74,6.74,0,0,0-.08,1c0,.17,0,.2-.18.29a13.58,13.58,0,0,0-2.82,2c-1,1-2.14,2.34-3.2,1.77-1.43-.76-.32-2.83.73-4s3.22-3.13,3.22-3.13-.37.1-.67.21c-1,.38-2.59,2.08-3.53,3.3-.79,1-2,3.24-1.25,4.61a2,2,0,0,0,2.14.9,8.85,8.85,0,0,0,1.87-1.14c.64-.58,1.15-1.29,1.81-1.83A5.85,5.85,0,0,1,108.13,93a4.82,4.82,0,0,1,1.53.51c.4.33.67.78,1,.37a2,2,0,0,0,.14-2,4.3,4.3,0,0,0-.92-.82c-1.59-.93-2.93-.52-2.74-1.69a7.78,7.78,0,0,1,1.62-2.29c.49-.24.81.85,1,1.61a3,3,0,0,0,2.79,2.46H113c1.77,0,1.5,0,.52,1.31s-2.27,4.07-1.21,5.5a2,2,0,0,0,3,.21c.55-.41,1.23-1,1.87-1.44a6.68,6.68,0,0,1,3-1.13c.74-.07,1.89-.07,2.72-.07,2.21-.1,3.6-.53,3.49-2.44l-.57-10a.33.33,0,0,1,.13-.33c.38-.37.63-.57.47-.85s-.24-.26-.35-.42a5.3,5.3,0,0,1-.35-1.1,12.84,12.84,0,0,0-.9-2c-.38-.7-.73-.72-.93.18s0,1.2.27,2.61Zm3.24.34c.08.47.16,1,.23,1.48.2,1.3,1,11.09,1,11.58a2.86,2.86,0,0,1-.17.7c-.14.43-.43,1.18-.43,1.18a1,1,0,0,0,.26,0,2.79,2.79,0,0,0,.69-1c.2-.61.44-1.21.64-1.82a.67.67,0,0,0,0-.37L128.87,82a.31.31,0,0,1,.12-.33c.35-.34.41-.44.3-.8A18.88,18.88,0,0,0,127.88,78c-.27-.19-.42.06-.59.61a5.79,5.79,0,0,0,.12,2.88Zm-93.25.86c.1.48.18,1,.27,1.47.15.82.77,10.56.69,10.83s-.23.64-.52.51a3.5,3.5,0,0,1-1.3-2,4.92,4.92,0,0,1,.81-2.69c.09-.19.54-1,.32-1.11a.37.37,0,0,0-.29,0c-1,.52-1.89,3.35-1.88,4.49a3.87,3.87,0,0,0,1.25,2.92,5.82,5.82,0,0,0,7.54.14,11,11,0,0,0,.92-.89,3,3,0,0,0,.7-1.07c.38-1.17.2-2.59,1.07-2.37.68.18.14,1.08,0,2.2-.26,1.66.5,3.21,2,3.47a2.84,2.84,0,0,0,2.86-1.22,8.78,8.78,0,0,0,1.22-1.82c.32-.67.68-1.6.68-1.6a23.48,23.48,0,0,0,1.1,2.5c.48.87.87,1.31,1.78,1a2.34,2.34,0,0,0,1.43-2,1.22,1.22,0,0,0,0-.38l-.25-9.18c0-.18,0-.21.1-.3.51-.55,1-.41,1-1a.44.44,0,0,0-.12-.28l-1.19-1.87c-.54-.86-1-2-1.32-.1a4.36,4.36,0,0,0-.07.69,2.12,2.12,0,0,0,.26.85,15.8,15.8,0,0,1,.35,3c.08,2.69.22,5.15.32,7.7.05,1.07-1,1.58-1.61.44s-3.54-8.64-3.74-8.73-.42,0-.61.34c-.63,1.15,1.25,3.78,1.82,5.25.41,1,0,1.79-.9,3-1.4,1.9-2.94,2.65-4.13.78a2.25,2.25,0,0,1-.34-1.74,2.45,2.45,0,0,1,.34-1.07c.34-.4,1-.6,1.39-1a3.7,3.7,0,0,0,.61-2.25A5.86,5.86,0,0,0,46,88c-.64-1-1.4-1.19-1.48,0a2.84,2.84,0,0,0,0,.78,1.21,1.21,0,0,0,.28.45c.57.69.94,1.41-.48,1.51h0a2.66,2.66,0,0,1-2.35-1,9.41,9.41,0,0,0-1-1.4.44.44,0,0,0-.46,0,.75.75,0,0,0-.13.22,1.89,1.89,0,0,0,.22,2.27c.21.32.46.67.66.94a3.45,3.45,0,0,1,.78,2.45,5.53,5.53,0,0,1-1.59,1.52,3.69,3.69,0,0,1-3.08.8c-1.32-.25-2-.35-1.83-1.13.12-.57.52-1.23.69-1.87a7.08,7.08,0,0,0,.09-1.86c-.14-2.21-.33-5.12-.51-7.68a.44.44,0,0,1,.09-.35c.32-.49.37-.52.34-.93a.64.64,0,0,0-.1-.35l-1.44-2.82s-.17.23-.35.52c-.63,1-.53.75-.21,2.44ZM23.82,96.61a2,2,0,0,1-1.44.78c-2.65.6-7.47,1.37-9.42-.17A2.42,2.42,0,0,1,12.23,94c.85-1.09,1.63-1.18,1.48-1.9,0-.2-.19-.41-.31-.42s-.39.2-.61.28c-.68.23-1.06-.73-1-1.3a6.09,6.09,0,0,1,.69-1.64c.57-.87,1.86-2.12,1.11-2.23-.09,0-.11,0-.23.12a8.07,8.07,0,0,0-2,2.82c-.74,1.89-.52,3.33.52,3.47a.53.53,0,0,1,.07.26c0,.17-.26.37-.43.59a5.63,5.63,0,0,0-.61,3.22,3.52,3.52,0,0,0,2.78,2.37,18.16,18.16,0,0,0,3.12.25c.58,0,2.34-.18,3.5-.34,2-.26,4.12-.67,4.69-2.85a8.14,8.14,0,0,0,.13-2.4c0-.28-1-9.39-.78-9.82s.52-.52.35-1c-.08-.21-.3-.35-.52-.68a6.37,6.37,0,0,1-.53-1.11c-.24-.61-.56-1.89-1.05-.17a3.18,3.18,0,0,0-.15.81c.16,1.51.47,3.11.69,4.82.26,2,.52,6,.76,9a.33.33,0,0,1-.1.34Zm3.12,0c.07.22.13.38.19.52a2.36,2.36,0,0,0,3.61.67,3.63,3.63,0,0,0,.83-3c-.06-.38-1-2.87-1.73-2.71-.5.11-.8,1.37-.61,1.78a3.92,3.92,0,0,0,.52.63c.67.84.69,1.74.17,1.91s-1.28-.26-1.81-1.14A.64.64,0,0,1,28,95s-1.51-11.63-1.65-12.69c0,0-.08-2.36-.84-1.29a4.08,4.08,0,0,0-.37,1.53c.33,2.6,1.73,13.75,1.73,13.75a2.21,2.21,0,0,0,.08.37ZM59.17,93c.06-.15.12-.28.16-.39a.56.56,0,0,0,.06-.36L59,83.87a.35.35,0,0,1,.07-.3,1.54,1.54,0,0,0,.18-1.08A13.26,13.26,0,0,0,58.28,80c-.21-.25-.46-.5-.46-.5a7.84,7.84,0,0,0-.75,1.77,2.54,2.54,0,0,0,.43.93c.11.18.8,7.92.66,8.27a.84.84,0,0,1-.36.36c-.09,0-.11.06-.21.21a15.64,15.64,0,0,0-2,3.26c-.43,1.25-.67,3.19.79,3.88a1.58,1.58,0,0,0,1.11.1C58.73,98,59.85,96.1,61,94.73c1-1.21,3-3,4.08-3.18,1.83-.3,2.45.2,2.86-.46a1.82,1.82,0,0,0,.26-1.57,14,14,0,0,0-1.47-2.29c-.82-.8-1.87-1.11-2.43-.08a2.57,2.57,0,0,0-.26,1,14.28,14.28,0,0,1-.26,2.21c-.12.17-.32.2-.57.33a12.38,12.38,0,0,0-1.86,1.73c-1.49,1.75-3.24,4.82-4.65,4a1.59,1.59,0,0,1-.73-1.61c0-.16,1.62-3.3,2-3.47s.43.43.43,1.22c0,.26,0,.56,0,.81,0,1-.1,1.77.78-.45Zm6.22-3.27h-.12c-.55,0-.67-.7-.29-1a.41.41,0,0,1,.52-.05c.71.4.64,1-.11,1.06Zm12.86,7.55c.34,0,.75,0,1.1,0A13.51,13.51,0,0,0,83.47,96c.67-.36,1.44-1,1.63-.93s.38.82.66,1.23a1.83,1.83,0,0,0,2.48.46c1.38-1,1.52-2.23,1.42-3.89-.12-2.15-.49-5.89-.78-7.88a3.37,3.37,0,0,1,0-1.3c.14-.2.45-.22.52-.39a2.24,2.24,0,0,0-.3-1c-.48-1.16-1.3-3.3-1.47-3.45s-.29,0-.57.47a2.08,2.08,0,0,0-.34.76,16.6,16.6,0,0,0,.52,3c.16.68.86,7.77,1.28,11.66,0,.17,0,.2-.08.31-.49.63-1.38.32-1.81-.41a1.93,1.93,0,0,1-.21-.74c-.64-3.89-2.34-14.5-2.34-14.5a.62.62,0,0,0-.31,0,3.9,3.9,0,0,0-.45,1.1.5.5,0,0,0,0,.36c.56,4.17,1.7,12.36,1.63,12.51-.46.94-2.84,1.7-5.21,2-1.5.21-2.58.06-3.47-1.13A2.85,2.85,0,0,1,75.79,92a2.78,2.78,0,0,1,.52-1.1c1-1.22,1.8-1.63,1.56-3.21a5,5,0,0,0-2-3c-.38-.2-.65.16-.81.93a.93.93,0,0,0,.05.69,11.86,11.86,0,0,0,1,1.21c1.09,1.3.3,1.54-1,1.92a7.16,7.16,0,0,1-1.91.25,17,17,0,0,0-1.66-1.86,1.38,1.38,0,0,0-2.22.37,4,4,0,0,0-.43,3.15c.52.89,1.35.53,3.13.39.18,0,.21,0,.31.07.61.5.11,1-.61,1.52A9,9,0,0,1,70,94.43c-2.59,1.09-7.88,3.13-7.89,3.3v.17a46,46,0,0,0,4.75-.56,17.13,17.13,0,0,0,5.1-2.66,3.36,3.36,0,0,0,1.34-2.37,1.65,1.65,0,0,1,.46-.84,3.63,3.63,0,0,1,1.39-.34c.55.19.07.79-.27,1.45a3.93,3.93,0,0,0,.19,3.17,4.46,4.46,0,0,0,3.2,1.49Zm-7.59-7.13H70.5c-.2,0-1-.23-.65-.65.14-.2.59-.1.85,0,.5.26.17.62,0,.62Zm19-8.72c.21,1.13.62,3.44.83,5.34.36,3.17.23,5.39.52,7.28.19,1.19.64,2.19,1.74,2.45,1.5.35,3.5-1.44,4.07-3a2.26,2.26,0,0,0-1.36-2.71c-.44-.19-.67.06-1.07.68a4.36,4.36,0,0,0-.52,1.1c-.26.8-.56,2.17-.56,2.17a5.64,5.64,0,0,1-.82-.77,1.91,1.91,0,0,1-.28-.55,1.18,1.18,0,0,1-.09-.37c-.3-3.69-.63-8.51-.94-11.07-.07-.58-.43-3.46-1.07-3.13a.81.81,0,0,0-.16.2c-.76,1.07-.48,1.3-.29,2.34ZM94.44,94a.89.89,0,0,1,.45-1.26.33.33,0,0,1,.28.09c.65.53.59.79.13,1.25s-.66.34-.86-.08ZM122,83.09c-.46.11-1.13.1-1.33-.27a2.62,2.62,0,0,1-1.39.41,2,2,0,0,1-.52-2.8c0-.06.17-.05.27-.05.75.54-.36,1.38.66,1.85.27,0,.39-.21.61-.29a2,2,0,0,1,0-1.24.81.81,0,0,1,.54.16c.18.39-.41,1,.55,1.18.39,0,.43-.29.53-.46-.36-.42-.17-.84.14-1.18.29-.07.22.15.35.23,0,.85,1,1.85-.38,2.46Zm-71.87,0c-.47.11-1.13.1-1.34-.27a2.55,2.55,0,0,1-1.38.41,2,2,0,0,1-.52-2.8c0-.06.17-.05.27-.05.75.54-.36,1.38.66,1.85.27,0,.39-.21.61-.29a2.1,2.1,0,0,1,0-1.24.84.84,0,0,1,.55.16c.18.39-.42,1,.55,1.18.39,0,.43-.29.52-.46a.83.83,0,0,1,.14-1.18c.3-.07.23.15.35.23,0,.85,1,1.85-.37,2.46ZM32,87c-.47.12-1.13.11-1.34-.26a2.64,2.64,0,0,1-1.38.4,2,2,0,0,1-.52-2.79c0-.07.17,0,.27,0,.75.53-.36,1.37.66,1.84.27,0,.39-.21.61-.29a2.1,2.1,0,0,1,0-1.24,1,1,0,0,1,.55.16c.18.39-.42,1,.55,1.18.39,0,.43-.28.52-.46-.35-.41-.17-.83.14-1.18.3-.07.23.15.35.23,0,.85,1,1.86-.37,2.46Zm9.34-4.23h0s0,0,0,0a.23.23,0,0,0,.07.08c.16.14.38.1.62,0a6.1,6.1,0,0,0,1.89-.68l.15-.08a.39.39,0,0,1,.1-.08,2.41,2.41,0,0,0,.22-.2c0-.07,0-.1.05-.09l0,0a2.81,2.81,0,0,0,.42-.79l0,0s0,0,0,0,0,0,0-.07l0,0h0v-.16h0v0h0v-.09a.72.72,0,0,0,0-.22h0s0,0,0,0a.58.58,0,0,0-.18-.22s0,0,0,0v0l-.07,0a1.5,1.5,0,0,0-.45-.12c-.07,0-.5,0-.59,0h-.17l-.65.13a.45.45,0,0,0-.14.18,5.72,5.72,0,0,0-.24.57s0,.13,0,.16l.08.08.67-.14.76,0c.18,0,.45.06.47.24a.18.18,0,0,1-.06.13,4.47,4.47,0,0,1-.78.45c-.18.09-1.5.64-2.25,1l0,0a.06.06,0,0,0,0,0s.06,0,.08,0a.08.08,0,0,0,0,0Zm26.46,2.66h0s0,0,0,0,0,.06.06.09a.75.75,0,0,0,.63,0,6.11,6.11,0,0,0,1.89-.69l.14-.08.11-.08a2.41,2.41,0,0,0,.22-.2c0-.07,0-.09,0-.09s0,0,0,0a3.48,3.48,0,0,0,.42-.79.08.08,0,0,0,0,0v-.06s0,0,0-.06l0,0h0v-.17h0v0h0V83.2a.51.51,0,0,0,0-.22h0a.07.07,0,0,1,0,0s-.16-.22-.17-.22h0s0,0,0,0,0,0-.06,0a1.59,1.59,0,0,0-.45-.12H70l-.17,0a6.67,6.67,0,0,0-.66.12,1,1,0,0,0-.14.18s-.22.52-.24.57a.29.29,0,0,0,0,.16.57.57,0,0,0,.08.08l.67-.14.75,0c.19,0,.45.06.47.24a.15.15,0,0,1-.06.13,3.84,3.84,0,0,1-.78.45c-.18.09-1.5.64-2.25,1,0,0,0,0,0,0v0l.09,0Zm39.33-4.62h0s0,0,0,0,0,.06.07.08.38.1.62,0a6.1,6.1,0,0,0,1.89-.68l.14-.08.11-.08a2.41,2.41,0,0,0,.22-.2c0-.07,0-.1,0-.09l0,0a3.1,3.1,0,0,0,.42-.79s0,0,0,0v0s0,0,0-.07l0,0h0V78.7h0v0h0v-.09a.51.51,0,0,0,0-.22h0s0,0,0,0a.59.59,0,0,0-.18-.22h0a0,0,0,0,0,0,0l-.06,0a2,2,0,0,0-.45-.11c-.07,0-.5,0-.59,0l-.17,0-.66.13a.75.75,0,0,0-.14.18s-.22.51-.24.57a.29.29,0,0,0,0,.16.57.57,0,0,0,.08.08l.67-.14.75,0c.19,0,.45.06.47.24a.15.15,0,0,1-.06.13,3.84,3.84,0,0,1-.78.45c-.18.09-1.5.64-2.25,1,0,0,0,0,0,0v0l.09,0a.08.08,0,0,0,.05,0Zm1.18,13.87h0s0,0,0,0,0,0,0,0h0s0,0,0,0,0,0,0,0c-.18.19-.46.51-.52.58s-.41.56-.43.57A.44.44,0,0,1,107,96a1.05,1.05,0,0,1-.5-.29,5.14,5.14,0,0,1-.56-.74c0-.07-.08-.23-.18-.2l0,0s-.22.24-.3.33-.66,1-.68,1a.15.15,0,0,0,0,.17,3.81,3.81,0,0,0,.61.86c.19.19.52.44.74.36a1.18,1.18,0,0,0,.32-.21c.1-.09.88-.95.88-.95l.44.51s.32.29.37.32a2.55,2.55,0,0,0,.41.2c.09,0,.18-.07.28-.18s.4-.49.63-.75c0-.06.26-.36.27-.38a.14.14,0,0,0-.06-.15c-.06,0-.24-.09-.34-.14a2.06,2.06,0,0,1-.49-.41l-.45-.53,0-.07s0,0,0,0ZM73.7,95.76h0s0,0,0,0h0l0,0c-.18.2-.46.51-.52.59s-.41.55-.43.57a.51.51,0,0,1-.27.09,1.07,1.07,0,0,1-.5-.3,4.65,4.65,0,0,1-.56-.74c0-.07-.08-.23-.18-.2l0,0a4.34,4.34,0,0,0-.3.34c-.09.12-.66,1-.68,1a.14.14,0,0,0,0,.16,3.88,3.88,0,0,0,.61.87c.19.18.52.43.74.36a1.18,1.18,0,0,0,.32-.21l.88-1s.27.33.44.52l.37.32.41.2c.09,0,.18-.07.28-.19s.4-.49.63-.75l.27-.37a.15.15,0,0,0-.06-.16c-.06,0-.24-.08-.34-.13a2.38,2.38,0,0,1-.49-.42c-.07-.08-.42-.48-.45-.53l0-.06,0,0ZM43.19,97.88h0s0,0,0,0,0,0,0,0a0,0,0,0,0,0,0h0l0,0-.51.58a6.6,6.6,0,0,1-.44.58.58.58,0,0,1-.26.09,1.1,1.1,0,0,1-.5-.3,5.29,5.29,0,0,1-.57-.74c0-.07-.07-.23-.17-.2l0,0a4.34,4.34,0,0,0-.3.34c-.09.12-.66.94-.68,1a.14.14,0,0,0,0,.16,3.58,3.58,0,0,0,.61.87c.19.18.52.43.74.35a1.1,1.1,0,0,0,.31-.2c.11-.1.89-1,.89-1s.27.33.44.52.32.28.37.31a2.55,2.55,0,0,0,.41.2c.09,0,.18-.06.28-.18s.4-.49.63-.75a3.77,3.77,0,0,0,.26-.37.13.13,0,0,0,0-.16c-.06,0-.24-.09-.35-.14a2.23,2.23,0,0,1-.48-.41c-.08-.08-.42-.49-.45-.53l0-.06s0,0,0,0Zm-12.53.67h0s0,0,0,0a0,0,0,0,1,0,0h0l0,0c-.17.19-.46.5-.51.58s-.41.55-.44.57a.41.41,0,0,1-.26.09,1.1,1.1,0,0,1-.51-.3,6,6,0,0,1-.56-.73c0-.07-.07-.24-.17-.2h0s-.23.25-.3.34-.66.95-.68,1a.15.15,0,0,0,0,.16,3.91,3.91,0,0,0,.62.87c.18.18.51.44.73.36a1.18,1.18,0,0,0,.32-.21c.11-.1.89-.95.89-.95l.44.51.36.32c.06,0,.39.2.42.2s.18-.07.28-.19.4-.49.62-.74a3.58,3.58,0,0,0,.27-.38.12.12,0,0,0-.06-.15,3.27,3.27,0,0,0-.34-.14,2.63,2.63,0,0,1-.48-.42,6.39,6.39,0,0,1-.45-.53l0-.06s0,0,0,0Zm7.48-7.26a10.79,10.79,0,0,0-.84,1.2c-.09.17-.07.19,0,.28A6.56,6.56,0,0,0,38.7,94c.37.23.48,0,.72-.26s.35-.44.5-.66c.24-.37.28-.48-.13-.72a6.22,6.22,0,0,1-1.2-1c-.33-.46-.36-.11-.45,0Zm13.19,6.55c-.1-.1-.25,0-.34,0L47.38,99.5a1.71,1.71,0,0,0-.39.33c-.24.3-.42.73-.14.67,1.27-.62,2.68-1.21,4-1.81.21-.23.57-.51.47-.85ZM39.07,99c-.1-.11-.25,0-.34,0l-3.61,1.61a1.67,1.67,0,0,0-.39.33c-.24.3-.42.73-.14.67,1.27-.62,2.68-1.21,4-1.82.21-.22.57-.51.47-.84Zm44.81-2.66c-.1-.11-.25,0-.34.05-.4.19-3.61,1.61-3.61,1.61a1.63,1.63,0,0,0-.38.33c-.24.3-.42.73-.14.67,1.27-.62,2.68-1.21,4-1.82.21-.22.57-.51.47-.84Zm7.63-.4c-.1-.1-.25,0-.34,0-.4.19-3.61,1.61-3.61,1.61a1.91,1.91,0,0,0-.38.33c-.24.3-.42.73-.15.67,1.28-.62,2.69-1.21,4-1.82.21-.22.57-.5.47-.84Zm12.4.8c-.1-.11-.25,0-.34,0L100,98.43a1.76,1.76,0,0,0-.39.34c-.24.3-.42.73-.14.67,1.27-.63,2.68-1.21,4-1.82.21-.22.57-.51.47-.84ZM33.08,79c-.11-.11-.26,0-.34.05l-3.62,1.6a2,2,0,0,0-.38.34c-.24.29-.42.73-.14.66,1.27-.62,2.68-1.2,4-1.81.21-.22.57-.51.48-.84Zm-11.76.2c-1.52.65-7.58,3.27-7.78,3.46-.33.44-.51.71-.4.91s.35,0,.46-.08l6.34-2.73c.8-.33,1.59-.71,1.71-1.52,0-.1-.14-.12-.33,0ZM78.81,77.3c-1.53.65-7.59,3.26-7.79,3.46-.33.44-.5.71-.4.91s.35,0,.47-.08l6.33-2.74c.81-.32,1.59-.7,1.72-1.52,0-.09-.15-.11-.33,0Zm21.79,3.32c-1.52.66-7.58,3.27-7.78,3.47-.33.44-.51.7-.41.91s.36,0,.47-.08l6.34-2.74c.8-.33,1.58-.7,1.71-1.52,0-.1-.14-.12-.33,0Zm21.66-4.12c-1.53.65-7.58,3.27-7.78,3.46-.34.44-.51.71-.41.91s.36,0,.47-.08l6.34-2.73c.8-.33,1.58-.71,1.71-1.52,0-.1-.15-.12-.33,0ZM67.87,92.92c-.12-.1-.3,0-.41,0l-4.41,1.61a2.36,2.36,0,0,0-.47.33c-.29.3-.51.73-.17.67C64,95,65.68,94.37,67.3,93.77c.25-.23.69-.51.57-.85Zm54.05-2.41c.1-.19,0-.25-.16-.21l-5.34,2.56c-.84.43-2,.75-2.11,1.82l.13,0,7.07-3.39c.27-.27.25-.47.41-.81ZM64,79.12a3,3,0,0,1,1.45,1.74c.18-.25.12-.35.33-.63a2.4,2.4,0,0,1,.59-.68.69.69,0,0,1,.82,0,.48.48,0,0,1,.15.55,2.52,2.52,0,0,1-.93,1.14.63.63,0,0,0-.08-.47c-.52.21-.62,1.16-1.15,1.64a.11.11,0,0,1-.19-.06,2.16,2.16,0,0,0-.74-1.07,4.78,4.78,0,0,1-1.58,1.62,4.38,4.38,0,0,1-2.07,1c-.29,0-.34-.3-.12-.44a9.81,9.81,0,0,0,3-2.13c.08-.13.26-.28.26-.36a1.6,1.6,0,0,0-.58-.54A8.51,8.51,0,0,1,64,79.12Zm37.36,3.66a3,3,0,0,1,1.44,1.74c.18-.25.12-.35.33-.63.37-.47.22-.36.59-.67a.68.68,0,0,1,.82,0,.48.48,0,0,1,.15.55,2.68,2.68,0,0,1-.92,1.14.65.65,0,0,0-.09-.48c-.52.22-.62,1.17-1.15,1.65a.12.12,0,0,1-.19-.06,2,2,0,0,0-.74-1.07A4.81,4.81,0,0,1,100,86.54a4.47,4.47,0,0,1-2.07,1c-.29,0-.35-.3-.13-.44a9.54,9.54,0,0,0,3-2.13c.08-.12.26-.28.26-.36a1.53,1.53,0,0,0-.58-.54,8.11,8.11,0,0,1,.8-1.25ZM36.79,98.61c-.09-.09-.21,0-.28,0l-3,1.32a2.07,2.07,0,0,0-.32.28c-.2.25-.34.6-.11.55,1-.51,2.21-1,3.3-1.49.17-.19.47-.42.39-.7ZM93.85,83.33a.28.28,0,0,0,0,.29c0,.1.14.08.23,0,.28-.11.47-.51.59-.89.56-2.26-.18-3-.61-3.35s-.44-.15-.54,0c-.45.81-.17.68.09.91.84.68.57,2.53.28,3ZM16.37,93.21c.71,0,3.18,0,3.76-.09a3.13,3.13,0,0,0,1.19-.32,1.23,1.23,0,0,0,.19-.2c0-.06.46-.9.49-1a.81.81,0,0,0,0-.57.88.88,0,0,0-.05-.15,2.32,2.32,0,0,0-.22-.36,6.42,6.42,0,0,0-.48-.43,1.82,1.82,0,0,0-.77-.29c-.05,0-1.05.1-1.62.17-.12,0-1.07,0-1.21,0a1.66,1.66,0,0,1-.76-.17c-.07,0-.09-.07-.08-.11s.48-.39.54-.43A4.51,4.51,0,0,1,18,89c.1,0,.59-.19.66-.2a1.27,1.27,0,0,1,.33,0c.07,0,.13.08.19.09s.26-.11.35-.24a1.08,1.08,0,0,0,.3-.93c-.07-.27-.3-.22-.63-.14l-.3.08c-.15,0-.79.28-.9.33a3.44,3.44,0,0,0-.89.61,2.89,2.89,0,0,0-1,1.25c-.25.54-.39.91,0,1.21a2,2,0,0,0,1.36.29c.41,0,2.25-.23,2.38-.22a.82.82,0,0,1,.41.09,2.06,2.06,0,0,1,.39.21,1.72,1.72,0,0,1,.33.33s0,0-.05.07a1.86,1.86,0,0,1-.32.08c-.09,0-1.8.1-2.16.1-1.17,0-2.05.11-3,.06-.09,0-1-.17-1.1-.18-.21-.09-.5-.25-.67,0-.06.1,0,.28.12.38s.59.55.66.59a1,1,0,0,0,.41.19,6,6,0,0,0,1.42.16Zm62.46-.47c.62-.06,2.76-.34,3.27-.47a2.84,2.84,0,0,0,1-.4,2.19,2.19,0,0,0,.14-.2c0-.06.31-.83.32-.9a.74.74,0,0,0-.07-.49.47.47,0,0,0-.07-.12,1.54,1.54,0,0,0-.23-.29,5,5,0,0,0-.47-.33,1.49,1.49,0,0,0-.69-.17s-.91.2-1.4.31c-.11,0-.93.16-1,.17a1.32,1.32,0,0,1-.68-.07c-.07,0-.09,0-.08-.08a5.5,5.5,0,0,1,.42-.44,4.58,4.58,0,0,1,.54-.35,4.19,4.19,0,0,1,.55-.24,1,1,0,0,1,.29,0c.06,0,.12,0,.17.06s.22-.13.29-.25a1,1,0,0,0,.16-.84c-.09-.23-.29-.17-.57-.06l-.25.1c-.13.05-.66.33-.75.38a3,3,0,0,0-.71.63,2.43,2.43,0,0,0-.69,1.19c-.16.49-.24.82.14,1a1.8,1.8,0,0,0,1.22.11c.35-.06,1.93-.43,2-.44a1,1,0,0,1,.38,0,1.84,1.84,0,0,1,.35.15,1.59,1.59,0,0,1,.33.25s0,0,0,.06a1,1,0,0,1-.27.11l-1.87.32c-1,.14-1.77.3-2.58.36l-1,0c-.2-.06-.46-.16-.58.08s.06.24.15.32.57.41.63.45a1,1,0,0,0,.38.12,5.91,5.91,0,0,0,1.26,0Zm12.65,14a26.75,26.75,0,0,0,.86,2.79,27.66,27.66,0,0,1,.52,3.9c.08,2.12.29,5.53.44,6.26a2.46,2.46,0,0,0,3.2,2,3.61,3.61,0,0,0,2.43-3.22,4,4,0,0,0-1.42-2.71c-.42-.29-.68-.08-.92.51a2.41,2.41,0,0,0-.09,1.1c.24.53,1.46,1.23,1.07,2a1.86,1.86,0,0,1-1.76.56,2.12,2.12,0,0,1-1.47-1.61c-.23-.83-.41-4.89-.7-8a41.33,41.33,0,0,0-1-4.79c-.14-.2-.3-.33-.52-.12a4.41,4.41,0,0,0-.6,1.44Zm-2.27,1.68c.25,1.75,1.22,8.78,1.41,10.21.31,2.22.25,2.23-2.47,3a15.82,15.82,0,0,1-2,.21,8.26,8.26,0,0,1-2.58-.41c-1.48-.58-2.49-2.56-1.64-3.9.35-.55.88-1.23.83-1.36s-.14-.07-.29,0c-.86.39-1.6,2.08-1.79,2.87a3.26,3.26,0,0,0,1.69,3.9c1.39.85,3.8.91,5.86.42a7.88,7.88,0,0,0,1.79-.66c2.08-1.27,1.94-3.14,1.82-4.64s-.68-5.89-1-8.56a.3.3,0,0,1,.11-.33,2,2,0,0,0,.3-.37,1.32,1.32,0,0,0-.09-.85c-.4-.83-1.49-2.56-1.49-2.56a4.11,4.11,0,0,0-.34.37c-.95,1.16-.28,1.87-.17,2.69ZM33.8,123.16c.08.09.21.13.27.09s.24-.34.35-.59a7.76,7.76,0,0,0,.52-1.44c.09-.37-.1-7.23-.17-10.84a.33.33,0,0,1,.14-.33c.54-.51.77-.65.64-.94a19.13,19.13,0,0,1-1.1-1.83,3.11,3.11,0,0,0-.37-1c-.54-.74-.61-.69-1.06.15s0,1.47.27,2.3c.12.33.62,9,.61,10.41,0,1,0,2.07,0,2.69,0,0-.26,1.2-.1,1.37ZM10.15,109.08c.06.27.13.54.21.79.66,2.35.55,9.24.85,11.53,0,.23.07.45.11.65a2.39,2.39,0,0,0,1.6,1.79,5.05,5.05,0,0,0,1.64.09A2.45,2.45,0,0,0,16,122.74a6.73,6.73,0,0,0,.52-1.86,3.94,3.94,0,0,0-.52-1.81,8.87,8.87,0,0,0-.76-.93,2.59,2.59,0,0,0-.32.35,4.33,4.33,0,0,0-.4,1.54c.07.24.41.42.61.68a1.27,1.27,0,0,1,.18.79.6.6,0,0,1-.14.15,1.64,1.64,0,0,1-1.89,0c-1.72-1.29-1-7-1.72-12.09-.13-1.1-.24-1.92-.24-1.94a2,2,0,0,0-.44-.93.38.38,0,0,0-.43,0,.76.76,0,0,0-.14.22c-.4.83-.55.62-.2,2.12Zm39.08,5.36a.88.88,0,0,0,0,.17c0,.3.26.38.35.51.19.31-.14.75-.59,1.06a2.3,2.3,0,0,1-3-.1c-.39-.3-.75-.62-.75-.62s-.22.28-.38.51a2.18,2.18,0,0,0-.08,1.1c.62,1,2.5,3,2.25,3.58a8,8,0,0,1-2.69,1.92,7.6,7.6,0,0,1-2.72.72c-2.85.16-5.25-2.27-4.31-5.09a9.64,9.64,0,0,1,.46-1.1s.75-1.24.31-1.11a.27.27,0,0,0-.1.06A4.67,4.67,0,0,0,36.72,118c-1.1,3.14-.1,7,4,7.18.34,0,.72,0,1,0,2.18,0,4.19-1.44,5.64-2.91a3.12,3.12,0,0,0,.33-.43c1.55-3.21-.93-2.94,1.77-4.3l.58-.22,0,1.88c.08,2.58.61,5,3.92,4.87a4.19,4.19,0,0,0,2-.58,9.48,9.48,0,0,1,1.47-.85c.15,0,.24.23.4.4a3.31,3.31,0,0,0,1.16.62,5.1,5.1,0,0,0,3.44-.85,12.2,12.2,0,0,0,1.2-1.27s.07.14.18.33c.53,1,1.73,2.14,3,1.08.29-.25.56-.52.89-.42a1,1,0,0,1,.29.16,2.23,2.23,0,0,0,2.68,0c.18-.16.34-.29.45-.29s.2.1.32.21c1,1,1.59.23,2.21-.28a.54.54,0,0,1,.48-.11,1.62,1.62,0,0,1,.33.29,3.5,3.5,0,0,0,3.77.32c2.43-1.21,1.4-3.82.08-6.47a9.64,9.64,0,0,0-1.24-1.73c-.94-.89-1-.07-1,.52a3.64,3.64,0,0,0,0,.81,11.74,11.74,0,0,0,1.3,1.81c.47.59,1.44,2.71,1.21,3.13a.59.59,0,0,1-.18.17,2.85,2.85,0,0,1-3.26-.25l-.2-.21.2-.73c0-.12-.22-.54-.46-.12-.1.19-.2.49-.35.73a1.16,1.16,0,0,1-.26.29c-.45.4-1.29.85-1.78.28-.3-.34-.09-.7,0-1.08a1.26,1.26,0,0,0,0-.3c0-.09-.18-.09-.26,0s-.31.71-.52,1.06a1.27,1.27,0,0,1-1,.72c-1.29.18-1.6-.2-1.55-.8a4.09,4.09,0,0,1,.12-.66c.06-.28-.32-.42-.49-.11l-.32.52c-.81,1.19-2.16,1.48-2.95.59s-.61-1.15-1-2.25a10.76,10.76,0,0,0-1.24-2.52.55.55,0,0,0-.18,0c-.08,0-.1,0-.2.16-.47.7-.79,1-.64,1.45.05.13.14.28.22.44.38.71,1,2.9-.23,3.32a6.32,6.32,0,0,1-1.2.3c-.81.06-1.92,0-2.26-.9-.17-.46.32-.68.61-1.3a1.66,1.66,0,0,0-.09-1.57,2.44,2.44,0,0,0-.46-.46c-.92-.78-2.56-1.27-3.55,0-.42.53-1.17,1.8-.84,2s1,0,1.42.17,1.16,1,1,1.36c-.24.54-1.61.88-2.09.93-2,.18-3.17-.86-3.38-2.88-.11-1.06-.15-2.36-.26-3.47-.06-.65-.14-1.23-.22-1.76a2.81,2.81,0,0,0-.39-.74c-.64-.88-.9-.11-1.14,1.14Zm62.19-5.67a8.66,8.66,0,0,0,0,1.6c.07.49,2.76,5.29,3,6.1s-.57,1.42-2.12,2.88l-.06.06c-1.13,1.06-3.14,2.78-4.68,1.49a2.59,2.59,0,0,1-.33-.31,2,2,0,0,1-.13-2.36,7.27,7.27,0,0,1,.84-1.12c.27-.29.53-.5.76-.75,1.26-1.42,1-3.21,0-4.93a4.47,4.47,0,0,0-1.91-2c-1.14-.49-1.69.11-2.12,1s-.73,2.21-.15,3.07a1.18,1.18,0,0,0,1.31.46c.35,0,2.23-1,2.5,0a1.91,1.91,0,0,1-.06.94,16.74,16.74,0,0,1-2.12,2.15A33.71,33.71,0,0,1,96,122.67c-.16.06-.18.08-.18.13v.11s2.14-.19,3.54-.39,4-1.6,4.82-2.19a8.58,8.58,0,0,1,1.53-1.06c.12,0,.23,0,.36.14s.07.1.06.27L106,121h.06s0,0,.05.19c.24,1.78,1.53,2.41,3.19,2.1a5.49,5.49,0,0,0,2.74-1.61c1.2-1.13,3.07-3.18,3.07-3.18a28.74,28.74,0,0,0,.86,3,1.74,1.74,0,0,0,.77.87,1.4,1.4,0,0,0,2-.89l.16-.37c.18-.37.38-.18.77.14,1.43,1.19,2.54.85,3.92-.17a1.51,1.51,0,0,1,.6-.34c.3,0,1,.65,1.73.84a4.64,4.64,0,0,0,3.39-1c1.82-1.4,1.27-3.54.31-5.23a7.33,7.33,0,0,0-.73-1.14c-.86-1-1-.7-1.22,0a3.53,3.53,0,0,0-.1,1c0,.3.87,1.1,1.34,1.88a4.39,4.39,0,0,1,.57,1.59c-.27.75-2.91,1.38-3.44.82-.39-.41.42-.46.93-1.11a2,2,0,0,0,.34-1.35,3.27,3.27,0,0,0-.73-.49c-1.18-.66-3.51-1-4.8-.08a2,2,0,0,0-.83,1.23c-.07.34-.14.81-.14.81l.51.07c1.23.18,1.11.25,2,1.12l.16.16-.2.06c-1.32.64-2.5.87-3.62-.35a.78.78,0,0,1-.19-.3c-.13-.47.19-1.24.09-1.53a.22.22,0,0,0-.3-.08,1.49,1.49,0,0,0-.48.76c-.14.49,0,1-.18,1.44a1.18,1.18,0,0,1-.26.36c-.38.38-.9.76-1.31.14-.89-1.32-2.39-7.45-3.3-8.67-.6-1.11-1.24-2.14-1.54-2.8a.45.45,0,0,0-.32-.29,2.2,2.2,0,0,0-.38,0v.17Zm13.64,9.52c-.22.17-.43.08-.63-.15l-.07-.09c-.23-.35.18-.34.39-.27s.64.24.31.51ZM20.25,113.52a14.83,14.83,0,0,1,2.4,4.81,2,2,0,0,1,.07.69A5.46,5.46,0,0,1,21,121.58a1.55,1.55,0,0,1-2.41-.22,2.69,2.69,0,0,1-.26-.57,3.66,3.66,0,0,1,.11-2.46c.08-.21.51-.72-.08-.61l-.14,0s-.52,1.55-.7,2.45a3.54,3.54,0,0,0,.82,3.39c1,.89,2.37.52,3.43-.54a3.86,3.86,0,0,0,.78-1.24c.26-.66.63-2.21,1.15-1.55a.68.68,0,0,1,.13.26c.39,1.2.57,2.3,1.46,2.72a2.08,2.08,0,0,0,2.6-.4.55.55,0,0,1,.56-.27c.33,0,.79.24,1.21.34a6.62,6.62,0,0,0,2.6-.08c.66-.3.37-2.18,0-3A16.77,16.77,0,0,0,27.36,114l-.15-.09c-.62-.39-.86,0-.9.52a2.52,2.52,0,0,0,.05,1c.21.63.92.45.52,1.07a1,1,0,0,0-.08.11,5,5,0,0,0-.88,4.27,1.08,1.08,0,0,1-.08.44c-.06.08-.2,0-.32-.08a4.4,4.4,0,0,1-.38-.37c-.32-.38-2-5.07-3.12-7.5a10.8,10.8,0,0,0-1.3-2.09l0,0c-.54-.67-.78-.24-.88.15a2.34,2.34,0,0,0,.43,2.13Zm8.12,6.37-.05.09c-.34.52-.7.41-1.11,0s-.68-1-.33-1.51c.55-.87.93-.94,1.66-.11.41.46.27.88-.17,1.58Zm1.84-.66c.13.15.27.31.39.47.66.82,1,1.36-.2,1.31-.47,0-1.1-.11-1.18-.5.07-.4.57-2,1-1.28Zm67.94-9.53c-.46.12-1.13.11-1.33-.26a2.7,2.7,0,0,1-1.39.4,2,2,0,0,1-.52-2.8c0-.06.17,0,.27-.05.75.54-.36,1.38.66,1.85.27,0,.39-.21.61-.29a2.1,2.1,0,0,1,0-1.24.94.94,0,0,1,.55.16c.18.39-.41,1,.55,1.18.39,0,.43-.28.53-.46-.36-.41-.17-.84.14-1.18.29-.07.22.15.35.23,0,.85,1,1.86-.38,2.46Zm23.31,2.55h0s0,0,0,0a.23.23,0,0,0,.07.08.68.68,0,0,0,.63,0,6.13,6.13,0,0,0,1.88-.68l.15-.08.1-.08a1.54,1.54,0,0,0,.22-.2c0-.07,0-.1,0-.09s0,0,0,0a2.9,2.9,0,0,0,.42-.78s0,0,0,0,0,0,0-.06,0,0,0-.07h0v-.17h0v0h0V110a.72.72,0,0,0,0-.22h0s0,0,0-.05a.58.58,0,0,0-.18-.22s0,0,0,0h0s0,0-.07,0a1.5,1.5,0,0,0-.45-.12c-.07,0-.5,0-.59,0h-.17l-.65.13a.54.54,0,0,0-.14.18s-.23.52-.24.57,0,.13,0,.16l.08.08.67-.14.76,0c.18,0,.45.06.47.24a.18.18,0,0,1-.06.13,4.47,4.47,0,0,1-.78.45c-.18.09-1.5.64-2.25,1l0,0s0,0,0,0,.06,0,.08,0Zm-52.32,3h0s0,0,0,0a.21.21,0,0,0,.07.08c.16.14.38.1.62,0a6.1,6.1,0,0,0,1.89-.68.67.67,0,0,0,.14-.09l.11-.07.22-.2c0-.07,0-.1,0-.09l0,0a2.81,2.81,0,0,0,.42-.79s0,0,0,0,0,0,0-.05,0,0,0-.07l0,0h0v-.16h0v0h0a.78.78,0,0,0,0-.09.72.72,0,0,0,0-.22h0s0,0,0-.05a.59.59,0,0,0-.18-.22s0,0,0,0,0,0,0,0l-.07,0a2,2,0,0,0-.45-.11h-.59l-.17,0-.65.13a.57.57,0,0,0-.15.18s-.22.51-.23.57a.22.22,0,0,0,0,.16.38.38,0,0,0,.08.07l.67-.13.76,0c.18,0,.45.06.47.24a.18.18,0,0,1-.06.13,4.2,4.2,0,0,1-.79.45c-.17.09-1.49.64-2.24,1,0,0,0,0,0,0v0l.09,0Zm-23.15-5h0s0,0,0,0a.23.23,0,0,0,.07.08c.16.14.38.1.62,0a6.1,6.1,0,0,0,1.89-.68l.14-.08.11-.08a2.41,2.41,0,0,0,.22-.2c0-.07,0-.1,0-.09s0,0,0,0a2.81,2.81,0,0,0,.42-.79l0,0s0,0,0,0,0,0,0-.07h0v-.17h0v0h0a.78.78,0,0,0,0-.09.72.72,0,0,0,0-.22h0s0,0,0,0-.17-.22-.18-.22h0s0,0-.07,0a1.59,1.59,0,0,0-.45-.12c-.07,0-.5,0-.59,0H48l-.65.13a.57.57,0,0,0-.15.18s-.22.51-.23.57,0,.13,0,.16a.57.57,0,0,0,.08.08l.67-.14.76,0c.18,0,.45.06.47.24a.18.18,0,0,1-.06.13,4.47,4.47,0,0,1-.78.45c-.18.09-1.5.64-2.25,1,0,0,0,0,0,0v0l.09,0ZM26.15,108h0a0,0,0,0,1,0,0s0,.06.07.09.38.09.62,0a6.36,6.36,0,0,0,1.89-.68l.14-.09.11-.08a1.5,1.5,0,0,0,.22-.2c0-.07,0-.09,0-.08l0,0a3.48,3.48,0,0,0,.42-.79.08.08,0,0,0,0,0v-.06s0,0,0-.06l0,0h0v-.17h0v0h0v-.09a.51.51,0,0,0,0-.22h0s0,0,0,0-.17-.23-.18-.23h0s0,0,0,0,0,0-.06,0a2,2,0,0,0-.45-.12h-.59l-.17,0-.66.12a1.63,1.63,0,0,0-.14.18s-.22.52-.24.57a.33.33,0,0,0,0,.17l.08.07s.48-.11.67-.13.68,0,.75,0,.45.07.47.24a.13.13,0,0,1-.06.13,3.89,3.89,0,0,1-.78.46l-2.25,1s0,0,0,0v0l.09,0Zm23.26,15.77h0s0,0,0,0h0l0,0c-.17.19-.46.5-.51.58s-.41.55-.44.57a.41.41,0,0,1-.26.09,1.1,1.1,0,0,1-.51-.3A6,6,0,0,1,47,124c0-.07-.07-.24-.17-.2h0s-.23.25-.3.34-.66.95-.68,1a.15.15,0,0,0,0,.16,3.91,3.91,0,0,0,.62.87c.18.18.51.43.73.36a1,1,0,0,0,.32-.21c.11-.1.89-.95.89-.95l.44.51c0,.05.32.29.37.32a3.81,3.81,0,0,0,.41.2c.09,0,.18-.07.28-.19s.4-.49.62-.74a3.58,3.58,0,0,0,.27-.38.12.12,0,0,0,0-.15c-.06,0-.24-.09-.35-.14a2.63,2.63,0,0,1-.48-.42,6.39,6.39,0,0,1-.45-.53l0-.06s0,0,0,0Zm44-1.33h0s0,0,0,0a0,0,0,0,1,0,0h0s0,0,0,0c-.17.19-.46.5-.51.58l-.44.57a.41.41,0,0,1-.26.09,1.1,1.1,0,0,1-.51-.3,6,6,0,0,1-.56-.73c0-.07-.07-.24-.17-.2h0s-.23.25-.3.34-.66,1-.68,1a.15.15,0,0,0,0,.16,3.91,3.91,0,0,0,.62.87c.18.18.51.43.73.36a1.18,1.18,0,0,0,.32-.21c.11-.1.89-.95.89-.95s.26.32.44.51.32.29.36.32l.41.2c.1,0,.19-.07.29-.19s.4-.49.62-.74a3.58,3.58,0,0,0,.27-.38.13.13,0,0,0-.06-.15,3.27,3.27,0,0,0-.34-.14,2.63,2.63,0,0,1-.48-.42,6.39,6.39,0,0,1-.45-.53.21.21,0,0,1,0-.06l0,0ZM62.62,110.2h0s0,0,0,0,0,0,0,0h0s0,0,0,0c-.18.19-.46.51-.52.58l-.43.58a.53.53,0,0,1-.27.08,1.05,1.05,0,0,1-.5-.29,5.14,5.14,0,0,1-.56-.74c0-.07-.08-.23-.18-.2l0,0a4.34,4.34,0,0,0-.3.34c-.09.12-.66.94-.68,1a.15.15,0,0,0,0,.17,4.12,4.12,0,0,0,.61.87c.19.18.52.43.74.35a1,1,0,0,0,.32-.21c.1-.09.88-1,.88-1l.44.51a3.52,3.52,0,0,0,.37.32,2.55,2.55,0,0,0,.41.2c.09,0,.18-.07.28-.18s.4-.49.63-.75c0-.06.26-.35.27-.38a.14.14,0,0,0-.06-.15c-.06,0-.24-.09-.34-.14a2.06,2.06,0,0,1-.49-.41l-.45-.53,0-.07s0,0,0,0ZM127,107.46a10.9,10.9,0,0,0-.84,1.21c-.09.17-.07.18,0,.28a6.55,6.55,0,0,0,1.38,1.17c.37.24.47,0,.71-.26a5.58,5.58,0,0,0,.5-.65c.25-.37.28-.48-.12-.73a5.38,5.38,0,0,1-1.21-1c-.33-.46-.35-.1-.45-.05Zm-51.63,1.73a10.81,10.81,0,0,0-.83,1.21c-.09.17-.07.18,0,.28A6.81,6.81,0,0,0,76,111.85c.37.24.48,0,.72-.26s.35-.44.49-.65c.25-.37.28-.49-.12-.73a5.61,5.61,0,0,1-1.2-1c-.34-.46-.36-.11-.46,0Zm-34.33,8.38a13.53,13.53,0,0,0-.83,1.2c-.09.18-.07.19,0,.29a7.15,7.15,0,0,0,1.38,1.17c.37.24.48,0,.72-.26s.35-.44.5-.65c.24-.38.28-.49-.13-.73a5.87,5.87,0,0,1-1.2-1c-.34-.46-.36-.11-.46-.05Zm-26.69-4a10.9,10.9,0,0,0-.84,1.21c-.09.17-.07.18,0,.28A6.76,6.76,0,0,0,15,116.23c.38.24.48,0,.72-.26s.35-.44.5-.65c.24-.37.28-.49-.12-.73a5.38,5.38,0,0,1-1.21-1c-.33-.46-.36-.11-.45-.05Zm105.16,8.79a11.81,11.81,0,0,0-.84,1.2c-.09.18-.07.19,0,.28a6.82,6.82,0,0,0,1.37,1.18c.38.23.48,0,.72-.26s.35-.44.5-.66.28-.48-.12-.72a6,6,0,0,1-1.21-1c-.33-.46-.36-.11-.45,0ZM68.25,104c-1.93.65-9.57,3.27-9.83,3.47-.42.43-.64.7-.51.9s.45,0,.59-.08l8-2.73c1-.33,2-.71,2.16-1.52,0-.1-.18-.12-.41,0Zm13.89,0c-1.92.65-9.57,3.27-9.82,3.47-.42.43-.64.7-.51.9s.44,0,.59-.08l8-2.73c1-.33,2-.71,2.17-1.52,0-.1-.19-.12-.42,0Zm47.73-.91c.1-.19-.05-.25-.16-.2l-5.34,2.55c-.84.43-2,.75-2.11,1.82l.13,0,7.06-3.39c.28-.27.26-.47.42-.81Zm-18.5-.16c.11-.19,0-.25-.16-.2l-5.34,2.56c-.84.42-2,.75-2.11,1.81l.14,0,7.06-3.39c.28-.27.25-.47.41-.81Zm-10.53-.11c.1-.17,0-.23-.15-.18L95.81,105c-.77.39-1.87.68-1.93,1.66l.12,0,6.46-3.1c.26-.25.23-.43.38-.74Zm-12.76,4.52c.1-.18,0-.24-.14-.19l-4.89,2.34c-.77.39-1.86.69-1.93,1.66l.12,0,6.47-3.1c.25-.25.23-.43.37-.74Zm17.07,13.85c.09-.17-.05-.23-.15-.18l-4.88,2.34c-.78.39-1.87.68-1.94,1.66l.12,0,6.47-3.1c.25-.25.23-.43.38-.74Zm-45.6,3.49c-.14-.1-.35,0-.47,0-.56.19-5,1.61-5,1.61a3,3,0,0,0-.54.33c-.33.3-.58.73-.2.67,1.77-.62,3.73-1.2,5.58-1.81.29-.23.79-.51.65-.85Zm-23.12-1c-.14-.1-.35,0-.47,0-.56.19-5,1.61-5,1.61a2.52,2.52,0,0,0-.54.33c-.33.3-.58.73-.2.67,1.77-.62,3.73-1.21,5.57-1.82.3-.22.8-.5.66-.84ZM21.06,104.6c-1.52.65-7.58,3.27-7.78,3.46-.33.44-.51.71-.41.91s.36,0,.47-.08l6.34-2.73c.8-.33,1.58-.71,1.71-1.52,0-.1-.14-.12-.33,0Zm16.21,8.87-.15.11c-.59.43-.24.51.1.41a15.89,15.89,0,0,0,6.38-3.81l.15-.16a2.89,2.89,0,0,1,.27-.26c.07,0,.23.12.37.25a3,3,0,0,1,.3.35s0,.1.09.07l0,0a1,1,0,0,0,.18-1.49l-.15-.21s0,0,0,0a1.63,1.63,0,0,1,0-.18c.26-.91.44-2.31-.63-2.88a.83.83,0,0,0-.47-.12,1.41,1.41,0,0,0-.56.23,2.71,2.71,0,0,0-.24.24c0,.08-.3.49-.33.56a5.33,5.33,0,0,0-.32,1.49,1.76,1.76,0,0,0,.4,1,1.84,1.84,0,0,0,.22.17l.34.17-.23.22c-.1.1-1,.87-1.16,1l-.25.17c-1.1.75-3.43,2.12-4.37,2.82Zm7-5.17h0a2.28,2.28,0,0,1-.28-.22c-.07,0-.5-.2-.7-.29-.56-.26-.15-.81.21-.86a.43.43,0,0,1,.16,0,1,1,0,0,1,.82,1.06.7.7,0,0,1-.13.29l0,0Zm-19.72,15c-.14-.1-.35,0-.47.05-.56.19-5,1.61-5,1.61a3,3,0,0,0-.54.33c-.33.3-.58.73-.2.67,1.77-.62,3.73-1.2,5.57-1.81.3-.23.8-.51.66-.85Zm92.62-12.6c-.88.33-1.17.31-2,.61,1.68-1.12,3.17-2.69,4.78-4a2.75,2.75,0,0,1-.88-.79A3,3,0,0,1,120,104c.61-.09,1.21.59,1.57,1.16.25,2.64-3,4.44-4.36,5.56Zm3.68-4.66c-.46,0-1,0-1.18-.47v-.2c.53-.32,1,0,1.18.67Zm-9.31,1.72c-.88.26-1.17.25-2,.49,1.68-.9,3.17-2.16,4.78-3.22a2.57,2.57,0,0,1-.88-.63,2.13,2.13,0,0,1,.92-2,1.94,1.94,0,0,1,1.56.92c.26,2.13-3,3.57-4.35,4.47Zm3.67-3.74c-.45,0-1,0-1.17-.38v-.16a.81.81,0,0,1,1.18.54Zm-61.08,1.14a3,3,0,0,1,1.44,1.74c.18-.25.12-.35.33-.63.37-.48.22-.36.59-.68a.69.69,0,0,1,.82,0,.49.49,0,0,1,.15.55,2.52,2.52,0,0,1-.93,1.14.59.59,0,0,0-.08-.47c-.52.22-.62,1.17-1.15,1.65a.12.12,0,0,1-.19-.07,2.09,2.09,0,0,0-.74-1.06,4.81,4.81,0,0,1-1.57,1.61,4.46,4.46,0,0,1-2.08,1c-.28,0-.34-.3-.12-.44a9.81,9.81,0,0,0,3.05-2.13c.08-.13.26-.28.26-.36a1.6,1.6,0,0,0-.58-.54,7.64,7.64,0,0,1,.8-1.25ZM85,118c.62-.07,2.76-.34,3.27-.47a2.68,2.68,0,0,0,1-.41,1.89,1.89,0,0,0,.14-.19c0-.06.31-.83.32-.9a.7.7,0,0,0-.08-.49.31.31,0,0,0-.06-.13,1.94,1.94,0,0,0-.23-.29,4.87,4.87,0,0,0-.47-.32,1.5,1.5,0,0,0-.7-.17s-.9.19-1.39.31c-.11,0-.93.16-1,.17a1.43,1.43,0,0,1-.68-.07C85,115,85,115,85,115a5.5,5.5,0,0,1,.42-.44,3.59,3.59,0,0,1,.54-.35,4.19,4.19,0,0,1,.55-.24,1.67,1.67,0,0,1,.29-.06c.06,0,.12.06.17.06s.22-.12.29-.24a1,1,0,0,0,.16-.84c-.09-.23-.29-.17-.58-.06l-.24.1c-.13,0-.66.33-.75.38a3,3,0,0,0-.71.63,2.53,2.53,0,0,0-.7,1.19c-.15.49-.23.82.15,1a1.74,1.74,0,0,0,1.22.12c.35-.06,1.93-.43,2-.44a.92.92,0,0,1,.37,0,2.46,2.46,0,0,1,.36.14,1.64,1.64,0,0,1,.33.26s0,0,0,.06a1,1,0,0,1-.27.11c-.07,0-1.55.27-1.87.31-1,.14-1.77.31-2.58.37l-1,0c-.2-.06-.46-.16-.58.08,0,.09.06.24.15.32s.57.41.63.45a1,1,0,0,0,.38.12A5.91,5.91,0,0,0,85,118Zm16,.85a.27.27,0,0,0,.26.06c.11,0,.22-.29.31-.49a5.83,5.83,0,0,0,.44-1.18c.07-.3-.35-5.82-.54-8.73,0-.14,0-.16.12-.26.49-.44.7-.56.57-.78a16.7,16.7,0,0,1-1.1-1.44c-.14-.29-.1-.52-.38-.82-.54-.58-.6-.53-1,.16s0,1.19.33,1.84c.12.26.9,7.22.94,8.37,0,.8.06,1.66.09,2.16,0,0-.21,1,0,1.11ZM99,62.42a45.19,45.19,0,0,1,1.74,6.87.57.57,0,0,1-.31.64,1.87,1.87,0,0,1-1.9-.3,3.34,3.34,0,0,1-1.24-1.92c-.17-.92-.32-1.84-.46-2.76-.29-1.44-.63-2.88-1-4.3a.21.21,0,0,0-.2-.15.19.19,0,0,0-.19.15l-.39.83a2.33,2.33,0,0,0,.16.94,18.65,18.65,0,0,1,1,5.93,2.66,2.66,0,0,1-.89,1.77,1.58,1.58,0,0,1-2-.15,2.75,2.75,0,0,1-1-2.15c-.07-1.35-.16-2.7-.27-4a12.74,12.74,0,0,0-.5-1.59.58.58,0,0,0-.78-.07,3.75,3.75,0,0,0-1.12,2.07A26.54,26.54,0,0,0,89,67.93a5.89,5.89,0,0,1-.62,2.64,1,1,0,0,1-.78.7,1,1,0,0,1-1-.32,6.84,6.84,0,0,1-1.78-3l-.15-.34-.23.23a8.19,8.19,0,0,0,1.35,4,2,2,0,0,0,1.59,1.14,2.29,2.29,0,0,0,1.47-1,9.28,9.28,0,0,0,.65-3.21A19.36,19.36,0,0,1,90,64.91c.12-.27.24-.53.38-.79a.4.4,0,0,1,.32,0,.35.35,0,0,1,.22.21,2.32,2.32,0,0,1,.27,1.32c.12,1.18.22,2.36.31,3.55a4,4,0,0,0,1.2,2.6,1.76,1.76,0,0,0,2.24,0,2.63,2.63,0,0,0,1.13-1.58.46.46,0,0,1,.4-.38.48.48,0,0,1,.49.27,2.14,2.14,0,0,0,1.31,1.54,2.84,2.84,0,0,0,2.13-.34,2.6,2.6,0,0,0,.77-1.35,4.83,4.83,0,0,0,.27-2.38L101,65.06a.33.33,0,0,1,0-.33.38.38,0,0,1,.29-.2l.46.12a.26.26,0,0,0,.23-.18.29.29,0,0,0-.07-.28c-.6-1.12-1.25-2.21-1.94-3.28a.3.3,0,0,0-.26-.25.31.31,0,0,0-.32.17l-.38,1a.92.92,0,0,0,0,.57Zm-16.5-.8,1.27,2.58a3.2,3.2,0,0,0,.82,1,.75.75,0,0,1,.29.53.68.68,0,0,1-.18.56,41.69,41.69,0,0,1-12.21,6.58.22.22,0,0,0,.05.28.23.23,0,0,0,.29,0,3.15,3.15,0,0,1,1,0,29.68,29.68,0,0,0,4.57-1A19.62,19.62,0,0,0,84.86,68a2.93,2.93,0,0,0,1-2.11,3.82,3.82,0,0,0-.6-2.25l-.56-.55a.54.54,0,0,1,.08-.65l.3,0a.24.24,0,0,0,.29-.12.24.24,0,0,0-.07-.31,6.81,6.81,0,0,0-2.2-1.86.29.29,0,0,0-.27,0,.28.28,0,0,0-.17.21l-.26.59a.87.87,0,0,0,0,.69ZM67.25,62.89A5.12,5.12,0,0,0,65.65,65a3.41,3.41,0,0,0,.67,3.56,7,7,0,0,0,4.39,1.49A24.66,24.66,0,0,0,77,68.92a8.28,8.28,0,0,0,3.94-2.36,1.55,1.55,0,0,0-.07-2,4.36,4.36,0,0,0-2-1.3.45.45,0,0,0-.45.18l-.15,1a.81.81,0,0,0,.45.4,2.45,2.45,0,0,1,1.19.94A.32.32,0,0,1,80,66a.3.3,0,0,1-.23.26,20.91,20.91,0,0,1-5.5,1.82,9.83,9.83,0,0,1-5.66-.18,3.68,3.68,0,0,1-2-1.6,2,2,0,0,1-.19-2,5.6,5.6,0,0,1,1.12-1.16.19.19,0,0,0,0-.27.2.2,0,0,0-.28,0Zm1.64,5.3a3.8,3.8,0,0,0,.67-2.47l-.71-8.5a5.21,5.21,0,0,0-.67-1.64.63.63,0,0,1,0-.58l.7-1a.45.45,0,0,1,.32,0,.39.39,0,0,1,.24.21,28.49,28.49,0,0,1,1.27,2.95.38.38,0,0,1-.08.51l-.37.14a.44.44,0,0,0-.15.55,47.89,47.89,0,0,1,.52,7.08A3.24,3.24,0,0,1,70,67.1l-.9,1.2-.22-.11ZM62.71,56.75a4,4,0,0,1,.4,2,83.74,83.74,0,0,1,.59,9.89,1.17,1.17,0,0,1-.44,1.11,2.42,2.42,0,0,1-2.58-.24,1.13,1.13,0,0,1,0-.68l.39-.49a.92.92,0,0,0-.19-1.11A3.45,3.45,0,0,0,57.4,67l-.59,1.21a.45.45,0,0,0,.34.34,1.88,1.88,0,0,1,1.89.92.67.67,0,0,1-.25.68,3.34,3.34,0,0,1-3.12-.39A2.23,2.23,0,0,1,55,68.28L53.63,55a.24.24,0,0,0-.12-.31.27.27,0,0,0-.33.06l-.64.83a3.29,3.29,0,0,0,.05.77l1,8a.92.92,0,0,1-.1.88L51.3,66.87a2.19,2.19,0,0,0-1,1.41v1a.42.42,0,0,1-.7.33A2.65,2.65,0,0,1,48.62,68a18.16,18.16,0,0,1,0-2.76,9.4,9.4,0,0,0-.4-3.25.37.37,0,0,0-.34-.17.35.35,0,0,0-.3.22l-.1.43a1,1,0,0,0,.05.88,1.22,1.22,0,0,1-.25,1,2.4,2.4,0,0,1-1,.67.58.58,0,0,1-.46.11.61.61,0,0,1-.39-.25l-1.24-1.46a.3.3,0,0,0-.26,0,.27.27,0,0,0-.18.19l-.3,1.11a4.48,4.48,0,0,0,.2.88,11.69,11.69,0,0,1,1.54,2.56,1.3,1.3,0,0,1,0,1A11.4,11.4,0,0,1,41,71.86a3.72,3.72,0,0,1-3.53-.14,3.71,3.71,0,0,1-2.28-2.62,2.93,2.93,0,0,1,.15-2.23,7.14,7.14,0,0,1,2.08-3,.27.27,0,0,0-.16-.22.31.31,0,0,0-.28,0,7,7,0,0,0-2.68,5,4.27,4.27,0,0,0,2,4.31,5,5,0,0,0,5.76,0,15.43,15.43,0,0,0,3.52-2.86,3.23,3.23,0,0,0,.4-2.86,1,1,0,0,1,.2-.68l1-.82a.42.42,0,0,1,.33,0,.41.41,0,0,1,.22.23,9.94,9.94,0,0,0,.09,3.44,3.28,3.28,0,0,0,1.79,2.23,3.36,3.36,0,0,0,2.78-.39,5.57,5.57,0,0,0,.3-.77l.15-1a.4.4,0,0,0-.1-.31.43.43,0,0,0-.3-.13L51.6,69a.54.54,0,0,1-.47-.33.51.51,0,0,1,.12-.55L53,66.87a.39.39,0,0,1,.37-.12.36.36,0,0,1,.27.27,11.31,11.31,0,0,0,.7,3.29A3.24,3.24,0,0,0,57,72a2.9,2.9,0,0,0,2-.83.7.7,0,0,1,.56-.32.68.68,0,0,1,.58.28,2.35,2.35,0,0,0,2.93.34,3.26,3.26,0,0,0,1.79-3l-.5-9.4.4-.48a.52.52,0,0,0,.33-.36.49.49,0,0,0-.14-.47,10.52,10.52,0,0,0-1.38-2.66.4.4,0,0,0-.37-.11.39.39,0,0,0-.28.25l-.35.49a.85.85,0,0,0,.1,1ZM29,57.72A65.49,65.49,0,0,1,29.73,68a2.66,2.66,0,0,1-.23,1.27,1.9,1.9,0,0,1-.73.45,3.7,3.7,0,0,1-1.1.1,4.15,4.15,0,0,0-2.1,0,13,13,0,0,0-5,2.8,5,5,0,0,1-1.63,1.24,1.25,1.25,0,0,1-1.6-.49,1.92,1.92,0,0,1-.1-1.76,17.42,17.42,0,0,1,1.47-2.5l-.93.61c-.48,1-.93,1.91-1.37,2.87A2.45,2.45,0,0,0,17,75.09a2.57,2.57,0,0,0,2.26.13,13.41,13.41,0,0,0,1.27-1,8.92,8.92,0,0,1,4-2.6,6.63,6.63,0,0,1,3-.42,3,3,0,0,0,2.4-.85,5.05,5.05,0,0,0,.9-2.73l-.43-7.15a.73.73,0,0,1,.23-.59l.3-.23a.35.35,0,0,0,0-.39A9.2,9.2,0,0,1,30,56.39a.33.33,0,0,0-.22-.21.31.31,0,0,0-.31,0l-.3.81a3.31,3.31,0,0,0-.2.68Zm-6.93,6.6.7.3a.54.54,0,0,0,.45,0,.5.5,0,0,0,.28-.34l0-.81a.58.58,0,0,0-.7-.36,3,3,0,0,0-.9.42.55.55,0,0,0-.14.44.52.52,0,0,0,.27.37Zm2.27-1.13a2.1,2.1,0,0,1,.26,1.3,3,3,0,0,1-.83,1.43.82.82,0,0,1-.86.23l-1.74-.69a1.25,1.25,0,0,0-.53-.19.79.79,0,0,0-.6.29,1,1,0,0,0,0,.72,1.79,1.79,0,0,1-.23,2,15.66,15.66,0,0,1-6,3.42A4.81,4.81,0,0,1,10.15,71a4.07,4.07,0,0,1-1.53-2.6,6.34,6.34,0,0,1,.26-2.77,7,7,0,0,1,2.2-2.89.21.21,0,0,1,.27,0,.21.21,0,0,1,.1.25,23.46,23.46,0,0,0-1.6,2,3.58,3.58,0,0,0,.5,4,3.85,3.85,0,0,0,4,1.2,9.67,9.67,0,0,0,4.33-2.41.44.44,0,0,0,.14-.61l-2.27-2.54a.83.83,0,0,1-.17-.78l.4-.81a.3.3,0,0,1,.19-.22.32.32,0,0,1,.28,0l1.1,1.3a1.71,1.71,0,0,0,2.16-.48,2.74,2.74,0,0,1,1.3-.95L24,61.82l.4-.23a.24.24,0,0,0-.06-.32,20.41,20.41,0,0,0-3.23-1.17,1.51,1.51,0,0,0-1.34.16l-.7.39a.18.18,0,0,1-.11.1.2.2,0,0,1-.15,0,.2.2,0,0,1-.11-.11.19.19,0,0,1,0-.15,5,5,0,0,1,1-1.3,2.24,2.24,0,0,1,2.17-.39,21,21,0,0,0,6.72,2,.37.37,0,0,1,0,.45l-.33.33a1.54,1.54,0,0,1-.9.39,4.7,4.7,0,0,0-2.8.52.6.6,0,0,0-.26.72Zm72.59-3.53c-.49.12-1.19.11-1.41-.28a2.89,2.89,0,0,1-1.47.43,2.11,2.11,0,0,1-.55-3c0-.07.18-.06.28-.06.8.57-.37,1.46.71,2,.28,0,.41-.22.64-.31a2.34,2.34,0,0,1,0-1.31.91.91,0,0,1,.58.17c.19.41-.44,1.11.58,1.25.42,0,.46-.31.56-.49-.38-.44-.18-.89.15-1.25.31-.07.23.16.37.24,0,.91,1,2-.4,2.61ZM123.5,57.4c-3.46,1.05-7,1.93-10.66,2.69a6.81,6.81,0,0,1,.56-.9c2.81-.68,7.54-1.84,10.27-2.63.34.11,0,.67-.17.84ZM89.23,55.18q-5.07,1.53-10.43,2.63a7.7,7.7,0,0,1,.55-.88c2.75-.67,7.38-1.8,10.05-2.57.34.11,0,.65-.17.82ZM18.44,57.81h0s0,0,0,0,0,0,.06.07.33.09.54,0a5.45,5.45,0,0,0,1.64-.59l.13-.08.09-.07a1.15,1.15,0,0,0,.19-.17c0-.06,0-.08,0-.08s0,0,0,0a2.83,2.83,0,0,0,.37-.69,0,0,0,0,0,0,0v0s0,0,0-.06v0h0V56h0v0h0v-.08a.58.58,0,0,0,0-.19h0s0,0,0,0-.15-.19-.16-.19h0s0,0-.06,0a1.86,1.86,0,0,0-.39-.1h-.66l-.57.11a.55.55,0,0,0-.12.16,4.4,4.4,0,0,0-.21.5.22.22,0,0,0,0,.14l.07.06s.41-.09.58-.11.59,0,.66,0,.39,0,.41.21a.14.14,0,0,1-.06.11,4.32,4.32,0,0,1-.68.4l-1.95.83s0,0,0,0a0,0,0,0,0,0,0l.07,0ZM77.16,59.1c-.49.12-1.2.11-1.42-.28a2.74,2.74,0,0,1-1.47.43,2.11,2.11,0,0,1-.55-3c0-.07.19,0,.29,0,.8.57-.38,1.45.7,1.95.29,0,.41-.22.64-.3a2.28,2.28,0,0,1,0-1.32,1,1,0,0,1,.58.17c.19.41-.44,1.11.58,1.25.41,0,.46-.3.55-.48a.89.89,0,0,1,.15-1.26c.31-.07.24.16.37.25,0,.9,1,2-.39,2.6ZM27.54,59c-.46.11-1.12.1-1.32-.27a2.64,2.64,0,0,1-1.38.41,2,2,0,0,1-.51-2.77c.05-.07.17,0,.26,0,.75.53-.35,1.36.66,1.82.27,0,.39-.2.6-.28a2.15,2.15,0,0,1,0-1.23.81.81,0,0,1,.54.16c.18.38-.41,1,.54,1.17.39,0,.43-.29.53-.46-.36-.41-.17-.83.13-1.17.29-.07.23.15.35.23,0,.84.95,1.84-.37,2.44ZM44.6,60.71h0s0,0,0,0l.07.09c.17.15.41.1.67,0a6.65,6.65,0,0,0,2-.72l.15-.09.11-.08a2.62,2.62,0,0,0,.23-.21c0-.07,0-.1,0-.09l0,0a3.33,3.33,0,0,0,.44-.84s0,0,0,0,0,0,0-.06,0,0,0-.07l0,0h0v-.18h0v0h0v-.09a.79.79,0,0,0,0-.23h0s0,0,0,0-.18-.24-.19-.24h0s0,0,0,0,0,0-.07-.05a2,2,0,0,0-.47-.12h-.63l-.18,0-.69.13a.63.63,0,0,0-.15.19s-.24.55-.25.6,0,.14,0,.17a.28.28,0,0,0,.08.08l.7-.14.81,0c.19,0,.47.07.49.26a.15.15,0,0,1-.06.13,4.14,4.14,0,0,1-.83.48l-2.38,1s0,0,0,0v0l.09,0Zm14.55-5.3h0s0,0,0,0a.28.28,0,0,0,.08.09c.16.14.4.1.66,0a6.65,6.65,0,0,0,2-.72l.15-.09.11-.08a2.75,2.75,0,0,0,.23-.21c0-.08,0-.11,0-.1l0,0a3.26,3.26,0,0,0,.44-.83l0,0s0-.05,0-.07,0,0,0-.06l0,0h0v-.18h0v0h0v-.09a.86.86,0,0,0,0-.24h0s0,0,0,0a.67.67,0,0,0-.19-.24h0s0,0,0,0l-.07,0a1.63,1.63,0,0,0-.47-.12c-.07,0-.53,0-.63,0l-.18,0a6.94,6.94,0,0,0-.69.14.83.83,0,0,0-.15.19,6.32,6.32,0,0,0-.25.6s0,.14,0,.17a.57.57,0,0,0,.08.08s.51-.12.71-.14c0,0,.72,0,.8,0s.47.06.49.25a.15.15,0,0,1-.06.14,4.68,4.68,0,0,1-.83.48l-2.38,1s0,0,0,0v0s.07,0,.09,0Zm51.14,2.77h0s0,0,0,0l.07.09c.17.15.41.1.67.05a6.49,6.49,0,0,0,2-.72l.16-.1.11-.08a2.62,2.62,0,0,0,.23-.21c0-.07,0-.1,0-.09l0,0a3.19,3.19,0,0,0,.45-.84s0,0,0,0,0,0,0-.06,0,0,0-.07l0,0h0v-.17h0v0h0v-.1a.79.79,0,0,0,0-.23h0s0,0,0,0-.18-.24-.19-.24h0v0s0,0-.07,0a1.65,1.65,0,0,0-.47-.13h-.63l-.18,0-.69.13a.79.79,0,0,0-.15.19,6.5,6.5,0,0,0-.25.61.25.25,0,0,0,0,.17l.08.08s.51-.12.71-.14c0,0,.72,0,.8,0s.48.07.5.26a.14.14,0,0,1-.06.13,4.14,4.14,0,0,1-.83.48l-2.38,1s0,0,0,0a0,0,0,0,0,0,0l.09,0Zm10.38-2.56h0s0,0,0,0a.36.36,0,0,0,.07.09.75.75,0,0,0,.66,0,6.46,6.46,0,0,0,2-.72l.15-.09.12-.09a2.75,2.75,0,0,0,.23-.2c0-.08,0-.11,0-.1s0,0,0,0a3.28,3.28,0,0,0,.45-.83.09.09,0,0,0,0-.05s0,0,0-.06,0,0,0-.06l0,0h0v-.18h0v0h0v-.1a.79.79,0,0,0,0-.23h0a.07.07,0,0,1,0,0,.79.79,0,0,0-.18-.24h0v0l-.07,0a1.63,1.63,0,0,0-.47-.12H123l-.18,0-.69.13a.86.86,0,0,0-.15.2,6.32,6.32,0,0,0-.25.6.25.25,0,0,0,0,.17.57.57,0,0,0,.08.08s.51-.12.71-.14a7.4,7.4,0,0,1,.8,0c.2,0,.48.06.5.25a.15.15,0,0,1-.06.14,4.68,4.68,0,0,1-.83.48l-2.38,1s0,0,0,0a0,0,0,0,0,0,0s.07,0,.09,0Zm-20.8,3.17-.17.08c-.64.3-.33.45,0,.4a15.42,15.42,0,0,0,6.81-2.46l.17-.12a1.41,1.41,0,0,1,.32-.2c.07,0,.19.15.3.3a2.67,2.67,0,0,1,.22.39s0,.11.07.09l0,0a1,1,0,0,0,.46-1.4,1.51,1.51,0,0,0-.11-.22.06.06,0,0,1,0-.06l.08-.15c.42-.83.87-2.13,0-2.86a.83.83,0,0,0-.43-.21,1.21,1.21,0,0,0-.58.12,1.93,1.93,0,0,0-.27.19,6.29,6.29,0,0,0-.43.47,5,5,0,0,0-.59,1.36,1.65,1.65,0,0,0,.2,1,1.06,1.06,0,0,0,.17.2l.29.22-.26.17c-.12.08-1.17.64-1.29.69l-.27.12c-1.19.52-3.67,1.4-4.7,1.89Zm7.68-3.64,0,0c-.09-.09-.14-.18-.23-.26s-.43-.28-.6-.41c-.49-.34,0-.8.37-.78l.14,0a1,1,0,0,1,.59,1.16.83.83,0,0,1-.19.26l0,0ZM13,65.13a13.24,13.24,0,0,0-.89,1.27c-.09.19-.07.2,0,.3A7.35,7.35,0,0,0,13.63,68c.39.24.51,0,.76-.28s.37-.46.53-.69c.26-.4.29-.51-.13-.77a5.79,5.79,0,0,1-1.28-1c-.35-.49-.38-.11-.48-.05Zm26.77.6A13.24,13.24,0,0,0,38.91,67c-.09.19-.07.2,0,.3a7.08,7.08,0,0,0,1.46,1.25c.39.24.5,0,.76-.28a7.76,7.76,0,0,0,.52-.69c.26-.4.3-.51-.13-.77a6,6,0,0,1-1.27-1c-.36-.49-.38-.11-.48,0ZM69.18,71a12.22,12.22,0,0,0-.89,1.28c-.09.18-.07.2,0,.3a7.34,7.34,0,0,0,1.46,1.24c.39.25.5,0,.76-.28a7.76,7.76,0,0,0,.52-.69c.27-.39.3-.51-.13-.77a6.25,6.25,0,0,1-1.27-1c-.35-.49-.38-.12-.48-.06ZM58.46,63a.75.75,0,0,0,0,.51c0,.15.14.12.24.06a2.86,2.86,0,0,0,.61-1.51c.59-3.85-.19-5.16-.64-5.71s-.45-.26-.56.07c-.47,1.38-.18,1.16.09,1.55.88,1.15.6,4.31.3,5Zm-42-1.62a.72.72,0,0,0,0,.5c.05.16.14.12.24.06a2.86,2.86,0,0,0,.61-1.51c.59-3.85-.19-5.16-.64-5.7s-.45-.26-.56.06c-.47,1.38-.18,1.16.09,1.55.88,1.15.6,4.31.3,5Zm78.34-5a.25.25,0,0,0,0,.26c0,.08.12.06.2,0,.24-.09.41-.45.52-.78.49-2-.16-2.65-.54-2.94s-.38-.13-.47,0c-.39.71-.15.59.08.79.73.6.5,2.22.24,2.6ZM32.09,74,33,72.89a3.52,3.52,0,0,0,.64-2.33,42.41,42.41,0,0,0-.08-9.88,1.18,1.18,0,0,1,.24-.89,1.12,1.12,0,0,0,0-.7,5.73,5.73,0,0,1-.89-2.69.19.19,0,0,0-.15-.11.21.21,0,0,0-.17.06l-.4.77a2.75,2.75,0,0,0-.14.85,80.91,80.91,0,0,1,.36,13.92,3,3,0,0,1-.31,1.38l-.44.72a.19.19,0,0,0,.08.2.2.2,0,0,0,.21,0l.13-.16Zm-2.15-1a.2.2,0,1,0-.39,0c-.23.8-.69,0-1.43.25-1.5.52-1.46.92-2.2,1.43-.15.22-.05.29.1.35a10.71,10.71,0,0,1,1.88-1c.37-.08.62.27,1,.11a2,2,0,0,0,1-1.21Zm17.84-.92h0s0,0,0,0,0,0,0,0h0s0,0,0,0c-.18.2-.49.54-.54.62s-.44.58-.47.6a.45.45,0,0,1-.28.1,1.2,1.2,0,0,1-.53-.32,5.71,5.71,0,0,1-.59-.78c0-.07-.08-.25-.19-.21l0,0a3.1,3.1,0,0,0-.31.35c-.11.14-.7,1-.72,1a.14.14,0,0,0,0,.17,3.63,3.63,0,0,0,.65.92c.2.19.54.46.78.38a1.52,1.52,0,0,0,.34-.22c.11-.1.93-1,.93-1l.47.54a4,4,0,0,0,.39.34,3.34,3.34,0,0,0,.43.21c.1,0,.19-.07.3-.19s.43-.52.66-.79c.06-.07.28-.38.29-.4a.17.17,0,0,0-.06-.17c-.07,0-.25-.09-.37-.14a2.55,2.55,0,0,1-.51-.44,6.66,6.66,0,0,1-.47-.56.16.16,0,0,1,0-.07s0,0,0,0ZM45.36,54.3c-1.62.69-8,3.46-8.24,3.67-.35.46-.54.75-.43,1s.38,0,.5-.08l6.7-2.9c.86-.35,1.68-.75,1.82-1.61,0-.1-.16-.13-.35,0Zm86.58-1.81c-.11-.11-.26,0-.36,0-.42.2-3.82,1.7-3.82,1.7a2.25,2.25,0,0,0-.41.36c-.25.31-.44.77-.15.7,1.35-.66,2.84-1.27,4.24-1.92.23-.23.61-.54.5-.89ZM92.17,71.93c-.11-.11-.26,0-.36.06-.42.2-3.82,1.7-3.82,1.7a1.62,1.62,0,0,0-.4.35c-.26.32-.45.77-.16.71,1.35-.66,2.84-1.28,4.24-1.92.23-.24.61-.54.5-.9Zm9.36-.11c-.11-.11-.27,0-.36.05l-3.82,1.7a1.91,1.91,0,0,0-.41.35c-.26.32-.44.78-.15.71,1.34-.66,2.84-1.28,4.24-1.92.22-.24.6-.54.5-.89ZM67.6,71.26c-.11-.11-.26,0-.36,0-.42.2-3.82,1.7-3.82,1.7a2.25,2.25,0,0,0-.41.36c-.25.31-.44.77-.15.7,1.35-.65,2.84-1.27,4.24-1.92.23-.23.61-.53.5-.89ZM55.25,72.43c-.11-.11-.26,0-.36,0-.43.21-3.82,1.7-3.82,1.7a2.25,2.25,0,0,0-.41.36c-.25.31-.44.77-.15.7,1.35-.65,2.84-1.27,4.24-1.92.23-.23.61-.53.5-.89Zm.54-21c-1.62.75-8,3.72-8.24,4-.35.5-.54.8-.43,1s.38,0,.5-.09l6.7-3.12c.86-.37,1.68-.8,1.82-1.73,0-.11-.16-.13-.35,0Zm-19.65,2c-.11-.11-.26,0-.36,0L32,55.18a2.25,2.25,0,0,0-.41.36c-.25.31-.44.77-.15.7,1.35-.65,2.84-1.27,4.24-1.92.23-.23.61-.53.5-.89Zm-6.86-.2c-.14-.11-.35,0-.47.05-.56.21-5,1.7-5,1.7a2.67,2.67,0,0,0-.54.36c-.33.31-.58.77-.2.7,1.77-.65,3.73-1.27,5.57-1.92.29-.23.79-.53.65-.89ZM15.65,73.6c-.14-.11-.35,0-.47.05-.56.2-5,1.7-5,1.7a2.85,2.85,0,0,0-.53.35c-.34.32-.58.78-.2.71,1.76-.66,3.72-1.28,5.56-1.92.3-.24.8-.54.66-.89Zm115.88-5c0-.86.05-1.85.05-2.75,0-3.06-.26-5.13-.26-6.75a1.19,1.19,0,0,1,.11-.67c.09-.12.25-.15.35-.23a.62.62,0,0,0,.08-.55,18.23,18.23,0,0,0-1.45-2.86.48.48,0,0,0-.49,0c-.57.81-.35,1.8-.12,3.55.21,1.58.5,14.91.5,14.91s.19-.23.37-.49c1-1.41.81-2.5.86-4.2Zm-5.9,4.06c1,1,2.13.94,2.63-.25s-.24-10.28-.32-11.63c-.06-.89,0-1.72.28-1.92.46-.57.49-.68-.23-1.81l-.11-.18a11.51,11.51,0,0,1-.65-1.25c-.48-1.06-.63-1.07-.87-.63-.73,1.37-.09,2,.07,3.41.36,3.24.46,8.31.75,11.68.06.85,0,1.46-.79,1.09-1-.48-1.88-1.94-2.42-2.77l-.25-.37c-.27-.42,0-.35.37-.38h.11c.43,0,.86,0,1.29,0a.83.83,0,0,0,.39-.35l.43-.56a.37.37,0,0,0,0-.34.36.36,0,0,0-.27-.21c-.88-.15-1.75-.32-2.61-.53a14.22,14.22,0,0,1-3-.94,18.58,18.58,0,0,0-2.93-.77,2.1,2.1,0,0,0-2,.31,5.25,5.25,0,0,0-1.5,1.75.18.18,0,0,0,.08.22.21.21,0,0,0,.24,0c.34-.21.69-.41,1-.6a1.91,1.91,0,0,1,1.32-.28,8.44,8.44,0,0,1,3.33,1,.37.37,0,0,1,.12.34.38.38,0,0,1-.23.29,19.8,19.8,0,0,0-3.58.66,2.75,2.75,0,0,0-1.32,1l-1.07,1.78-.29.31a.6.6,0,0,1-.75,0,1.76,1.76,0,0,1-.86-1q-1.29-3.6-2.83-7.09a13.35,13.35,0,0,0-2.43-3.78.29.29,0,0,0-.26-.11.28.28,0,0,0-.21.18l-.18.73a1.57,1.57,0,0,0,.18.95,34.56,34.56,0,0,1,3.76,7.27.56.56,0,0,1-.11.7,12.77,12.77,0,0,1-3.33,2.83,2.5,2.5,0,0,1-2.68-.07,2.36,2.36,0,0,1-.9-2.27,8.41,8.41,0,0,1,1.11-3.11.26.26,0,0,0-.14-.25.28.28,0,0,0-.29,0,9.73,9.73,0,0,0-1.32,3.11,5.47,5.47,0,0,0,.14,3.46,2.39,2.39,0,0,0,2.65,1.18A5.21,5.21,0,0,0,107.7,72c.82-.7,1.6-1.43,2.36-2.2a.44.44,0,0,1,.35-.18.47.47,0,0,1,.37.14q.42.92.78,1.86a1.3,1.3,0,0,0,1.15.94,1.68,1.68,0,0,0,1.11-.56l.43-.63a.5.5,0,0,1,.34-.18.53.53,0,0,1,.37.11l2.33,1.3a.59.59,0,0,0,.68-.18l.57-1.05a1.72,1.72,0,0,0,.25-.94l-.1-1.47a.44.44,0,0,1,.25-.52l3.36-.59c.67-.12.69-.08.92.37l.49,1a15.35,15.35,0,0,0,1.92,3.39Zm-7.91-3.73v1.47a.3.3,0,0,1-.36.21l-1.64-.91a.36.36,0,0,1,.14-.63l1.5-.42a.26.26,0,0,1,.29,0,.24.24,0,0,1,.07.27Z"/><path class="cls-11" d="M55,33.6a5.73,5.73,0,0,0-.89-1.31c-.51-.13-.45.43-.66.79s.15.63.28.91A24.91,24.91,0,0,1,54,37c0,.68.21,1.1.19,1.89a.76.76,0,0,1-.69.19c-2-.37-3.76,1.15-4.83,2.77a1,1,0,0,1-1.1-.47,2.05,2.05,0,0,1,0-1.54c.4-.61.89-1.3,1.32-2,.17-.41.63-.81.37-1.24-2.17.11-3.84-1.27-5.75-1.9A1.94,1.94,0,0,0,42,35a2.22,2.22,0,0,0-1.14,2.08c.06.12.11.12.22,0s.3-.38.46-.61c1.2-1.21,2.57.19,3.71.61-1.6.63-3.38,1.4-5.17.82-1.48-.5-1-3-2.78-2.85a4.07,4.07,0,0,0-2,1.78,2.73,2.73,0,0,0-.22,1.22c.06.19.13.39-.08.53a7,7,0,0,0-3.17,1.55c-.63.54-1.19,1.47-2.09,1.59-.44-.16-.58-.61-.65-1.14.36-1.87,2.11-2.68,3.31-4,.1-.14,0-.32-.24-.23a11.62,11.62,0,0,0-2.49,2A4.45,4.45,0,0,0,28.37,41a2.6,2.6,0,0,0,.39,1.88,1,1,0,0,0,1.15.2,14,14,0,0,0,2.33-2,3.67,3.67,0,0,1,1.53-.86A5.43,5.43,0,0,1,38.3,41c.47.09.63-.67.63-1-.26-1.26-1.68-1.24-2.49-2-.21-.23-.54-.43-.58-.72a2.85,2.85,0,0,1,1.5-.93c.53.09.76.7.94,1.11s.59.93.76,1.26c1.12,1.29,3.14.64,4.51.23a20.12,20.12,0,0,0,2.12-.75c1.09-.79,1.67-.31,2.47-.38l.11.13a7.79,7.79,0,0,0-1,1.34,4,4,0,0,0-.58,3,1.71,1.71,0,0,0,.92.9,1.46,1.46,0,0,0,1.59-.54,4.2,4.2,0,0,1,2.66-2.13c.85-.26,1.79,0,2.6-.24a1,1,0,0,0,.64-1.16c0-.43-.23-3-.34-3.75s-.33-1,.17-1.76Z"/><path class="cls-11" d="M79.21,32.47a.28.28,0,0,0-.29-.13c-.32.18-.37.58-.53.9.14.81.28,1.76.42,2.65.15,1.1,0,2.25.27,3.38a1.72,1.72,0,0,1-.93.59,10.41,10.41,0,0,0-2.48.29c-1.27.12-2,1.47-3.13,2a1,1,0,0,1-1-.23,1.37,1.37,0,0,1-.35-1.38,29,29,0,0,1,1.9-2.71c.76-.56,1.78-.38,2.63-.7.44-.11,1,0,1.38-.27.12-.4.54-.81.16-1.22-2.28.46-3.47-2-5.67-1.62-.78.2-1,1.08-1.24,1.69,0,.14,0,.27.19.21.29-.34.67-.82,1.23-.62a4.11,4.11,0,0,1,1.91,1l-.13.12a9,9,0,0,1-3.4.72,2.19,2.19,0,0,1-1.79-.61c-.31-.34-.53-.81-1-.86-.3.2-.26.56-.4.81.06.43-.4.37-.65.59-1,.47-1.33-.59-2-1.06-.21-.14-.25,0-.36,0-.06.42-.51.92-.13,1.31s1,1,1.06,1.71a4.44,4.44,0,0,1-2.67,1.85,2.4,2.4,0,0,1-1.69,0,2.2,2.2,0,0,1-1-.7A2.48,2.48,0,0,1,59,38.05c.16-.67.57-1.26.74-1.9,0-.13-.11-.29-.29-.13a6.14,6.14,0,0,0-1.33,2.78A3,3,0,0,0,59,41.74a3.57,3.57,0,0,0,3.4.56c1.57-.63,3.45-1.87,3.48-3.86A8.18,8.18,0,0,0,67.06,38a2.58,2.58,0,0,0,.18.31c.58.53.68.86,1.24,1.18s.44-.68.68-1c.11-.15.56.12,1.37-.08A4.62,4.62,0,0,1,72,38.26a13.47,13.47,0,0,0-1.59,2.28,2.35,2.35,0,0,0,.07,2.23,2.07,2.07,0,0,0,1.11.77A1.79,1.79,0,0,0,73.29,43c1.33-1.65,3-1.67,5-1.78a1.81,1.81,0,0,0,1.42-1.13,5.61,5.61,0,0,0,.17-2.83c0-.49-.19-1.26.15-1.65a1.38,1.38,0,0,0,.18-1.26c-.36-.34-.41-.81-.69-1.11,0-.31-.37-.45-.3-.77Z"/><path class="cls-11" d="M93.91,34.75a.52.52,0,0,0-.45-.15c-.28.15-.14.47-.35.67,0,.39-.2.64-.13,1a2.67,2.67,0,0,1,.49,1.13A9.47,9.47,0,0,1,94.05,39c.21.41-.14.61-.36.88a1.79,1.79,0,0,1-1.26-.11,1.71,1.71,0,0,1-.71-.89,21.14,21.14,0,0,0-.59-3.2c0-.36-.14-.82-.41-.77-.48.11-.46.54-.55,1,0,1.08.27,2.16.27,3.31,0,.5-.73.82-1.26.89a1.16,1.16,0,0,1-.87-.62,34.84,34.84,0,0,1-.47-4.11c-.08-.34-.37-.43-.7-.4a1.86,1.86,0,0,0-.81,1.17c-.28,1.29-.18,1.56-.4,3.19-.13,1,0,1.53-1.24,1.62-.83-.22-.87-1.26-1-2.26,0-.22-.2-.69-.28-.42a3.81,3.81,0,0,0-.22,1.67c.14.81.25,2.6,1.56,2.37,2.12-.5,1.72-3.09,1.86-5.1.08-.3.24-.5.46-.37.31,1.15,0,2.58.42,3.78a1.9,1.9,0,0,0,1.73.9A2.82,2.82,0,0,0,91.05,40a2.22,2.22,0,0,0,1.47,1.52c.77.27,1.32-.23,1.83-.62.82-1,.4-2.32.17-3.5.63-.95-.28-1.83-.61-2.69Z"/><path class="cls-11" d="M32.74,32.15c-.07-.11-.14-.24-.29-.15-.87,1,.19,2,0,3.09a.84.84,0,0,1-.75.19,1.35,1.35,0,0,0-.86.18c-.17.13-.16.29,0,.29.88,0,1.79.58,2.73.14a1.62,1.62,0,0,0,1.11-1.61.72.72,0,0,0-.64-.61c-.53,0-.7.25-1,.59-.16-.7-.13-1.4-.35-2.11Z"/><path class="cls-11" d="M47.33,31.27c-.33-.4-.54.21-.74.35s-.28-.08-.5-.23c-1.09-.05-1.35,1-2.24,1.51-.44.12-.86.3-.73.55a2.48,2.48,0,0,0,.78-.14,11.66,11.66,0,0,0,1.37-.66c.33-.43.71.07,1.15.05.64-.16.83-.93.91-1.43Z"/><path class="cls-11" d="M42.57,41.4c-.1-.55-.77-.59-1.13-.89-.51.05-.53.55-.84.82-.44,0-.79-.45-1.2-.52-.45.25-.47.77-.72,1.17.17.27.47.32.78.41s.61.27.93-.16c.47-.83.88.34,1.52.07.33-.14.48-.65.66-.9Z"/><path class="cls-11" d="M112.16,40.7c.07-.14,0-.18-.21-.09,0,0-2.45,1.31-2.78,1.53a1.36,1.36,0,0,0-.61,1.09c0,.16.15.13.25.09l2.82-1.5a2.59,2.59,0,0,0,.53-1.12Z"/><path class="cls-11" d="M35.82,40.79c0-.07,0-.14-.07-.1-.89.26-1.94,1-3,1.34a1.57,1.57,0,0,0-.45,1c0,.29,2.09-.88,3.08-1.38.33-.14.28-.59.4-.88Z"/><path class="cls-11" d="M52.11,33.38c-.63-.05-.12.94-.5,1.35-.75,0-.3-.86-.7-1.17a.28.28,0,0,0-.27.11c-.39.36.26,1.53-.54,1.36s-.18-.79-.52-1.07c-.45-.09-.36.36-.42.66,0,.56-.07,1.17.53,1.47a1,1,0,0,0,.88-.12c.48-.79.66.09,1.14-.18.5-.07.62-.52.7-.85a4,4,0,0,0-.07-1.27c0-.14-.13-.29-.23-.29Z"/><path class="cls-11" d="M72.65,31.25c-.15-.67-1-.41-1.51-.41a1.74,1.74,0,0,0-1.35.87c-.1.29.08.35.3.35.39.07,1-.4,1.23-.08a2.88,2.88,0,0,1-1.65.92c-.23.05-.29.27-.1.41.36.25,1.28-.2,1.46-.3a3.65,3.65,0,0,0,1.62-1.76Z"/><path class="cls-11" d="M61.51,32.67a2.6,2.6,0,0,0-.24-.29.25.25,0,0,0-.4.11c-.07.12-.1.25-.16.37s-.06.4,0,.45a3,3,0,0,1,.85,1.15c.11.23.14.56.39.63.52-.34.56-1,1-1.42.26.11.34-.14.41-.34s.18-.52-.07-.74c-.74-.21-.86.86-1.21,1.28a.75.75,0,0,0-.07-.25,6.26,6.26,0,0,0-.55-.95Z"/><path class="cls-11" d="M107.57,32.13c-.56-.7-1.84-.49-2.5,0a1.84,1.84,0,0,0-.28.79c0,.12.18.12.33,0a1.45,1.45,0,0,1,1.42-.18c-.29.34-.81.61-1.16,1-.09.2-.07.27.21.29a2.79,2.79,0,0,0,2-2Z"/><path class="cls-11" d="M40.06,32.22a1.42,1.42,0,0,0-.58-.31,2.61,2.61,0,0,0-1.75.16.55.55,0,0,0-.33.72c.35.27,1.37-.39,1.82,0a2.73,2.73,0,0,1-1.76.86c-.21.13-.06.31.14.36s1.1-.23,1.4-.4a2.6,2.6,0,0,0,.9-1c.09-.14.2-.32.16-.46Z"/><path class="cls-11" d="M87.51,41.33c0-.11-.11-.09-.18,0-.33.5-.91.84-1.29,1.31S85,43.27,85,44c0,.38.2.33.39.11.8-.81,2.33-1.47,2.16-2.78Z"/><path class="cls-11" d="M77.64,32.13c-.06-.11-.13-.11-.24-.11-.33.09-.16.81-.19,1.38,0,.14-.12.18-.22.16-.26-.16-.23-.34-.23-.63s-.05-.59-.42-.43c-.15.13-.12.33-.15.49s0,.45-.07.54,0,.14-.18.16c-.51-.06-.16-.67-.27-1a.1.1,0,0,0-.15,0,2.15,2.15,0,0,0-.31.86,1.56,1.56,0,0,0,.22,1.29c.33.23.71-.18,1-.43a.56.56,0,0,0,.65.3c.45-.1.65-.79.73-1.24a2.92,2.92,0,0,0-.15-1.32Z"/><path class="cls-11" d="M82,32.52a1.66,1.66,0,0,0-.73,1.13,11.83,11.83,0,0,0,.14,2.78c0,.36.11,3.07.15,5.28,0,.2-.07.39.17.52L82,42a13.41,13.41,0,0,0,.31-1.67c0-.09,0-1.72.07-3.48a2.54,2.54,0,0,0,0-.68l.49-.85c.06-.79-.26-1.27-.8-2.78Z"/><path class="cls-11" d="M56.79,32.93c-.51-.35-.76.49-.8.78.13,1.59.32,3.17.39,5a7.76,7.76,0,0,1-.21,2.93c0,.27.18.3.29.16a4.77,4.77,0,0,0,.88-2.19,16.3,16.3,0,0,0-.12-2.21A2,2,0,0,1,57.37,36a2.19,2.19,0,0,0,.36-.83,1.4,1.4,0,0,0-.24-1,2.77,2.77,0,0,1-.7-1.33Z"/><path class="cls-11" d="M62.19,38.51c.19-.7-.68-.62-1.09-.95a.23.23,0,0,0-.22,0,2,2,0,0,0-.44,1.13,1.47,1.47,0,0,0,1.34.54,1.32,1.32,0,0,0,.41-.76Z"/><path class="cls-11" d="M110.6,40.34c-.37-.19-.58-.61-1-.75a2.81,2.81,0,0,0-.79,1.08c.14.37.69.5.93.79.39-.09.7-.7.82-1.12Z"/><path class="cls-11" d="M85.69,33.33s-.08,0-.14,0a2.34,2.34,0,0,0-1,2.22.68.68,0,0,0,.8.38A1,1,0,0,0,86,35a.42.42,0,0,0-.22-.48c-.26-.09-.4.23-.58.12,0-.2.07-.29.22-.47.28-.39.38-.46.25-.82Z"/><path class="cls-11" d="M67.37,31.18a3,3,0,0,0-.32-.47c-.59,0-.54.79-.61,1.13A4,4,0,0,1,67,34.75s0,0,.11,0c.81-.88.68-2.6.29-3.57Z"/><path class="cls-11" d="M33.71,34.84c0-.11,0-.18-.23-.17s-.23.09-.29.31a.53.53,0,0,0,.52-.14Z"/><path class="cls-11" d="M100,41.13a4,4,0,0,1,4.08-.07,1.47,1.47,0,0,0,.62.34,1.65,1.65,0,0,0,.39-1.32,6,6,0,0,0-1.83-.81c-.52-.18-1.13-.36-1.1-1a2.33,2.33,0,0,1,1.59-.63c1,.14.13.89.47,1.43s1.53.38,2.07.13a2.11,2.11,0,0,0,1.69,0,2.21,2.21,0,0,0,1.17.13c1.08-.11,1.41-1,1.48-1.91a32.15,32.15,0,0,0-1-3.12c-.18-.54.38-1.07-.09-1.56-.46-.25-.64-.81-1.08-1a4.64,4.64,0,0,0-.53,1.24c.11.21.14.27.29.61a23.2,23.2,0,0,1,1.49,4,1,1,0,0,1-.92.38c-.42-.07-.26-.52-.28-.79-.11-.05-.14-.21-.29-.16-.41,0-.37.47-.47.72a.85.85,0,0,1-.82.3c-.29-.11,0-.3,0-.48s-.13-.4-.37-.33c-.49.08-.4.61-.61.9a1.42,1.42,0,0,1-1-.23c-.24-.38.26-.54.2-.88-.35-.7-1.21-.7-1.91-.59-1,.41-1.64.88-1.82,1.63a2.77,2.77,0,0,0,0,1.15,18.86,18.86,0,0,0-1.72.9c-.87.5-1.53,1.65-2.55,1.47-.4,0-.81-.74-.71-1.4a7.38,7.38,0,0,1,3-3.21,11.67,11.67,0,0,1,.09,2.18c0,.27-.09.58,0,.78s.22-.11.33-.18a6.88,6.88,0,0,0,.48-3.2c0-1-.57-2.42.25-2.72.44-.24-.27-1-.51-1.71a2.07,2.07,0,0,0-.62-1,2.06,2.06,0,0,0-.55,1.18,3.54,3.54,0,0,0,.08,1.31,11.33,11.33,0,0,1,.34,2.82c-1.47,1-3.1,2.26-3.66,4a2.16,2.16,0,0,0,.47,2.19,1.61,1.61,0,0,0,1.42.36c1.75-.56,1.43-1.2,2.48-1.87Z"/><path class="cls-11" d="M99,43a.81.81,0,0,0-.49.57c-.06.15,0,.47.18.41l3.54-2.15a1.45,1.45,0,0,0,.4-.73c0-.22-.14-.24-.34-.13L99,43Z"/><path class="cls-11" d="M52.44,31.21c.14-.14,0-.28-.18-.18a29.63,29.63,0,0,0-3.62,1.78,1.25,1.25,0,0,0-.37.95.78.78,0,0,0,.33,0c.3-.07,2.78-1.4,3.32-1.61a2,2,0,0,0,.52-.9Z"/><path class="cls-11" d="M77.86,30.58c.14-.16,0-.3-.18-.19a31.89,31.89,0,0,0-3.62,1.77,1.28,1.28,0,0,0-.37,1,.9.9,0,0,0,.33,0c.31-.07,2.78-1.4,3.31-1.62a2,2,0,0,0,.53-.88Z"/><path class="cls-11" d="M46.34,40.34c0-.07,0-.14-.07-.1-.89.27-1.94,1-3,1.34a1.5,1.5,0,0,0-.45,1c0,.28,2.09-.88,3.07-1.39.34-.14.29-.59.41-.88Z"/><path class="cls-11" d="M66.51,41.22c0-.07,0-.14-.07-.1-.89.28-1.94,1-3,1.34a1.57,1.57,0,0,0-.45,1c0,.29,2.09-.87,3.08-1.38.33-.14.28-.59.4-.88Z"/><path class="cls-11" d="M97.3,33.13c.1-.11,0-.27-.15-.14A4.21,4.21,0,0,0,96,34c-.18.32-.33,1,.11,1.24a1.37,1.37,0,0,0,.94-.11,1.57,1.57,0,0,0,.59-.95c-.25-.34-.54.09-.83,0-.18-.34.26-.74.47-1.08Z"/><path class="cls-11" d="M91.85,32.83c-.09-.25,0-.67-.37-.74-.31.13-.28.7-.11,1.1,0,.19-.18.18-.32.14-.25-.32,0-.88-.44-1a.31.31,0,0,0-.22,0c-.25.18-.17.69,0,1-.11.2-.39.21-.61.16-.49-.25,0-.66,0-1a.19.19,0,0,0-.26-.09,1.67,1.67,0,0,0-.38,1.42.6.6,0,0,0,.38.41c.76.25.86-.45,1.13-.22a.68.68,0,0,0,.28.16.88.88,0,0,0,.63-.21,1.14,1.14,0,0,0,.32-1.11Z"/><path class="cls-11" d="M90.64,29.78a1.85,1.85,0,0,0-.2-.27.94.94,0,0,0-.37.68,2.29,2.29,0,0,1,.25,1.74c0,.11.11.09.14.05a2.3,2.3,0,0,0,.18-2.2Z"/></g></g></g></svg>