<svg xmlns="http://www.w3.org/2000/svg" xmlns:xlink="http://www.w3.org/1999/xlink" viewBox="0 0 735 852"><defs><style>.cls-1,.cls-8{fill:none;}.cls-2{fill:#dea449;}.cls-3{clip-path:url(#clip-path);}.cls-4{fill:#c20074;}.cls-5,.cls-9{fill:#ffc800;}.cls-6{fill:#9b6f00;}.cls-7{fill:#0e0456;}.cls-8{stroke:#9b6f00;stroke-miterlimit:10;stroke-width:3px;}.cls-9{font-size:110px;font-family:MedievalSharp;}</style><clipPath id="clip-path"><polygon class="cls-1" points="369.6 7 728.3 214.1 728.3 636.3 369.6 844.7 2.9 636.3 2.9 214.1 369.6 7"/></clipPath></defs><title>scriptuRs</title><g id="Layer_1" data-name="Layer 1"><path class="cls-2" d="M168.2,672.6l.9-.9h-.3Z"/><g class="cls-3"><circle class="cls-4" cx="365.6" cy="437.1" r="442.1"/></g><path class="cls-5" d="M705.7,195.8,427.9,35.5,367.6.6,307.3,35.5,29.5,195.9.2,212.8V637l29.3,16.9L310.7,816.3l56.9,32.8,56.9-32.8L705.7,653.9,735,637V212.8Zm0,425.3L367.6,816.3,29.5,621.1V230.7L367.6,35.5h0L705.7,230.7Z"/><path class="cls-2" d="M367.1,603.9l.9-.9h-.3Z"/></g><g id="Layer_4" data-name="Layer 4"><rect class="cls-6" x="158.97" y="244.08" width="181.36" height="220.47" transform="translate(-50.62 41.74) rotate(-8.68)"/><polygon points="356.05 209.4 399.12 491.45 183.87 524.31 185.37 534.17 410.48 499.8 365.91 207.89 356.05 209.4"/><path d="M118.07,225.55l44.57,291.91,225.1-34.37L343.18,191.18Zm187.34,97.94-36.52,5.58L283,421.29l-29.82,4.55-14.08-92.22-36.52,5.58L198,309.38l36.52-5.57-5.49-36,29.81-4.56,5.5,36,36.52-5.57Z"/><polygon points="162.64 517.46 185.37 534.17 183.87 524.31 172.5 515.95 162.64 517.46"/><polygon class="cls-7" points="610.26 274.86 567.72 556.98 352.42 524.52 350.93 534.38 576.1 568.33 620.13 276.34 610.26 274.86"/><rect class="cls-7" x="321.13" y="268.8" width="295.29" height="227.71" transform="translate(20.5 789.14) rotate(-81.43)"/><polygon class="cls-7" points="334.18 511.68 350.93 534.38 352.42 524.52 344.04 513.17 334.18 511.68"/><path class="cls-6" d="M472.1,290.92a6.23,6.23,0,0,0-.49-2.54c-.37-.69-.74-.93-2.7-1.23l-1.9-.29-2,13c-.31,2.09-.14,2.39,2.42,2.92l-.14.88-7.86-1.18.14-.89c2.51.24,2.79,0,3.11-2.08l2-13-1.74-.26c-2.09-.32-2.66-.18-3.1.35a7.65,7.65,0,0,0-1.22,2.29l-.94-.14c.38-1.65.78-3.37,1.06-4.86l.62.09c.33.68.65.78,1.4.9l10.62,1.6a1.35,1.35,0,0,0,1.44-.47l.68.1c-.19,1.26-.36,3.27-.46,4.84Z"/><path class="cls-6" d="M494.05,290.78c-2.28-.16-2.51-.08-2.85,2.15l-1.61,10.67c-.34,2.23-.11,2.37,2.07,2.87l-.14.88-7.35-1.11.13-.88c2.39.19,2.62.12,3-2.11l.79-5.23-9.15-1.38-.79,5.23c-.33,2.2-.11,2.37,2.09,2.87l-.13.88-7.22-1.08.13-.89c2.23.17,2.46.1,2.79-2.13l1.61-10.68c.34-2.22.14-2.36-2.11-2.9l.13-.85,7.16,1.08-.13.85c-2.12-.12-2.38,0-2.71,2.17l-.63,4.19,9.15,1.38.63-4.19c.33-2.2.13-2.36-2-2.87l.13-.86,7.16,1.08Z"/><path class="cls-6" d="M508.17,305.42c-.27.89-1.26,3.43-1.6,4.2l-13.17-2,.13-.85c2.5.18,2.74,0,3.07-2.17l1.59-10.52c.35-2.36.15-2.47-1.94-3l.13-.86,12.15,1.83c-.06.6-.2,2.47-.33,4l-.93,0a7.89,7.89,0,0,0-.53-2.44c-.24-.58-.94-.91-2.79-1.19l-2.14-.32c-.84-.12-.93-.06-1.05.72l-.89,6,2.52.38c2.41.36,2.58.19,3.2-1.58l.88.14-.78,5.2-.89-.13c-.08-2-.25-2.13-2.59-2.48l-2.52-.38-.74,4.91c-.19,1.26-.09,1.88.35,2.27a6,6,0,0,0,2.73.77c1.94.29,2.8.21,3.49-.38a7.65,7.65,0,0,0,1.75-2.34Z"/><path class="cls-6" d="M451.44,317.84c2.51.82,4.41,2.29,4,5a4.54,4.54,0,0,1-3.19,3.67,11,11,0,0,1-5.48.3l-6.06-.92.13-.88c2.39.19,2.55.05,2.88-2.15l1.6-10.65c.34-2.2.28-2.37-1.9-2.86l.13-.86,7.06,1.06a6.75,6.75,0,0,1,3.91,1.52,3.68,3.68,0,0,1,1,3.29c-.38,2.52-2.65,3.25-4.11,3.44Zm-5.39,5.36c-.28,1.88.13,2.47,1.9,2.73,2.2.31,4.35-.47,4.77-3.26s-1.38-4.16-4.6-4.64l-1.26-.19Zm2.28-6.18c2.87.43,4.33-.5,4.66-2.73.28-1.82-.54-3.51-3.06-3.89a3.23,3.23,0,0,0-1.6.06c-.26.12-.42.4-.54,1.24l-.77,5.12Z"/><path class="cls-6" d="M476.74,322.18c-.87,5.82-5.51,8.72-10.47,8a8.82,8.82,0,0,1-7.45-10.29A9.08,9.08,0,0,1,469.34,312,8.78,8.78,0,0,1,476.74,322.18Zm-15-2.62c-.75,5,1.52,9,5.27,9.6,3,.45,6-1.56,6.78-6.71.84-5.64-1.72-9-5.18-9.51C465.64,312.49,462.5,314.54,461.75,319.56Z"/><path class="cls-6" d="M497.56,325.32c-.87,5.82-5.51,8.72-10.47,8A8.82,8.82,0,0,1,479.64,323a9.08,9.08,0,0,1,10.52-7.91A8.78,8.78,0,0,1,497.56,325.32Zm-15-2.62c-.75,5,1.52,9,5.27,9.6,3,.45,6-1.56,6.78-6.71.85-5.64-1.72-9-5.18-9.51C486.46,315.63,483.32,317.68,482.57,322.7Z"/><path class="cls-6" d="M511.19,336.51c-1.67-2.56-3.37-5.47-5.43-8.78-.55-.87-.94-1-1.44-1l-.76,5c-.34,2.3-.1,2.5,2.13,3l-.13.89-7.14-1.08.13-.88c2.12.15,2.36,0,2.71-2.28L502.82,321c.36-2.39.17-2.56-2-3.05l.13-.86,7.11,1.07-.13.86c-2.14-.16-2.44,0-2.79,2.32l-.69,4.56a4.25,4.25,0,0,0,2.15-.94,50.37,50.37,0,0,0,5.07-4c.86-.77.9-1-.24-1.35l-.63-.18.13-.85,6.65,1-.12.86a6.15,6.15,0,0,0-4.73,1.29c-1.16.78-3.32,2.4-5.36,3.91,1.63,2.82,4,6.59,5.18,8.24s1.73,2,3,2.32l-.14.88Z"/><path class="cls-6" d="M477,348.4c-.88,5.82-5.51,8.72-10.48,8A8.82,8.82,0,0,1,459,346.08a9.07,9.07,0,0,1,10.52-7.9A8.77,8.77,0,0,1,477,348.4Zm-15-2.61c-.75,5,1.52,9,5.28,9.6,2.95.44,6-1.57,6.77-6.72.85-5.63-1.72-9-5.18-9.5C465.84,338.72,462.71,340.77,462,345.79Z"/><path class="cls-6" d="M491.19,346.08a5.45,5.45,0,0,0-.45-2.32c-.32-.76-.88-1.07-2.79-1.35l-2.12-.32c-.8-.12-.89-.08-1,.72l-.94,6.23,2.71.4c2.44.37,2.58.17,3.22-1.54l.89.13-.8,5.29-.91-.14c-.07-1.93-.13-2.21-2.57-2.58l-2.71-.41-.72,4.72c-.34,2.28-.14,2.45,2.35,3l-.13.89-7.49-1.13.14-.89c2.19.17,2.43.07,2.78-2.21L482.22,344c.35-2.28.15-2.44-1.92-2.92l.13-.86,12,1.81c-.15,1-.27,2.71-.34,4.07Z"/><path class="cls-6" d="M423.39,375.66l.14-.89c2.25.15,2.35,0,2.76-2.85l1.55-10.82-.11,0L419,374.77l-.61-.09-3.83-15.18h-.06L413,367.06c-.45,2.26-.64,3.33-.74,4.36-.14,1.24.51,1.53,2.28,2l-.14.91-6.44-1,.14-.91c1.58.08,2.16-.11,2.52-1.24.27-.86.63-2,1.25-4.8l1.23-5.47c.75-3.34.6-3.42-1.8-4l.12-.86,4.57.69,4,14.13,8.19-12.29,4.72.72-.13.85c-2.39-.14-2.58-.14-2.92,2.64l-1.16,9.53c-.36,2.89-.3,3,2,3.57l-.13.89Z"/><path class="cls-6" d="M451.68,370.79c-.88,5.82-5.51,8.71-10.48,8a8.83,8.83,0,0,1-7.45-10.28,9.09,9.09,0,0,1,10.53-7.91A8.79,8.79,0,0,1,451.68,370.79Zm-15-2.62c-.75,5,1.52,9,5.27,9.6,2.95.45,6-1.56,6.78-6.72.85-5.63-1.72-9-5.18-9.5C440.57,361.1,437.44,363.15,436.68,368.17Z"/><path class="cls-6" d="M468.38,382.66l-1-.18a5,5,0,0,1-3.95-3.1c-.75-1.43-1.46-3.26-2-4.67-.35-.79-.75-1.18-2.18-1.39l-.88-.14-.62,4.13c-.34,2.26-.12,2.43,2,2.92l-.14.88L452.37,380l.14-.89c2.27.18,2.51.08,2.85-2.17l1.6-10.6c.34-2.28.14-2.39-1.95-2.9l.13-.86,6.78,1a7.67,7.67,0,0,1,4.16,1.54,4,4,0,0,1,1.29,3.81c-.35,2.31-1.95,3.52-4.07,4.11.32.92,1.18,2.86,1.8,4.19a21.73,21.73,0,0,0,1.71,3.06,4.31,4.31,0,0,0,1.8,1.53Zm-8.63-10.25a4.61,4.61,0,0,0,3.07-.33,3.88,3.88,0,0,0,1.94-3.05c.43-2.87-1.37-4.19-3.38-4.49a2.54,2.54,0,0,0-1.5.08c-.24.12-.37.43-.47,1.1l-1,6.5Z"/><path class="cls-6" d="M484.51,384.87l.14-.88c2.25.15,2.35,0,2.76-2.85L489,370.32l-.11,0L480.09,384l-.62-.1-3.83-15.17h-.05l-1.53,7.56c-.45,2.27-.63,3.34-.73,4.36-.14,1.25.51,1.54,2.28,2l-.14.91-6.44-1,.14-.91c1.58.07,2.16-.12,2.52-1.24.27-.87.63-2,1.24-4.81l1.24-5.46c.75-3.35.6-3.43-1.81-4l.13-.85,4.56.68,4.05,14.14,8.19-12.29,4.72.71-.13.86c-2.39-.14-2.58-.14-2.92,2.63l-1.16,9.54c-.36,2.88-.3,3,2,3.57l-.14.88Z"/><path class="cls-6" d="M512.8,380c-.88,5.82-5.52,8.72-10.48,8a8.83,8.83,0,0,1-7.45-10.29,9.08,9.08,0,0,1,10.52-7.9A8.78,8.78,0,0,1,512.8,380Zm-15-2.62c-.75,5,1.52,9,5.27,9.61,2.95.44,6-1.57,6.78-6.72.85-5.63-1.72-9-5.18-9.51C501.69,370.31,498.55,372.37,497.8,377.38Z"/><path class="cls-6" d="M534.58,375.47c-1.54-.15-2.26.09-2.56,1.17a37.33,37.33,0,0,0-.86,4.57l-1.61,10.7-.94-.14-9.27-15.64h-.06l-1,6.55a44,44,0,0,0-.52,4.53c-.07,1.33.52,1.78,2.36,2.14l-.13.88-6.57-1,.13-.88c1.54.15,2.32-.09,2.64-1.33a38.68,38.68,0,0,0,.88-4.53l.88-5.82c.29-1.94.25-2-.17-2.75s-1-1-2.27-1.33l.13-.85,4.08.61,9.15,15H529l1-6.36a39.87,39.87,0,0,0,.49-4.53c0-1.18-.58-1.63-2.44-2l.13-.86,6.6,1Z"/><line class="cls-8" x1="398.73" y1="255.16" x2="575.65" y2="281.83"/><line class="cls-8" x1="378.69" y1="388.05" x2="555.62" y2="414.72"/><text class="cls-9" transform="translate(129 664.46)">scriptuRs</text></g></svg>