<svg xmlns="http://www.w3.org/2000/svg" xmlns:xlink="http://www.w3.org/1999/xlink" viewBox="0 0 141.91 164.24"><defs><style>.cls-1,.cls-8{fill:none;}.cls-2{fill:#dea449;}.cls-3{clip-path:url(#clip-path);}.cls-4{fill:#c20074;}.cls-5,.cls-9{fill:#ffc800;}.cls-6{fill:#9b6f00;}.cls-7{fill:#0e0456;}.cls-8{stroke:#9b6f00;stroke-miterlimit:10;stroke-width:0.5px;}.cls-9{font-size:21.21px;font-family:MedievalSharp;}</style><clipPath id="clip-path"><polygon class="cls-1" points="71.44 1.83 140.62 41.77 140.62 123.2 71.44 163.39 0.72 123.2 0.72 41.77 71.44 1.83"/></clipPath></defs><title>scriptuRs_small</title><g id="Layer_1" data-name="Layer 1"><path class="cls-2" d="M32.6,130.2l.17-.17h-.05Z"/><g class="cls-3"><circle class="cls-4" cx="70.67" cy="84.78" r="85.26"/></g><path class="cls-5" d="M136.26,38.25,82.68,7.33,71.06.6,59.43,7.33,5.85,38.26.2,41.52v81.81l5.65,3.26,54.23,31.32,11,6.33,11-6.33,54.23-31.32,5.65-3.26V41.52Zm0,82-65.2,37.64L5.85,120.27V45L71.06,7.33h0L136.26,45Z"/><path class="cls-2" d="M71,117l.17-.17h-.06Z"/></g><g id="Layer_4" data-name="Layer 4"><rect class="cls-6" x="30.82" y="47.56" width="34.98" height="42.52" transform="translate(-9.83 8.08) rotate(-8.68)"/><polygon points="68.83 40.87 77.13 95.26 35.62 101.6 35.91 103.5 79.33 96.87 70.73 40.58 68.83 40.87"/><path d="M22.93,44l8.6,56.3,43.41-6.63L66.35,37.36ZM59.06,62.87,52,64l2.71,17.78L49,82.61,46.27,64.83,39.22,65.9l-.87-5.75,7-1.07-1.06-6.95,5.75-.87,1.06,6.94,7-1.08Z"/><polygon points="31.53 100.28 35.91 103.5 35.62 101.6 33.43 99.99 31.53 100.28"/><polygon class="cls-7" points="117.86 53.49 109.65 107.9 68.13 101.64 67.84 103.54 111.27 110.09 119.76 53.78 117.86 53.49"/><rect class="cls-7" x="62.09" y="52.33" width="56.95" height="43.92" transform="translate(3.61 152.76) rotate(-81.43)"/><polygon class="cls-7" points="64.61 99.17 67.84 103.54 68.13 101.64 66.51 99.45 64.61 99.17"/><path class="cls-6" d="M91.19,56.56a1.3,1.3,0,0,0-.1-.49c-.07-.13-.14-.18-.52-.23l-.37-.06-.37,2.52c-.07.4,0,.46.46.56l0,.17-1.51-.23,0-.17c.49,0,.54,0,.61-.4l.37-2.52-.33-.05c-.41-.06-.52,0-.6.07a2,2,0,0,0-.24.44l-.18,0c.08-.32.15-.65.21-.94l.12,0c.06.13.12.15.27.17l2,.31a.26.26,0,0,0,.27-.09l.13,0c0,.24-.06.63-.08.93Z"/><path class="cls-6" d="M95.42,56.54c-.44,0-.49,0-.55.41L94.56,59c-.06.43,0,.46.4.55l0,.17-1.42-.21,0-.17c.46,0,.51,0,.57-.41l.15-1-1.76-.26-.16,1c-.06.42,0,.45.41.55l0,.17-1.39-.21,0-.17c.42,0,.47,0,.53-.41l.32-2.06c.06-.43,0-.46-.41-.56l0-.17L93.2,56l0,.17c-.41,0-.46,0-.52.42l-.13.8,1.77.27.12-.81c.06-.42,0-.45-.38-.55l0-.17,1.39.21Z"/><path class="cls-6" d="M98.14,59.36c0,.17-.24.66-.3.81l-2.55-.38,0-.17c.48,0,.53,0,.59-.42l.31-2c.07-.45,0-.47-.38-.57l0-.17,2.34.36c0,.11,0,.47-.06.77H98a1.59,1.59,0,0,0-.1-.48c-.05-.11-.18-.17-.54-.22l-.41-.07c-.17,0-.18,0-.21.14l-.17,1.15.49.08c.46.07.5,0,.62-.31l.17,0-.16,1-.17,0c0-.38,0-.4-.49-.47l-.49-.08-.14,1c0,.24,0,.36.06.44a1.25,1.25,0,0,0,.53.15c.37,0,.54,0,.67-.07a1.52,1.52,0,0,0,.34-.46Z"/><path class="cls-6" d="M87.2,61.76c.49.15.85.44.77,1a.87.87,0,0,1-.61.71,2,2,0,0,1-1.06,0l-1.17-.17,0-.17c.46,0,.49,0,.55-.42l.31-2c.07-.43.06-.46-.36-.55l0-.17,1.36.21a1.23,1.23,0,0,1,.76.29.74.74,0,0,1,.2.63.84.84,0,0,1-.8.67Zm-1,1c0,.36,0,.48.37.53a.73.73,0,0,0,.92-.63c.08-.53-.27-.8-.89-.9l-.24,0Zm.44-1.19c.56.08.84-.1.9-.53a.62.62,0,0,0-.59-.75.73.73,0,0,0-.31,0s-.08.08-.1.24l-.15,1Z"/><path class="cls-6" d="M92.08,62.59a1.72,1.72,0,0,1-2,1.54,1.69,1.69,0,0,1-1.43-2,1.75,1.75,0,0,1,2-1.53A1.69,1.69,0,0,1,92.08,62.59Zm-2.89-.5c-.14,1,.29,1.74,1,1.85.57.09,1.15-.3,1.3-1.29s-.33-1.74-1-1.84S89.34,61.12,89.19,62.09Z"/><path class="cls-6" d="M96.1,63.2a1.73,1.73,0,0,1-2,1.54,1.71,1.71,0,0,1-1.44-2,1.74,1.74,0,0,1,2-1.52A1.69,1.69,0,0,1,96.1,63.2Zm-2.89-.51c-.15,1,.29,1.75,1,1.86s1.16-.31,1.31-1.3-.33-1.73-1-1.83S93.35,61.73,93.21,62.69Z"/><path class="cls-6" d="M98.73,65.36c-.33-.5-.66-1.06-1-1.69-.11-.17-.18-.2-.28-.2l-.15,1c-.06.45,0,.49.41.58l0,.17L96.26,65l0-.18c.41,0,.45,0,.52-.43l.3-2c.07-.46,0-.49-.39-.59l0-.16,1.37.21,0,.16c-.41,0-.47,0-.53.45l-.14.88a1,1,0,0,0,.42-.18,11.11,11.11,0,0,0,1-.77c.16-.15.17-.2,0-.26l-.12,0,0-.16,1.29.19,0,.17a1.2,1.2,0,0,0-.91.25c-.22.15-.64.46-1,.75.31.55.77,1.27,1,1.59s.34.39.58.45l0,.17Z"/><path class="cls-6" d="M92.12,67.65a1.73,1.73,0,0,1-2,1.54,1.69,1.69,0,0,1-1.43-2,1.74,1.74,0,0,1,2-1.52A1.69,1.69,0,0,1,92.12,67.65Zm-2.89-.5c-.14.95.29,1.74,1,1.85.57.08,1.15-.3,1.3-1.3s-.33-1.73-1-1.83S89.38,66.18,89.23,67.15Z"/><path class="cls-6" d="M94.87,67.2a1.08,1.08,0,0,0-.09-.44c-.06-.15-.17-.21-.54-.27l-.4-.06c-.16,0-.18,0-.2.14l-.18,1.2.52.08c.47.07.5,0,.62-.3l.17,0-.15,1-.18,0c0-.37,0-.42-.49-.5L93.42,68l-.13.91c-.07.44,0,.47.45.57l0,.17-1.44-.21,0-.18c.42,0,.47,0,.53-.42l.31-2c.07-.44,0-.47-.37-.56l0-.17,2.32.35c0,.2,0,.53-.06.79Z"/><path class="cls-6" d="M81.79,72.91l0-.17c.43,0,.45,0,.53-.55l.3-2.09h0l-1.69,2.64-.12,0-.74-2.93h0l-.29,1.46a5.84,5.84,0,0,0-.14.84c0,.24.09.29.44.38l0,.17-1.24-.18,0-.18c.31,0,.42,0,.49-.24s.12-.39.24-.93l.24-1c.14-.64.11-.66-.35-.78l0-.16.87.13L81.13,72l1.58-2.37.92.13,0,.17c-.46,0-.5,0-.56.51l-.23,1.84c-.06.55,0,.58.39.68l0,.18Z"/><path class="cls-6" d="M87.25,72a1.74,1.74,0,1,1-3.46-.45,1.76,1.76,0,0,1,2-1.53A1.7,1.7,0,0,1,87.25,72Zm-2.9-.51c-.14,1,.3,1.75,1,1.85.57.09,1.16-.3,1.31-1.29s-.33-1.73-1-1.83S84.5,70.49,84.35,71.46Z"/><path class="cls-6" d="M90.47,74.26l-.2,0a1,1,0,0,1-.76-.59c-.15-.28-.28-.63-.4-.91s-.14-.22-.42-.27l-.17,0-.12.8c-.06.43,0,.46.39.56l0,.17-1.39-.21,0-.17c.44,0,.48,0,.55-.42l.31-2c.06-.44,0-.46-.38-.55l0-.17,1.31.2a1.45,1.45,0,0,1,.81.29.78.78,0,0,1,.24.74.94.94,0,0,1-.78.79c.06.18.23.55.35.81a3.16,3.16,0,0,0,.33.59.77.77,0,0,0,.34.3Zm-1.67-2a.93.93,0,0,0,.6-.06.75.75,0,0,0,.37-.59.71.71,0,0,0-.65-.87.47.47,0,0,0-.29,0s-.07.08-.09.21l-.19,1.25Z"/><path class="cls-6" d="M93.58,74.68l0-.17c.43,0,.45,0,.53-.55l.3-2.08h0l-1.69,2.64h-.12l-.74-2.93h0L91.57,73a8.15,8.15,0,0,0-.15.84c0,.24.1.29.44.38l0,.17-1.24-.19,0-.17c.31,0,.42,0,.49-.24s.12-.39.24-.93l.24-1c.14-.65.11-.66-.35-.78l0-.17.88.14.78,2.72,1.58-2.37.91.14,0,.17c-.46,0-.5,0-.56.5L94.6,74c-.07.56-.06.59.39.69l0,.17Z"/><path class="cls-6" d="M99,73.74a1.72,1.72,0,0,1-2,1.54,1.7,1.7,0,0,1-1.43-2,1.76,1.76,0,0,1,2-1.53A1.7,1.7,0,0,1,99,73.74Zm-2.9-.5c-.14,1,.3,1.74,1,1.85s1.16-.3,1.31-1.29-.33-1.74-1-1.84S96.29,72.27,96.14,73.24Z"/><path class="cls-6" d="M103.24,72.87c-.3,0-.44,0-.5.23a7.83,7.83,0,0,0-.16.88L102.27,76l-.18,0-1.79-3h0l-.19,1.26a7,7,0,0,0-.1.87c0,.26.1.35.45.42l0,.17-1.27-.19,0-.18c.3,0,.45,0,.51-.25a6.39,6.39,0,0,0,.17-.88L100,73.1c.06-.37,0-.39,0-.53s-.2-.2-.44-.25l0-.17.79.12,1.76,2.89h0l.18-1.23a6.89,6.89,0,0,0,.09-.87c0-.23-.11-.32-.47-.39l0-.17,1.27.19Z"/><line class="cls-8" x1="77.06" y1="49.69" x2="111.18" y2="54.84"/><line class="cls-8" x1="73.19" y1="75.32" x2="107.32" y2="80.47"/><text class="cls-9" transform="translate(25.04 128.63)">scriptuRs</text></g></svg>